<svg width="367" height="172" viewBox="0 0 367 172" fill="none" xmlns="http://www.w3.org/2000/svg">
<g clip-path="url(#clip0_1368_334)">
<path fill-rule="evenodd" clip-rule="evenodd" d="M122.121 105.43C122.121 101.3 118.774 97.9463 114.653 97.9463H7.96726C3.84522 97.9463 0.498657 101.3 0.498657 105.43V164.766C0.498657 168.897 3.84522 172.25 7.96726 172.25H114.653C118.774 172.25 122.121 168.897 122.121 164.766V105.43Z" fill="#8ABBB8"/>
<path fill-rule="evenodd" clip-rule="evenodd" d="M21.599 157.775H9.04778V166.669H21.599V157.775ZM67.0314 141.156H9.0188V153.775H67.0314V141.156ZM113.205 141.156H83.4277V153.775H113.205V141.156Z" fill="white"/>
<path d="M122.121 118.665H0.498657V136.123H122.121V118.665Z" fill="#242C2C"/>
<path fill-rule="evenodd" clip-rule="evenodd" d="M19.6077 148.974C19.5591 148.174 19.649 147.289 19.8269 146.464C20.1022 145.188 20.5993 144.063 21.0627 143.564C21.4636 143.134 21.9021 143.045 22.2675 143.168C22.7902 143.345 23.0991 143.814 23.1561 144.48C23.2379 145.436 22.7497 146.885 22.569 147.299C22.1503 148.256 21.6188 148.973 21.0069 149.537C21.0941 149.951 21.2432 150.306 21.5226 150.517C21.819 150.742 22.2437 150.76 22.8215 150.591C23.1277 150.502 23.7578 150.106 24.3692 149.618C24.2662 149.001 24.3749 148.342 24.6163 147.852C24.9883 147.098 25.6473 146.764 26.2595 146.971C26.675 147.111 26.9009 147.352 27.0176 147.613C27.1701 147.954 27.1403 148.41 26.8546 148.902C26.6631 149.232 26.3437 149.603 25.9661 149.966C26.1545 150.118 26.4316 150.192 26.8049 150.186C27.2676 150.177 27.9692 149.821 28.74 149.412C30.1112 148.685 31.6399 147.748 32.5352 147.505C33.3118 147.294 33.8087 147.55 34.0146 147.991C34.1753 148.334 34.3255 148.583 34.4806 148.748C34.5553 148.829 34.6199 148.885 34.6948 148.9C34.7951 148.918 34.8921 148.87 34.9979 148.821C35.1346 148.755 35.2741 148.667 35.4197 148.57C36.4295 147.898 37.6487 146.959 39.3141 147.527C40.0019 147.761 40.1895 148.398 40.0683 149.185C40.0339 149.41 39.9791 149.646 39.9451 149.864C39.94 149.898 39.9357 149.94 39.9329 149.979C40.0136 149.974 40.1026 149.959 40.1972 149.941C40.4526 149.895 40.7344 149.814 41.0191 149.725C41.6947 149.517 42.3855 149.284 42.8581 149.255C47.8703 148.928 52.9161 149.012 57.9226 148.583C58.2849 148.552 58.604 148.822 58.6349 149.185C58.666 149.548 58.397 149.867 58.0349 149.898C53.0194 150.329 47.9646 150.245 42.9433 150.572C42.4551 150.603 41.7031 150.912 41.0194 151.101C40.4009 151.275 39.8221 151.347 39.4263 151.245C38.7261 151.062 38.5167 150.443 38.6491 149.626C38.6799 149.436 38.7248 149.235 38.7574 149.04C38.7721 148.953 38.7791 148.826 38.7821 148.743C38.1771 148.573 37.6701 148.735 37.2245 148.973C36.8312 149.184 36.4779 149.451 36.148 149.671C35.5491 150.068 34.9834 150.296 34.4521 150.197C33.9708 150.106 33.434 149.747 32.9319 148.774C32.8449 148.794 32.731 148.824 32.6376 148.859C32.3263 148.976 31.9597 149.157 31.5639 149.367C30.2563 150.06 28.659 151.04 27.5839 151.369C27.3018 151.456 27.0469 151.501 26.8299 151.506C25.9463 151.522 25.3469 151.235 24.9527 150.824C24.2447 151.356 23.5392 151.758 23.188 151.859C22.089 152.179 21.2937 151.998 20.7301 151.572C20.3536 151.288 20.0714 150.877 19.8834 150.375C19.6965 150.489 19.505 150.596 19.3097 150.697C18.0994 151.321 16.7302 151.714 15.3939 152.387C15.0692 152.55 14.673 152.418 14.5098 152.093C14.3467 151.767 14.4779 151.37 14.8028 151.207C15.8813 150.664 16.9808 150.301 18.0029 149.855C18.5701 149.608 19.1127 149.334 19.6077 148.974ZM21.8491 144.706C21.6662 145.002 21.4939 145.409 21.3457 145.873C21.2581 146.147 21.1798 146.441 21.1146 146.743C21.0614 146.99 21.0164 147.243 20.9827 147.497C21.1197 147.276 21.2466 147.033 21.3627 146.768C21.4855 146.487 21.7987 145.604 21.8442 144.881C21.848 144.822 21.8498 144.763 21.8491 144.706Z" fill="#242C2C"/>
<path d="M366.583 97.9482H230.037V172.134H366.583V97.9482Z" fill="#E4E4E6"/>
<path fill-rule="evenodd" clip-rule="evenodd" d="M323.755 163.813C324.26 161.965 325.066 160.111 326.185 158.56C326.409 158.25 326.786 157.65 327.219 157.254C327.623 156.884 328.082 156.694 328.526 156.792C329.038 156.905 329.301 157.281 329.357 157.813C329.438 158.603 328.94 159.84 328.746 160.188C327.8 161.903 326.258 163.298 324.619 164.425C324.548 164.728 324.5 165.044 324.522 165.337C324.55 165.71 324.714 166.035 325.171 166.162C326.105 166.422 327.142 166.153 328.134 165.654C328.514 165.462 328.887 165.237 329.244 164.989C329.253 164.834 329.268 164.691 329.283 164.577C329.488 162.936 330.416 161.395 331.531 160.208C331.706 160.021 332.284 159.36 332.757 159.163C333.162 158.994 333.526 159.053 333.791 159.393C334.038 159.708 334.096 160.154 333.979 160.653C333.784 161.491 333.086 162.524 332.796 162.926C332.214 163.728 331.304 164.679 330.245 165.485C330.254 165.537 330.267 165.587 330.285 165.631C330.296 165.657 330.303 165.685 330.329 165.695C330.778 165.865 331.263 165.676 331.738 165.395C332.629 164.868 333.464 163.963 333.987 163.479C334.214 163.269 334.587 162.877 334.981 162.64C335.361 162.411 335.763 162.325 336.12 162.452C336.559 162.608 336.722 162.911 336.723 163.306C336.723 163.535 336.641 163.822 336.52 164.125C336.412 164.395 336.272 164.684 336.192 164.953C336.166 165.04 336.146 165.122 336.143 165.2C336.139 165.254 336.16 165.298 336.223 165.322C336.501 165.433 336.743 165.359 336.967 165.211C337.29 164.996 337.58 164.648 337.87 164.297C338.291 163.787 338.71 163.27 339.159 162.978C339.555 162.721 339.974 162.616 340.432 162.73C341.087 162.893 341.209 163.439 341.037 164.161C340.983 164.392 340.902 164.644 340.864 164.88C340.842 165.02 340.793 165.165 340.933 165.228C341.15 165.325 341.355 165.279 341.556 165.189C341.747 165.104 341.935 164.977 342.122 164.845C342.467 164.603 342.809 164.338 343.158 164.169C343.451 164.026 343.75 163.943 344.055 163.953C344.316 163.962 344.486 164.044 344.605 164.143C344.751 164.264 344.836 164.424 344.87 164.618C344.888 164.719 344.889 164.835 344.881 164.957C344.876 165.02 344.872 165.12 344.869 165.191C345.88 165.324 347.01 165.006 348.019 164.939C349.74 164.823 351.478 164.925 353.191 164.77C353.463 164.745 353.704 164.947 353.728 165.22C353.753 165.492 353.552 165.734 353.279 165.759C351.559 165.915 349.813 165.813 348.085 165.929C346.987 166.002 345.752 166.328 344.659 166.164C344.409 166.127 344.243 166.029 344.128 165.916C343.997 165.787 343.922 165.628 343.89 165.446C343.869 165.321 343.871 165.182 343.88 165.042C343.883 165.017 343.885 164.986 343.887 164.954C343.693 164.987 343.506 165.096 343.317 165.217C342.992 165.426 342.671 165.687 342.344 165.889C341.766 166.245 341.168 166.418 340.531 166.134C340.071 165.93 339.892 165.583 339.863 165.167C339.842 164.883 339.912 164.552 339.996 164.231C340.035 164.083 340.076 163.938 340.102 163.804C340.109 163.768 340.114 163.719 340.116 163.679C339.907 163.659 339.723 163.776 339.541 163.927C339.227 164.187 338.935 164.565 338.632 164.93C338.277 165.36 337.91 165.774 337.513 166.038C337.018 166.367 336.476 166.489 335.861 166.246C335.306 166.027 335.132 165.634 335.153 165.159C335.167 164.845 335.3 164.473 335.453 164.109C335.526 163.935 335.603 163.761 335.66 163.6C335.683 163.536 335.703 163.45 335.716 163.385C335.684 163.392 335.65 163.409 335.617 163.424C335.526 163.463 335.436 163.521 335.35 163.585C335.072 163.789 334.822 164.056 334.658 164.209C334.098 164.726 333.195 165.684 332.241 166.249C331.485 166.697 330.694 166.894 329.979 166.623C329.71 166.521 329.52 166.326 329.4 166.074C329.131 166.244 328.856 166.401 328.579 166.54C327.352 167.157 326.061 167.44 324.907 167.118C323.847 166.823 323.518 166.016 323.534 165.128C323.424 165.195 323.314 165.26 323.205 165.325C322.495 165.745 321.721 166.271 320.925 166.52C320.932 166.518 320.952 166.51 320.952 166.51C320.952 166.51 320.826 166.553 320.768 166.559C320.679 166.568 320.603 166.555 320.546 166.536C320.434 166.498 320.352 166.431 320.293 166.349C320.136 166.126 320.189 165.816 320.411 165.658C320.481 165.608 320.56 165.579 320.639 165.569C321.362 165.342 322.056 164.852 322.702 164.471C323.053 164.264 323.405 164.045 323.755 163.813ZM321.079 165.746L321.085 165.754L321.084 165.752L321.079 165.746ZM321.06 165.725L321.068 165.733L321.066 165.731L321.06 165.725ZM321.042 165.707L321.05 165.713L321.046 165.71L321.042 165.707ZM321.024 165.689L321.027 165.693L321.025 165.691L321.024 165.689ZM333.049 160.142C332.955 160.203 332.825 160.293 332.744 160.369C332.523 160.575 332.335 160.799 332.252 160.887C331.415 161.779 330.685 162.89 330.379 164.095C331.038 163.509 331.6 162.888 331.994 162.343C332.209 162.046 332.691 161.355 332.929 160.709C332.994 160.53 333.043 160.357 333.048 160.201C333.049 160.181 333.05 160.161 333.049 160.142ZM325.092 162.849C326.208 161.962 327.209 160.925 327.88 159.709C328.01 159.476 328.325 158.738 328.371 158.143C328.379 158.049 328.379 157.96 328.367 157.88C328.36 157.828 328.364 157.772 328.313 157.761C328.248 157.746 328.187 157.775 328.125 157.809C328.043 157.853 327.964 157.916 327.887 157.986C327.506 158.335 327.184 158.87 326.988 159.141C326.184 160.254 325.556 161.534 325.092 162.849Z" fill="#242C2C"/>
<path fill-rule="evenodd" clip-rule="evenodd" d="M306.264 148.607V147.426C306.264 146.975 306.597 146.608 307.006 146.608C307.416 146.608 307.749 146.975 307.749 147.426V149.333C307.749 149.784 307.416 150.151 307.006 150.151H307.005C306.902 150.211 306.785 150.244 306.66 150.244H242.152C242.022 150.244 241.9 150.207 241.793 150.143C241.385 150.14 241.055 149.775 241.055 149.325V147.426C241.055 146.975 241.388 146.608 241.797 146.608C242.207 146.608 242.539 146.975 242.539 147.426V148.607H306.264ZM331.882 130.881V129.344C331.882 128.893 332.215 128.526 332.625 128.526C333.034 128.526 333.367 128.893 333.367 129.344V131.251C333.367 131.428 333.316 131.592 333.23 131.725C333.216 132.165 332.89 132.518 332.487 132.518H241.85C241.842 132.518 241.833 132.518 241.824 132.518C241.814 132.518 241.806 132.518 241.797 132.518C241.388 132.518 241.055 132.151 241.055 131.7V129.801C241.055 129.35 241.388 128.983 241.797 128.983C242.207 128.983 242.539 129.35 242.539 129.801V130.881H331.882ZM241.368 115.325L241.421 113.42C241.435 112.968 241.777 112.614 242.187 112.627C242.596 112.642 242.918 113.02 242.906 113.47L242.876 114.534H332.058V113.446C332.058 112.994 332.391 112.627 332.8 112.627C333.21 112.627 333.543 112.994 333.543 113.446V115.352C333.543 115.804 333.21 116.171 332.8 116.171C332.792 116.171 332.782 116.171 332.773 116.171C332.765 116.171 332.756 116.171 332.747 116.171H242.113C242.109 116.171 242.104 116.171 242.1 116.171H242.096C242.022 116.169 241.952 116.156 241.885 116.132C241.769 116.092 241.665 116.021 241.582 115.928L241.578 115.924L241.574 115.92L241.572 115.917C241.49 115.821 241.428 115.706 241.395 115.576C241.376 115.502 241.366 115.423 241.368 115.343V115.337C241.368 115.333 241.368 115.329 241.368 115.325Z" fill="white"/>
<path fill-rule="evenodd" clip-rule="evenodd" d="M353.087 151.038V146.607C353.087 146.197 353.42 145.863 353.829 145.863C354.239 145.863 354.572 146.197 354.572 146.607V151.782C354.572 152.194 354.24 152.526 353.829 152.526H317.033C316.623 152.526 316.291 152.194 316.291 151.782V146.607C316.291 146.197 316.624 145.863 317.033 145.863C317.443 145.863 317.776 146.197 317.776 146.607V151.038H353.087Z" fill="white"/>
<path fill-rule="evenodd" clip-rule="evenodd" d="M317.776 141.277V146.608C317.776 147.018 317.443 147.352 317.033 147.352C316.624 147.352 316.291 147.018 316.291 146.608V140.533C316.291 140.123 316.623 139.789 317.033 139.789H353.829C354.24 139.789 354.572 140.123 354.572 140.533V146.608C354.572 147.018 354.239 147.352 353.829 147.352C353.42 147.352 353.087 147.018 353.087 146.608V141.277H317.776Z" fill="white"/>
<path fill-rule="evenodd" clip-rule="evenodd" d="M320.443 149.454H324.223C324.632 149.454 324.965 149.12 324.965 148.71C324.965 148.299 324.632 147.966 324.223 147.966H320.443C320.034 147.966 319.701 148.299 319.701 148.71C319.701 149.12 320.034 149.454 320.443 149.454ZM333.542 149.454H337.32C337.73 149.454 338.063 149.12 338.063 148.71C338.063 148.299 337.73 147.966 337.32 147.966H333.542C333.132 147.966 332.799 148.299 332.799 148.71C332.799 149.12 333.132 149.454 333.542 149.454ZM326.992 149.454H330.772C331.181 149.454 331.514 149.12 331.514 148.71C331.514 148.299 331.181 147.966 330.772 147.966H326.992C326.582 147.966 326.249 148.299 326.249 148.71C326.249 149.12 326.582 149.454 326.992 149.454ZM340.091 149.454H343.87C344.28 149.454 344.613 149.12 344.613 148.71C344.613 148.299 344.28 147.966 343.87 147.966H340.091C339.681 147.966 339.348 148.299 339.348 148.71C339.348 149.12 339.681 149.454 340.091 149.454ZM346.641 149.454H350.419C350.829 149.454 351.161 149.12 351.161 148.71C351.161 148.299 350.829 147.966 350.419 147.966H346.641C346.231 147.966 345.898 148.299 345.898 148.71C345.898 149.12 346.231 149.454 346.641 149.454Z" fill="white"/>
<path d="M349.436 123.988C355.182 123.988 359.84 119.32 359.84 113.561C359.84 107.802 355.182 103.134 349.436 103.134C343.69 103.134 339.032 107.802 339.032 113.561C339.032 119.32 343.69 123.988 349.436 123.988Z" fill="white"/>
<path fill-rule="evenodd" clip-rule="evenodd" d="M349.089 107.975L349.16 103.137C349.251 103.134 349.343 103.133 349.435 103.133C349.676 103.133 349.913 103.141 350.15 103.158L350.079 107.987C350.965 107.976 351.888 107.903 352.837 107.748C352.213 105.943 351.45 104.388 350.798 103.222C351.225 103.278 351.646 103.36 352.055 103.466C352.649 104.598 353.286 105.991 353.819 107.56C354.886 107.323 355.981 106.979 357.089 106.501C357.322 106.754 357.542 107.019 357.749 107.294C356.52 107.846 355.305 108.24 354.121 108.507C354.194 108.753 354.264 109.001 354.329 109.253C354.689 110.619 354.944 112.081 355.018 113.595L359.837 113.739C359.832 114.073 359.81 114.403 359.774 114.729L355.039 114.588C355.029 116.273 354.781 118.009 354.189 119.74C355.096 119.997 356.018 120.335 356.948 120.771C356.701 121.029 356.441 121.274 356.169 121.506C355.383 121.159 354.605 120.885 353.837 120.67C353.427 121.657 352.899 122.639 352.234 123.604C351.763 123.737 351.278 123.836 350.782 123.9C351.676 122.765 352.356 121.602 352.857 120.428C351.842 120.21 350.852 120.094 349.9 120.055L349.842 123.979C349.707 123.984 349.571 123.987 349.435 123.987C349.239 123.987 349.045 123.981 348.852 123.971L348.91 120.043C347.722 120.06 346.604 120.192 345.58 120.388C346.125 121.511 346.833 122.665 347.733 123.847C347.225 123.764 346.73 123.643 346.25 123.488C345.576 122.507 345.026 121.544 344.586 120.605C343.784 120.799 343.056 121.027 342.421 121.258C342.155 121.014 341.901 120.757 341.662 120.487C342.383 120.21 343.233 119.927 344.189 119.688C343.477 117.914 343.148 116.225 343.086 114.645C343.081 114.506 343.078 114.369 343.076 114.232L339.045 114.112C339.037 113.93 339.032 113.745 339.032 113.56C339.032 113.412 339.034 113.266 339.04 113.12L343.102 113.24C343.215 111.388 343.685 109.706 344.311 108.235C343.019 107.891 341.964 107.486 341.222 107.163C341.433 106.889 341.66 106.627 341.897 106.375C342.612 106.674 343.576 107.026 344.731 107.325C345.568 105.64 346.578 104.285 347.397 103.332C347.889 103.234 348.394 103.171 348.909 103.145C348.124 103.941 346.786 105.468 345.714 107.556C346.734 107.768 347.869 107.928 349.089 107.975ZM354.046 114.558L349.983 114.438L349.915 119.066C350.977 119.107 352.083 119.239 353.218 119.493C353.795 117.836 354.037 116.172 354.046 114.558ZM344.067 114.262C344.069 114.376 344.071 114.491 344.076 114.607C344.134 116.129 344.463 117.755 345.167 119.465C346.312 119.232 347.576 119.073 348.925 119.055L348.994 114.408L344.067 114.262ZM353.145 108.7C352.083 108.883 351.052 108.966 350.064 108.977L349.997 113.446L354.022 113.565C353.949 112.149 353.708 110.782 353.373 109.505C353.301 109.234 353.225 108.965 353.145 108.7ZM345.279 108.471C344.666 109.873 344.203 111.488 344.092 113.27L349.009 113.416L349.074 108.962C347.692 108.91 346.414 108.72 345.279 108.471Z" fill="#E4E4E6"/>
<path fill-rule="evenodd" clip-rule="evenodd" d="M220.245 144.697C220.639 152.576 221.898 159.279 224.019 165.466C225.406 169.553 229.235 172.302 233.543 172.302C233.543 172.307 233.543 172.307 233.543 172.307C237.172 172.307 240.444 170.118 241.836 166.759C244.245 160.957 246.276 153.831 247.729 144.697H220.245Z" fill="#F27F71"/>
<path fill-rule="evenodd" clip-rule="evenodd" d="M220.501 148.404C220.474 148.099 220.449 147.792 220.424 147.482L227.571 147.615C227.571 147.615 229.211 153.095 230.713 157.962C232.717 164.451 234.629 168.761 238.773 170.624C238.378 170.907 237.96 171.159 237.524 171.374C236.194 171.861 234.549 172.307 233.544 172.307C233.544 172.307 233.544 172.307 233.544 172.302C233.517 172.302 233.488 172.302 233.461 172.302C233.304 172.301 233.147 172.296 232.991 172.288L232.941 172.285C232.875 172.28 232.807 172.277 232.74 172.271L232.691 172.267L232.643 172.263L232.592 172.258C232.576 172.256 232.561 172.255 232.543 172.253L232.516 172.25C232.458 172.245 232.401 172.237 232.343 172.231C232.311 172.228 232.28 172.223 232.248 172.22L232.198 172.214C232.117 172.201 232.035 172.19 231.955 172.177L231.906 172.169C231.89 172.166 231.873 172.163 231.857 172.16L231.808 172.152C231.792 172.149 231.776 172.147 231.759 172.144L231.713 172.135C231.66 172.125 231.606 172.116 231.552 172.105C231.289 172.051 231.028 171.988 230.773 171.913C230.688 171.889 230.604 171.864 230.519 171.837C230.408 171.802 230.298 171.765 230.189 171.727C230.148 171.712 230.107 171.697 230.066 171.682L229.974 171.648C229.34 171.406 228.734 171.102 228.165 170.741L228.084 170.689C228.053 170.669 228.021 170.648 227.991 170.628L227.923 170.582L227.843 170.528L227.817 170.51C227.549 170.324 227.29 170.126 227.043 169.914C226.956 169.842 226.871 169.767 226.787 169.691L226.716 169.625L226.645 169.56C226.621 169.538 226.599 169.516 226.576 169.494L226.517 169.437C226.195 169.122 225.894 168.785 225.616 168.429C225.473 168.244 225.334 168.055 225.203 167.86C225.162 167.797 225.121 167.735 225.08 167.672C225.029 167.593 224.98 167.512 224.932 167.432L224.916 167.406L224.9 167.379C224.788 167.191 224.682 166.998 224.581 166.802L224.559 166.758L224.543 166.725C224.409 166.454 224.286 166.178 224.174 165.893L224.157 165.845C224.132 165.779 224.106 165.713 224.083 165.646C224.061 165.586 224.04 165.526 224.02 165.466L223.972 165.328L223.958 165.284L223.926 165.192L223.908 165.139L223.879 165.053L223.86 164.998L223.833 164.916L223.814 164.859L223.786 164.775L223.769 164.719L223.74 164.631L223.723 164.582L223.688 164.471L223.679 164.444L223.633 164.305L223.622 164.267L223.589 164.168L223.573 164.115L223.545 164.028L223.527 163.971L223.5 163.888L223.483 163.831L223.456 163.747L223.439 163.69L223.412 163.603L223.396 163.551L223.365 163.451L223.352 163.412L223.311 163.271L223.302 163.244L223.268 163.132L223.253 163.081L223.226 162.991L223.21 162.936L223.183 162.85L223.167 162.792L223.142 162.708L223.125 162.651L223.1 162.564L223.084 162.509L223.057 162.415L223.043 162.368L223.003 162.23L223.002 162.227L222.962 162.085L222.95 162.039L222.921 161.944L222.907 161.889L222.882 161.802L222.866 161.743L222.842 161.658L222.827 161.599L222.803 161.514L222.787 161.457L222.762 161.365L222.749 161.313L222.718 161.201L222.71 161.171L222.672 161.029L222.661 160.987L222.634 160.885L222.62 160.831L222.596 160.741L222.581 160.682L222.558 160.597L222.544 160.537L222.522 160.451L222.506 160.393L222.484 160.303L222.47 160.247L222.443 160.146L222.434 160.103L222.397 159.958L222.39 159.929L222.361 159.814L222.349 159.762L222.326 159.669L222.312 159.61L222.29 159.523L222.276 159.461L222.255 159.376L222.241 159.314L222.219 159.227L222.207 159.169L222.184 159.072L222.172 159.022L222.14 158.887L222.137 158.875L222.104 158.729L222.093 158.679L222.071 158.584L222.058 158.524L222.038 158.435L222.024 158.373L222.005 158.286L221.99 158.225L221.971 158.138L221.959 158.076L221.938 157.984L221.926 157.927L221.902 157.818L221.894 157.779L221.863 157.633L221.853 157.586L221.831 157.485L221.818 157.425L221.801 157.334L221.787 157.271L221.77 157.184L221.757 157.119L221.74 157.034L221.725 156.969L221.708 156.882L221.695 156.819L221.676 156.722L221.665 156.669L221.637 156.522L221.629 156.479L221.609 156.371L221.596 156.31L221.579 156.22L221.566 156.153L221.55 156.069L221.538 156L221.522 155.916L221.509 155.848L221.493 155.763L221.481 155.696L221.465 155.608L221.454 155.543L221.433 155.432L221.426 155.392L221.421 155.362L221.4 155.244L221.388 155.177L221.373 155.09L221.361 155.019L221.347 154.937L221.334 154.864L221.32 154.784L221.307 154.711L221.295 154.63L221.282 154.556L221.268 154.475L221.257 154.403L221.243 154.314L221.231 154.248L221.208 154.1L221.195 154.028L221.183 153.946L221.17 153.868L221.159 153.791L221.146 153.711L221.134 153.636L221.123 153.557L221.11 153.481L221.097 153.4L221.086 153.326L221.074 153.243L221.064 153.171L221.052 153.087L221.042 153.02L221.029 152.938L221.017 152.853L221.007 152.785L220.995 152.698L220.985 152.628L220.973 152.541L220.963 152.472L220.951 152.385L220.943 152.315L220.93 152.227L220.921 152.16L220.908 152.068L220.9 152.007L220.887 151.91L220.883 151.869L220.867 151.758L220.851 151.629L220.848 151.608L220.835 151.504L220.828 151.45L220.816 151.35L220.809 151.292L220.796 151.192L220.79 151.134L220.777 151.034L220.771 150.977L220.758 150.874L220.752 150.824L220.739 150.713L220.736 150.686L220.72 150.56C220.715 150.509 220.709 150.459 220.704 150.408L220.689 150.278L220.687 150.253L220.673 150.136L220.67 150.093L220.657 149.979L220.652 149.935L220.64 149.821L220.635 149.777L220.622 149.66L220.619 149.624L220.607 149.499L220.605 149.486C220.585 149.288 220.566 149.092 220.547 148.893L220.545 148.879L220.532 148.744L220.529 148.717L220.518 148.586L220.515 148.559L220.504 148.425L220.501 148.404Z" fill="#FFC2BA"/>
<path fill-rule="evenodd" clip-rule="evenodd" d="M134.647 144.888C135.042 152.766 136.301 159.47 138.422 165.656C139.809 169.744 143.638 172.492 147.946 172.492C147.946 172.497 147.946 172.497 147.946 172.497C151.575 172.497 154.847 170.308 156.239 166.95C158.648 161.147 160.679 154.022 162.132 144.888H134.647Z" fill="#FFC3BB"/>
<path fill-rule="evenodd" clip-rule="evenodd" d="M134.704 145.922C134.684 145.579 134.665 145.236 134.647 144.888H162.132C162 145.716 161.864 146.526 161.723 147.321L157.231 147.247C156.4 149.918 151.366 166.05 148.894 168.643C146.869 170.765 145.817 171.471 144.772 171.978C141.872 171.012 139.504 168.749 138.455 165.752L138.453 165.749L138.441 165.71L138.422 165.656C138.108 164.74 137.813 163.812 137.536 162.871C137.499 162.745 137.462 162.618 137.426 162.49C137.325 162.142 137.229 161.791 137.132 161.437C137.114 161.363 137.093 161.288 137.073 161.212C136.962 160.793 136.853 160.369 136.749 159.942C136.661 159.582 136.574 159.218 136.492 158.853C136.375 158.345 136.265 157.833 136.159 157.314C136.085 156.952 136.014 156.585 135.944 156.217C135.916 156.06 135.886 155.904 135.858 155.745L135.829 155.584C135.788 155.355 135.747 155.124 135.709 154.892C135.638 154.472 135.57 154.049 135.506 153.622L135.48 153.456C135.436 153.168 135.395 152.877 135.354 152.584L135.337 152.455L135.332 152.417C135.19 151.365 135.065 150.294 134.96 149.2L134.944 149.025L134.941 148.996C134.911 148.672 134.881 148.346 134.854 148.017C134.797 147.328 134.747 146.63 134.704 145.922Z" fill="#F27F71"/>
<path fill-rule="evenodd" clip-rule="evenodd" d="M265.968 71.104C267.138 70.7748 268.101 70.4764 268.341 70.3265C271.156 68.5705 273.532 65.6715 274.793 62.3816C276.011 59.2065 276.315 55.683 274.837 52.5661C273.063 55.1231 270.25 56.8602 267.686 57.0631C264.83 57.2891 262.085 55.8893 260.706 51.8393C259.08 47.0658 262.246 43.2649 266.974 42.3128C268.784 41.9483 270.856 42.0572 272.912 42.7937C272.786 41.5638 272.481 40.3604 272.035 39.2022C270.858 36.1493 268.765 33.3947 266.28 31.2648C265.644 30.7516 265.545 29.818 266.056 29.181C266.567 28.544 267.5 28.4434 268.136 28.9566C271.17 31.2615 273.764 34.3401 275.342 37.8074C276.391 40.1145 276.969 42.5949 276.937 45.1577C278.25 46.2833 279.465 47.7545 280.494 49.6184C283.07 54.2879 283.111 59.7394 281.521 64.7477C279.957 69.6768 276.677 74.0944 272.705 76.9093C272.208 77.2635 270.282 78.1428 268.047 78.9999C268.319 80.3298 268.57 81.7151 268.802 83.1637C273.125 110.152 272.956 135.363 265.005 160.789C262.75 167.956 256.119 172.831 248.622 172.831C248.621 172.833 248.621 172.833 248.621 172.833C241.964 172.833 236.045 168.579 233.912 162.256C231.346 154.658 228.339 145.747 228.339 145.747H155.459C155.459 145.747 151.705 156.388 148.905 164.331C147.107 169.426 142.301 172.833 136.91 172.833H136.908C130.197 172.833 124.372 168.196 122.851 161.644C121.121 154.187 119.163 145.747 119.163 145.747H97.2383C94.6933 145.747 92.3068 144.256 91.4059 141.871C88.6003 134.443 83.0137 115.332 91.9442 93.0267C92.6001 91.39 94.2975 90.4111 96.0587 90.4111C101.9 90.4064 114.803 90.4064 114.803 90.4064C114.803 90.4064 116.753 60.6247 143.663 44.9205L136.343 30.9189C136.343 30.9189 148.583 26.0864 159.418 40.0542C185.241 33.9643 208.013 33.3095 237.012 41.9326C243.8 43.9394 249.94 47.7042 254.814 52.8473C258.206 56.4195 260.879 59.9986 263 64.0584C264.141 66.2432 265.12 68.5672 265.968 71.104ZM271.965 48.9718C271.104 48.3597 270.185 48.0039 269.28 47.8901C267.244 47.6351 265.079 48.4114 265.608 50.3233C266.062 51.9726 267.153 52.5236 268.322 52.1607C269.762 51.7131 271.189 50.5198 271.965 48.9718Z" fill="#FFC3BB"/>
<path fill-rule="evenodd" clip-rule="evenodd" d="M154.944 147.206L157.294 139.96C157.407 139.607 157.756 139.384 158.122 139.43C158.49 139.476 158.774 139.776 158.799 140.146L159.184 145.748H155.459L154.944 147.206ZM223.886 145.748L225.104 139.688C225.159 139.419 225.386 139.22 225.661 139.202C225.934 139.183 226.186 139.353 226.275 139.614C227.169 142.261 228.575 146.421 228.575 146.421L228.569 146.423L228.34 145.748H223.886ZM252.303 95.346C252.303 74.9003 236.611 57.8946 216.273 56.3002C201.428 55.1226 186.67 55.1329 171.999 56.2966C151.659 57.8876 135.964 74.894 135.964 95.3412C135.963 95.3412 135.963 95.3412 135.963 95.3412C135.963 116.532 152.773 133.884 173.909 134.507C187.442 134.911 200.925 134.911 214.357 134.512C235.492 133.889 252.303 116.536 252.303 95.346ZM105.687 90.4722C106.942 93.2744 108.095 97.0792 108.886 102.244C109.018 103.106 108.426 103.914 107.565 104.045C106.704 104.178 105.898 103.585 105.766 102.723C104.88 96.9305 103.556 93.0561 102.195 90.4737L104.818 90.4722H105.687ZM111.839 90.4722C112.831 92.6244 113.725 95.3681 114.379 98.8661C114.54 99.7248 113.975 100.552 113.119 100.712C112.264 100.873 111.438 100.307 111.278 99.4497C110.513 95.3602 109.423 92.4868 108.298 90.4722H111.839ZM268.047 78.9992C268.32 80.3292 265.742 70.4229 265.969 71.1037C267.138 70.7745 268.102 70.4761 268.342 70.3262C268.514 70.2185 268.686 70.1065 268.855 69.9906C269.502 72.0888 270.253 74.7769 270.915 77.8164C270.111 78.1753 269.114 78.5897 268.047 78.9992ZM274.838 52.5658C274.548 53.2082 277.142 48.875 276.938 45.1574C277.943 46.0195 278.892 47.0846 279.742 48.3734C279.325 50.3952 278.415 53.0053 276.449 55.5529C276.269 55.786 276.037 55.955 275.782 56.0558C275.671 54.8634 275.37 53.6883 274.838 52.5658ZM272.911 42.7934C273.183 46.1328 271.75 49.4016 271.966 48.9715C271.105 48.3593 270.187 48.0035 269.279 47.8898C269.202 47.88 269.125 47.8718 269.047 47.8652C270.294 45.8032 270.093 43.5679 269.753 42.1331C270.785 42.1999 271.851 42.4129 272.911 42.7934ZM143.645 44.9309L144.811 47.2655C145.201 48.0459 144.885 48.9968 144.107 49.3876C143.328 49.7783 142.38 49.4619 141.99 48.6815L140.952 46.6039C141.821 46.0308 142.719 45.4725 143.645 44.9309ZM160.514 41.8788C160.514 41.8788 158.98 39.4883 159.419 40.0539C160.478 39.8042 161.532 39.5637 162.583 39.332L163.092 40.0546C163.594 40.7675 163.424 41.755 162.714 42.2585C162.002 42.7619 161.016 42.5917 160.514 41.8788Z" fill="#F27F71"/>
<path d="M95.1971 145.813C99.8556 145.813 103.632 133.425 103.632 118.143C103.632 102.86 99.8556 90.4717 95.1971 90.4717C90.5385 90.4717 86.762 102.86 86.762 118.143C86.762 133.425 90.5385 145.813 95.1971 145.813Z" fill="#F27F71"/>
<path fill-rule="evenodd" clip-rule="evenodd" d="M90.6862 105.8V130.484C90.6862 131.355 91.3932 132.065 92.264 132.065C93.1348 132.065 93.8419 131.355 93.8419 130.484V105.8C93.8419 104.927 93.1348 104.219 92.264 104.219C91.3932 104.219 90.6862 104.927 90.6862 105.8Z" fill="#D7441E"/>
<path fill-rule="evenodd" clip-rule="evenodd" d="M96.5509 105.8V130.484C96.5509 131.355 97.2579 132.065 98.1288 132.065C98.9996 132.065 99.7066 131.355 99.7066 130.484V105.8C99.7066 104.927 98.9996 104.219 98.1288 104.219C97.2579 104.219 96.5509 104.927 96.5509 105.8Z" fill="#D7441E"/>
<path fill-rule="evenodd" clip-rule="evenodd" d="M120.79 83.3066C120.756 84.2019 120.654 86.1204 121.123 87.8494C121.711 90.0165 123.088 91.8903 126.013 92.0556C127.218 92.1232 128.872 91.9675 130.22 90.6596C131.373 89.5411 132.408 87.4283 132.326 83.3344L129.17 83.3983C129.225 86.1469 128.799 87.6359 128.025 88.3876C127.446 88.9486 126.708 88.9269 126.191 88.898C124.94 88.8268 124.42 87.9472 124.168 87.0193C123.798 85.6534 123.916 84.1344 123.944 83.4273L120.79 83.3066Z" fill="#242C2C"/>
<path d="M228.646 44.3145H166.049L167.629 51.2844H230.225L228.646 44.3145Z" fill="#242C2C"/>
<path fill-rule="evenodd" clip-rule="evenodd" d="M171.401 56.4762C171.605 56.4571 171.805 56.4399 172.007 56.4241C186.678 55.2603 201.436 55.25 216.281 56.4277C219.271 56.6621 222.16 57.2295 224.913 58.0916V91.1262H171.401V56.4762Z" fill="#82B5B2"/>
<path fill-rule="evenodd" clip-rule="evenodd" d="M181.011 55.8556C191.91 55.3435 202.854 55.4686 213.848 56.2452C211.077 62.5288 204.802 66.9184 197.513 66.9184C190.073 66.9184 183.69 62.3467 181.011 55.8556Z" fill="#A8CFCC"/>
<path fill-rule="evenodd" clip-rule="evenodd" d="M188.497 91.1268V75.7209C188.497 73.8834 189.983 72.3936 191.815 72.3936C193.648 72.3936 195.135 73.8834 195.135 75.7209V91.1268H188.497ZM199.583 91.1268V79.6491C199.583 77.8131 201.071 76.3219 202.903 76.3219C204.734 76.3219 206.222 77.8131 206.222 79.6491V91.1268H199.583Z" fill="#A8CFCC"/>
<path d="M224.913 1.29883H171.401V47.6262H224.913V1.29883Z" fill="#A8CFCC"/>
<path fill-rule="evenodd" clip-rule="evenodd" d="M179.716 47.627C180.431 38.4077 188.131 31.1396 197.512 31.1396C206.892 31.1396 214.592 38.4077 215.307 47.627H179.716Z" fill="#82B5B2"/>
<path fill-rule="evenodd" clip-rule="evenodd" d="M208.154 1.29883V14.4256C208.154 16.2615 206.667 17.7523 204.836 17.7523C203.004 17.7523 201.516 16.2615 201.516 14.4256V1.29883H208.154ZM197.068 1.29883V10.4971C197.068 12.3332 195.58 13.8238 193.748 13.8238C191.916 13.8238 190.428 12.3332 190.428 10.4971V1.29883H197.068Z" fill="#82B5B2"/>
<path d="M163.716 107.474C173.026 107.474 180.574 99.9852 180.574 90.7476C180.574 81.51 173.026 74.0215 163.716 74.0215C154.405 74.0215 146.857 81.51 146.857 90.7476C146.857 99.9852 154.405 107.474 163.716 107.474Z" fill="#FFCF84"/>
<path fill-rule="evenodd" clip-rule="evenodd" d="M163.717 77.7014C170.974 77.7014 176.866 83.5473 176.866 90.7478C176.866 97.9483 170.974 103.794 163.717 103.794C163.422 103.794 163.183 104.032 163.183 104.324C163.183 104.617 163.422 104.854 163.717 104.854C171.564 104.854 177.935 98.5332 177.935 90.7478C177.935 82.9623 171.564 76.6416 163.717 76.6416C163.422 76.6416 163.183 76.879 163.183 77.1715C163.183 77.464 163.422 77.7014 163.717 77.7014Z" fill="#FD9909"/>
<path fill-rule="evenodd" clip-rule="evenodd" d="M163.716 103.794C156.459 103.794 150.566 97.9483 150.566 90.7478C150.566 83.5473 156.459 77.7014 163.716 77.7014C164.011 77.7014 164.251 77.464 164.251 77.1715C164.251 76.879 164.011 76.6416 163.716 76.6416C155.869 76.6416 149.499 82.9623 149.499 90.7478C149.499 98.5332 155.869 104.854 163.716 104.854C164.011 104.854 164.251 104.617 164.251 104.324C164.251 104.032 164.011 103.794 163.716 103.794Z" fill="#FD9909"/>
<path fill-rule="evenodd" clip-rule="evenodd" d="M165.744 107.353L165.399 104.598C165.363 104.307 165.571 104.043 165.864 104.006C166.157 103.97 166.423 104.177 166.46 104.467L166.801 107.193C166.453 107.258 166.1 107.311 165.744 107.353ZM168.897 106.667L167.942 103.871C167.848 103.594 167.997 103.293 168.277 103.199C168.556 103.105 168.859 103.254 168.953 103.531L169.903 106.309C169.573 106.439 169.237 106.558 168.897 106.667ZM154.421 104.701L155.906 102.279C156.059 102.029 156.388 101.95 156.64 102.102C156.892 102.253 156.972 102.58 156.819 102.83L155.33 105.258C155.021 105.082 154.717 104.896 154.421 104.701ZM177.585 100.251L175.132 98.4496C174.896 98.2756 174.845 97.9435 175.021 97.7084C175.196 97.4733 175.53 97.4237 175.767 97.5976L178.166 99.3592C177.983 99.663 177.788 99.9605 177.585 100.251ZM147.693 95.9608L150.576 94.6735C150.844 94.5534 151.161 94.6725 151.282 94.9392C151.403 95.2059 151.283 95.5198 151.014 95.6399L148.059 96.9595C147.927 96.6317 147.804 96.2988 147.693 95.9608ZM180.073 86.6905C180.159 87.032 180.234 87.3775 180.299 87.7267L177.456 88.3917C177.17 88.4589 176.881 88.2823 176.814 87.9977C176.746 87.713 176.924 87.4274 177.21 87.3602L180.073 86.6905ZM149.784 81.3287L152.324 82.9771C152.571 83.1373 152.641 83.4659 152.479 83.7107C152.318 83.9554 151.987 84.0242 151.74 83.8641L149.211 82.2223C149.392 81.9179 149.585 81.6199 149.784 81.3287ZM151.442 79.2841L153.508 80.7914C153.745 80.9646 153.796 81.2967 153.621 81.5322C153.447 81.7678 153.112 81.8183 152.875 81.645L150.733 80.0814C150.96 79.8083 151.198 79.5424 151.442 79.2841ZM173.459 77.1003C173.749 77.3051 174.034 77.5187 174.31 77.7411L172.463 80.0514C172.28 80.2805 171.943 80.3189 171.712 80.1371C171.482 79.9554 171.443 79.6218 171.626 79.3926L173.459 77.1003ZM170.598 75.4767C170.924 75.6218 171.244 75.7769 171.559 75.9411L170.256 78.3644C170.118 78.6224 169.794 78.7202 169.533 78.5826C169.274 78.4449 169.175 78.1237 169.314 77.8656L170.598 75.4767ZM159.934 74.4443L160.686 77.1045C160.765 77.3861 160.6 77.6788 160.316 77.7577C160.032 77.8368 159.737 77.6723 159.658 77.3906L158.901 74.7143C159.241 74.6138 159.585 74.5237 159.934 74.4443Z" fill="#FD9909"/>
<path d="M208.557 128.194C217.867 128.194 225.415 120.706 225.415 111.468C225.415 102.231 217.867 94.7422 208.557 94.7422C199.246 94.7422 191.698 102.231 191.698 111.468C191.698 120.706 199.246 128.194 208.557 128.194Z" fill="#FFCF84"/>
<path fill-rule="evenodd" clip-rule="evenodd" d="M208.558 98.4231C215.815 98.4231 221.707 104.269 221.707 111.469C221.707 118.67 215.815 124.516 208.558 124.516C208.263 124.516 208.024 124.753 208.024 125.046C208.024 125.338 208.263 125.576 208.558 125.576C216.404 125.576 222.776 119.255 222.776 111.469C222.776 103.684 216.404 97.3633 208.558 97.3633C208.263 97.3633 208.024 97.6007 208.024 97.8932C208.024 98.1857 208.263 98.4231 208.558 98.4231Z" fill="#FD9909"/>
<path fill-rule="evenodd" clip-rule="evenodd" d="M208.558 124.516C201.3 124.516 195.407 118.67 195.407 111.469C195.407 104.269 201.3 98.4231 208.558 98.4231C208.852 98.4231 209.092 98.1857 209.092 97.8932C209.092 97.6007 208.852 97.3633 208.558 97.3633C200.71 97.3633 194.34 103.684 194.34 111.469C194.34 119.255 200.71 125.576 208.558 125.576C208.852 125.576 209.092 125.338 209.092 125.046C209.092 124.753 208.852 124.516 208.558 124.516Z" fill="#FD9909"/>
<path fill-rule="evenodd" clip-rule="evenodd" d="M210.585 128.075L210.24 125.319C210.204 125.029 210.412 124.764 210.705 124.728C210.998 124.692 211.264 124.898 211.301 125.189L211.642 127.915C211.294 127.979 210.941 128.033 210.585 128.075ZM213.738 127.389L212.783 124.593C212.689 124.316 212.838 124.015 213.118 123.921C213.397 123.827 213.7 123.976 213.794 124.252L214.744 127.031C214.414 127.16 214.079 127.28 213.738 127.389ZM199.263 125.423L200.747 123.001C200.9 122.751 201.229 122.671 201.481 122.823C201.733 122.975 201.813 123.301 201.661 123.551L200.172 125.98C199.862 125.804 199.558 125.618 199.263 125.423ZM222.427 120.973L219.973 119.171C219.737 118.997 219.687 118.665 219.862 118.43C220.037 118.195 220.371 118.145 220.608 118.319L223.008 120.081C222.824 120.385 222.629 120.682 222.427 120.973ZM192.534 116.683L195.417 115.395C195.685 115.275 196.002 115.394 196.123 115.661C196.244 115.928 196.124 116.242 195.855 116.362L192.9 117.681C192.768 117.353 192.645 117.02 192.534 116.683ZM224.914 107.412C225 107.754 225.076 108.099 225.14 108.448L222.297 109.113C222.011 109.181 221.723 109.004 221.655 108.719C221.587 108.435 221.765 108.149 222.052 108.082L224.914 107.412ZM194.625 102.05L197.166 103.699C197.412 103.859 197.482 104.188 197.321 104.432C197.159 104.677 196.828 104.746 196.581 104.586L194.052 102.944C194.233 102.64 194.426 102.342 194.625 102.05ZM196.283 100.006L198.349 101.513C198.586 101.686 198.638 102.018 198.462 102.254C198.288 102.489 197.953 102.54 197.716 102.367L195.574 100.803C195.802 100.53 196.039 100.264 196.283 100.006ZM218.3 97.822C218.591 98.0268 218.875 98.2403 219.151 98.4628L217.304 100.773C217.121 101.002 216.784 101.041 216.554 100.859C216.323 100.677 216.284 100.343 216.467 100.114L218.3 97.822ZM215.439 96.1984C215.765 96.3435 216.086 96.4986 216.4 96.6628L215.098 99.0861C214.959 99.3441 214.635 99.4418 214.374 99.3043C214.115 99.1666 214.017 98.8454 214.155 98.5873L215.439 96.1984ZM204.776 95.166L205.528 97.8262C205.607 98.1077 205.441 98.4005 205.157 98.4794C204.873 98.5585 204.578 98.394 204.499 98.1123L203.743 95.436C204.082 95.3355 204.426 95.2454 204.776 95.166Z" fill="#FD9909"/>
<path fill-rule="evenodd" clip-rule="evenodd" d="M56.1502 71.5784V68.8252C56.1502 68.3697 56.5191 68 56.9735 68C57.428 68 57.7969 68.3697 57.7969 68.8252V71.5784H60.5435C60.9979 71.5784 61.3668 71.9481 61.3668 72.4036C61.3668 72.8589 60.9979 73.2287 60.5435 73.2287H57.7969V75.982C57.7969 76.4373 57.428 76.8071 56.9735 76.8071C56.5191 76.8071 56.1502 76.4373 56.1502 75.982V73.2287H53.4019C52.9475 73.2287 52.5786 72.8589 52.5786 72.4036C52.5786 71.9481 52.9475 71.5784 53.4019 71.5784H56.1502Z" fill="#FD9500"/>
<path fill-rule="evenodd" clip-rule="evenodd" d="M103.344 42.5784V39.8252C103.344 39.3697 103.713 39 104.167 39C104.622 39 104.99 39.3697 104.99 39.8252V42.5784H107.737C108.192 42.5784 108.56 42.9481 108.56 43.4036C108.56 43.8589 108.192 44.2287 107.737 44.2287H104.99V46.982C104.99 47.4373 104.622 47.8071 104.167 47.8071C103.713 47.8071 103.344 47.4373 103.344 46.982V44.2287H100.596C100.141 44.2287 99.7722 43.8589 99.7722 43.4036C99.7722 42.9481 100.141 42.5784 100.596 42.5784H103.344Z" fill="#FD9500"/>
<path fill-rule="evenodd" clip-rule="evenodd" d="M311.119 75.5482V72.8182C311.119 72.3665 311.484 72 311.935 72C312.385 72 312.751 72.3665 312.751 72.8182V75.5482H315.473C315.923 75.5482 316.289 75.9147 316.289 76.3663C316.289 76.8178 315.923 77.1845 315.473 77.1845H312.751V79.9145C312.751 80.366 312.385 80.7327 311.935 80.7327C311.484 80.7327 311.119 80.366 311.119 79.9145V77.1845H308.395C307.944 77.1845 307.579 76.8178 307.579 76.3663C307.579 75.9147 307.944 75.5482 308.395 75.5482H311.119Z" fill="#FD9500"/>
</g>
<defs>
<clipPath id="clip0_1368_334">
<rect width="367" height="172" fill="white"/>
</clipPath>
</defs>
</svg>
