<svg width="1344" height="439" viewBox="0 0 1344 439" fill="none" xmlns="http://www.w3.org/2000/svg">
<g clip-path="url(#clip0_1311_5)">
<path fill-rule="evenodd" clip-rule="evenodd" d="M500.564 269.088C500.564 258.545 492.021 249.986 481.503 249.986H209.207C198.686 249.986 190.145 258.545 190.145 269.088V420.532C190.145 431.075 198.686 439.635 209.207 439.635H481.503C492.021 439.635 500.564 431.075 500.564 420.532V269.088Z" fill="#8ABBB8"/>
<path fill-rule="evenodd" clip-rule="evenodd" d="M243.999 402.69H211.965V425.389H243.999V402.69ZM359.958 360.273H211.891V392.48H359.958V360.273ZM477.808 360.273H401.806V392.48H477.808V360.273Z" fill="white"/>
<path d="M500.564 302.869H190.145V347.427H500.564V302.869Z" fill="#242C2C"/>
<path fill-rule="evenodd" clip-rule="evenodd" d="M238.917 380.23C238.793 378.187 239.022 375.93 239.476 373.824C240.179 370.568 241.448 367.695 242.631 366.423C243.654 365.323 244.773 365.096 245.706 365.412C247.04 365.863 247.828 367.059 247.974 368.76C248.182 371.199 246.936 374.898 246.475 375.955C245.407 378.398 244.05 380.226 242.488 381.667C242.711 382.724 243.091 383.629 243.804 384.169C244.561 384.741 245.645 384.788 247.12 384.358C247.901 384.131 249.509 383.12 251.07 381.873C250.807 380.298 251.084 378.617 251.701 377.366C252.65 375.441 254.332 374.59 255.895 375.117C256.955 375.475 257.532 376.09 257.83 376.755C258.219 377.627 258.143 378.79 257.413 380.045C256.925 380.887 256.109 381.835 255.146 382.762C255.626 383.149 256.334 383.339 257.287 383.322C258.468 383.301 260.258 382.391 262.226 381.346C265.725 379.493 269.627 377.101 271.912 376.481C273.894 375.942 275.163 376.595 275.688 377.72C276.098 378.596 276.481 379.232 276.877 379.653C277.068 379.86 277.233 380.003 277.424 380.041C277.68 380.087 277.928 379.965 278.198 379.838C278.547 379.67 278.903 379.447 279.274 379.198C281.852 377.484 284.964 375.087 289.214 376.536C290.97 377.134 291.448 378.76 291.139 380.769C291.051 381.342 290.911 381.945 290.825 382.501C290.812 382.589 290.801 382.694 290.794 382.795C291 382.783 291.227 382.745 291.468 382.699C292.12 382.581 292.839 382.374 293.566 382.147C295.29 381.616 297.053 381.022 298.259 380.946C311.052 380.112 323.931 380.327 336.709 379.232C337.634 379.152 338.448 379.843 338.527 380.769C338.607 381.696 337.92 382.509 336.996 382.589C324.194 383.688 311.293 383.474 298.477 384.308C297.231 384.388 295.312 385.175 293.567 385.66C291.988 386.102 290.511 386.287 289.5 386.026C287.713 385.559 287.179 383.979 287.517 381.894C287.595 381.41 287.71 380.896 287.793 380.399C287.831 380.175 287.849 379.851 287.856 379.64C286.312 379.207 285.018 379.619 283.881 380.226C282.877 380.765 281.975 381.447 281.133 382.008C279.605 383.023 278.161 383.604 276.805 383.351C275.576 383.12 274.206 382.201 272.925 379.721C272.703 379.771 272.412 379.847 272.174 379.935C271.379 380.234 270.443 380.698 269.433 381.233C266.096 383.002 262.019 385.504 259.275 386.342C258.555 386.565 257.904 386.679 257.35 386.692C255.095 386.734 253.565 386.001 252.559 384.952C250.752 386.308 248.952 387.336 248.055 387.593C245.25 388.41 243.22 387.947 241.782 386.86C240.821 386.136 240.101 385.087 239.621 383.806C239.144 384.097 238.655 384.371 238.156 384.628C235.067 386.22 231.573 387.222 228.162 388.941C227.333 389.358 226.322 389.021 225.906 388.191C225.489 387.357 225.824 386.346 226.653 385.929C229.406 384.543 232.212 383.617 234.821 382.48C236.269 381.848 237.654 381.148 238.917 380.23ZM244.638 369.338C244.171 370.092 243.731 371.132 243.353 372.316C243.129 373.015 242.929 373.765 242.763 374.535C242.627 375.167 242.512 375.812 242.426 376.46C242.776 375.896 243.1 375.277 243.396 374.599C243.71 373.882 244.509 371.629 244.625 369.784C244.635 369.632 244.64 369.481 244.638 369.338Z" fill="#242C2C"/>
<path d="M1124.51 249.996H776V439.343H1124.51V249.996Z" fill="#E4E4E6"/>
<path fill-rule="evenodd" clip-rule="evenodd" d="M1015.2 418.105C1016.49 413.386 1018.55 408.656 1021.4 404.697C1021.97 403.906 1022.94 402.373 1024.04 401.362C1025.07 400.42 1026.24 399.933 1027.38 400.185C1028.68 400.472 1029.36 401.431 1029.5 402.79C1029.7 404.807 1028.43 407.962 1027.94 408.852C1025.52 413.228 1021.59 416.79 1017.41 419.666C1017.22 420.44 1017.1 421.246 1017.16 421.992C1017.23 422.946 1017.65 423.774 1018.81 424.1C1021.2 424.764 1023.85 424.076 1026.38 422.802C1027.35 422.313 1028.3 421.738 1029.21 421.105C1029.23 420.71 1029.27 420.346 1029.31 420.053C1029.83 415.864 1032.2 411.933 1035.05 408.902C1035.49 408.427 1036.97 406.738 1038.17 406.236C1039.21 405.805 1040.14 405.954 1040.82 406.821C1041.44 407.625 1041.59 408.764 1041.3 410.037C1040.8 412.179 1039.02 414.814 1038.27 415.839C1036.79 417.887 1034.47 420.315 1031.77 422.371C1031.79 422.504 1031.82 422.631 1031.87 422.744C1031.89 422.81 1031.91 422.882 1031.98 422.907C1033.12 423.341 1034.36 422.86 1035.58 422.142C1037.85 420.796 1039.98 418.486 1041.31 417.251C1041.89 416.715 1042.85 415.715 1043.85 415.11C1044.82 414.524 1045.85 414.306 1046.76 414.629C1047.88 415.027 1048.29 415.801 1048.3 416.809C1048.3 417.395 1048.09 418.127 1047.78 418.901C1047.5 419.589 1047.15 420.326 1046.94 421.014C1046.88 421.235 1046.83 421.445 1046.82 421.644C1046.81 421.782 1046.86 421.893 1047.02 421.956C1047.73 422.238 1048.35 422.05 1048.92 421.672C1049.74 421.122 1050.49 420.235 1051.23 419.34C1052.3 418.039 1053.37 416.718 1054.52 415.972C1055.53 415.317 1056.6 415.049 1057.76 415.339C1059.44 415.757 1059.75 417.149 1059.31 418.992C1059.17 419.58 1058.96 420.224 1058.87 420.826C1058.81 421.186 1058.68 421.556 1059.04 421.716C1059.6 421.962 1060.12 421.846 1060.63 421.617C1061.12 421.398 1061.6 421.075 1062.08 420.738C1062.96 420.119 1063.83 419.445 1064.72 419.011C1065.47 418.646 1066.23 418.437 1067.01 418.461C1067.68 418.483 1068.11 418.693 1068.42 418.945C1068.79 419.254 1069.01 419.663 1069.09 420.158C1069.14 420.418 1069.14 420.713 1069.12 421.023C1069.11 421.186 1069.1 421.44 1069.09 421.622C1071.67 421.959 1074.55 421.15 1077.13 420.978C1081.52 420.683 1085.96 420.942 1090.33 420.547C1091.02 420.484 1091.64 420.998 1091.7 421.694C1091.76 422.39 1091.25 423.006 1090.56 423.07C1086.16 423.468 1081.71 423.208 1077.3 423.504C1074.49 423.692 1071.34 424.523 1068.55 424.103C1067.91 424.009 1067.49 423.761 1067.2 423.471C1066.86 423.142 1066.67 422.736 1066.59 422.271C1066.54 421.954 1066.54 421.597 1066.57 421.241C1066.57 421.177 1066.58 421.097 1066.58 421.017C1066.09 421.1 1065.61 421.379 1065.13 421.688C1064.3 422.222 1063.48 422.888 1062.64 423.401C1061.17 424.31 1059.64 424.752 1058.02 424.029C1056.84 423.506 1056.39 422.622 1056.31 421.559C1056.26 420.835 1056.44 419.989 1056.65 419.171C1056.75 418.793 1056.86 418.423 1056.92 418.08C1056.94 417.989 1056.95 417.865 1056.96 417.762C1056.42 417.71 1055.96 418.008 1055.49 418.395C1054.69 419.058 1053.94 420.022 1053.17 420.954C1052.26 422.053 1051.33 423.109 1050.32 423.783C1049.05 424.623 1047.67 424.935 1046.1 424.313C1044.68 423.755 1044.24 422.752 1044.29 421.539C1044.33 420.738 1044.67 419.788 1045.06 418.859C1045.24 418.414 1045.44 417.972 1045.58 417.561C1045.64 417.398 1045.7 417.177 1045.73 417.011C1045.65 417.03 1045.56 417.072 1045.47 417.11C1045.24 417.21 1045.01 417.359 1044.79 417.522C1044.09 418.041 1043.45 418.724 1043.03 419.113C1041.6 420.434 1039.29 422.879 1036.86 424.322C1034.93 425.465 1032.91 425.968 1031.08 425.275C1030.4 425.015 1029.91 424.518 1029.61 423.874C1028.92 424.308 1028.22 424.708 1027.51 425.065C1024.38 426.64 1021.09 427.361 1018.14 426.54C1015.43 425.786 1014.59 423.727 1014.63 421.459C1014.35 421.63 1014.08 421.796 1013.8 421.962C1011.98 423.034 1010.01 424.377 1007.98 425.012C1007.99 425.007 1008.05 424.987 1008.05 424.987C1008.05 424.987 1007.72 425.098 1007.57 425.112C1007.35 425.137 1007.16 425.103 1007.01 425.054C1006.72 424.957 1006.51 424.786 1006.36 424.576C1005.96 424.007 1006.1 423.216 1006.67 422.813C1006.84 422.686 1007.05 422.611 1007.25 422.586C1009.09 422.006 1010.86 420.755 1012.51 419.782C1013.41 419.254 1014.31 418.696 1015.2 418.105ZM1008.37 423.037L1008.39 423.059L1008.38 423.053L1008.37 423.037ZM1008.32 422.984L1008.34 423.004L1008.34 422.998L1008.32 422.984ZM1008.28 422.937L1008.29 422.954L1008.29 422.946L1008.28 422.937ZM1008.23 422.893L1008.24 422.901L1008.23 422.896L1008.23 422.893ZM1038.92 408.733C1038.68 408.891 1038.35 409.12 1038.14 409.313C1037.58 409.838 1037.1 410.41 1036.89 410.637C1034.75 412.914 1032.89 415.748 1032.11 418.823C1033.79 417.329 1035.22 415.743 1036.23 414.353C1036.78 413.593 1038.01 411.83 1038.62 410.181C1038.78 409.725 1038.91 409.283 1038.92 408.885C1038.92 408.833 1038.92 408.783 1038.92 408.733ZM1018.61 415.643C1021.46 413.38 1024.02 410.734 1025.73 407.628C1026.06 407.034 1026.86 405.15 1026.98 403.633C1027 403.393 1027 403.166 1026.97 402.962C1026.95 402.829 1026.96 402.685 1026.83 402.658C1026.67 402.619 1026.51 402.694 1026.35 402.779C1026.14 402.892 1025.94 403.053 1025.74 403.232C1024.77 404.122 1023.95 405.487 1023.45 406.18C1021.4 409.021 1019.8 412.286 1018.61 415.643Z" fill="#242C2C"/>
<path fill-rule="evenodd" clip-rule="evenodd" d="M970.556 379.295V376.28C970.556 375.128 971.406 374.192 972.451 374.192C973.496 374.192 974.346 375.128 974.346 376.28V381.147C974.346 382.299 973.496 383.235 972.451 383.235H972.448C972.186 383.388 971.886 383.472 971.567 383.472H806.922C806.591 383.472 806.278 383.378 806.006 383.214C804.964 383.207 804.121 382.274 804.121 381.126V376.28C804.121 375.128 804.971 374.192 806.016 374.192C807.061 374.192 807.911 375.128 807.911 376.28V379.295H970.556ZM1035.94 334.052V330.129C1035.94 328.977 1036.79 328.04 1037.84 328.04C1038.88 328.04 1039.73 328.977 1039.73 330.129V334.995C1039.73 335.448 1039.6 335.866 1039.38 336.207C1039.35 337.328 1038.51 338.229 1037.49 338.229H806.152C806.129 338.229 806.107 338.229 806.085 338.229C806.06 338.229 806.038 338.229 806.016 338.229C804.971 338.229 804.121 337.293 804.121 336.141V331.295C804.121 330.143 804.971 329.206 806.016 329.206C807.061 329.206 807.911 330.143 807.911 331.295V334.052H1035.94ZM804.92 294.347L805.056 289.484C805.091 288.332 805.965 287.427 807.011 287.462C808.056 287.5 808.877 288.464 808.845 289.613L808.769 292.328H1036.39V289.551C1036.39 288.398 1037.24 287.462 1038.29 287.462C1039.33 287.462 1040.18 288.398 1040.18 289.551V294.417C1040.18 295.569 1039.33 296.506 1038.29 296.506C1038.26 296.506 1038.24 296.506 1038.22 296.506C1038.19 296.506 1038.17 296.506 1038.15 296.506H806.821C806.812 296.506 806.799 296.506 806.789 296.506H806.78C806.591 296.502 806.411 296.467 806.24 296.408C805.943 296.304 805.678 296.123 805.466 295.886L805.457 295.876L805.447 295.865L805.441 295.858C805.233 295.614 805.075 295.319 804.99 294.988C804.942 294.8 804.917 294.598 804.92 294.393V294.379C804.92 294.368 804.92 294.358 804.92 294.347Z" fill="white"/>
<path fill-rule="evenodd" clip-rule="evenodd" d="M1090.06 385.496V374.188C1090.06 373.14 1090.91 372.289 1091.96 372.289C1093 372.289 1093.85 373.14 1093.85 374.188V387.395C1093.85 388.446 1093.01 389.294 1091.96 389.294H998.043C996.995 389.294 996.148 388.446 996.148 387.395V374.188C996.148 373.14 996.998 372.289 998.043 372.289C999.088 372.289 999.938 373.14 999.938 374.188V385.496H1090.06Z" fill="white"/>
<path fill-rule="evenodd" clip-rule="evenodd" d="M999.938 360.583V374.189C999.938 375.237 999.088 376.088 998.043 376.088C996.998 376.088 996.148 375.237 996.148 374.189V358.684C996.148 357.637 996.995 356.785 998.043 356.785H1091.96C1093.01 356.785 1093.85 357.637 1093.85 358.684V374.189C1093.85 375.237 1093 376.088 1091.96 376.088C1090.91 376.088 1090.06 375.237 1090.06 374.189V360.583H999.938Z" fill="white"/>
<path fill-rule="evenodd" clip-rule="evenodd" d="M1006.75 381.454H1016.39C1017.44 381.454 1018.29 380.603 1018.29 379.555C1018.29 378.508 1017.44 377.656 1016.39 377.656H1006.75C1005.7 377.656 1004.85 378.508 1004.85 379.555C1004.85 380.603 1005.7 381.454 1006.75 381.454ZM1040.18 381.454H1049.82C1050.87 381.454 1051.72 380.603 1051.72 379.555C1051.72 378.508 1050.87 377.656 1049.82 377.656H1040.18C1039.13 377.656 1038.28 378.508 1038.28 379.555C1038.28 380.603 1039.13 381.454 1040.18 381.454ZM1023.46 381.454H1033.11C1034.15 381.454 1035 380.603 1035 379.555C1035 378.508 1034.15 377.656 1033.11 377.656H1023.46C1022.42 377.656 1021.57 378.508 1021.57 379.555C1021.57 380.603 1022.42 381.454 1023.46 381.454ZM1056.89 381.454H1066.54C1067.59 381.454 1068.44 380.603 1068.44 379.555C1068.44 378.508 1067.59 377.656 1066.54 377.656H1056.89C1055.85 377.656 1055 378.508 1055 379.555C1055 380.603 1055.85 381.454 1056.89 381.454ZM1073.61 381.454H1083.26C1084.3 381.454 1085.15 380.603 1085.15 379.555C1085.15 378.508 1084.3 377.656 1083.26 377.656H1073.61C1072.57 377.656 1071.72 378.508 1071.72 379.555C1071.72 380.603 1072.57 381.454 1073.61 381.454Z" fill="white"/>
<path d="M1080.75 316.455C1095.41 316.455 1107.3 304.54 1107.3 289.842C1107.3 275.144 1095.41 263.229 1080.75 263.229C1066.08 263.229 1054.19 275.144 1054.19 289.842C1054.19 304.54 1066.08 316.455 1080.75 316.455Z" fill="white"/>
<path fill-rule="evenodd" clip-rule="evenodd" d="M1079.86 275.589L1080.04 263.24C1080.28 263.234 1080.51 263.23 1080.74 263.23C1081.36 263.23 1081.96 263.253 1082.57 263.294L1082.39 275.621C1084.65 275.593 1087 275.406 1089.43 275.01C1087.84 270.402 1085.89 266.433 1084.22 263.458C1085.31 263.601 1086.39 263.81 1087.43 264.082C1088.95 266.971 1090.57 270.526 1091.93 274.529C1094.66 273.925 1097.45 273.048 1100.28 271.826C1100.87 272.472 1101.44 273.149 1101.96 273.852C1098.83 275.26 1095.73 276.267 1092.7 276.947C1092.89 277.574 1093.07 278.207 1093.24 278.852C1094.15 282.337 1094.8 286.068 1094.99 289.933L1107.29 290.3C1107.28 291.154 1107.22 291.996 1107.13 292.829L1095.05 292.468C1095.02 296.769 1094.39 301.2 1092.88 305.618C1095.19 306.273 1097.55 307.137 1099.92 308.248C1099.29 308.906 1098.63 309.533 1097.93 310.125C1095.93 309.239 1093.94 308.539 1091.98 307.992C1090.93 310.511 1089.58 313.018 1087.89 315.48C1086.69 315.819 1085.45 316.072 1084.18 316.236C1086.46 313.337 1088.2 310.369 1089.48 307.375C1086.89 306.818 1084.36 306.52 1081.93 306.422L1081.78 316.436C1081.44 316.448 1081.09 316.458 1080.74 316.458C1080.24 316.458 1079.75 316.442 1079.26 316.417L1079.4 306.39C1076.37 306.435 1073.52 306.77 1070.91 307.27C1072.3 310.138 1074.1 313.084 1076.4 316.1C1075.1 315.888 1073.84 315.578 1072.61 315.182C1070.89 312.679 1069.49 310.223 1068.37 307.824C1066.32 308.321 1064.46 308.903 1062.84 309.492C1062.16 308.868 1061.51 308.213 1060.91 307.523C1062.75 306.818 1064.92 306.096 1067.35 305.485C1065.54 300.956 1064.7 296.646 1064.54 292.613C1064.53 292.259 1064.52 291.908 1064.51 291.56L1054.23 291.253C1054.2 290.787 1054.19 290.316 1054.19 289.844C1054.19 289.468 1054.2 289.094 1054.21 288.721L1064.58 289.028C1064.87 284.299 1066.07 280.008 1067.67 276.254C1064.37 275.374 1061.68 274.342 1059.78 273.516C1060.32 272.817 1060.9 272.149 1061.5 271.507C1063.33 272.269 1065.79 273.168 1068.74 273.931C1070.87 269.63 1073.45 266.171 1075.54 263.74C1076.8 263.49 1078.09 263.329 1079.4 263.262C1077.4 265.294 1073.98 269.19 1071.25 274.52C1073.85 275.061 1076.75 275.469 1079.86 275.589ZM1092.51 292.392L1082.14 292.085L1081.97 303.896C1084.68 304.001 1087.5 304.339 1090.4 304.988C1091.87 300.757 1092.49 296.509 1092.51 292.392ZM1067.04 291.636C1067.05 291.927 1067.05 292.221 1067.07 292.515C1067.21 296.402 1068.05 300.551 1069.85 304.915C1072.77 304.32 1076 303.915 1079.44 303.868L1079.62 292.009L1067.04 291.636ZM1090.21 277.441C1087.5 277.906 1084.87 278.118 1082.35 278.147L1082.18 289.553L1092.45 289.857C1092.27 286.242 1091.65 282.755 1090.79 279.495C1090.61 278.802 1090.42 278.115 1090.21 277.441ZM1070.14 276.855C1068.57 280.435 1067.39 284.556 1067.11 289.104L1079.66 289.477L1079.82 278.109C1076.3 277.976 1073.03 277.492 1070.14 276.855Z" fill="#E4E4E6"/>
<path fill-rule="evenodd" clip-rule="evenodd" d="M751.008 369.316C752.015 389.425 755.228 406.534 760.641 422.324C764.181 432.757 773.955 439.772 784.949 439.772C784.949 439.784 784.949 439.784 784.949 439.784C794.212 439.784 802.564 434.198 806.116 425.625C812.266 410.817 817.449 392.629 821.158 369.316H751.008Z" fill="#F27F71"/>
<path fill-rule="evenodd" clip-rule="evenodd" d="M751.662 378.779C751.594 378 751.529 377.217 751.465 376.426L769.708 376.765C769.708 376.765 773.892 390.75 777.726 403.174C782.841 419.734 787.722 430.737 798.297 435.492C797.291 436.214 796.223 436.856 795.112 437.405C791.717 438.648 787.516 439.786 784.951 439.786C784.951 439.786 784.951 439.786 784.951 439.774C784.883 439.774 784.81 439.774 784.742 439.774C784.339 439.77 783.94 439.758 783.542 439.738L783.413 439.73C783.244 439.717 783.07 439.709 782.901 439.693L782.776 439.685L782.652 439.673L782.523 439.661C782.482 439.657 782.442 439.653 782.398 439.649L782.329 439.641C782.18 439.629 782.035 439.608 781.886 439.592C781.806 439.584 781.725 439.572 781.645 439.564L781.516 439.548C781.311 439.516 781.101 439.487 780.896 439.455L780.771 439.435C780.731 439.427 780.686 439.419 780.646 439.411L780.521 439.391C780.481 439.382 780.441 439.378 780.396 439.37L780.28 439.346C780.143 439.322 780.006 439.298 779.869 439.269C779.196 439.132 778.532 438.971 777.879 438.781C777.662 438.72 777.448 438.656 777.231 438.587C776.949 438.499 776.667 438.402 776.389 438.305C776.285 438.268 776.18 438.228 776.075 438.192L775.842 438.103C774.223 437.485 772.676 436.711 771.222 435.79L771.017 435.657C770.936 435.605 770.856 435.552 770.779 435.5L770.606 435.383L770.401 435.245L770.336 435.201C769.652 434.725 768.991 434.22 768.359 433.679C768.138 433.494 767.92 433.304 767.707 433.11L767.525 432.941L767.344 432.775C767.284 432.719 767.227 432.662 767.167 432.606L767.018 432.46C766.196 431.657 765.427 430.797 764.718 429.889C764.352 429.417 763.998 428.933 763.663 428.436C763.559 428.275 763.454 428.117 763.349 427.956C763.22 427.754 763.095 427.548 762.971 427.342L762.93 427.278L762.89 427.209C762.604 426.729 762.334 426.237 762.077 425.736L762.02 425.623L761.98 425.538C761.638 424.848 761.323 424.142 761.038 423.415L760.993 423.294C760.929 423.125 760.864 422.955 760.804 422.786C760.748 422.632 760.695 422.479 760.643 422.325L760.522 421.974L760.486 421.861L760.405 421.627L760.357 421.49L760.284 421.272L760.236 421.131L760.168 420.921L760.119 420.776L760.047 420.562L760.003 420.42L759.93 420.194L759.886 420.069L759.797 419.787L759.773 419.718L759.656 419.363L759.628 419.266L759.543 419.012L759.503 418.879L759.431 418.657L759.386 418.511L759.318 418.297L759.274 418.152L759.205 417.938L759.161 417.793L759.092 417.571L759.052 417.438L758.972 417.183L758.939 417.082L758.835 416.723L758.811 416.655L758.726 416.368L758.686 416.239L758.617 416.009L758.577 415.868L758.508 415.65L758.468 415.5L758.404 415.286L758.359 415.141L758.295 414.919L758.255 414.778L758.186 414.54L758.15 414.419L758.049 414.067L758.045 414.059L757.945 413.696L757.912 413.579L757.84 413.337L757.804 413.196L757.739 412.974L757.699 412.824L757.639 412.606L757.598 412.457L757.538 412.239L757.498 412.094L757.433 411.86L757.401 411.726L757.32 411.44L757.3 411.363L757.204 411L757.175 410.895L757.107 410.633L757.071 410.495L757.01 410.265L756.97 410.116L756.914 409.898L756.877 409.745L756.821 409.527L756.781 409.377L756.724 409.147L756.688 409.006L756.62 408.748L756.596 408.639L756.503 408.267L756.483 408.195L756.41 407.9L756.378 407.767L756.322 407.529L756.285 407.379L756.229 407.157L756.193 407L756.14 406.782L756.104 406.625L756.048 406.403L756.016 406.253L755.959 406.007L755.927 405.878L755.846 405.535L755.838 405.503L755.754 405.131L755.726 405.002L755.669 404.76L755.637 404.607L755.585 404.381L755.548 404.223L755.5 404.001L755.464 403.844L755.416 403.622L755.383 403.464L755.331 403.23L755.299 403.085L755.238 402.806L755.218 402.705L755.138 402.334L755.114 402.213L755.057 401.955L755.025 401.801L754.981 401.571L754.944 401.41L754.9 401.188L754.868 401.022L754.824 400.804L754.787 400.639L754.743 400.417L754.711 400.256L754.662 400.009L754.634 399.872L754.562 399.497L754.542 399.388L754.489 399.113L754.457 398.956L754.413 398.726L754.381 398.556L754.34 398.342L754.308 398.165L754.268 397.951L754.236 397.777L754.195 397.559L754.163 397.39L754.123 397.164L754.095 396.998L754.042 396.716L754.022 396.615L754.01 396.538L753.958 396.235L753.926 396.066L753.889 395.844L753.857 395.662L753.821 395.452L753.789 395.267L753.752 395.061L753.72 394.875L753.688 394.669L753.656 394.48L753.619 394.274L753.591 394.088L753.555 393.862L753.527 393.693L753.466 393.317L753.434 393.132L753.402 392.922L753.37 392.724L753.342 392.526L753.309 392.324L753.277 392.131L753.249 391.929L753.217 391.735L753.184 391.529L753.156 391.34L753.124 391.13L753.1 390.944L753.068 390.73L753.044 390.561L753.011 390.351L752.979 390.133L752.955 389.959L752.923 389.737L752.899 389.56L752.866 389.338L752.842 389.16L752.81 388.938L752.79 388.76L752.758 388.534L752.733 388.365L752.701 388.131L752.681 387.973L752.649 387.727L752.637 387.622L752.597 387.34L752.556 387.009L752.548 386.956L752.516 386.69L752.496 386.553L752.468 386.298L752.448 386.149L752.415 385.895L752.399 385.745L752.367 385.491L752.351 385.346L752.319 385.083L752.303 384.954L752.27 384.672L752.262 384.603L752.222 384.28C752.21 384.151 752.194 384.022 752.182 383.893L752.141 383.562L752.137 383.497L752.101 383.199L752.093 383.09L752.061 382.799L752.049 382.686L752.017 382.395L752.005 382.282L751.972 381.984L751.964 381.891L751.932 381.572L751.928 381.54C751.876 381.035 751.827 380.535 751.779 380.026L751.775 379.99L751.743 379.647L751.735 379.578L751.707 379.243L751.698 379.174L751.67 378.831L751.662 378.779Z" fill="#FFC2BA"/>
<path fill-rule="evenodd" clip-rule="evenodd" d="M532.535 369.803C533.542 389.911 536.756 407.021 542.168 422.81C545.708 433.244 555.482 440.259 566.477 440.259C566.477 440.271 566.477 440.271 566.477 440.271C575.739 440.271 584.092 434.685 587.644 426.112C593.793 411.303 598.976 393.116 602.685 369.803H532.535Z" fill="#FFC3BB"/>
<path fill-rule="evenodd" clip-rule="evenodd" d="M532.68 372.442C532.628 371.567 532.579 370.691 532.535 369.803H602.685C602.347 371.918 602.001 373.984 601.642 376.014L590.177 375.825C588.054 382.642 575.208 423.815 568.897 430.435C563.73 435.851 561.044 437.651 558.378 438.947C550.976 436.481 544.931 430.705 542.253 423.056L542.249 423.048L542.217 422.947L542.168 422.81C541.367 420.473 540.614 418.104 539.909 415.702C539.812 415.379 539.72 415.057 539.627 414.73C539.369 413.842 539.124 412.946 538.878 412.042C538.83 411.852 538.777 411.662 538.725 411.468C538.443 410.399 538.165 409.317 537.899 408.227C537.674 407.307 537.452 406.379 537.243 405.446C536.945 404.151 536.663 402.843 536.393 401.519C536.204 400.595 536.023 399.659 535.846 398.718C535.773 398.318 535.697 397.919 535.624 397.515L535.552 397.104C535.447 396.518 535.342 395.929 535.245 395.336C535.064 394.266 534.891 393.184 534.726 392.095L534.662 391.671C534.549 390.936 534.444 390.194 534.339 389.447L534.295 389.116L534.283 389.019C533.921 386.335 533.602 383.603 533.333 380.809L533.292 380.361L533.284 380.289C533.208 379.461 533.131 378.63 533.063 377.79C532.918 376.031 532.789 374.251 532.68 372.442Z" fill="#F27F71"/>
<path fill-rule="evenodd" clip-rule="evenodd" d="M867.708 181.485C870.696 180.644 873.153 179.883 873.765 179.5C880.949 175.018 887.014 167.619 890.232 159.222C893.341 151.118 894.118 142.125 890.345 134.17C885.818 140.696 878.638 145.13 872.093 145.648C864.804 146.224 857.797 142.652 854.277 132.315C850.129 120.131 858.208 110.43 870.277 108C874.896 107.07 880.184 107.348 885.431 109.227C885.109 106.088 884.332 103.017 883.192 100.061C880.188 92.2688 874.848 85.2382 868.505 79.8018C866.882 78.4921 866.628 76.1091 867.933 74.4833C869.238 72.8575 871.618 72.6008 873.241 73.9106C880.985 79.7933 887.606 87.651 891.633 96.5008C894.312 102.389 895.785 108.72 895.705 115.261C899.056 118.134 902.157 121.889 904.782 126.646C911.359 138.564 911.463 152.478 907.404 165.261C903.413 177.842 895.04 189.117 884.904 196.301C883.635 197.206 878.718 199.45 873.016 201.637C873.708 205.032 874.349 208.568 874.941 212.265C885.975 281.146 885.544 345.496 865.251 410.39C859.496 428.682 842.57 441.125 823.437 441.125C823.433 441.129 823.433 441.129 823.433 441.129C806.442 441.129 791.336 430.272 785.891 414.135C779.342 394.741 771.667 371.997 771.667 371.997H585.653C585.653 371.997 576.073 399.157 568.924 419.431C564.337 432.435 552.071 441.129 538.31 441.129H538.306C521.177 441.129 506.308 429.295 502.428 412.573C498.012 393.538 493.014 371.997 493.014 371.997H437.055C430.56 371.997 424.469 368.191 422.169 362.105C415.008 343.146 400.749 294.369 423.543 237.438C425.217 233.261 429.549 230.763 434.044 230.763C448.953 230.75 481.885 230.75 481.885 230.75C481.885 230.75 486.864 154.738 555.546 114.656L536.864 78.9191C536.864 78.9191 568.103 66.5849 595.758 102.235C661.667 86.692 719.788 85.0206 793.804 107.03C811.129 112.152 826.799 121.761 839.239 134.887C847.898 144.005 854.72 153.14 860.133 163.502C863.044 169.078 865.545 175.01 867.708 181.485ZM883.015 124.996C880.816 123.434 878.472 122.525 876.161 122.235C870.966 121.584 865.44 123.566 866.789 128.445C867.949 132.655 870.732 134.061 873.716 133.135C877.393 131.993 881.034 128.947 883.015 124.996Z" fill="#FFC3BB"/>
<path fill-rule="evenodd" clip-rule="evenodd" d="M584.34 375.722L590.336 357.228C590.626 356.328 591.516 355.758 592.451 355.876C593.389 355.993 594.114 356.759 594.178 357.704L595.161 372H585.653L584.34 375.722ZM760.301 372L763.41 356.533C763.551 355.847 764.131 355.339 764.832 355.294C765.528 355.246 766.173 355.678 766.398 356.344C768.682 363.1 772.27 373.72 772.27 373.72L772.254 373.724L771.67 372H760.301ZM832.831 243.358C832.831 191.174 792.78 147.77 740.87 143.701C702.982 140.695 665.315 140.721 627.87 143.692C575.955 147.753 535.896 191.158 535.896 243.346C535.892 243.346 535.892 243.346 535.892 243.346C535.892 297.431 578.798 341.721 632.743 343.311C667.284 344.34 701.697 344.34 735.981 343.323C789.925 341.733 832.831 297.444 832.831 243.358ZM458.618 230.919C461.823 238.071 464.766 247.782 466.783 260.964C467.12 263.164 465.61 265.227 463.413 265.562C461.216 265.901 459.159 264.387 458.822 262.187C456.56 247.403 453.181 237.514 449.707 230.923L456.401 230.919H458.618ZM474.32 230.919C476.853 236.412 479.135 243.415 480.805 252.343C481.215 254.535 479.774 256.646 477.589 257.053C475.405 257.465 473.298 256.02 472.889 253.832C470.936 243.395 468.154 236.061 465.284 230.919H474.32ZM873.015 201.636C873.711 205.031 867.131 179.747 867.711 181.484C870.695 180.644 873.156 179.882 873.768 179.5C874.207 179.225 874.646 178.939 875.077 178.643C876.728 183.998 878.645 190.86 880.336 198.617C878.282 199.533 875.737 200.591 873.015 201.636ZM890.348 134.17C889.607 135.809 896.228 124.749 895.708 115.261C898.273 117.461 900.694 120.18 902.864 123.469C901.801 128.629 899.477 135.291 894.46 141.793C894 142.388 893.408 142.82 892.756 143.077C892.474 140.034 891.705 137.034 890.348 134.17ZM885.431 109.227C886.123 117.75 882.467 126.093 883.018 124.996C880.819 123.433 878.476 122.525 876.16 122.235C875.963 122.21 875.765 122.189 875.568 122.172C878.749 116.909 878.238 111.204 877.368 107.542C880.002 107.712 882.724 108.256 885.431 109.227ZM555.501 114.683L558.477 120.641C559.472 122.633 558.666 125.06 556.681 126.058C554.691 127.055 552.271 126.247 551.276 124.255L548.626 118.953C550.845 117.49 553.137 116.065 555.501 114.683ZM598.556 106.893C598.556 106.893 594.641 100.791 595.761 102.235C598.463 101.598 601.153 100.984 603.835 100.393L605.136 102.237C606.417 104.056 605.982 106.577 604.17 107.862C602.353 109.147 599.836 108.712 598.556 106.893Z" fill="#F27F71"/>
<path d="M431.846 372.166C443.736 372.166 453.375 340.546 453.375 301.541C453.375 262.536 443.736 230.916 431.846 230.916C419.955 230.916 410.316 262.536 410.316 301.541C410.316 340.546 419.955 372.166 431.846 372.166Z" fill="#F27F71"/>
<path fill-rule="evenodd" clip-rule="evenodd" d="M420.332 270.042V333.043C420.332 335.267 422.137 337.079 424.359 337.079C426.582 337.079 428.386 335.267 428.386 333.043V270.042C428.386 267.814 426.582 266.006 424.359 266.006C422.137 266.006 420.332 267.814 420.332 270.042Z" fill="#D7441E"/>
<path fill-rule="evenodd" clip-rule="evenodd" d="M435.301 270.042V333.043C435.301 335.267 437.105 337.079 439.328 337.079C441.551 337.079 443.355 335.267 443.355 333.043V270.042C443.355 267.814 441.551 266.006 439.328 266.006C437.105 266.006 435.301 267.814 435.301 270.042Z" fill="#D7441E"/>
<path fill-rule="evenodd" clip-rule="evenodd" d="M497.167 212.629C497.08 214.914 496.821 219.811 498.017 224.224C499.517 229.755 503.033 234.537 510.499 234.959C513.574 235.132 517.794 234.734 521.234 231.396C524.177 228.541 526.819 223.149 526.611 212.7L518.556 212.863C518.697 219.878 517.608 223.679 515.632 225.597C514.154 227.029 512.273 226.974 510.952 226.9C507.758 226.718 506.431 224.473 505.789 222.105C504.844 218.619 505.147 214.742 505.216 212.937L497.167 212.629Z" fill="#242C2C"/>
<path d="M772.45 113.109H612.684L616.716 130.899H776.482L772.45 113.109Z" fill="#242C2C"/>
<path fill-rule="evenodd" clip-rule="evenodd" d="M626.344 144.147C626.863 144.098 627.375 144.054 627.89 144.014C665.335 141.043 703.002 141.017 740.89 144.023C748.521 144.621 755.895 146.069 762.923 148.27V232.585H626.344V144.147Z" fill="#82B5B2"/>
<path fill-rule="evenodd" clip-rule="evenodd" d="M650.871 142.563C678.687 141.256 706.62 141.575 734.682 143.557C727.61 159.595 711.594 170.799 692.988 170.799C673.999 170.799 657.709 159.13 650.871 142.563Z" fill="#A8CFCC"/>
<path fill-rule="evenodd" clip-rule="evenodd" d="M669.977 232.585V193.264C669.977 188.574 673.77 184.771 678.446 184.771C683.125 184.771 686.919 188.574 686.919 193.264V232.585H669.977ZM698.272 232.585V203.29C698.272 198.604 702.069 194.798 706.745 194.798C711.421 194.798 715.218 198.604 715.218 203.29V232.585H698.272Z" fill="#A8CFCC"/>
<path d="M762.922 3.31836H626.344V121.561H762.922V3.31836Z" fill="#A8CFCC"/>
<path fill-rule="evenodd" clip-rule="evenodd" d="M647.566 121.561C649.391 98.0308 669.044 79.4805 692.985 79.4805C716.927 79.4805 736.58 98.0308 738.404 121.561H647.566Z" fill="#82B5B2"/>
<path fill-rule="evenodd" clip-rule="evenodd" d="M720.148 3.31836V36.822C720.148 41.5081 716.354 45.313 711.679 45.313C707.003 45.313 703.206 41.5081 703.206 36.822V3.31836H720.148ZM691.853 3.31836V26.7953C691.853 31.4817 688.055 35.2862 683.379 35.2862C678.704 35.2862 674.906 31.4817 674.906 26.7953V3.31836H691.853Z" fill="#82B5B2"/>
<path d="M606.728 274.311C630.491 274.311 649.756 255.198 649.756 231.62C649.756 208.043 630.491 188.93 606.728 188.93C582.964 188.93 563.699 208.043 563.699 231.62C563.699 255.198 582.964 274.311 606.728 274.311Z" fill="#FFCF84"/>
<path fill-rule="evenodd" clip-rule="evenodd" d="M606.73 198.322C625.253 198.322 640.292 213.243 640.292 231.621C640.292 249.999 625.253 264.919 606.73 264.919C605.978 264.919 605.367 265.525 605.367 266.272C605.367 267.018 605.978 267.624 606.73 267.624C626.758 267.624 643.019 251.492 643.019 231.621C643.019 211.75 626.758 195.617 606.73 195.617C605.978 195.617 605.367 196.223 605.367 196.97C605.367 197.716 605.978 198.322 606.73 198.322Z" fill="#FD9909"/>
<path fill-rule="evenodd" clip-rule="evenodd" d="M606.73 264.919C588.205 264.919 573.166 249.999 573.166 231.621C573.166 213.243 588.205 198.322 606.73 198.322C607.482 198.322 608.093 197.716 608.093 196.97C608.093 196.223 607.482 195.617 606.73 195.617C586.7 195.617 570.441 211.75 570.441 231.621C570.441 251.492 586.7 267.624 606.73 267.624C607.482 267.624 608.093 267.018 608.093 266.272C608.093 265.525 607.482 264.919 606.73 264.919Z" fill="#FD9909"/>
<path fill-rule="evenodd" clip-rule="evenodd" d="M611.905 274.004L611.025 266.971C610.932 266.23 611.464 265.554 612.211 265.462C612.958 265.37 613.637 265.897 613.732 266.637L614.602 273.596C613.713 273.76 612.813 273.896 611.905 274.004ZM619.951 272.253L617.514 265.116C617.274 264.409 617.655 263.641 618.37 263.401C619.081 263.162 619.856 263.541 620.096 264.248L622.519 271.339C621.677 271.67 620.821 271.974 619.951 272.253ZM583.006 267.235L586.795 261.053C587.185 260.415 588.025 260.212 588.668 260.6C589.312 260.988 589.516 261.82 589.126 262.458L585.326 268.658C584.535 268.207 583.761 267.732 583.006 267.235ZM642.128 255.877L635.865 251.279C635.263 250.835 635.134 249.987 635.582 249.387C636.029 248.787 636.882 248.661 637.487 249.104L643.611 253.601C643.142 254.376 642.646 255.135 642.128 255.877ZM565.832 244.927L573.191 241.641C573.875 241.335 574.685 241.639 574.993 242.319C575.301 243 574.995 243.801 574.308 244.108L566.767 247.476C566.429 246.639 566.116 245.789 565.832 244.927ZM648.477 221.266C648.696 222.138 648.889 223.019 649.053 223.911L641.798 225.608C641.067 225.78 640.331 225.329 640.159 224.602C639.985 223.876 640.44 223.147 641.171 222.975L648.477 221.266ZM571.17 207.581L577.654 211.788C578.284 212.197 578.461 213.036 578.049 213.661C577.637 214.285 576.792 214.461 576.162 214.052L569.706 209.862C570.17 209.085 570.66 208.324 571.17 207.581ZM575.402 202.362L580.675 206.209C581.28 206.652 581.411 207.499 580.964 208.1C580.519 208.702 579.663 208.831 579.058 208.388L573.591 204.397C574.172 203.7 574.777 203.022 575.402 202.362ZM631.596 196.789C632.337 197.311 633.062 197.856 633.769 198.424L629.055 204.321C628.586 204.906 627.727 205.004 627.138 204.54C626.549 204.076 626.451 203.224 626.917 202.639L631.596 196.789ZM624.294 192.645C625.126 193.015 625.944 193.411 626.745 193.83L623.422 200.015C623.067 200.674 622.241 200.923 621.576 200.572C620.914 200.221 620.663 199.401 621.017 198.742L624.294 192.645ZM597.077 190.01L598.996 196.799C599.198 197.518 598.775 198.265 598.05 198.467C597.325 198.668 596.572 198.249 596.37 197.53L594.44 190.699C595.307 190.442 596.185 190.212 597.077 190.01Z" fill="#FD9909"/>
<path d="M721.177 327.197C744.941 327.197 764.205 308.084 764.205 284.507C764.205 260.93 744.941 241.816 721.177 241.816C697.413 241.816 678.148 260.93 678.148 284.507C678.148 308.084 697.413 327.197 721.177 327.197Z" fill="#FFCF84"/>
<path fill-rule="evenodd" clip-rule="evenodd" d="M721.18 251.209C739.702 251.209 754.741 266.129 754.741 284.507C754.741 302.885 739.702 317.806 721.18 317.806C720.427 317.806 719.816 318.412 719.816 319.159C719.816 319.905 720.427 320.511 721.18 320.511C741.207 320.511 757.468 304.378 757.468 284.507C757.468 264.636 741.207 248.504 721.18 248.504C720.427 248.504 719.816 249.11 719.816 249.856C719.816 250.603 720.427 251.209 721.18 251.209Z" fill="#FD9909"/>
<path fill-rule="evenodd" clip-rule="evenodd" d="M721.179 317.806C702.654 317.806 687.615 302.885 687.615 284.507C687.615 266.129 702.654 251.209 721.179 251.209C721.931 251.209 722.542 250.603 722.542 249.856C722.542 249.11 721.931 248.504 721.179 248.504C701.149 248.504 684.891 264.636 684.891 284.507C684.891 304.378 701.149 320.511 721.179 320.511C721.931 320.511 722.542 319.905 722.542 319.159C722.542 318.412 721.931 317.806 721.179 317.806Z" fill="#FD9909"/>
<path fill-rule="evenodd" clip-rule="evenodd" d="M726.355 326.891L725.474 319.858C725.381 319.117 725.913 318.441 726.66 318.349C727.407 318.257 728.086 318.783 728.181 319.524L729.051 326.483C728.162 326.646 727.263 326.783 726.355 326.891ZM734.4 325.139L731.963 318.003C731.723 317.296 732.105 316.527 732.819 316.288C733.531 316.048 734.305 316.428 734.545 317.135L736.969 324.226C736.126 324.556 735.27 324.861 734.4 325.139ZM697.455 320.122L701.245 313.939C701.634 313.302 702.474 313.099 703.118 313.487C703.761 313.874 703.965 314.707 703.576 315.345L699.775 321.544C698.984 321.094 698.21 320.619 697.455 320.122ZM756.577 308.764L750.314 304.166C749.712 303.722 749.584 302.874 750.031 302.274C750.478 301.674 751.331 301.547 751.937 301.991L758.06 306.487C757.591 307.263 757.095 308.022 756.577 308.764ZM680.281 297.814L687.64 294.528C688.324 294.221 689.134 294.525 689.442 295.206C689.75 295.887 689.445 296.688 688.758 296.995L681.216 300.363C680.878 299.526 680.565 298.676 680.281 297.814ZM762.927 274.153C763.145 275.024 763.338 275.906 763.502 276.797L756.247 278.495C755.516 278.666 754.78 278.215 754.608 277.489C754.434 276.762 754.889 276.033 755.62 275.862L762.927 274.153ZM685.62 260.468L692.103 264.675C692.733 265.084 692.91 265.922 692.498 266.547C692.087 267.172 691.241 267.347 690.612 266.939L684.155 262.748C684.619 261.972 685.11 261.211 685.62 260.468ZM689.851 255.249L695.124 259.096C695.729 259.538 695.86 260.386 695.413 260.987C694.968 261.588 694.112 261.717 693.507 261.275L688.041 257.284C688.621 256.587 689.227 255.908 689.851 255.249ZM746.045 249.675C746.786 250.198 747.512 250.743 748.218 251.311L743.504 257.208C743.035 257.792 742.176 257.89 741.587 257.426C740.998 256.962 740.9 256.111 741.366 255.526L746.045 249.675ZM738.744 245.531C739.575 245.902 740.393 246.298 741.195 246.717L737.871 252.902C737.517 253.56 736.69 253.81 736.025 253.459C735.363 253.107 735.112 252.287 735.466 251.629L738.744 245.531ZM711.526 242.896L713.445 249.686C713.647 250.405 713.224 251.152 712.499 251.353C711.774 251.555 711.021 251.135 710.82 250.416L708.889 243.585C709.756 243.329 710.634 243.099 711.526 242.896Z" fill="#FD9909"/>
<path fill-rule="evenodd" clip-rule="evenodd" d="M233.327 208.551V201.524C233.327 200.361 234.268 199.418 235.428 199.418C236.588 199.418 237.53 200.361 237.53 201.524V208.551H244.54C245.7 208.551 246.641 209.495 246.641 210.657C246.641 211.819 245.7 212.763 244.54 212.763H237.53V219.791C237.53 220.953 236.588 221.897 235.428 221.897C234.268 221.897 233.327 220.953 233.327 219.791V212.763H226.312C225.152 212.763 224.211 211.819 224.211 210.657C224.211 209.495 225.152 208.551 226.312 208.551H233.327Z" fill="#FD9500"/>
<path fill-rule="evenodd" clip-rule="evenodd" d="M452.639 68.1762V61.149C452.639 59.9865 453.581 59.043 454.741 59.043C455.901 59.043 456.842 59.9865 456.842 61.149V68.1762H463.852C465.012 68.1762 465.954 69.1197 465.954 70.2823C465.954 71.4444 465.012 72.3884 463.852 72.3884H456.842V79.4155C456.842 80.5776 455.901 81.5216 454.741 81.5216C453.581 81.5216 452.639 80.5776 452.639 79.4155V72.3884H445.625C444.465 72.3884 443.523 71.4444 443.523 70.2823C443.523 69.1197 444.465 68.1762 445.625 68.1762H452.639Z" fill="#FD9500"/>
<path fill-rule="evenodd" clip-rule="evenodd" d="M1105.04 158.056V151.088C1105.04 149.936 1105.97 149 1107.12 149C1108.27 149 1109.2 149.936 1109.2 151.088V158.056H1116.15C1117.3 158.056 1118.23 158.992 1118.23 160.144C1118.23 161.297 1117.3 162.233 1116.15 162.233H1109.2V169.2C1109.2 170.353 1108.27 171.289 1107.12 171.289C1105.97 171.289 1105.04 170.353 1105.04 169.2V162.233H1098.08C1096.93 162.233 1096 161.297 1096 160.144C1096 158.992 1096.93 158.056 1098.08 158.056H1105.04Z" fill="#FD9500"/>
<path fill-rule="evenodd" clip-rule="evenodd" d="M1107.57 373.167C1104.97 372.698 1103 370.424 1103 367.693V356.564C1103 353.494 1105.49 351 1108.56 351H1171.06C1174.14 351 1176.63 353.494 1176.63 356.564V367.693C1176.63 370.424 1174.66 372.698 1172.06 373.167C1174.66 373.64 1176.63 375.915 1176.63 378.645V389.774C1176.63 392.505 1174.66 394.775 1172.06 395.248C1174.66 395.717 1176.63 397.992 1176.63 400.722V411.851C1176.63 414.582 1174.66 416.856 1172.06 417.325C1174.66 417.798 1176.63 420.068 1176.63 422.799V433.928C1176.63 436.998 1174.14 439.492 1171.06 439.492H1108.56C1105.49 439.492 1103 436.998 1103 433.928V422.799C1103 420.068 1104.97 417.798 1107.57 417.325C1104.97 416.856 1103 414.582 1103 411.851V400.722C1103 397.992 1104.97 395.717 1107.57 395.248C1104.97 394.775 1103 392.505 1103 389.774V378.645C1103 375.915 1104.97 373.64 1107.57 373.167Z" fill="#FFCD80"/>
<path fill-rule="evenodd" clip-rule="evenodd" d="M1161.88 351V368.807H1176.31C1176.38 368.807 1176.45 368.811 1176.52 368.815C1176.09 370.931 1174.45 372.608 1172.36 373.107H1172.25V373.133C1172.19 373.146 1172.13 373.158 1172.06 373.167C1172.13 373.18 1172.19 373.193 1172.25 373.206V390.879H1176.31C1176.38 390.879 1176.45 390.884 1176.52 390.888C1176.09 392.999 1174.46 394.676 1172.38 395.179H1167.78V412.956H1176.31C1176.38 412.956 1176.45 412.956 1176.52 412.965C1176.09 415.067 1174.47 416.745 1172.4 417.256H1160.99V439.492H1156.69V417.256H1152.62V439.492H1148.32V417.256H1119.77V439.492H1115.46V417.256H1107.24C1105.16 416.745 1103.54 415.063 1103.11 412.956H1130.13V395.179H1107.25C1105.17 394.676 1103.54 392.995 1103.11 390.879H1109.31V373.107H1107.27C1105.18 372.608 1103.55 370.922 1103.11 368.807H1121.17V351H1125.47V368.807H1148.85V351H1153.15V368.807H1157.58V351H1161.88ZM1134.43 395.179V412.956H1137.68V395.179H1134.43ZM1141.98 395.179V412.956H1163.48V395.179H1141.98ZM1113.61 373.107V390.879H1145.67V373.107H1113.61ZM1149.97 373.107V390.879H1167.95V373.107H1149.97Z" fill="#FDA425"/>
<path fill-rule="evenodd" clip-rule="evenodd" d="M79.1878 400.002C76.8717 399.614 75.1033 397.598 75.1033 395.173V385.376C75.1033 382.672 77.2973 380.475 80.0016 380.475H150.008C152.712 380.475 154.909 382.672 154.909 385.376V395.173C154.909 397.598 153.141 399.614 150.825 400.002C153.141 400.393 154.909 402.409 154.909 404.835V414.631C154.909 416.913 153.344 418.835 151.228 419.376C153.291 419.955 154.803 421.849 154.803 424.093V433.892C154.803 436.594 152.609 438.791 149.905 438.791H79.8983C77.1941 438.791 75 436.594 75 433.892V424.093C75 421.811 76.5618 419.892 78.6776 419.348C76.615 418.769 75.1033 416.875 75.1033 414.631V404.835C75.1033 402.409 76.8717 400.393 79.1878 400.002Z" fill="#FFC367"/>
<path fill-rule="evenodd" clip-rule="evenodd" d="M143.67 397.595H154.27C153.554 398.85 152.302 399.755 150.828 400.002C150.978 400.027 151.128 400.061 151.275 400.099H149.735V416.894H154.358C153.723 418.108 152.59 419.029 151.231 419.376C151.256 419.382 151.278 419.389 151.3 419.398H143.134V438.791H140.63V419.398H116.865V438.791H114.361V419.398H94.1015V438.791H91.5976V419.398H89.0467V438.791H86.5428V419.398H78.5053C78.5647 419.379 78.621 419.363 78.6805 419.348C77.3691 418.979 76.2767 418.08 75.6602 416.894H80.7087V400.099H78.7431C78.8871 400.061 79.0373 400.027 79.1907 400.002C77.7165 399.755 76.4645 398.85 75.7478 397.595H89.4254V380.475H91.9294V397.595H97.2877V380.475H99.7916V397.595H112.396V380.475H114.9V397.595H141.166V380.475H143.67V397.595ZM83.2126 400.099V416.894H105.754V400.099H83.2126ZM108.258 400.099V416.894H122.63V400.099H108.258ZM125.134 400.099V416.894H128.84V400.099H125.134ZM131.344 400.099V416.894H147.231V400.099H131.344Z" fill="#FEA424"/>
<path fill-rule="evenodd" clip-rule="evenodd" d="M160.397 354.856C173.692 350.396 191.345 361.532 200.907 380.941C210.628 400.675 208.475 421.826 196.312 429.335L196.371 429.46L183.439 436.177C183.057 436.402 182.666 436.615 182.265 436.812C182.096 436.894 181.924 436.975 181.755 437.053L181.235 437.322L181.217 437.288C167.802 442.875 149.357 431.657 139.501 411.654C129.389 391.125 132.127 369.066 145.614 362.421C145.614 362.421 157.292 356.205 158.143 355.786C158.803 355.46 159.476 355.178 160.162 354.937L160.381 354.825L160.397 354.856Z" fill="#FFCD80"/>
<path d="M192.201 423.106C203.389 418.066 206.21 400.106 198.5 382.99C190.791 365.874 175.471 356.085 164.282 361.125C153.094 366.164 150.273 384.125 157.983 401.241C165.692 418.356 181.012 428.146 192.201 423.106Z" fill="#FEA424"/>
<path fill-rule="evenodd" clip-rule="evenodd" d="M166.297 353.88L166.488 353.877C164.691 354.234 162.941 354.816 161.267 355.642C155.599 358.434 151.627 363.567 149.492 369.952C146.215 379.758 147.248 392.478 153.154 404.465C159.06 416.456 168.516 425.029 178.29 428.403C184.65 430.6 191.142 430.581 196.81 427.789C198.488 426.96 200.015 425.93 201.392 424.722L201.345 424.778L201.301 424.838L201.258 424.894L201.182 424.988L201.142 425.041L201.089 425.104L201.051 425.151L201.042 425.163L200.97 425.248L200.929 425.298L200.866 425.373L200.844 425.401L200.819 425.426L200.754 425.508L200.716 425.551L200.632 425.648L200.6 425.683L200.531 425.761L200.497 425.802L200.409 425.899L200.378 425.933L200.306 426.012L200.275 426.046L200.184 426.146L200.153 426.181L200.075 426.262L200.049 426.287L199.956 426.387L199.924 426.418L199.833 426.512L199.824 426.525L199.815 426.531L199.721 426.625L199.69 426.656L199.592 426.756L199.571 426.775L199.483 426.86L199.455 426.888L199.355 426.985L199.33 427.01L199.239 427.091L199.217 427.116L199.11 427.213L199.085 427.235L198.992 427.323L198.973 427.339L198.866 427.432L198.838 427.458L198.732 427.555L198.726 427.558L198.616 427.652L198.588 427.677L198.478 427.771L198.463 427.783L198.362 427.868L198.334 427.886L198.225 427.98L198.2 427.996L198.103 428.077L198.081 428.096L197.965 428.184L197.94 428.206L197.833 428.287L197.821 428.296L197.702 428.387L197.677 428.406L197.558 428.494L197.436 428.581L197.408 428.603L197.289 428.688L197.276 428.697L197.167 428.775L197.139 428.794L197.02 428.875L196.998 428.891L196.888 428.963L196.866 428.979L196.744 429.06L196.719 429.079L196.607 429.151L196.591 429.16L196.466 429.238L196.438 429.257L196.312 429.335L196.372 429.461L191.148 432.174C189.023 432.509 186.841 432.566 184.638 432.356C184.628 432.362 184.616 432.368 184.603 432.375L173.164 438.709C171.777 438.663 170.369 438.484 168.951 438.181L180.66 431.695C179.596 431.445 178.531 431.135 177.47 430.769C173.777 429.492 170.121 427.52 166.663 424.932L155.824 431.893C155.129 431.373 154.438 430.825 153.752 430.249L164.591 423.289C163.787 422.612 162.995 421.902 162.218 421.16L151.117 427.858C150.51 427.267 149.909 426.653 149.32 426.021L160.403 419.329C156.751 415.461 153.502 410.835 150.91 405.573C150.297 404.328 149.733 403.076 149.22 401.817L137.718 407.702C137.398 406.919 137.095 406.137 136.81 405.354L148.319 399.467C146.56 394.553 145.549 389.614 145.251 384.872L133.486 389.799C133.43 388.897 133.402 388.005 133.398 387.123L145.157 382.196C145.129 378.356 145.58 374.675 146.484 371.279L134.844 376.29C135.173 375.173 135.558 374.096 135.999 373.066L147.226 368.234L147.342 368.506C148.726 364.634 150.747 361.21 153.367 358.434C153.367 358.434 157.007 356.368 158.037 355.839L158.143 355.786C158.804 355.461 159.477 355.179 160.162 354.938L160.381 354.825L160.397 354.857L160.538 354.81L160.56 354.803L160.697 354.76L160.722 354.75L160.86 354.709L160.876 354.703L161.01 354.663L161.029 354.656L161.167 354.619L161.192 354.609L161.33 354.572L161.351 354.566L161.489 354.528L161.499 354.525L161.639 354.487L161.664 354.481L161.805 354.447L161.827 354.44L161.971 354.406H161.974L162.121 354.371L162.14 354.365L162.281 354.334L162.306 354.331L162.45 354.299L162.463 354.296L162.607 354.265H162.616L162.763 354.234L162.785 354.231L162.932 354.202L162.948 354.199L163.098 354.171L163.251 354.146L163.267 354.143L163.417 354.121L163.433 354.118L163.586 354.093L163.743 354.071H163.752L163.902 354.049L163.921 354.046L164.071 354.027H164.084L164.237 354.008H164.24L164.394 353.993L164.413 353.99L164.56 353.974L164.582 353.971L164.735 353.958L164.882 353.946L164.907 353.943L165.051 353.933L165.082 353.93L165.223 353.921L165.251 353.918L165.342 353.915L165.477 353.905L165.527 353.902L165.69 353.896H165.708L165.899 353.886L166.093 353.883H166.096L166.287 353.88H166.297Z" fill="#FEA424"/>
<path d="M173.485 404.761C177.946 406.411 182.256 406.461 186.53 405.007C191.561 403.146 193.111 400.32 191.34 396.471C189.808 393.364 187.196 392.089 183.505 392.645C181.811 392.973 180.008 393.34 178.014 393.705C174.405 394.302 171.183 393.864 168.43 392.433C165.594 390.962 163.451 388.693 161.948 385.644C160.155 382.01 159.798 378.691 160.985 375.649C162.064 372.646 164.616 370.428 168.559 368.954C173.46 367.346 178.373 367.319 183.269 368.814L182.576 375.195C178.681 374.17 174.921 374.2 171.409 375.382C169.614 376.022 168.321 377.033 167.616 378.456C166.855 379.899 166.954 381.656 167.882 383.668C168.49 384.899 169.445 385.799 170.807 386.486C172.169 387.172 173.902 387.313 176.009 387.045C177.13 386.853 178.714 386.564 180.68 386.139C184.586 385.368 187.946 385.825 190.815 387.491C193.6 389.118 195.743 391.387 197.217 394.377C200.986 402.408 198.409 408.081 189.597 411.358C183.884 413.393 177.978 413.223 171.963 410.885L173.485 404.761Z" fill="#FFCD80"/>
<path fill-rule="evenodd" clip-rule="evenodd" d="M165.432 363.834L187.063 417.565L193.945 415.545L171.275 362.119L165.432 363.834Z" fill="#FFCD80"/>
</g>
<defs>
<clipPath id="clip0_1311_5">
<rect width="1344" height="439" fill="white"/>
</clipPath>
</defs>
</svg>
