<svg width="1150" height="734" viewBox="0 0 1150 734" fill="none" xmlns="http://www.w3.org/2000/svg">
<g id="Illustrazione_6">
<g id="Parallax_1">
<path id="MANS-CHAIR-" fill-rule="evenodd" clip-rule="evenodd" d="M172.281 579.944H370.991V597.67H178.741L226.993 733.52H208.86L83.9609 389.362L100.614 383.291L172.281 579.944Z" fill="#242C2C"/>
<g id="MAN">
<g id="Group">
<path id="Vector" fill-rule="evenodd" clip-rule="evenodd" d="M26.7559 713.448C26.7559 713.448 29.2055 598.41 31.081 510.339C32.2811 453.935 76.7121 407.968 133.043 404.854C257.515 397.905 380.397 396.139 500.746 402.607C559.201 405.759 607.471 449.407 616.466 507.253C616.499 507.247 616.499 507.247 616.499 507.247C621.424 538.887 612.827 571.136 592.803 596.124C567.396 627.713 524.498 671.724 458.077 713.705C458.077 713.705 482.639 720.805 485.149 731.778C485.149 731.778 298.259 731.56 250.63 731.51C248.875 731.504 247.302 730.425 246.668 728.787C246.034 727.155 246.47 725.293 247.764 724.114C281.223 693.531 407.224 578.364 407.224 578.364L194.689 580.522C194.689 580.522 191.275 699.339 190.473 727.25C190.38 730.481 187.72 733.052 184.484 733.03C152.542 732.807 0.00519975 731.761 0.00519975 731.761C0.00519975 731.761 -1.04629 720.609 26.7559 713.448Z" fill="url(#paint0_linear_1419_246)"/>
<path id="Vector_2" fill-rule="evenodd" clip-rule="evenodd" d="M507.94 678.688L345.245 635.007L350.139 630.53L513.413 674.367C511.613 675.804 509.791 677.246 507.94 678.688ZM193.313 628.227L28.4805 632.207L28.5995 626.611L193.474 622.631L193.313 628.227Z" fill="#82B5B2"/>
<path id="Vector_3" fill-rule="evenodd" clip-rule="evenodd" d="M406.948 578.61L464.777 578.476C465.331 578.476 465.8 578.878 465.884 579.426C465.968 579.974 465.644 580.499 465.113 580.667L373.276 609.389L406.948 578.61ZM194.682 580.689L193.933 606.75L145.154 584.792C144.21 584.367 143.691 583.339 143.909 582.327C144.127 581.31 145.024 580.589 146.06 580.594L194.682 580.689Z" fill="#346864"/>
</g>
<g id="Group_2">
<path id="Vector_4" fill-rule="evenodd" clip-rule="evenodd" d="M477.238 162.536C477.238 162.536 421.074 86.7042 294.732 119.823C277.718 124.283 142.958 167.054 89.7966 287.22C84.5984 298.97 56.5709 352.394 97.2028 380.954C125.552 400.888 155.951 397.193 262.468 361.545C271.482 358.526 327.003 346.798 316.966 333.976C316.966 333.976 321.446 334.883 323.597 331.901C323.597 331.901 323.843 333.438 324.025 334.573C324.149 335.349 324.516 336.065 325.073 336.62C327.619 339.158 335.267 346.782 340.077 351.578C340.905 352.4 342.113 352.713 343.236 352.388C344.358 352.07 345.218 351.164 345.482 350.024C346.902 343.908 348.971 334.999 348.971 334.999C348.971 334.999 399.502 345.965 429.957 296.725C429.957 296.725 431.226 345.362 468.875 364.994C479.871 370.729 540.925 382.91 556.946 319.943C568.149 275.9 576.333 197.203 583.494 140.66C583.494 140.66 620.908 117.173 623.737 105.923C624.754 101.883 620.651 95.2464 611.505 101.958C611.505 101.958 625.162 90.3456 620.606 84.8735C618.068 81.8297 612.875 81.6703 602.589 90.4775C602.589 90.4775 615.402 77.3554 609.549 72.1041C603.255 66.4642 595.948 78.0642 589.251 84.3083C589.251 84.3083 604.155 61.4248 595.725 57.4732C592.153 55.799 588.295 55.5882 575.287 71.9693C563.241 87.1391 546.158 88.7043 533.776 87.2163C533.776 87.2163 538.65 58.6348 533.066 55.8655C526.76 52.7361 521.075 58.3307 507.374 86.4364C493.846 114.173 487.098 141.655 477.238 162.536Z" fill="url(#paint1_linear_1419_246)"/>
<path id="Vector_5" fill-rule="evenodd" clip-rule="evenodd" d="M328.575 113.21C426.275 100.931 472.723 156.782 476.926 162.128C470.554 184.861 459.625 233.424 459.625 233.424L448.126 233.263C448.311 261.64 430.014 295.555 430.014 295.555L429.942 296.749C400.985 343.539 353.25 335.779 348.742 335.109L350.215 327.709L346.388 316.973L345.198 313.932C345.198 313.932 350.478 306.855 355.156 300.586C359.102 295.295 358.18 287.834 353.064 283.663C342.833 275.323 327.681 262.971 327.681 262.971C327.593 262.904 327.505 262.836 327.418 262.769C315.246 253.457 299.866 249.378 284.679 251.435C252.495 255.794 187.786 264.559 187.786 264.559L148.719 204.156C194.297 160.185 247.759 136.224 276.229 125.828L328.575 113.21Z" fill="#82B5B2"/>
<g id="Group_3">
<path id="Vector_6" fill-rule="evenodd" clip-rule="evenodd" d="M323.617 332.016C324.707 330.691 328.31 325.688 325.079 320.858L320.531 315.36C320.531 315.36 326.91 316.28 329.502 316.033C329.502 316.033 329.146 322.42 334.42 323.53C335.863 323.829 337.352 323.289 338.268 322.134C340.812 318.937 346.512 311.75 346.512 311.75C346.512 311.75 349.69 325.466 350.264 327.946C350.323 328.197 350.324 328.459 350.268 328.711C349.745 331.08 346.97 343.632 346.97 343.632L345.484 350.027C345.22 351.167 344.361 352.073 343.238 352.391C342.116 352.716 340.907 352.402 340.08 351.581C335.269 346.784 327.621 339.161 325.075 336.623C324.518 336.068 324.152 335.352 324.027 334.576L323.617 332.016ZM301.094 251.437C301.094 251.437 321.336 254.402 334.326 268.804L325.377 225.615L295.723 225.787L301.094 251.437Z" fill="#FFBF2F"/>
<path id="Vector_7" fill-rule="evenodd" clip-rule="evenodd" d="M347.124 342.934L346.969 343.632L345.484 350.027C345.22 351.168 344.36 352.073 343.238 352.392C342.115 352.716 340.907 352.403 340.079 351.581L333.273 344.795L347.124 342.934ZM327.028 316.034C327.983 316.085 328.859 316.096 329.502 316.034C329.502 316.034 329.146 322.42 334.42 323.53C334.993 323.649 335.573 323.636 336.122 323.504L336.942 327.32L349.287 323.728L350.264 327.947C350.294 328.077 350.309 328.209 350.309 328.342L324.536 335.945C324.279 335.53 324.105 335.064 324.027 334.576L323.617 332.017C323.812 331.779 324.089 331.424 324.391 330.971L329.908 329.367L327.028 316.034ZM313.87 255.123L307.52 225.719L315.083 225.676L322.293 259.2C319.401 257.52 316.527 256.181 313.87 255.123Z" fill="#242C2C"/>
</g>
<path id="Vector_8" fill-rule="evenodd" clip-rule="evenodd" d="M318.046 338.154L301.041 336.795C299.811 336.697 298.892 335.618 298.99 334.388C299.089 333.158 300.167 332.239 301.397 332.337L320.552 333.868C318.714 334.331 316.963 333.976 316.963 333.976C318.066 335.386 318.378 336.782 318.046 338.154ZM325.748 317.068C325.905 316.951 326.08 316.852 326.272 316.777C326.272 316.777 328.414 315.937 330.696 315.042C333.384 313.987 335.381 311.676 336.032 308.864V308.862C337.362 303.125 334.968 297.168 330.037 293.948C324.436 290.289 318.442 286.373 318.442 286.373C317.409 285.698 317.118 284.311 317.793 283.278C318.468 282.245 319.855 281.954 320.888 282.629L332.04 289.914L332.338 287.379C332.483 286.153 333.595 285.275 334.82 285.419C336.046 285.564 336.924 286.676 336.78 287.901L336.139 293.339C340.099 297.754 341.773 303.904 340.389 309.872L340.389 309.873C339.404 314.122 336.39 317.613 332.329 319.205C330.046 320.1 327.904 320.94 327.904 320.94C327.108 321.253 326.24 321.076 325.631 320.556C325.066 320.978 324.311 321.127 323.591 320.889L304.512 314.595C303.34 314.208 302.703 312.943 303.09 311.77C303.476 310.599 304.741 309.961 305.913 310.348L324.993 316.642C325.279 316.737 325.533 316.883 325.748 317.068ZM460.409 208.932C460.409 208.932 444.119 277.236 440.547 307.742C440.402 308.967 441.279 310.079 442.509 310.223C443.733 310.366 444.846 309.487 444.986 308.262C448.546 277.916 464.763 209.97 464.763 209.97C465.048 208.77 464.305 207.563 463.103 207.276C461.907 206.99 460.699 207.732 460.409 208.932ZM199.81 255.61C161.03 264.303 137.335 271.687 125.818 278.098C124.471 278.848 123.985 280.552 124.736 281.899C125.486 283.248 127.19 283.732 128.537 282.982C139.816 276.704 163.053 269.578 201.033 261.065C202.538 260.728 203.486 259.232 203.149 257.727C202.811 256.221 201.315 255.273 199.81 255.61ZM584.184 140.217C583.731 140.506 583.491 140.66 583.491 140.66C582.971 144.754 582.445 148.964 581.92 153.267L570.449 150.25C570.013 150.135 569.689 149.766 569.633 149.317C569.571 148.869 569.789 148.429 570.181 148.205L584.184 140.217ZM621.33 86.1832C623.214 92.0013 611.503 101.958 611.503 101.958C611.838 101.712 612.168 101.484 612.486 101.273C604.319 108.76 593.29 117.644 582.641 122.331C581.512 122.829 580.193 122.316 579.695 121.186C579.198 120.057 579.712 118.736 580.841 118.239C598.768 110.347 617.78 90.0767 621.33 86.1832ZM611.072 75.8287C610.972 81.8894 602.586 90.478 602.586 90.478C603.201 89.947 603.805 89.4483 604.392 88.9815C596.163 96.8937 584.245 107.351 573.775 112.667C572.674 113.226 571.327 112.786 570.768 111.686C570.209 110.586 570.65 109.239 571.752 108.68C588.639 100.104 609.373 77.6879 611.072 75.8287ZM597.416 67.5693C595.14 75.2663 589.249 84.3088 589.249 84.3088C589.433 84.1389 589.617 83.965 589.796 83.7884C582.976 90.9258 573.77 98.7396 563.411 102.669C562.254 103.106 560.963 102.525 560.527 101.371C560.091 100.217 560.672 98.9246 561.824 98.4869C579.706 91.7056 593.894 72.6233 597.416 67.5693Z" fill="#82B5B2"/>
<path id="Vector_9" fill-rule="evenodd" clip-rule="evenodd" d="M256.348 255.272L273.636 236.919C274.414 236.093 275.621 235.831 276.67 236.262C277.721 236.692 278.397 237.724 278.372 238.859L278.076 252.33L256.348 255.272ZM448.083 236.029C448.032 233.591 447.686 219.167 446.199 209.27C446.087 208.802 446.344 208.324 446.797 208.157C447.244 207.989 447.753 208.184 447.971 208.612C451.202 214.766 456.11 224.745 458.922 233.415L448.122 233.264C448.127 234.181 448.111 235.103 448.083 236.029Z" fill="#346864"/>
</g>
<g id="Group_4">
<g id="Group_5">
<path id="Vector_10" d="M324.373 96.7056C348.47 96.7056 368.004 77.1059 368.004 52.9285C368.004 28.7511 348.47 9.15137 324.373 9.15137C300.277 9.15137 280.742 28.7511 280.742 52.9285C280.742 77.1059 300.277 96.7056 324.373 96.7056Z" fill="#99C3C0"/>
</g>
<path id="Vector_11" fill-rule="evenodd" clip-rule="evenodd" d="M295.367 85.6181C286.395 77.5958 280.742 65.9187 280.742 52.9274C280.742 28.766 300.293 9.15039 324.373 9.15039C339.123 9.15039 352.173 16.5092 360.073 27.7659L324.34 59.7137C323.912 58.4548 323.258 57.2272 322.375 56.098C318.642 51.3258 312.218 50.1049 308.04 53.3734C303.861 56.642 303.499 63.17 307.232 67.9423C308.392 69.4253 309.812 70.5651 311.343 71.3343L295.367 85.6181Z" fill="#242C2C"/>
</g>
</g>
<g id="TICKET-NOTE">
<g id="Group_6">
<path id="Vector_12" d="M810.098 128.728H776.758L790.815 177.154H824.156L810.098 128.728Z" fill="white"/>
</g>
<g id="Group_7">
<path id="Vector_13" fill-rule="evenodd" clip-rule="evenodd" d="M791.645 176.05H802.169C802.775 176.05 803.274 176.545 803.273 177.155C803.273 177.764 802.776 178.259 802.166 178.259H790.814C790.325 178.259 789.894 177.935 789.757 177.463L775.699 129.037C775.602 128.703 775.667 128.343 775.876 128.066C776.085 127.788 776.41 127.624 776.76 127.624H800.147C800.757 127.624 801.251 128.119 801.251 128.729C801.25 129.338 800.758 129.833 800.148 129.833H778.228L791.645 176.05Z" fill="#242C2C"/>
</g>
<g id="Group_8">
<path id="Vector_14" fill-rule="evenodd" clip-rule="evenodd" d="M809.269 129.833H800.147C799.537 129.833 799.042 129.338 799.043 128.729C799.043 128.119 799.536 127.624 800.146 127.624H810.099C810.589 127.624 811.02 127.949 811.157 128.421L825.215 176.847C825.312 177.18 825.247 177.54 825.038 177.818C824.829 178.096 824.504 178.259 824.158 178.259H802.165C801.555 178.259 801.061 177.764 801.061 177.155C801.061 176.545 801.558 176.05 802.169 176.05H822.686L809.269 129.833Z" fill="#242C2C"/>
</g>
<g id="Group_9">
<path id="Vector_15" d="M808.67 133.079H781.066L782.917 138.435H810.52L808.67 133.079Z" fill="#242C2C"/>
</g>
<g id="Group_10">
<path id="Vector_16" d="M811.373 141.874H783.77L785.62 147.23H813.223L811.373 141.874Z" fill="#242C2C"/>
</g>
<g id="Group_11">
<path id="Vector_17" d="M814.087 150.667H786.484L788.335 156.023H815.938L814.087 150.667Z" fill="#242C2C"/>
</g>
<g id="Group_12">
<path id="Vector_18" d="M816.791 159.462H789.188L791.038 164.818H818.641L816.791 159.462Z" fill="#242C2C"/>
</g>
<g id="Group_13">
<path id="Vector_19" d="M819.494 168.257H791.891L793.741 173.613H821.345L819.494 168.257Z" fill="#242C2C"/>
</g>
</g>
<g id="GIRL">
<g id="Group_14">
<path id="Vector_20" fill-rule="evenodd" clip-rule="evenodd" d="M817.774 156.54C816.683 153.467 810.177 134.234 815.202 126.067C815.543 125.536 816.085 125.167 816.7 125.049C818.489 124.759 822.301 125.513 827.696 134.21C827.696 134.21 876.676 207.773 894.357 218.763C894.357 218.763 894.827 162.592 960.963 153.408C970.142 152.133 1034.66 139.592 1070.82 229.115C1082.79 258.732 1082.65 282.414 1082.44 307.727C1082.3 327.792 1071.89 346.386 1054.84 356.979C1032.51 370.865 1004.82 373.034 980.595 362.787C964.345 355.939 943.371 348.98 919.563 345.475L867.296 340.421C867.296 340.421 869.907 354.704 848.267 351.954C848.267 351.954 831.229 349.706 834.633 338.279C834.633 338.279 823.151 336.422 825.521 325.323C825.521 325.323 814.637 316.831 824.303 306.463C824.303 306.463 792.881 306.085 786.492 291.121C785.955 289.827 785.921 288.375 786.408 287.058C786.995 285.431 788.515 283.698 792.221 283.571C792.221 283.571 835.69 282.903 847.127 279.628L822.279 237.355C822.279 237.355 802.926 226.718 798.465 209.714C793.87 209.735 789.969 206.191 789.616 201.536C789.314 197.554 791.707 193.985 795.251 192.619L793.216 192.772C788.409 193.135 784.216 189.528 783.853 184.723C783.562 180.845 785.854 177.365 789.275 175.976C784.636 176.19 780.639 172.672 780.286 168.012C779.929 163.268 783.49 159.126 788.23 158.768L817.774 156.54Z" fill="url(#paint2_linear_1419_246)"/>
<path id="Vector_21" fill-rule="evenodd" clip-rule="evenodd" d="M866.579 345.928C856.349 345.341 848.138 347.795 848.138 347.795C846.656 348.243 845.097 347.399 844.655 345.923C844.213 344.447 845.052 342.887 846.533 342.44C846.533 342.44 858.479 338.858 872.035 340.881L867.295 340.422C867.295 340.422 867.787 343.111 866.579 345.928ZM829.372 336.092C831.328 330.159 837.986 317.073 859.139 313.845C860.659 313.613 862.09 314.662 862.32 316.187C862.554 317.712 861.503 319.139 859.977 319.372C841.323 322.218 835.934 333.94 834.559 338.267C834.123 338.186 831.658 337.675 829.372 336.092ZM821.484 320.205C824.218 314.374 831.669 304.9 851.693 301.17C853.208 300.888 854.672 301.89 854.952 303.406C855.237 304.923 854.231 306.384 852.716 306.666C827.734 311.319 825.442 325.677 825.52 325.324C825.52 325.324 823.021 323.375 821.484 320.205ZM817.364 305.981C820.634 301.742 830.987 289.945 846.265 287.756C847.791 287.537 849.211 288.599 849.429 290.127C849.647 291.654 848.585 293.071 847.059 293.29C836.303 294.831 828.421 301.88 824.262 306.487C823.742 306.477 821.048 306.383 817.364 305.981ZM979.94 277.689L1014.07 289.686C1015.52 290.198 1017.12 289.432 1017.63 287.976C1018.14 286.521 1017.38 284.924 1015.92 284.412L981.796 272.415C980.337 271.904 978.744 272.67 978.23 274.125C977.721 275.581 978.487 277.177 979.94 277.689ZM844.213 274.668C847.797 273.96 887.234 266.302 916.001 266.611C917.544 266.628 918.785 267.893 918.768 269.436C918.751 270.978 917.482 272.217 915.939 272.201C886.267 271.882 846.36 279.849 847.126 279.629L844.213 274.668ZM822.278 237.356L830.926 241.246C832.049 241.767 832.53 243.098 832.016 244.217C831.49 245.336 830.16 245.822 829.042 245.302L826.163 243.962L822.278 237.356ZM816.308 151.993C821.367 152.817 824.967 155.519 826.275 157.655C829.198 162.424 828.041 167.105 825.246 170.439C825.425 171.327 825.733 172.683 826.196 174.334C826.873 174.81 827.443 175.305 827.918 175.799C830.506 178.488 830.674 181.341 830.724 182.221C830.78 183.282 830.685 184.269 830.462 185.185C832.899 189.772 836.331 194.296 841.178 196.899C842.262 197.483 842.67 198.84 842.089 199.927C841.508 201.014 840.149 201.423 839.059 200.839C837.008 199.736 835.163 198.344 833.503 196.763C833.508 196.784 833.514 196.805 833.52 196.826C835.336 202.504 832.424 208.633 826.856 210.803C818.382 214.128 806.508 214.349 800.018 214.172C799.392 212.74 798.867 211.254 798.464 209.715C797.894 209.717 815.447 210.476 825.224 206.638C828.634 205.31 830.395 201.535 829.226 198.069C829.21 198.03 829.198 197.991 829.187 197.952C828.349 195.646 826.057 194.189 823.608 194.421L819.002 194.856C818.119 195.118 817.56 195.233 817.56 195.233C817.113 195.325 816.665 195.275 816.274 195.114L790.224 197.576C791.136 195.322 792.947 193.507 795.25 192.62L818.18 190.442C819.539 190.012 821.59 189.212 823.34 187.9C824.983 186.665 826.398 184.937 826.258 182.468C826.23 181.979 826.135 180.396 824.698 178.902C822.921 177.061 819.433 175.511 812.764 175.356C812.585 175.352 812.411 175.327 812.249 175.284C804.44 175.542 796.435 175.662 788.475 175.976C785.551 175.842 782.963 174.232 781.504 171.831C793.07 171.174 804.876 171.128 816.157 170.665C817.75 170.599 819.488 169.777 820.88 168.532C821.07 168.195 821.35 167.909 821.691 167.709C823.424 165.708 824.162 162.925 822.462 159.991C820.886 157.273 817.772 156.541 817.772 156.541C817.515 155.812 816.951 154.175 816.308 151.993ZM830.445 195.303C829.69 195.622 829.573 195.955 829.517 196.062C829.634 195.893 829.78 195.739 829.942 195.607C830.093 195.487 830.261 195.384 830.445 195.303ZM827.935 189.765C827.723 189.998 827.493 190.223 827.264 190.44C827.795 190.619 828.31 190.843 828.801 191.108C828.5 190.664 828.214 190.216 827.935 189.765Z" fill="#FD9500"/>
<path id="Vector_22" fill-rule="evenodd" clip-rule="evenodd" d="M894.176 218.648L894.36 218.763C894.36 218.763 894.83 162.592 960.966 153.408C970.145 152.133 1034.67 139.592 1070.83 229.114C1070.96 229.425 1071.08 229.736 1071.2 230.045C1049.77 252.603 1026.21 235.6 1026.21 235.6C1014.69 270.82 977.848 255.688 977.848 255.688L989.766 281.134C961.933 270.912 907.793 272.396 907.793 272.396C896.568 258.25 894.439 232.776 894.176 218.648Z" fill="#FD9500"/>
<path id="Vector_23" fill-rule="evenodd" clip-rule="evenodd" d="M976.74 277.377C976.74 277.377 969.552 254.174 964.375 237.486C964.146 236.738 964.526 235.937 965.247 235.641C965.974 235.346 966.807 235.654 967.165 236.351C976.327 254.266 990.14 281.263 990.14 281.263L976.74 277.377Z" fill="#E86135"/>
</g>
<g id="Group_15">
<path id="Vector_24" fill-rule="evenodd" clip-rule="evenodd" d="M772.336 427.599C824.229 364.655 931.687 388.004 955.344 391.124C1108.45 411.309 1074.49 528.919 1068.96 543.939C1056.8 576.904 1027.55 589.655 983.881 594.088V722.028C983.881 722.028 970.555 710.127 967.491 696.61C967.491 696.61 962.236 696.286 953.147 695.374C953.147 695.374 960.062 714.14 963.701 724.024C964.204 725.376 964.008 726.886 963.181 728.065C962.359 729.25 961.012 729.955 959.57 729.955H785.708C795.177 712.67 813.82 712.815 813.82 712.815C806.536 694.569 799.023 676.827 791.628 658.715C744.011 639.692 702.024 611.451 689.217 569.754C684.248 553.577 681.313 482.398 772.336 427.599Z" fill="url(#paint3_linear_1419_246)"/>
<path id="Vector_25" fill-rule="evenodd" clip-rule="evenodd" d="M796.816 671.343C814.129 680.08 844.097 688.186 863.959 654.852C864.378 654.142 865.088 653.662 865.898 653.522C866.709 653.388 867.536 653.617 868.168 654.148C868.168 654.148 880.589 664.652 895.867 669.839C904.677 672.83 914.471 674.093 923.269 670.124C929.094 667.491 934.438 662.555 938.804 654.433C939.531 653.075 941.225 652.56 942.589 653.293C943.947 654.025 944.456 655.719 943.723 657.077C938.653 666.519 932.342 672.159 925.567 675.217C915.454 679.784 904.19 678.571 894.067 675.133C882.043 671.047 871.679 663.875 867.084 660.403C847.11 691.121 818.825 686.777 799.897 678.795L798.577 675.614C798.113 674.49 797.649 673.367 797.185 672.243L796.816 671.343Z" fill="#FD9500"/>
<path id="Vector_26" fill-rule="evenodd" clip-rule="evenodd" d="M922.337 595.251C922.337 595.251 874.877 595.055 848.761 594.949C847.693 594.944 846.782 595.737 846.642 596.8C846.508 597.862 847.179 598.862 848.213 599.131C875.582 606.308 928.005 620.06 928.005 620.06L922.337 595.251Z" fill="#FD9500"/>
<path id="Vector_27" fill-rule="evenodd" clip-rule="evenodd" d="M987.303 593.718C986.169 593.847 985.034 593.97 983.882 594.087V599.543C963.042 600.851 943.734 601.176 924.907 600.918L959.118 695.939C957.374 695.782 955.373 695.598 953.148 695.374L958.134 708.913C957.849 708.628 957.615 708.276 957.469 707.868L918.931 600.823C915.41 600.751 911.905 600.661 908.4 600.555C906.862 600.51 905.649 599.219 905.694 597.682C905.739 596.139 907.03 594.926 908.567 594.971C933.644 595.725 959.018 595.636 987.303 593.718ZM786.38 413.606C754.522 442.015 741.955 473.018 750.743 527.029C756.724 563.812 772.499 611.081 798.694 675.082C798.868 675.501 798.929 675.943 798.896 676.368C796.47 670.504 794.044 664.628 791.629 658.714C789.398 657.825 787.184 656.914 784.982 655.981C763.656 602.048 750.575 560.821 745.225 527.929C738.679 487.714 743.56 459.736 758.938 436.235C763.158 433.317 767.619 430.438 772.337 427.598C776.658 422.355 781.365 417.71 786.38 413.606Z" fill="#FD9500"/>
</g>
<g id="Group_16">
<g id="Group_17">
<path id="Vector_28" d="M910.373 150.321C933.021 150.321 951.382 131.824 951.382 109.008C951.382 86.1916 933.021 67.6953 910.373 67.6953C887.724 67.6953 869.363 86.1916 869.363 109.008C869.363 131.824 887.724 150.321 910.373 150.321Z" fill="#FFBF2F"/>
</g>
<path id="Vector_29" fill-rule="evenodd" clip-rule="evenodd" d="M878.536 82.9795C886.06 73.6564 897.531 67.6945 910.377 67.6945C933.011 67.6945 951.386 86.2055 951.386 109.007C951.386 113.667 950.62 118.148 949.206 122.326C941.972 121.693 937.864 116.306 936.449 114.054C939.093 112.692 940.933 109.69 940.933 106.21C940.933 101.451 937.495 97.5863 933.257 97.5863C929.02 97.5863 925.582 101.451 925.582 106.21C925.582 107.335 925.772 108.41 926.124 109.396C900.142 112.195 883.618 90.7446 878.536 82.9795ZM897.162 61.1189C898.224 61.4767 899.393 61.0675 900.002 60.1256C900.606 59.1842 900.5 57.9505 899.734 57.1304C899.516 56.8615 899.27 56.5999 899.013 56.3305C892.55 49.5916 885.272 43.4761 877.519 38.3031C853.672 22.3876 825.257 10.483 797.324 4.16618C768.468 -2.35855 732.451 -2.72581 706.955 14.1601C690.179 25.2681 677.635 48.7721 692.096 67.1266C697.284 73.71 704.735 78.2855 712.438 81.3667C743.62 93.8393 776.132 85.9707 805.753 73.4814C822.619 66.3702 839.389 56.9437 857.758 54.0184C869.29 52.1821 887.083 57.5497 897.162 61.1189Z" fill="#242C2C"/>
</g>
</g>
<g id="GIRLS-CHAIR">
<path id="Vector_30" fill-rule="evenodd" clip-rule="evenodd" d="M1055.32 595.493L1133.35 384.82L1150 390.891L1026.09 730.89H1005.17L1048.75 613.214H924.609V595.493H1055.32Z" fill="#242C2C"/>
</g>
<g id="COMPUTER-SCREEN">
<g id="Group_18">
<g id="Group_19">
<g id="Group_20">
<path id="Vector_31" d="M755.808 165.442H521.23L548.984 330.189H783.562L755.808 165.442Z" fill="#242C2C"/>
</g>
<g id="Group_21">
<path id="Vector_32" d="M695.69 321.979H643.316L650.935 367.204H703.309L695.69 321.979Z" fill="#242C2C"/>
</g>
</g>
<g id="Group_22">
<path id="Vector_33" d="M742.976 178.002H537.789L560.733 314.197H765.92L742.976 178.002Z" fill="#EAEAEB"/>
</g>
</g>
<g id="Group_23">
<g id="Group_24">
<path id="Vector_34" d="M736.466 190.033H666.746L676.938 250.53H746.658L736.466 190.033Z" fill="white"/>
</g>
<g id="Group_25">
<path id="Vector_35" fill-rule="evenodd" clip-rule="evenodd" d="M668.728 191.709L672.254 212.636C672.407 213.548 671.791 214.414 670.878 214.568C669.966 214.722 669.1 214.106 668.946 213.193L665.091 190.311C665.009 189.824 665.145 189.326 665.464 188.95C665.783 188.573 666.251 188.355 666.744 188.355H736.465C737.283 188.355 737.982 188.947 738.118 189.754L741.973 212.636C742.127 213.548 741.51 214.414 740.597 214.568C739.685 214.722 738.82 214.106 738.666 213.193L735.047 191.709H668.728Z" fill="#242C2C"/>
</g>
<g id="Group_26">
<path id="Vector_36" fill-rule="evenodd" clip-rule="evenodd" d="M744.674 248.851L738.667 213.192C738.513 212.28 739.128 211.414 740.041 211.26C740.954 211.106 741.82 211.722 741.974 212.635L748.31 250.25C748.392 250.736 748.256 251.234 747.937 251.611C747.618 251.988 747.15 252.205 746.657 252.205H676.937C676.119 252.205 675.419 251.614 675.283 250.807L668.947 213.192C668.793 212.28 669.409 211.414 670.322 211.26C671.235 211.106 672.101 211.722 672.254 212.635L678.356 248.851H744.674Z" fill="#242C2C"/>
</g>
<path id="Vector_37" fill-rule="evenodd" clip-rule="evenodd" d="M702.192 250.53H698.793L688.535 190.033H691.94L702.192 250.53ZM726.995 250.53H723.591L713.338 190.033H716.737L726.995 250.53Z" fill="#242C2C"/>
<path id="Vector_38" fill-rule="evenodd" clip-rule="evenodd" d="M744.316 236.61H674.597L674.032 233.256H743.751L744.316 236.61ZM741.806 221.698H672.087L671.522 218.344H741.241L741.806 221.698ZM739.106 205.663H669.387L668.816 202.309H738.541L739.106 205.663Z" fill="#242C2C"/>
</g>
<g id="Group_27">
<g id="Group_28">
<g id="Group_29">
<path id="Vector_39" fill-rule="evenodd" clip-rule="evenodd" d="M649.047 302.181H704.689L689.228 210.405H649.047" fill="white"/>
</g>
<g id="Group_30">
<path id="Vector_40" fill-rule="evenodd" clip-rule="evenodd" d="M687.81 212.084H649.045C648.12 212.084 647.369 211.332 647.369 210.406C647.368 209.481 648.12 208.729 649.045 208.729H689.228C690.047 208.729 690.746 209.321 690.882 210.128L706.343 301.903C706.425 302.39 706.288 302.888 705.97 303.265C705.65 303.641 705.181 303.859 704.689 303.859H649.045C648.12 303.859 647.369 303.107 647.369 302.182C647.368 301.256 648.12 300.505 649.045 300.505H702.706L687.81 212.084Z" fill="#242C2C"/>
</g>
<g id="Group_31">
<path id="Vector_41" fill-rule="evenodd" clip-rule="evenodd" d="M649.049 210.405H568.426L583.887 302.181H649.049" fill="white"/>
</g>
<g id="Group_32">
<path id="Vector_42" fill-rule="evenodd" clip-rule="evenodd" d="M585.303 300.505H649.048C649.973 300.505 650.726 301.256 650.726 302.182C650.725 303.107 649.975 303.859 649.048 303.859H583.885C583.067 303.859 582.368 303.268 582.232 302.46L566.771 210.685C566.689 210.199 566.826 209.701 567.144 209.324C567.464 208.947 567.932 208.729 568.425 208.729H649.048C649.973 208.729 650.726 209.481 650.727 210.406C650.725 211.332 649.975 212.084 649.048 212.084H570.407L585.303 300.505Z" fill="#242C2C"/>
</g>
<g id="Group_33">
<path id="Vector_43" d="M689.232 210.405H568.426L570.282 221.426H691.088L689.232 210.405Z" fill="#242C2C"/>
</g>
<path id="Vector_44" fill-rule="evenodd" clip-rule="evenodd" d="M700.341 276.358H579.534L578.969 273.004H699.776L700.341 276.358ZM695.36 246.801H574.558L573.988 243.447H694.795L695.36 246.801Z" fill="#242C2C"/>
<path id="Vector_45" fill-rule="evenodd" clip-rule="evenodd" d="M614.85 302.181H611.452L595.895 210.406H599.293L614.85 302.181ZM647.77 302.181H644.366L628.809 210.406H632.213L647.77 302.181ZM680.277 302.181H676.878L661.321 210.406H664.719L680.277 302.181Z" fill="#242C2C"/>
</g>
<g id="Group_34">
<g id="Group_35">
<path id="Vector_46" d="M691.462 263.56C691.534 264.476 691.358 265.325 690.935 266.108C690.489 266.871 689.834 267.5 688.926 268C688.017 268.478 686.918 268.778 685.628 268.879C684.074 269.001 682.784 268.823 681.733 268.327C681.001 267.977 680.367 267.47 679.876 266.823C679.363 266.178 679.093 265.535 679.043 264.896C679.013 264.513 679.119 264.183 679.384 263.906C679.625 263.608 679.943 263.455 680.358 263.423C680.687 263.397 680.979 263.481 681.235 263.654C681.492 263.848 681.714 264.152 681.899 264.544C682.134 265.019 682.384 265.406 682.65 265.706C682.894 266.009 683.244 266.26 683.676 266.44C684.13 266.619 684.685 266.682 685.363 266.629C686.304 266.556 687.053 266.283 687.61 265.811C688.168 265.339 688.41 264.784 688.36 264.146C688.32 263.635 688.136 263.242 687.783 262.949C687.451 262.653 687.017 262.452 686.501 262.321C685.984 262.19 685.293 262.073 684.447 261.946C683.311 261.778 682.347 261.553 681.555 261.273C680.762 260.992 680.135 260.57 679.629 260.01C679.145 259.448 678.87 258.741 678.8 257.847C678.735 257.017 678.917 256.253 679.325 255.557C679.756 254.881 680.394 254.317 681.243 253.908C682.111 253.475 683.148 253.223 684.351 253.129C685.314 253.054 686.153 253.095 686.871 253.274C687.59 253.454 688.205 253.727 688.695 254.074C689.184 254.421 689.544 254.8 689.796 255.209C690.048 255.617 690.189 256.013 690.221 256.418C690.249 256.78 690.145 257.131 689.904 257.428C689.643 257.748 689.326 257.923 688.932 257.954C688.561 257.983 688.291 257.918 688.081 257.763C687.869 257.587 687.651 257.326 687.4 256.938C687.071 256.386 686.686 255.966 686.267 255.678C685.848 255.389 685.201 255.268 684.304 255.339C683.494 255.402 682.851 255.624 682.377 256.025C681.9 256.405 681.671 256.851 681.709 257.341C681.733 257.639 681.842 257.909 682.033 258.108C682.227 258.329 682.459 258.482 682.778 258.628C683.096 258.753 683.413 258.857 683.727 258.939C684.04 259.001 684.553 259.089 685.267 259.204C686.158 259.349 686.984 259.498 687.725 259.676C688.445 259.877 689.08 260.127 689.61 260.428C690.14 260.729 690.569 261.146 690.895 261.656C691.221 262.166 691.402 262.794 691.462 263.56Z" fill="#242C2C"/>
</g>
<g id="Group_36">
<path id="Vector_47" fill-rule="evenodd" clip-rule="evenodd" d="M682.227 252.419L684.615 269.809C684.742 270.726 685.587 271.368 686.501 271.242C687.422 271.117 688.061 270.27 687.939 269.353L685.552 251.963C685.43 251.046 684.58 250.404 683.665 250.529C682.745 250.655 682.105 251.502 682.227 252.419Z" fill="#242C2C"/>
</g>
</g>
<path id="Vector_48" fill-rule="evenodd" clip-rule="evenodd" d="M583.993 226.792L585.911 237.939C586.067 238.851 586.939 239.464 587.85 239.307C588.761 239.15 589.376 238.282 589.214 237.37L587.297 226.223C587.14 225.311 586.274 224.698 585.363 224.855C584.452 225.012 583.837 225.879 583.993 226.792Z" fill="#242C2C"/>
<g id="Group_37">
<path id="Vector_49" fill-rule="evenodd" clip-rule="evenodd" d="M594.587 283.745L596.504 294.892C596.661 295.804 597.533 296.417 598.444 296.26C599.355 296.103 599.97 295.235 599.808 294.323L597.891 283.176C597.734 282.264 596.868 281.651 595.956 281.808C595.045 281.965 594.43 282.832 594.587 283.745Z" fill="#242C2C"/>
</g>
<g id="Group_38">
<g id="Group_39">
<path id="Vector_50" fill-rule="evenodd" clip-rule="evenodd" d="M622.592 255.482C623.104 255.408 623.534 255.829 623.948 256.349C624.634 257.201 625.139 258.449 625.345 259.871C625.551 261.293 625.422 262.633 625.007 263.646C624.757 264.261 624.465 264.787 623.954 264.862C623.037 264.995 622.404 265.846 622.537 266.762C622.67 267.678 623.519 268.314 624.435 268.181C625.727 267.994 626.873 267.176 627.668 265.825C628.577 264.271 629.033 261.924 628.665 259.389C628.297 256.855 627.193 254.735 625.879 253.503C624.734 252.434 623.403 251.975 622.111 252.163C621.194 252.296 620.561 253.147 620.694 254.063C620.827 254.979 621.676 255.615 622.592 255.482Z" fill="#242C2C"/>
</g>
<g id="Group_40">
<path id="Vector_51" fill-rule="evenodd" clip-rule="evenodd" d="M623.953 264.862C623.446 264.935 623.011 264.514 622.597 263.995C621.916 263.141 621.411 261.894 621.205 260.472C620.999 259.05 621.128 257.71 621.539 256.698C621.788 256.082 622.085 255.555 622.592 255.482C623.508 255.349 624.146 254.497 624.013 253.581C623.88 252.665 623.027 252.03 622.11 252.163C620.818 252.35 619.677 253.167 618.882 254.518C617.968 256.073 617.517 258.419 617.885 260.953C618.253 263.488 619.352 265.609 620.671 266.84C621.816 267.909 623.142 268.368 624.434 268.181C625.351 268.048 625.989 267.196 625.856 266.28C625.723 265.364 624.869 264.728 623.953 264.862Z" fill="#242C2C"/>
</g>
</g>
<g id="Group_41">
<g id="Group_42">
<path id="Vector_52" fill-rule="evenodd" clip-rule="evenodd" d="M627.167 284.915C627.678 284.841 628.108 285.263 628.522 285.782C629.208 286.635 629.713 287.883 629.919 289.305C630.126 290.727 629.996 292.066 629.581 293.079C629.332 293.695 629.04 294.221 628.528 294.295C627.611 294.428 626.978 295.28 627.111 296.196C627.244 297.111 628.093 297.748 629.009 297.615C630.301 297.427 631.447 296.609 632.242 295.259C633.151 293.704 633.607 291.358 633.239 288.823C632.872 286.288 631.767 284.168 630.454 282.936C629.308 281.868 627.977 281.409 626.685 281.596C625.768 281.729 625.135 282.58 625.268 283.497C625.401 284.413 626.25 285.048 627.167 284.915Z" fill="#242C2C"/>
</g>
<g id="Group_43">
<path id="Vector_53" fill-rule="evenodd" clip-rule="evenodd" d="M628.523 294.293C628.016 294.367 627.582 293.946 627.168 293.427C626.486 292.573 625.982 291.325 625.775 289.903C625.569 288.481 625.698 287.141 626.109 286.13C626.358 285.514 626.655 284.987 627.162 284.913C628.078 284.78 628.717 283.929 628.584 283.013C628.451 282.096 627.597 281.461 626.68 281.594C625.388 281.782 624.247 282.599 623.453 283.949C622.539 285.505 622.087 287.85 622.455 290.385C622.823 292.92 623.922 295.041 625.241 296.272C626.387 297.341 627.713 297.8 629.005 297.613C629.921 297.48 630.559 296.627 630.426 295.712C630.294 294.796 629.44 294.16 628.523 294.293Z" fill="#242C2C"/>
</g>
</g>
<g id="Group_44">
<g id="Group_45">
<path id="Vector_54" fill-rule="evenodd" clip-rule="evenodd" d="M659.835 284.896C660.346 284.822 660.776 285.243 661.19 285.763C661.876 286.615 662.381 287.863 662.587 289.285C662.794 290.707 662.664 292.047 662.249 293.06C662 293.675 661.708 294.202 661.196 294.276C660.279 294.409 659.646 295.26 659.779 296.176C659.912 297.092 660.761 297.728 661.677 297.595C662.969 297.408 664.115 296.59 664.91 295.239C665.819 293.685 666.275 291.338 665.907 288.803C665.54 286.269 664.435 284.149 663.122 282.917C661.976 281.848 660.645 281.389 659.353 281.577C658.436 281.71 657.803 282.561 657.936 283.477C658.069 284.393 658.918 285.029 659.835 284.896Z" fill="#242C2C"/>
</g>
<g id="Group_46">
<path id="Vector_55" fill-rule="evenodd" clip-rule="evenodd" d="M661.199 294.274C660.692 294.347 660.257 293.926 659.844 293.407C659.162 292.553 658.657 291.306 658.451 289.884C658.245 288.462 658.374 287.122 658.785 286.11C659.034 285.494 659.331 284.967 659.838 284.894C660.754 284.761 661.392 283.909 661.259 282.993C661.126 282.077 660.273 281.442 659.356 281.575C658.064 281.762 656.923 282.58 656.129 283.93C655.214 285.485 654.763 287.831 655.131 290.365C655.499 292.9 656.598 295.021 657.917 296.253C659.063 297.321 660.389 297.781 661.681 297.593C662.597 297.46 663.235 296.608 663.102 295.692C662.969 294.776 662.115 294.141 661.199 294.274Z" fill="#242C2C"/>
</g>
</g>
</g>
</g>
<g id="CALCULATOR">
<g id="Group_47">
<path id="Vector_56" d="M623.255 64.4662L558.094 37.5176L520.677 119.504L585.838 146.452L623.255 64.4662Z" fill="#DD6140"/>
</g>
<g id="Group_48">
<path id="Vector_57" d="M613.816 70.6103L560 48.3535L555.136 59.0109L608.952 81.2676L613.816 70.6103Z" fill="white"/>
</g>
<g id="Group_49">
<g id="Group_50">
<g id="Group_51">
<path id="Vector_58" fill-rule="evenodd" clip-rule="evenodd" d="M557.982 68.4753C560.25 69.4571 561.34 72.0186 560.394 74.2041C559.448 76.3895 556.835 77.3478 554.567 76.3661L553.9 77.9049C557.031 79.26 560.625 77.8885 561.932 74.8696C563.238 71.8506 561.779 68.2916 558.648 66.9365L557.982 68.4753Z" fill="white"/>
</g>
<g id="Group_52">
<path id="Vector_59" fill-rule="evenodd" clip-rule="evenodd" d="M554.569 76.364C552.301 75.3823 551.211 72.8207 552.157 70.6353C553.103 68.4498 555.716 67.4915 557.984 68.4733L558.651 66.9345C555.515 65.5772 551.921 66.9486 550.614 69.9676C549.307 72.9865 550.767 76.5456 553.903 77.9029L554.569 76.364Z" fill="white"/>
</g>
</g>
<g id="Group_53">
<g id="Group_54">
<path id="Vector_60" fill-rule="evenodd" clip-rule="evenodd" d="M552.26 81.6882C554.528 82.67 555.618 85.2315 554.672 87.417C553.726 89.6024 551.112 90.5607 548.844 89.579L548.178 91.1178C551.308 92.4729 554.902 91.1014 556.209 88.0825C557.516 85.0635 556.056 81.5045 552.926 80.1494L552.26 81.6882Z" fill="white"/>
</g>
<g id="Group_55">
<path id="Vector_61" fill-rule="evenodd" clip-rule="evenodd" d="M548.85 89.5769C546.582 88.5952 545.492 86.0336 546.438 83.8482C547.384 81.6627 549.998 80.7044 552.266 81.6862L552.932 80.1473C549.796 78.79 546.202 80.1615 544.896 83.1805C543.589 86.1994 545.048 89.7584 548.184 91.1157L548.85 89.5769Z" fill="white"/>
</g>
</g>
<g id="Group_56">
<g id="Group_57">
<path id="Vector_62" fill-rule="evenodd" clip-rule="evenodd" d="M546.557 94.9021C548.824 95.8838 549.915 98.4454 548.969 100.631C548.022 102.816 545.409 103.775 543.141 102.793L542.475 104.332C545.605 105.687 549.199 104.315 550.506 101.296C551.813 98.2774 550.353 94.7184 547.223 93.3633L546.557 94.9021Z" fill="white"/>
</g>
<g id="Group_58">
<path id="Vector_63" fill-rule="evenodd" clip-rule="evenodd" d="M543.135 102.793C540.867 101.811 539.777 99.2494 540.723 97.064C541.669 94.8785 544.283 93.9202 546.551 94.902L547.217 93.3632C544.081 92.0059 540.488 93.3773 539.181 96.3963C537.874 99.4152 539.333 102.974 542.469 104.332L543.135 102.793Z" fill="white"/>
</g>
</g>
<g id="Group_59">
<g id="Group_60">
<path id="Vector_64" fill-rule="evenodd" clip-rule="evenodd" d="M540.826 108.115C543.094 109.097 544.184 111.658 543.238 113.844C542.292 116.029 539.678 116.987 537.41 116.006L536.744 117.545C539.875 118.9 543.469 117.528 544.775 114.509C546.082 111.49 544.623 107.931 541.492 106.576L540.826 108.115Z" fill="white"/>
</g>
<g id="Group_61">
<path id="Vector_65" fill-rule="evenodd" clip-rule="evenodd" d="M537.405 116.004C535.137 115.022 534.047 112.46 534.993 110.275C535.939 108.089 538.552 107.131 540.82 108.113L541.486 106.574C538.351 105.217 534.757 106.588 533.45 109.607C532.143 112.626 533.603 116.185 536.739 117.543L537.405 116.004Z" fill="white"/>
</g>
</g>
<g id="Group_62">
<g id="Group_63">
<path id="Vector_66" fill-rule="evenodd" clip-rule="evenodd" d="M571.342 74.2625C573.61 75.2442 574.7 77.8057 573.754 79.9912C572.808 82.1767 570.194 83.1349 567.926 82.1532L567.26 83.692C570.39 85.0471 573.984 83.6756 575.291 80.6567C576.598 77.6377 575.138 74.0787 572.008 72.7236L571.342 74.2625Z" fill="white"/>
</g>
<g id="Group_64">
<path id="Vector_67" fill-rule="evenodd" clip-rule="evenodd" d="M567.932 82.1511C565.664 81.1694 564.574 78.6078 565.52 76.4224C566.466 74.2369 569.08 73.2786 571.348 74.2604L572.014 72.7216C568.878 71.3643 565.284 72.7357 563.978 75.7547C562.671 78.7736 564.13 82.3327 567.266 83.69L567.932 82.1511Z" fill="white"/>
</g>
</g>
<g id="Group_65">
<g id="Group_66">
<path id="Vector_68" fill-rule="evenodd" clip-rule="evenodd" d="M565.627 87.4734C567.895 88.4551 568.985 91.0167 568.039 93.2021C567.093 95.3876 564.479 96.3459 562.211 95.3641L561.545 96.903C564.675 98.2581 568.269 96.8866 569.576 93.8676C570.883 90.8487 569.423 87.2897 566.293 85.9346L565.627 87.4734Z" fill="white"/>
</g>
<g id="Group_67">
<path id="Vector_69" fill-rule="evenodd" clip-rule="evenodd" d="M562.213 95.364C559.945 94.3823 558.855 91.8207 559.801 89.6353C560.747 87.4498 563.361 86.4915 565.629 87.4733L566.295 85.9345C563.16 84.5772 559.566 85.9486 558.259 88.9676C556.952 91.9865 558.412 95.5456 561.547 96.9029L562.213 95.364Z" fill="white"/>
</g>
</g>
<g id="Group_68">
<g id="Group_69">
<path id="Vector_70" fill-rule="evenodd" clip-rule="evenodd" d="M559.908 100.682C562.176 101.664 563.266 104.226 562.32 106.411C561.374 108.597 558.76 109.555 556.492 108.573L555.826 110.112C558.957 111.467 562.551 110.096 563.857 107.077C565.164 104.058 563.705 100.499 560.574 99.1436L559.908 100.682Z" fill="white"/>
</g>
<g id="Group_70">
<path id="Vector_71" fill-rule="evenodd" clip-rule="evenodd" d="M556.491 108.573C554.223 107.591 553.133 105.03 554.079 102.844C555.025 100.659 557.638 99.7005 559.906 100.682L560.572 99.1434C557.437 97.7861 553.843 99.1576 552.536 102.177C551.229 105.196 552.689 108.755 555.824 110.112L556.491 108.573Z" fill="white"/>
</g>
</g>
<g id="Group_71">
<g id="Group_72">
<path id="Vector_72" fill-rule="evenodd" clip-rule="evenodd" d="M554.197 113.893C556.465 114.875 557.555 117.437 556.609 119.622C555.663 121.808 553.049 122.766 550.781 121.784L550.115 123.323C553.246 124.678 556.84 123.306 558.146 120.288C559.453 117.269 557.994 113.71 554.863 112.354L554.197 113.893Z" fill="white"/>
</g>
<g id="Group_73">
<path id="Vector_73" fill-rule="evenodd" clip-rule="evenodd" d="M550.78 121.784C548.512 120.802 547.422 118.241 548.368 116.055C549.314 113.87 551.927 112.911 554.195 113.893L554.861 112.354C551.726 110.997 548.132 112.369 546.825 115.388C545.518 118.406 546.978 121.965 550.114 123.323L550.78 121.784Z" fill="white"/>
</g>
</g>
<g id="Group_74">
<g id="Group_75">
<path id="Vector_74" fill-rule="evenodd" clip-rule="evenodd" d="M584.713 80.0437C586.981 81.0254 588.071 83.587 587.125 85.7724C586.179 87.9579 583.565 88.9162 581.297 87.9344L580.631 89.4733C583.761 90.8284 587.355 89.4569 588.662 86.4379C589.969 83.419 588.509 79.86 585.379 78.5049L584.713 80.0437Z" fill="white"/>
</g>
<g id="Group_76">
<path id="Vector_75" fill-rule="evenodd" clip-rule="evenodd" d="M581.299 87.9343C579.031 86.9526 577.941 84.391 578.887 82.2056C579.833 80.0201 582.447 79.0618 584.715 80.0436L585.381 78.5048C582.245 77.1475 578.652 78.5189 577.345 81.5379C576.038 84.5569 577.498 88.1159 580.633 89.4732L581.299 87.9343Z" fill="white"/>
</g>
</g>
<g id="Group_77">
<g id="Group_78">
<path id="Vector_76" fill-rule="evenodd" clip-rule="evenodd" d="M578.986 93.2546C581.254 94.2364 582.344 96.7979 581.398 98.9834C580.452 101.169 577.838 102.127 575.571 101.145L574.904 102.684C578.035 104.039 581.629 102.668 582.936 99.6489C584.242 96.6299 582.783 93.0709 579.652 91.7158L578.986 93.2546Z" fill="white"/>
</g>
<g id="Group_79">
<path id="Vector_77" fill-rule="evenodd" clip-rule="evenodd" d="M575.573 101.145C573.305 100.164 572.215 97.602 573.161 95.4165C574.107 93.2311 576.72 92.2728 578.988 93.2545L579.654 91.7157C576.519 90.3584 572.925 91.7299 571.618 94.7488C570.311 97.7678 571.771 101.327 574.906 102.684L575.573 101.145Z" fill="white"/>
</g>
</g>
<g id="Group_80">
<g id="Group_81">
<path id="Vector_78" fill-rule="evenodd" clip-rule="evenodd" d="M573.279 106.47C575.547 107.452 576.637 110.014 575.691 112.199C574.745 114.385 572.131 115.343 569.863 114.361L569.197 115.9C572.328 117.255 575.922 115.884 577.229 112.865C578.535 109.846 577.076 106.287 573.945 104.932L573.279 106.47Z" fill="white"/>
</g>
<g id="Group_82">
<path id="Vector_79" fill-rule="evenodd" clip-rule="evenodd" d="M569.866 114.361C567.598 113.379 566.508 110.818 567.454 108.632C568.4 106.447 571.013 105.489 573.281 106.47L573.947 104.932C570.812 103.574 567.218 104.946 565.911 107.965C564.604 110.984 566.064 114.543 569.199 115.9L569.866 114.361Z" fill="white"/>
</g>
</g>
<g id="Group_83">
<g id="Group_84">
<path id="Vector_80" fill-rule="evenodd" clip-rule="evenodd" d="M567.56 119.682C569.828 120.664 570.918 123.226 569.972 125.411C569.026 127.597 566.413 128.555 564.145 127.573L563.479 129.112C566.609 130.467 570.203 129.096 571.51 126.077C572.817 123.058 571.357 119.499 568.227 118.144L567.56 119.682Z" fill="white"/>
</g>
<g id="Group_85">
<path id="Vector_81" fill-rule="evenodd" clip-rule="evenodd" d="M564.139 127.571C561.871 126.589 560.781 124.028 561.727 121.842C562.673 119.657 565.287 118.699 567.555 119.68L568.221 118.141C565.085 116.784 561.491 118.156 560.185 121.175C558.878 124.194 560.337 127.753 563.473 129.11L564.139 127.571Z" fill="white"/>
</g>
</g>
<g id="Group_86">
<g id="Group_87">
<path id="Vector_82" fill-rule="evenodd" clip-rule="evenodd" d="M598.068 85.8308C600.336 86.8125 601.426 89.3741 600.48 91.5596C599.534 93.745 596.92 94.7033 594.653 93.7215L593.986 95.2604C597.117 96.6155 600.711 95.244 602.018 92.225C603.324 89.2061 601.865 85.6471 598.734 84.292L598.068 85.8308Z" fill="white"/>
</g>
<g id="Group_88">
<path id="Vector_83" fill-rule="evenodd" clip-rule="evenodd" d="M594.651 93.7214C592.383 92.7397 591.293 90.1781 592.239 87.9927C593.185 85.8072 595.799 84.849 598.066 85.8307L598.733 84.2919C595.597 82.9346 592.003 84.3061 590.696 87.325C589.39 90.344 590.849 93.903 593.985 95.2603L594.651 93.7214Z" fill="white"/>
</g>
</g>
<g id="Group_89">
<g id="Group_90">
<path id="Vector_84" fill-rule="evenodd" clip-rule="evenodd" d="M592.361 99.0447C594.629 100.026 595.719 102.588 594.773 104.773C593.827 106.959 591.213 107.917 588.946 106.935L588.279 108.474C591.41 109.829 595.004 108.458 596.311 105.439C597.617 102.42 596.158 98.861 593.027 97.5059L592.361 99.0447Z" fill="white"/>
</g>
<g id="Group_91">
<path id="Vector_85" fill-rule="evenodd" clip-rule="evenodd" d="M588.948 106.937C586.68 105.956 585.59 103.394 586.536 101.209C587.482 99.023 590.095 98.0648 592.363 99.0465L593.029 97.5077C589.894 96.1504 586.3 97.5219 584.993 100.541C583.686 103.56 585.146 107.119 588.281 108.476L588.948 106.937Z" fill="white"/>
</g>
</g>
<g id="Group_92">
<g id="Group_93">
<path id="Vector_86" fill-rule="evenodd" clip-rule="evenodd" d="M586.639 112.258C588.907 113.239 589.997 115.801 589.051 117.986C588.105 120.172 585.491 121.13 583.223 120.148L582.557 121.687C585.687 123.042 589.281 121.671 590.588 118.652C591.895 115.633 590.435 112.074 587.305 110.719L586.639 112.258Z" fill="white"/>
</g>
<g id="Group_94">
<path id="Vector_87" fill-rule="evenodd" clip-rule="evenodd" d="M583.225 120.146C580.957 119.164 579.867 116.603 580.813 114.417C581.759 112.232 584.373 111.274 586.641 112.255L587.307 110.717C584.171 109.359 580.577 110.731 579.271 113.75C577.964 116.769 579.423 120.328 582.559 121.685L583.225 120.146Z" fill="white"/>
</g>
</g>
<g id="Group_95">
<g id="Group_96">
<path id="Vector_88" fill-rule="evenodd" clip-rule="evenodd" d="M580.904 125.467C583.172 126.448 584.262 129.01 583.316 131.195C582.37 133.381 579.756 134.339 577.488 133.357L576.822 134.896C579.953 136.251 583.547 134.88 584.854 131.861C586.16 128.842 584.701 125.283 581.57 123.928L580.904 125.467Z" fill="white"/>
</g>
<g id="Group_97">
<path id="Vector_89" fill-rule="evenodd" clip-rule="evenodd" d="M577.491 133.357C575.223 132.375 574.133 129.814 575.079 127.628C576.025 125.443 578.638 124.485 580.906 125.466L581.572 123.928C578.437 122.57 574.843 123.942 573.536 126.961C572.229 129.98 573.689 133.539 576.824 134.896L577.491 133.357Z" fill="white"/>
</g>
</g>
</g>
</g>
<g id="DESK">
<path id="Vector_90" d="M973.482 365.432H224.172V386.645H973.482V365.432Z" fill="#242C2C"/>
</g>
<g id="KEYBOARD">
<path id="Vector_91" fill-rule="evenodd" clip-rule="evenodd" d="M760.809 354.178H770.362V350.176H785.276V354.178H795.445V350.176H810.359V354.178H820.533V350.176H835.447V354.178H838.622C840.081 354.178 841.479 354.76 842.513 355.794C843.542 356.822 844.123 358.22 844.123 359.679V365.258H736.078C736.078 365.258 736.078 362.463 736.078 359.679C736.078 358.22 736.659 356.822 737.688 355.794C738.722 354.76 740.12 354.178 741.579 354.178H745.894V350.176H760.809V354.178Z" fill="#D2D3D5"/>
</g>
<g id="NOTEPAD">
<g id="Group_98">
<path id="Vector_92" d="M391.127 351.937H259.957V366.904H391.127V351.937Z" fill="white"/>
</g>
<g id="Group_99">
<path id="Vector_93" fill-rule="evenodd" clip-rule="evenodd" d="M330.905 349.478V353.95H262.925V363.57H330.905V368.042H260.689C259.454 368.042 258.453 367.042 258.453 365.806V351.714C258.453 350.478 259.454 349.478 260.689 349.478H330.905Z" fill="#242C2C"/>
<path id="Vector_94" fill-rule="evenodd" clip-rule="evenodd" d="M330.9 349.478H393.014C394.249 349.478 395.25 350.478 395.25 351.714V365.806C395.25 367.042 394.249 368.042 393.014 368.042H330.9C328.82 365.851 329.615 364.627 330.9 363.57H390.778V353.95H330.9C330.053 352.301 329.845 350.769 330.9 349.478Z" fill="#242C2C"/>
<path id="Vector_95" fill-rule="evenodd" clip-rule="evenodd" d="M339.028 352.397L339.394 366.439C339.426 367.674 340.454 368.647 341.687 368.619C342.921 368.585 343.897 367.557 343.865 366.321L343.499 352.279C343.466 351.049 342.439 350.071 341.205 350.105C339.971 350.138 338.996 351.167 339.028 352.397ZM367.104 345.856V365.578C367.104 366.813 368.106 367.814 369.34 367.814C370.574 367.814 371.576 366.813 371.576 365.578V345.856C371.576 344.621 370.574 343.62 369.34 343.62C368.106 343.62 367.104 344.621 367.104 345.856ZM353.325 346.18V364.309C353.325 365.544 354.327 366.545 355.561 366.545C356.796 366.545 357.797 365.544 357.797 364.309V346.18C357.797 344.945 356.796 343.944 355.561 343.944C354.327 343.944 353.325 344.945 353.325 346.18ZM380.247 346.052V363.834C380.247 365.064 381.247 366.07 382.483 366.07C383.718 366.07 384.719 365.064 384.719 363.834V346.052C384.719 344.822 383.718 343.816 382.483 343.816C381.247 343.816 380.247 344.822 380.247 346.052Z" fill="#242C2C"/>
</g>
</g>
</g>
<g id="Parallax_2">
<g id="Parallax_2_2">
<g id="JAR1">
<path id="Vector_96" fill-rule="evenodd" clip-rule="evenodd" d="M423.555 245.718H419.597C417.395 245.718 415.606 243.929 415.606 241.727C415.606 239.524 417.395 237.735 419.597 237.735H518.866C521.074 237.735 522.857 239.524 522.857 241.727C522.857 243.929 521.074 245.718 518.866 245.718H517.021C519.028 246.423 520.878 247.574 522.41 249.11C525.104 251.801 526.614 255.45 526.614 259.254V365.274H413.957C413.957 365.274 413.957 291.175 413.957 259.254C413.957 255.45 415.472 251.801 418.161 249.11C419.698 247.574 421.543 246.423 423.555 245.718Z" fill="#FFF4E5"/>
<path id="Vector_97" fill-rule="evenodd" clip-rule="evenodd" d="M517.019 245.719C518.45 246.221 519.798 246.95 521.011 247.882L416.516 251.079C417.002 250.38 417.55 249.721 418.159 249.111C419.696 247.575 421.541 246.424 423.554 245.719H517.019Z" fill="#F4978B"/>
</g>
<g id="BILLS">
<g id="Group_100">
<g id="Group_101">
<path id="Vector_98" d="M453.66 264.197L417.344 275.205L436.426 338.16L472.742 327.152L453.66 264.197Z" fill="#F4978B"/>
</g>
<g id="Group_102">
<g id="Group_103">
<path id="Vector_99" fill-rule="evenodd" clip-rule="evenodd" d="M445.63 294.487C449.89 294.487 453.35 297.947 453.35 302.209C453.35 306.471 449.89 309.931 445.63 309.931C444.702 309.931 443.953 310.682 443.953 311.608C443.953 312.533 444.702 313.285 445.63 313.285C451.74 313.285 456.704 308.322 456.704 302.209C456.704 296.096 451.74 291.133 445.63 291.133C444.702 291.133 443.953 291.885 443.953 292.81C443.953 293.736 444.702 294.487 445.63 294.487Z" fill="#DE6647"/>
</g>
<g id="Group_104">
<path id="Vector_100" fill-rule="evenodd" clip-rule="evenodd" d="M445.629 309.931C441.363 309.931 437.909 306.471 437.909 302.209C437.909 297.947 441.363 294.487 445.629 294.487C446.551 294.487 447.306 293.736 447.306 292.81C447.306 291.885 446.551 291.133 445.629 291.133C439.513 291.133 434.555 296.096 434.555 302.209C434.555 308.322 439.513 313.285 445.629 313.285C446.551 313.285 447.306 312.533 447.306 311.608C447.306 310.682 446.551 309.931 445.629 309.931Z" fill="#DE6647"/>
</g>
<path id="Vector_101" fill-rule="evenodd" clip-rule="evenodd" d="M449.202 334.281L446.307 325.418C445.927 324.245 446.569 322.982 447.738 322.599C448.912 322.216 450.175 322.857 450.561 324.031L453.484 332.984L449.202 334.281ZM455.223 332.456L453.272 326.149C452.909 324.97 453.568 323.716 454.748 323.351C455.927 322.987 457.179 323.648 457.543 324.827L459.505 331.159L455.223 332.456ZM441.013 268.025L444.171 278.235C444.535 279.414 443.875 280.667 442.695 281.032C441.516 281.397 440.264 280.736 439.9 279.557L436.731 269.323L441.013 268.025ZM434.009 270.148L436.664 277.888C437.066 279.056 436.44 280.329 435.272 280.729C434.104 281.129 432.835 280.506 432.432 279.339L429.727 271.446L434.009 270.148Z" fill="#DE6647"/>
</g>
</g>
<g id="Group_105">
<g id="Group_106">
<path id="Vector_102" d="M524.866 300.959L488.207 291.154L471.211 354.704L507.87 364.508L524.866 300.959Z" fill="#F4978B"/>
</g>
<g id="Group_107">
<g id="Group_108">
<path id="Vector_103" fill-rule="evenodd" clip-rule="evenodd" d="M502.058 322.464C505.677 324.71 506.791 329.475 504.543 333.096C502.295 336.717 497.53 337.831 493.912 335.584C493.123 335.094 492.091 335.338 491.602 336.124C491.114 336.911 491.354 337.944 492.142 338.433C497.333 341.656 504.168 340.058 507.393 334.865C510.617 329.672 509.018 322.837 503.827 319.614C503.039 319.125 502.006 319.368 501.518 320.154C501.029 320.941 501.27 321.974 502.058 322.464Z" fill="#DE6647"/>
</g>
<g id="Group_109">
<path id="Vector_104" fill-rule="evenodd" clip-rule="evenodd" d="M493.914 335.582C490.291 333.332 489.181 328.57 491.429 324.95C493.677 321.329 498.437 320.211 502.061 322.461C502.844 322.948 503.882 322.708 504.37 321.921C504.858 321.135 504.614 320.098 503.83 319.612C498.634 316.386 491.804 317.987 488.579 323.18C485.355 328.374 486.95 335.205 492.145 338.431C492.929 338.918 493.966 338.678 494.455 337.891C494.943 337.105 494.698 336.068 493.914 335.582Z" fill="#DE6647"/>
</g>
<path id="Vector_105" fill-rule="evenodd" clip-rule="evenodd" d="M484.105 358.154L486.32 349.097C486.616 347.9 487.828 347.166 489.023 347.457C490.222 347.751 490.957 348.962 490.666 350.163L488.427 359.311L484.105 358.154ZM490.182 359.78L491.852 353.392C492.165 352.199 493.387 351.482 494.581 351.794C495.775 352.107 496.491 353.328 496.178 354.522L494.505 360.936L490.182 359.78ZM512.096 297.546L509.394 307.886C509.081 309.079 507.859 309.796 506.665 309.483C505.47 309.171 504.755 307.949 505.069 306.756L507.774 296.39L512.096 297.546ZM505.026 295.655L503.199 303.631C502.925 304.835 501.722 305.586 500.518 305.31C499.314 305.034 498.565 303.836 498.839 302.631L500.704 294.499L505.026 295.655Z" fill="#DE6647"/>
</g>
</g>
</g>
<g id="COINS">
<g id="Group_110">
<g id="Group_111">
<path id="Vector_106" d="M489.439 284.571C496.917 284.571 502.979 278.509 502.979 271.031C502.979 263.553 496.917 257.49 489.439 257.49C481.961 257.49 475.898 263.553 475.898 271.031C475.898 278.509 481.961 284.571 489.439 284.571Z" fill="#FFCF84"/>
</g>
<g id="Group_112">
<path id="Vector_107" fill-rule="evenodd" clip-rule="evenodd" d="M489.62 262.402C494.513 262.402 498.487 266.377 498.487 271.274C498.487 276.172 494.513 280.147 489.62 280.147C489.149 280.147 488.762 280.529 488.762 280.999C488.762 281.469 489.149 281.851 489.62 281.851C495.454 281.851 500.192 277.112 500.192 271.274C500.192 265.437 495.454 260.697 489.62 260.697C489.149 260.697 488.762 261.079 488.762 261.549C488.762 262.02 489.149 262.402 489.62 262.402Z" fill="#FDA92F"/>
</g>
<g id="Group_113">
<path id="Vector_108" fill-rule="evenodd" clip-rule="evenodd" d="M489.613 280.147C484.714 280.147 480.74 276.172 480.74 271.274C480.74 266.377 484.714 262.402 489.613 262.402C490.078 262.402 490.459 262.02 490.459 261.549C490.459 261.079 490.078 260.697 489.613 260.697C483.773 260.697 479.035 265.437 479.035 271.274C479.035 277.112 483.773 281.851 489.613 281.851C490.078 281.851 490.459 281.469 490.459 280.999C490.459 280.529 490.078 280.147 489.613 280.147Z" fill="#FDA92F"/>
</g>
<g id="Group_114">
<path id="Vector_109" fill-rule="evenodd" clip-rule="evenodd" d="M487.425 284.42L487.548 281.182C487.564 280.712 487.961 280.345 488.431 280.364C488.906 280.382 489.269 280.778 489.253 281.248L489.124 284.566C488.548 284.552 487.978 284.503 487.425 284.42ZM492.383 284.248L491.55 280.94C491.438 280.484 491.712 280.021 492.171 279.906C492.623 279.791 493.087 280.069 493.205 280.524L494.021 283.773C493.49 283.965 492.942 284.124 492.383 284.248ZM478.179 278.546L480.728 276.533C481.097 276.241 481.633 276.304 481.924 276.673C482.215 277.042 482.153 277.578 481.784 277.87L479.213 279.9C478.844 279.472 478.497 279.019 478.179 278.546ZM476.457 274.886L479.643 273.159C480.057 272.935 480.577 273.089 480.801 273.503C481.024 273.916 480.868 274.433 480.454 274.658L477.055 276.502C476.82 275.98 476.625 275.44 476.457 274.886ZM502.831 273.029L499.756 272.886C499.287 272.864 498.923 272.465 498.946 271.996C498.968 271.525 499.365 271.162 499.835 271.183L502.976 271.329C502.965 271.905 502.915 272.472 502.831 273.029ZM498.912 261.358C499.32 261.757 499.7 262.18 500.058 262.628L497.559 265.194C497.23 265.531 496.693 265.538 496.358 265.21C496.017 264.882 496.011 264.342 496.341 264.005L498.912 261.358ZM482.696 259.289L484.909 262.595C485.172 262.985 485.066 263.515 484.674 263.777C484.283 264.039 483.752 263.934 483.495 263.543L481.276 260.231C481.723 259.888 482.198 259.573 482.696 259.289ZM490.617 257.539C491.187 257.588 491.751 257.673 492.305 257.792L491.969 261.175C491.919 261.644 491.5 261.986 491.036 261.939C490.566 261.893 490.225 261.475 490.27 261.007L490.617 257.539Z" fill="#FDA92F"/>
</g>
</g>
<g id="Group_115">
<g id="Group_116">
<path id="Vector_110" d="M452.858 299.448C452.01 306.878 457.345 313.589 464.775 314.437C472.205 315.286 478.916 309.95 479.764 302.52C480.613 295.091 475.278 288.38 467.848 287.531C460.418 286.683 453.707 292.018 452.858 299.448Z" fill="#FFCF84"/>
</g>
<g id="Group_117">
<path id="Vector_111" fill-rule="evenodd" clip-rule="evenodd" d="M474.858 302.14C474.303 307.001 469.902 310.499 465.036 309.943C460.171 309.388 456.672 304.987 457.227 300.126C457.28 299.658 456.945 299.23 456.478 299.177C456.01 299.124 455.587 299.465 455.533 299.933C454.871 305.729 459.043 310.974 464.843 311.637C470.643 312.299 475.889 308.13 476.551 302.333C476.604 301.865 476.269 301.437 475.802 301.384C475.335 301.33 474.911 301.672 474.858 302.14Z" fill="#FDA92F"/>
</g>
<g id="Group_118">
<path id="Vector_112" fill-rule="evenodd" clip-rule="evenodd" d="M457.229 300.123C457.785 295.256 462.186 291.758 467.052 292.314C471.917 292.869 475.416 297.27 474.86 302.137C474.808 302.598 475.144 303.021 475.611 303.074C476.078 303.127 476.501 302.792 476.554 302.33C477.216 296.527 473.045 291.283 467.245 290.62C461.445 289.958 456.199 294.127 455.536 299.93C455.483 300.392 455.82 300.814 456.287 300.867C456.754 300.921 457.177 300.585 457.229 300.123Z" fill="#FDA92F"/>
</g>
<g id="Group_119">
<path id="Vector_113" fill-rule="evenodd" clip-rule="evenodd" d="M453.228 297.462L456.431 297.952C456.896 298.022 457.215 298.458 457.144 298.922C457.072 299.392 456.637 299.708 456.172 299.638L452.89 299.134C452.969 298.563 453.082 298.002 453.228 297.462ZM452.836 302.408L456.217 301.956C456.683 301.896 457.112 302.221 457.174 302.69C457.237 303.152 456.909 303.582 456.443 303.647L453.122 304.089C452.992 303.54 452.896 302.977 452.836 302.408ZM460.113 288.942L461.824 291.703C462.072 292.103 461.948 292.629 461.549 292.876C461.149 293.123 460.623 293.001 460.375 292.601L458.65 289.816C459.118 289.498 459.607 289.205 460.113 288.942ZM463.945 287.647L465.299 291.009C465.474 291.445 465.263 291.944 464.826 292.119C464.391 292.295 463.894 292.08 463.718 291.644L462.272 288.058C462.817 287.884 463.375 287.751 463.945 287.647ZM462.798 314.061L463.288 311.023C463.363 310.559 463.801 310.243 464.265 310.319C464.729 310.394 465.045 310.83 464.971 311.294L464.47 314.398C463.899 314.322 463.341 314.208 462.798 314.061ZM474.837 311.492C474.395 311.852 473.931 312.182 473.446 312.487L471.18 309.713C470.883 309.347 470.936 308.813 471.3 308.517C471.665 308.215 472.202 308.271 472.499 308.637L474.837 311.492ZM478.733 295.615L475.198 297.439C474.78 297.656 474.266 297.49 474.05 297.072C473.834 296.653 473.998 296.138 474.416 295.926L477.959 294.097C478.248 294.581 478.507 295.088 478.733 295.615ZM479.573 303.683C479.46 304.244 479.311 304.796 479.13 305.332L475.807 304.615C475.347 304.512 475.055 304.056 475.154 303.601C475.253 303.139 475.707 302.848 476.167 302.946L479.573 303.683Z" fill="#FDA92F"/>
</g>
</g>
<g id="Group_120">
<g id="Group_121">
<path id="Vector_114" d="M427.501 360.127C432.981 365.216 441.548 364.898 446.637 359.417C451.725 353.937 451.407 345.37 445.927 340.281C440.447 335.193 431.879 335.511 426.791 340.991C421.703 346.472 422.02 355.039 427.501 360.127Z" fill="#FFCF84"/>
</g>
<g id="Group_122">
<path id="Vector_115" fill-rule="evenodd" clip-rule="evenodd" d="M442.715 344C446.301 347.329 446.509 352.947 443.177 356.536C439.845 360.125 434.227 360.333 430.641 357.004C430.296 356.684 429.752 356.7 429.432 357.045C429.112 357.39 429.136 357.933 429.481 358.253C433.757 362.223 440.454 361.973 444.426 357.695C448.398 353.418 448.151 346.721 443.875 342.751C443.53 342.431 442.986 342.447 442.666 342.792C442.346 343.136 442.37 343.68 442.715 344Z" fill="#FDA92F"/>
</g>
<g id="Group_123">
<path id="Vector_116" fill-rule="evenodd" clip-rule="evenodd" d="M430.643 357.007C427.053 353.674 426.845 348.056 430.177 344.467C433.509 340.879 439.127 340.67 442.717 344.003C443.058 344.319 443.597 344.299 443.917 343.954C444.237 343.61 444.218 343.07 443.877 342.754C439.597 338.78 432.9 339.03 428.928 343.308C424.956 347.586 425.203 354.283 429.483 358.257C429.824 358.573 430.363 358.552 430.683 358.208C431.003 357.863 430.984 357.324 430.643 357.007Z" fill="#FDA92F"/>
</g>
<g id="Group_124">
<path id="Vector_117" fill-rule="evenodd" clip-rule="evenodd" d="M426.134 358.644L428.427 356.355C428.759 356.022 429.3 356.023 429.631 356.356C429.967 356.693 429.964 357.23 429.632 357.564L427.28 359.907C426.867 359.506 426.483 359.082 426.134 358.644ZM429.885 361.892L431.525 358.901C431.753 358.491 432.27 358.337 432.683 358.565C433.093 358.789 433.245 359.308 433.021 359.722L431.408 362.658C430.888 362.438 430.379 362.181 429.885 361.892ZM423.355 348.048L426.593 348.308C427.062 348.345 427.412 348.756 427.374 349.224C427.336 349.693 426.926 350.044 426.457 350.006L423.191 349.745C423.213 349.179 423.266 348.612 423.355 348.048ZM424.584 344.195L428.093 345.097C428.549 345.215 428.826 345.681 428.708 346.136C428.591 346.591 428.124 346.864 427.668 346.747L423.923 345.786C424.106 345.243 424.329 344.715 424.584 344.195ZM445.175 360.779L443.019 358.582C442.69 358.247 442.695 357.707 443.031 357.378C443.367 357.049 443.905 357.053 444.235 357.388L446.438 359.632C446.038 360.047 445.615 360.428 445.175 360.779ZM450.244 349.56C450.272 350.13 450.262 350.699 450.22 351.27L446.643 351.45C446.172 351.473 445.773 351.113 445.751 350.645C445.724 350.172 446.088 349.773 446.559 349.75L450.244 349.56ZM439.768 337.009L439.141 340.938C439.067 341.403 438.629 341.719 438.164 341.645C437.7 341.57 437.381 341.133 437.459 340.671L438.087 336.734C438.647 336.787 439.21 336.879 439.768 337.009ZM446.763 341.117C447.148 341.541 447.504 341.987 447.828 342.451L445.281 344.702C444.925 345.011 444.385 344.977 444.077 344.626C443.764 344.273 443.799 343.735 444.15 343.422L446.763 341.117Z" fill="#FDA92F"/>
</g>
</g>
<g id="Group_125">
<g id="Group_126">
<path id="Vector_118" d="M512.262 364.469C519.609 363.073 524.432 355.985 523.036 348.638C521.639 341.292 514.551 336.468 507.205 337.865C499.858 339.261 495.034 346.349 496.431 353.696C497.828 361.042 504.915 365.866 512.262 364.469Z" fill="#FFCF84"/>
</g>
<g id="Group_127">
<path id="Vector_119" fill-rule="evenodd" clip-rule="evenodd" d="M508.298 342.661C513.105 341.747 517.752 344.91 518.667 349.721C519.581 354.532 516.419 359.18 511.612 360.094C511.15 360.182 510.84 360.629 510.928 361.091C511.016 361.553 511.468 361.856 511.93 361.768C517.662 360.679 521.431 355.138 520.341 349.403C519.251 343.668 513.711 339.897 507.98 340.986C507.517 341.074 507.208 341.522 507.296 341.984C507.384 342.446 507.836 342.749 508.298 342.661Z" fill="#FDA92F"/>
</g>
<g id="Group_128">
<path id="Vector_120" fill-rule="evenodd" clip-rule="evenodd" d="M511.614 360.096C506.802 361.011 502.154 357.848 501.24 353.036C500.325 348.226 503.488 343.578 508.3 342.663C508.757 342.576 509.06 342.129 508.972 341.668C508.884 341.206 508.438 340.902 507.982 340.988C502.244 342.079 498.475 347.62 499.565 353.355C500.655 359.09 506.195 362.861 511.932 361.77C512.389 361.684 512.692 361.237 512.605 360.775C512.517 360.313 512.071 360.009 511.614 360.096Z" fill="#FDA92F"/>
</g>
<g id="Group_129">
<path id="Vector_121" fill-rule="evenodd" clip-rule="evenodd" d="M510.256 364.701L509.772 361.497C509.701 361.032 510.022 360.597 510.487 360.528C510.957 360.457 511.388 360.778 511.459 361.243L511.953 364.527C511.384 364.621 510.815 364.679 510.256 364.701ZM515.095 363.605L513.659 360.512C513.464 360.084 513.646 359.578 514.075 359.38C514.499 359.183 515.006 359.368 515.207 359.794L516.615 362.833C516.129 363.121 515.621 363.379 515.095 363.605ZM500.075 360.657L502.204 358.203C502.512 357.847 503.051 357.809 503.405 358.117C503.76 358.426 503.799 358.964 503.491 359.319L501.344 361.794C500.902 361.442 500.477 361.062 500.075 360.657ZM497.701 357.383L500.508 355.091C500.873 354.794 501.412 354.848 501.709 355.212C502.006 355.576 501.949 356.114 501.584 356.412L498.59 358.858C498.262 358.389 497.969 357.896 497.701 357.383ZM523.264 350.632L520.217 351.067C519.751 351.133 519.32 350.809 519.254 350.343C519.188 349.877 519.51 349.446 519.975 349.379L523.089 348.936C523.186 349.504 523.242 350.07 523.264 350.632ZM517.234 339.899C517.71 340.214 518.162 340.56 518.597 340.932L516.622 343.92C516.361 344.312 515.835 344.42 515.444 344.161C515.048 343.902 514.941 343.372 515.203 342.98L517.234 339.899ZM500.916 340.895L503.709 343.729C504.04 344.064 504.034 344.604 503.699 344.934C503.363 345.264 502.822 345.261 502.496 344.925L499.697 342.085C500.073 341.665 500.481 341.267 500.916 340.895ZM508.371 337.696C508.941 337.638 509.511 337.616 510.077 337.63L510.38 341.016C510.418 341.486 510.07 341.9 509.605 341.941C509.135 341.983 508.722 341.636 508.679 341.168L508.371 337.696Z" fill="#FDA92F"/>
</g>
</g>
</g>
</g>
<g id="Parallax_2_3">
<path id="Vector_122" fill-rule="evenodd" clip-rule="evenodd" d="M476.282 363.539L410.688 477.761H383.711C383.711 477.761 375.421 495.47 387.982 501.955H511.718C511.846 501.955 511.969 501.966 512.098 501.983C514.563 502.162 528.644 501.759 539.785 472.892C557.886 426.002 576.233 398.952 594.764 363.539H476.282Z" fill="#E9E9EB"/>
<g id="Group_130">
<path id="Vector_123" d="M449.516 468.678C460.258 470.207 471.759 462.933 475.204 452.432C478.649 441.931 472.733 432.179 461.99 430.651C451.248 429.122 439.747 436.396 436.302 446.897C432.857 457.398 438.773 467.15 449.516 468.678Z" fill="white"/>
</g>
<g id="Group_131">
<path id="Vector_124" d="M580.155 369.608L478.305 368.527L473.945 376.481L575.795 377.562L580.155 369.608Z" fill="#BABDC2"/>
</g>
<g id="Group_132">
<path id="Vector_125" d="M573.318 384.279L470.988 383.359L466.641 391.32L568.97 392.24L573.318 384.279Z" fill="#BABDC2"/>
</g>
<g id="Group_133">
<path id="Vector_126" d="M565.42 400.215L462.762 397.545L458.285 405.429L560.943 408.099L565.42 400.215Z" fill="#BABDC2"/>
</g>
<g id="Group_134">
<path id="Vector_127" d="M557.243 416.007L455.121 411.582L450.519 419.386L552.641 423.811L557.243 416.007Z" fill="#BABDC2"/>
</g>
<g id="Group_135">
<path id="Vector_128" d="M546.244 432.395L491.73 429.646L487.908 437.258L542.421 440.006L546.244 432.395Z" fill="#BABDC2"/>
</g>
<g id="Group_136">
<path id="Vector_129" d="M537.232 448.511L500.418 446.299L497.231 453.946L534.044 456.159L537.232 448.511Z" fill="#BABDC2"/>
</g>
<g id="Group_137">
<path id="Vector_130" d="M529.847 464.725L481.008 461.086L478.341 468.77L527.18 472.41L529.847 464.725Z" fill="#BABDC2"/>
</g>
<path id="Vector_131" fill-rule="evenodd" clip-rule="evenodd" d="M413.145 473.484H501.53C501.631 473.484 501.731 473.496 501.832 473.507C502.782 473.635 503.582 474.155 503.951 475.363C504.129 475.944 504.146 477.101 503.917 478.666C503.106 484.273 499.49 498.422 513.968 501.927C513.113 502.022 512.47 502.005 512.101 501.983C511.972 501.966 511.849 501.955 511.721 501.955H504.157C503.665 501.519 503.213 501.06 502.793 500.585C497.695 494.794 498.243 486.409 499.07 480.791C499.21 479.823 499.35 478.778 499.456 477.956L410.691 477.761L413.145 473.484Z" fill="#242C2C"/>
<g id="Group_138">
<g id="Group_139">
<path id="Vector_132" d="M446.74 453.406C448.265 455.384 450.427 456.627 453.24 457.209C456.619 457.83 458.663 457.047 459.48 454.88C460.087 453.102 459.331 451.81 457.213 451.005C456.208 450.667 455.132 450.314 453.958 449.907C451.864 449.143 450.426 448.04 449.668 446.641C448.886 445.201 448.811 443.612 449.407 441.868C450.117 439.788 451.414 438.251 453.37 437.272C455.254 436.278 457.536 436.042 460.19 436.522C463.39 437.215 465.891 438.596 467.706 440.63L464.514 443.194C462.996 441.646 461.077 440.594 458.772 440.11C457.577 439.878 456.471 439.949 455.48 440.365C454.452 440.773 453.72 441.561 453.294 442.695C453.053 443.399 453.137 444.059 453.521 444.742C453.906 445.425 454.721 445.977 455.908 446.458C456.562 446.693 457.494 447.017 458.679 447.39C461.002 448.164 462.501 449.314 463.213 450.847C463.9 452.34 463.975 453.929 463.39 455.64C461.723 460.182 457.891 461.905 451.966 460.826C448.165 460.087 445.248 458.339 443.241 455.624L446.74 453.406Z" fill="#242C2C"/>
</g>
<g id="Group_140">
<path id="Vector_133" fill-rule="evenodd" clip-rule="evenodd" d="M460.936 433.427L447.968 462.799L450.971 463.713L464.049 434.084L460.936 433.427Z" fill="#242C2C"/>
</g>
</g>
</g>
<g id="Parallax_2_4">
<g id="Group_141">
<g id="Group_142">
<path id="Vector_134" fill-rule="evenodd" clip-rule="evenodd" d="M736.956 426.581C735.497 424.983 733.551 424.094 731.969 425.134C726.413 428.784 722.623 432.68 717.172 436.476C700.324 448.215 676.689 451.485 666.241 470.743C655.648 490.252 655.111 514.161 645.687 534.436C632.992 561.76 614.818 586.005 601.357 612.926C584.688 646.249 558.727 719.322 558.727 719.322C550.342 719.199 508.993 724.594 483.854 728.473C482.898 728.618 482.222 729.479 482.294 730.441C482.367 731.408 483.172 732.151 484.139 732.151C543.405 732.151 717.184 732.151 757.611 732.151C759.674 732.151 761.58 731.05 762.614 729.267C763.648 727.484 763.659 725.281 762.631 723.492C757.454 714.442 748.494 709.137 738.515 706.666C730.84 704.766 723.433 705.699 715.702 706.353C715.412 706.376 715.043 706.426 714.819 706.197C714.763 706.141 714.685 706.04 714.651 705.973C712.6 701.713 713.695 677.531 713.762 672.092C714.047 649.43 715.059 626.7 717.005 604.116C717.631 596.866 718.928 576.021 718.928 576.021C718.928 576.021 736.357 573.623 741.361 572.488C753.681 569.704 763.743 561.727 770.787 551.352C781.235 535.962 781.911 515.061 786.64 497.553C790.592 482.896 797.988 471.475 804.31 458.031C807.592 451.055 806.435 440.747 798.849 436.996C791.431 433.323 783.655 440.998 778.987 445.906C764.135 461.547 763.374 483.069 750.685 498.581C741.685 509.577 723.528 511.595 723.528 511.595C723.528 511.595 722.969 498.185 723.528 494.462C726.329 475.83 736.833 463.985 741.109 446.84C742.344 441.876 741.646 431.702 736.956 426.581Z" fill="#DD6140"/>
<path id="Vector_135" fill-rule="evenodd" clip-rule="evenodd" d="M695.115 583.752C703.198 579.62 718.929 576.021 718.929 576.021C718.929 576.021 718.515 582.695 718.04 589.8C711.975 587.603 704.372 586.955 695.976 587.094C695.16 587.106 694.439 586.552 694.237 585.764C694.03 584.97 694.394 584.137 695.115 583.752Z" fill="#242C2C"/>
</g>
<path id="Vector_136" fill-rule="evenodd" clip-rule="evenodd" d="M703.138 451.503L706.727 454.147C707.722 454.879 709.125 454.667 709.857 453.672C710.589 452.682 710.377 451.279 709.382 450.547L705.793 447.903C704.798 447.171 703.4 447.383 702.668 448.372C701.936 449.367 702.143 450.771 703.138 451.503Z" fill="#242C2C"/>
</g>
<path id="Vector_137" fill-rule="evenodd" clip-rule="evenodd" d="M714.347 705.107C714.196 704.872 714.089 704.609 714.028 704.318C709.377 680.672 703.15 664.489 696.101 653.751C689.342 643.454 681.879 638.294 674.411 636.461C659.346 632.754 644.527 642.358 636.281 649.072C632.525 652.124 629.685 655.109 629.685 655.109C629.255 655.64 628.584 655.964 627.846 655.931C626.616 655.869 625.66 654.818 625.722 653.589C625.722 653.555 625.671 652.879 626.376 652.102C626.851 651.582 629.422 648.887 633.458 645.6C642.514 638.221 658.921 628.048 675.479 632.117C683.825 634.169 692.283 639.781 699.84 651.297C704.866 658.949 709.517 669.263 713.497 682.953C713.335 691.198 713.318 701.328 714.347 705.107ZM675.518 462.766C675.518 462.766 668.273 480.967 663.807 492.203C661.129 498.922 663.924 506.581 670.291 510.008C673.192 511.578 676.133 512.741 679.107 513.473C683.143 514.48 687.419 513.563 690.695 511.003C693.976 508.437 695.888 504.507 695.888 500.342C695.888 486.25 695.888 463.588 695.888 463.588C695.888 462.358 694.888 461.352 693.652 461.352C692.422 461.352 691.416 462.358 691.416 463.588C691.416 463.588 691.416 486.25 691.416 500.342C691.416 503.132 690.136 505.759 687.939 507.475C685.748 509.197 682.886 509.806 680.18 509.136C677.558 508.487 674.976 507.459 672.415 506.072C668.038 503.719 666.127 498.464 667.96 493.858C672.432 482.622 679.677 464.415 679.677 464.415C680.13 463.269 679.571 461.966 678.425 461.514C677.273 461.055 675.976 461.614 675.518 462.766ZM723.386 507.129C723.453 509.695 723.531 511.595 723.531 511.595C723.531 511.595 723.889 511.556 724.532 511.461C721.77 512.026 719.216 512.266 716.817 512.244C715.582 512.232 714.592 511.221 714.604 509.991C714.615 508.755 715.621 507.76 716.856 507.772C718.891 507.788 721.055 507.587 723.386 507.129ZM803.558 441.166C804.391 442.424 805.006 443.832 805.414 445.314C796.923 451.463 790.573 460.826 790.271 461.38C789.684 462.464 788.326 462.866 787.241 462.28C786.157 461.693 785.754 460.334 786.341 459.25C786.676 458.624 793.938 447.908 803.558 441.166ZM795.28 436.045C796.47 436.112 797.667 436.409 798.852 436.996C799.344 437.236 799.808 437.51 800.249 437.806C796.638 440.557 789.298 446.817 781.768 457.193C781.047 458.188 779.644 458.411 778.649 457.685C777.649 456.963 777.425 455.56 778.152 454.565C784.67 445.582 791.07 439.534 795.28 436.045ZM724.548 430.74C726.868 428.84 729.199 426.956 731.972 425.134C733.554 424.094 735.499 424.983 736.958 426.581C738.065 427.789 738.948 429.276 739.642 430.914C733.291 437.504 726.276 432.227 724.548 430.74Z" fill="#242C2C"/>
</g>
</g>
</g>
<defs>
<linearGradient id="paint0_linear_1419_246" x1="311.681" y1="565.831" x2="863.394" y2="240.509" gradientUnits="userSpaceOnUse">
<stop stop-color="#B8D8D5"/>
<stop offset="0.42" stop-color="#CEE0DA"/>
<stop offset="1" stop-color="#FFF0E6"/>
</linearGradient>
<linearGradient id="paint1_linear_1419_246" x1="130.355" y1="175.037" x2="-141.905" y2="516.192" gradientUnits="userSpaceOnUse">
<stop stop-color="#B8D8D5"/>
<stop offset="0.47" stop-color="#CCDFDA"/>
<stop offset="1" stop-color="#FFF0E6"/>
</linearGradient>
<linearGradient id="paint2_linear_1419_246" x1="931.375" y1="247.09" x2="1099.52" y2="410.825" gradientUnits="userSpaceOnUse">
<stop stop-color="#FFBF2F"/>
<stop offset="1" stop-color="#FD9500"/>
</linearGradient>
<linearGradient id="paint3_linear_1419_246" x1="1046.39" y1="553.185" x2="772.151" y2="368.34" gradientUnits="userSpaceOnUse">
<stop stop-color="#FFBF2F"/>
<stop offset="0.48" stop-color="#FEB422"/>
<stop offset="1" stop-color="#FD9500"/>
</linearGradient>
</defs>
</svg>
