<svg width="1125" height="896" viewBox="0 0 1125 896" fill="none" xmlns="http://www.w3.org/2000/svg">
<g id="Illustrazione_4">
<g id="Parallax_2">
<g id="Group">
<path id="Vector" d="M940.286 392.604H109.574V894.429H940.286V392.604Z" fill="#FFF0E6"/>
</g>
<path id="Vector_2" fill-rule="evenodd" clip-rule="evenodd" d="M913.013 730.686H784.749V853.793H913.013V730.686ZM753.451 633.795H625.194V853.793H753.451V633.795ZM593.896 592.036H465.636V853.793H593.896V592.036ZM434.337 542.355H306.078V853.793H434.337V542.355ZM274.779 765.851H146.52V853.793H274.779V765.851Z" fill="#FFA396"/>
</g>
<g id="Parallax_2_2">
<g id="COIN-PILE">
<path id="Vector_3" fill-rule="evenodd" clip-rule="evenodd" d="M855.085 817.087C850.586 816.332 847.15 812.414 847.15 807.7V788.657C847.15 783.401 851.413 779.13 856.666 779.13H992.677C997.931 779.13 1002.2 783.401 1002.2 788.657V807.7C1002.2 812.414 998.764 816.332 994.264 817.087C998.764 817.847 1002.2 821.765 1002.2 826.48V845.523C1002.2 849.958 999.159 853.693 995.049 854.746C999.056 855.871 1001.99 859.552 1001.99 863.914V882.963C1001.99 888.213 997.73 892.484 992.476 892.484H856.466C851.212 892.484 846.949 888.213 846.949 882.963V863.914C846.949 859.479 849.984 855.75 854.094 854.691C850.087 853.565 847.15 849.885 847.15 845.523V826.48C847.15 821.765 850.586 817.847 855.085 817.087Z" fill="#FFC367"/>
<path id="Vector_4" fill-rule="evenodd" clip-rule="evenodd" d="M980.361 812.408H1000.96C999.565 814.848 997.132 816.606 994.268 817.087C994.56 817.136 994.852 817.202 995.138 817.275H992.146V849.921H1001.13C999.893 852.282 997.692 854.07 995.053 854.746C995.101 854.758 995.144 854.77 995.187 854.788H979.322V892.484H974.457V854.788H928.285V892.484H923.42V854.788H884.059V892.484H879.194V854.788H874.238V892.484H869.374V854.788H853.758C853.874 854.752 853.983 854.721 854.099 854.691C851.551 853.973 849.428 852.227 848.23 849.921H858.039V817.275H854.22C854.5 817.202 854.792 817.136 855.09 817.087C852.226 816.606 849.793 814.848 848.401 812.408H874.974V779.13H879.839V812.408H890.249V779.13H895.114V812.408H919.601V779.13H924.466V812.408H975.497V779.13H980.361V812.408ZM862.904 817.275V849.921H906.698V817.275H862.904ZM911.563 817.275V849.921H939.486V817.275H911.563ZM944.351 817.275V849.921H951.55V817.275H944.351ZM956.415 817.275V849.921H987.281V817.275H956.415Z" fill="#FEA424"/>
</g>
<g id="COIN-RIGHT">
<g id="Group_2">
<path id="Vector_5" fill-rule="evenodd" clip-rule="evenodd" d="M1023.55 729.335C1049.38 720.665 1083.68 742.312 1102.25 780.038C1121.14 818.396 1116.96 859.511 1093.33 874.106L1093.44 874.349L1068.32 887.405C1067.58 887.843 1066.82 888.257 1066.04 888.64C1065.71 888.798 1065.37 888.956 1065.05 889.108L1064.04 889.632L1064 889.565C1037.94 900.424 1002.1 878.62 982.955 839.738C963.307 799.834 968.628 756.955 994.831 744.039C994.831 744.039 1017.52 731.957 1019.17 731.142C1020.46 730.509 1021.76 729.961 1023.09 729.493L1023.52 729.274L1023.55 729.335Z" fill="#FFCD80"/>
<g id="Group_3">
<path id="Vector_6" d="M1085.35 861.982C1107.09 852.184 1112.57 817.272 1097.6 784.006C1082.62 750.739 1052.86 731.714 1031.12 741.513C1009.38 751.312 1003.89 786.223 1018.87 819.49C1033.84 852.756 1063.61 871.781 1085.35 861.982Z" fill="#FEA424"/>
</g>
<path id="Vector_7" fill-rule="evenodd" clip-rule="evenodd" d="M1035.01 727.437L1035.38 727.431C1031.89 728.124 1028.49 729.256 1025.24 730.862C1014.23 736.289 1006.51 746.266 1002.37 758.677C995.999 777.738 998.005 802.463 1009.48 825.764C1020.95 849.071 1039.32 865.734 1058.32 872.293C1070.67 876.563 1083.28 876.527 1094.3 871.1C1097.56 869.488 1100.52 867.486 1103.2 865.138L1103.11 865.248L1103.02 865.363L1102.94 865.473L1102.79 865.655L1102.71 865.759L1102.61 865.88L1102.54 865.972L1102.52 865.996L1102.38 866.16L1102.3 866.257L1102.18 866.403L1102.13 866.458L1102.09 866.507L1101.96 866.665L1101.88 866.75L1101.72 866.939L1101.66 867.006L1101.53 867.158L1101.46 867.237L1101.29 867.426L1101.23 867.492L1101.09 867.645L1101.03 867.712L1100.85 867.906L1100.79 867.973L1100.64 868.131L1100.59 868.18L1100.41 868.375L1100.35 868.435L1100.17 868.618L1100.15 868.642L1100.13 868.655L1099.95 868.837L1099.89 868.898L1099.7 869.093L1099.66 869.129L1099.49 869.293L1099.43 869.348L1099.24 869.537L1099.19 869.585L1099.01 869.743L1098.97 869.792L1098.77 869.981L1098.72 870.023L1098.53 870.194L1098.5 870.224L1098.29 870.407L1098.24 870.455L1098.03 870.644L1098.02 870.65L1097.8 870.833L1097.75 870.881L1097.54 871.064L1097.51 871.088L1097.31 871.252L1097.26 871.289L1097.04 871.471L1097 871.502L1096.81 871.66L1096.76 871.696L1096.54 871.867L1096.49 871.909L1096.28 872.068L1096.26 872.086L1096.03 872.262L1095.98 872.299L1095.75 872.469L1095.51 872.639L1095.46 872.682L1095.23 872.846L1095.2 872.864L1094.99 873.017L1094.93 873.053L1094.7 873.211L1094.66 873.242L1094.45 873.382L1094.41 873.412L1094.17 873.57L1094.12 873.607L1093.9 873.747L1093.87 873.765L1093.63 873.917L1093.57 873.954L1093.33 874.106L1093.44 874.349L1083.3 879.624C1079.17 880.275 1074.93 880.384 1070.65 879.977C1070.63 879.989 1070.6 880.001 1070.58 880.013L1048.35 892.327C1045.66 892.235 1042.92 891.889 1040.17 891.299L1062.92 878.693C1060.85 878.206 1058.78 877.604 1056.72 876.892C1049.55 874.41 1042.44 870.577 1035.73 865.546L1014.67 879.076C1013.32 878.066 1011.97 877.001 1010.64 875.882L1031.7 862.352C1030.14 861.038 1028.6 859.657 1027.09 858.215L1005.52 871.234C1004.34 870.084 1003.17 868.892 1002.03 867.663L1023.56 854.656C1016.47 847.136 1010.15 838.144 1005.12 827.917C1003.93 825.496 1002.83 823.062 1001.84 820.617L979.489 832.054C978.869 830.533 978.279 829.012 977.726 827.491L1000.09 816.048C996.668 806.496 994.704 796.896 994.126 787.679L971.268 797.255C971.158 795.503 971.104 793.769 971.098 792.053L993.943 782.477C993.889 775.012 994.764 767.858 996.522 761.257L973.907 770.997C974.545 768.825 975.293 766.732 976.151 764.731L997.963 755.337L998.188 755.866C1000.88 748.341 1004.8 741.685 1009.89 736.289C1009.89 736.289 1016.97 732.273 1018.97 731.245L1019.17 731.142C1020.46 730.509 1021.76 729.961 1023.1 729.493L1023.52 729.274L1023.55 729.335L1023.82 729.244L1023.87 729.231L1024.13 729.146L1024.18 729.128L1024.45 729.049L1024.48 729.037L1024.74 728.958L1024.78 728.946L1025.05 728.873L1025.1 728.854L1025.36 728.781L1025.41 728.769L1025.67 728.696L1025.69 728.69L1025.97 728.617L1026.01 728.605L1026.29 728.538L1026.33 728.526L1026.61 728.459H1026.62L1026.9 728.392L1026.94 728.38L1027.21 728.319L1027.26 728.313L1027.54 728.252L1027.56 728.246L1027.84 728.185H1027.86L1028.15 728.124L1028.19 728.118L1028.48 728.063L1028.51 728.057L1028.8 728.003L1029.1 727.954L1029.13 727.948L1029.42 727.905L1029.45 727.899L1029.75 727.85L1030.05 727.808H1030.07L1030.36 727.765L1030.4 727.759L1030.69 727.723H1030.71L1031.01 727.686H1031.02L1031.32 727.656L1031.35 727.65L1031.64 727.619L1031.68 727.613L1031.98 727.589L1032.26 727.564L1032.31 727.558L1032.59 727.54L1032.65 727.534L1032.93 727.516L1032.98 727.51L1033.16 727.504L1033.42 727.485L1033.52 727.479L1033.83 727.467H1033.87L1034.24 727.449L1034.62 727.443H1034.62L1035 727.437H1035.01Z" fill="#FEA424"/>
</g>
<g id="Group_4">
<g id="Group_5">
<path id="Vector_8" d="M1048.88 826.342C1057.55 829.55 1065.92 829.645 1074.23 826.82C1084.01 823.202 1087.02 817.708 1083.58 810.226C1080.6 804.187 1075.53 801.709 1068.35 802.792C1065.06 803.429 1061.56 804.141 1057.69 804.853C1050.67 806.012 1044.41 805.162 1039.06 802.38C1033.55 799.522 1029.39 795.111 1026.47 789.186C1022.99 782.121 1022.3 775.67 1024.6 769.758C1026.7 763.92 1031.66 759.607 1039.32 756.743C1048.85 753.617 1058.39 753.564 1067.9 756.47L1066.56 768.872C1058.99 766.881 1051.68 766.939 1044.86 769.237C1041.37 770.481 1038.86 772.447 1037.49 775.214C1036.01 778.017 1036.2 781.432 1038 785.344C1039.18 787.737 1041.04 789.486 1043.68 790.82C1046.33 792.155 1049.7 792.428 1053.79 791.907C1055.97 791.533 1059.05 790.971 1062.87 790.146C1070.46 788.647 1076.99 789.535 1082.56 792.773C1087.97 795.935 1092.13 800.345 1095 806.157C1102.32 821.766 1097.31 832.794 1080.19 839.164C1069.08 843.121 1057.61 842.79 1045.92 838.247L1048.88 826.342Z" fill="#FFCD80"/>
</g>
<g id="Group_6">
<path id="Vector_9" fill-rule="evenodd" clip-rule="evenodd" d="M1033.32 746.778L1075.34 851.218L1088.72 847.294L1044.67 743.445L1033.32 746.778Z" fill="#FFCD80"/>
</g>
</g>
</g>
</g>
<g id="Parallax_1">
<g id="ARROW">
<path id="Vector_10" fill-rule="evenodd" clip-rule="evenodd" d="M881.894 567.024L888.198 550.829L930.687 605.705L863.034 615.476L869.688 598.38L501.158 444.498L467.035 505.638L404.77 473.583L278.498 800.254L193.226 757.405C175.109 788.001 160.065 814.587 148.19 831.914L121.27 812.494C134.537 793.142 151.791 761.956 172.991 726.633L180.824 713.584L261.021 753.883L387.42 426.884L453.952 461.135L486.9 402.098L881.894 567.024Z" fill="#CD0000"/>
</g>
<path id="ROPE" fill-rule="evenodd" clip-rule="evenodd" d="M858.052 549.743L851.411 218.51L585.678 160.573L298.162 96.1258C246.86 84.6262 193.41 87.1558 143.422 103.449L86.4882 122.006L7.95636 222.658C6.44527 224.595 3.64686 224.94 1.71072 223.428C-0.224819 221.916 -0.569603 219.116 0.94149 217.18L81.1468 114.383L140.666 94.9832C192.172 78.1955 247.247 75.5892 300.107 87.4381C408.056 111.635 587.612 151.882 587.581 151.877L860.168 211.307L866.984 551.416L872.877 543.769C873.692 542.704 875.224 542.503 876.288 543.325C877.346 544.146 877.547 545.673 876.726 546.738L867.143 559.185L867.927 598.347C867.976 600.805 866.024 602.837 863.567 602.891C861.116 602.94 859.079 600.981 859.031 598.529L858.216 557.798L849.502 546.762C848.669 545.71 848.851 544.176 849.903 543.343C850.955 542.51 852.488 542.692 853.315 543.745L858.052 549.743Z" fill="#242C2C"/>
<g id="ORANGE-CHARACTER">
<g id="Group_7">
<path id="Vector_11" fill-rule="evenodd" clip-rule="evenodd" d="M236.838 195.111C236.838 195.111 159.084 218.956 98.2567 237.61C81.8399 242.644 68.8648 255.3 63.4179 271.592C57.9711 287.883 60.7241 305.803 70.8089 319.707C93.2298 350.617 115.881 381.845 115.881 381.845C115.881 381.845 105.738 384.842 106.804 391.483L225.699 393.259L178.802 324.385C178.802 324.385 279.805 317.003 305.707 303.511L459.948 382.945C459.948 382.945 442.085 385.843 441.143 393.963L529.207 392.984C529.207 392.984 552.802 373.902 562.536 366.025C563.523 365.227 564.083 364.014 564.053 362.744C564.018 361.475 563.397 360.292 562.369 359.546C532.551 337.802 356.582 210.226 322.597 203.101C322.597 203.101 288.871 181.262 236.838 195.111Z" fill="url(#paint0_linear_1362_258)"/>
<g id="Group_8">
<path id="Vector_12" fill-rule="evenodd" clip-rule="evenodd" d="M321.257 202.31C322.14 202.807 322.594 203.101 322.594 203.101C325.632 203.738 329.805 205.338 334.903 207.737C339.957 213.195 344.75 220.336 347.542 229.394C350.241 238.152 351.087 248.716 348.432 261.298L497.377 350.055L523.341 331.388L524.831 332.452C525.451 332.896 526.072 333.34 526.686 333.783L527.519 334.378L458.576 383.943C457.682 384.586 456.497 384.535 455.669 383.893C458.149 383.237 459.943 382.946 459.943 382.946L455.209 380.508C455.354 380.315 455.53 380.14 455.737 379.992L493.068 353.153L347.232 266.247C346.77 267.937 346.247 269.661 345.658 271.42C342.051 282.187 332.719 295.996 311.165 306.324L305.704 303.511C302.425 305.219 297.942 306.829 292.618 308.337C292.806 308.213 293.015 308.113 293.241 308.044C324.531 298.415 336.924 282.175 341.045 269.873C346.381 253.944 346.046 241.062 342.893 230.828C338.433 216.355 328.394 207.224 321.257 202.31ZM295.701 193.095C297.573 193.497 299.357 193.931 301.051 194.386C301.357 195.818 301.569 197.264 301.801 198.58C302.939 205.037 303.684 211.479 303.318 218.046C302.17 238.603 294.07 258.456 274.372 267.215C262.53 272.48 248.389 274.597 235.475 274.351C224.767 274.146 211.824 272.912 201.197 272.126C176.921 270.33 156.819 267.336 128.027 270.784C117.833 272.006 110.199 275.566 105.794 281.722C101.375 287.897 100.286 296.567 102.762 307.699C104.47 315.374 107.825 322.476 111.544 329.353C117.285 339.968 123.177 350.892 130.016 360.861L201.435 357.626L204.653 362.352L131.245 365.677C131.107 365.85 130.942 366.007 130.752 366.142C129.757 366.846 128.413 366.696 127.593 365.843L105.016 366.865L101.595 362.148L124.325 361.119C118.095 351.699 112.611 341.554 107.265 331.668C103.333 324.396 99.8193 316.872 98.0137 308.756C95.1634 295.939 96.7508 285.998 101.838 278.889C106.94 271.76 115.645 267.366 127.449 265.952C156.609 262.46 176.969 265.454 201.555 267.273C212.1 268.053 224.942 269.282 235.568 269.485C247.792 269.718 261.186 267.752 272.396 262.767C290.348 254.785 297.415 236.508 298.461 217.774C298.806 211.583 298.083 205.512 297.011 199.424C296.662 197.445 296.491 195.067 295.701 193.095Z" fill="#D7441E"/>
</g>
<g id="Group_9">
<path id="Vector_13" fill-rule="evenodd" clip-rule="evenodd" d="M182.79 330.24L183.753 331.655L183.646 331.687C183.37 331.202 183.085 330.72 182.79 330.24ZM179.702 325.705C167.243 309.033 145.035 295.48 133.271 289.039C132.361 288.545 131.913 287.487 132.191 286.489C132.468 285.491 133.398 284.818 134.432 284.865C162.167 287.181 191.557 313.376 200.984 322.463C187.745 323.737 178.807 324.39 178.807 324.39L179.702 325.705Z" fill="#711801"/>
</g>
</g>
<g id="Group_10">
<g id="Group_11">
<path id="Vector_14" d="M178.226 68.3602C192.457 68.7155 204.28 57.4625 204.634 43.226C204.988 28.9895 193.739 17.1606 179.509 16.8054C165.278 16.4501 153.455 27.7031 153.101 41.9395C152.747 56.176 163.996 68.0049 178.226 68.3602Z" fill="#E86135"/>
</g>
<g id="Group_12">
<path id="Vector_15" fill-rule="evenodd" clip-rule="evenodd" d="M167.254 19.5638C170.93 17.7016 175.106 16.6961 179.511 16.8063C193.732 17.1613 204.989 28.9999 204.635 43.2273C204.364 54.0825 197.412 63.2116 187.815 66.7715L181.471 52.2057C182.504 52.3098 183.603 52.1528 184.672 51.6978C187.93 50.309 189.676 46.6643 188.567 43.564C187.459 40.4631 183.913 39.0735 180.654 40.4623C179.322 41.0299 178.243 41.9753 177.508 43.1062L167.254 19.5638Z" fill="#242C2C"/>
</g>
<g id="Group_13">
<path id="Vector_16" fill-rule="evenodd" clip-rule="evenodd" d="M236.808 80.3503C207.016 76.9808 141.787 80.0357 89.4787 84.0654C79.6207 84.8307 70.483 89.525 64.1182 97.0951C57.7528 104.664 54.6942 114.475 55.6287 124.323C56.3531 131.711 58.1782 139.184 61.9006 145.701C61.9006 145.701 56.6234 160.657 72.8751 171.313C77.7951 174.53 83.4079 176.532 89.2526 177.155C101.763 178.375 135.487 180.711 180.852 176.201C180.852 176.201 221.555 208.953 266.249 182.934C301.716 162.287 306.749 88.2613 236.808 80.3503Z" fill="url(#paint1_linear_1362_258)"/>
</g>
<g id="Group_14">
<path id="Vector_17" fill-rule="evenodd" clip-rule="evenodd" d="M61.901 145.706C69.6511 151.346 83.1708 158.471 98.9579 159.21C130.699 160.697 216.951 164.73 216.951 164.73C218.292 164.793 219.33 165.933 219.268 167.275C219.205 168.616 218.065 169.654 216.725 169.591C216.725 169.591 130.471 165.558 98.7306 164.071C84.6474 163.412 71.4537 157.832 61.2735 148.605C61.5155 146.799 61.901 145.706 61.901 145.706Z" fill="#D7441E"/>
</g>
</g>
<g id="Group_15">
<path id="Vector_18" fill-rule="evenodd" clip-rule="evenodd" d="M156.522 79.9957C189.025 78.6114 219.146 78.3502 236.809 80.3477C306.748 88.2574 302.969 162.428 267.022 182.226C227.152 204.184 190.12 189.547 179.1 176.478C176 172.801 174.093 162.61 174.093 162.61L150.178 161.258L122.024 124.872L156.522 79.9957Z" fill="#D7441E"/>
</g>
<g id="Group_16">
<path id="Vector_19" fill-rule="evenodd" clip-rule="evenodd" d="M174.094 162.61C174.094 162.61 199.768 162.333 213.874 162.63C214.512 162.643 215.046 163.115 215.138 163.747C215.229 164.378 214.852 164.983 214.244 165.177L179.071 176.442C175.988 172.735 174.094 162.61 174.094 162.61Z" fill="#711801"/>
</g>
</g>
<g id="YELLOW-CHARACTER">
<path id="Vector_20" fill-rule="evenodd" clip-rule="evenodd" d="M645.687 175.63C646.192 176.102 621.625 208.906 576.286 191.422C568.022 188.236 529.865 160.746 556.535 109.683C563.668 96.0308 594.608 55.8191 663.498 80.5955C671.707 83.5474 686.447 90.1958 712.734 109.683C722.518 116.937 797.97 183.101 840.815 200.154C849.347 203.552 850.758 204.562 858.359 208.207C860.505 209.237 862.573 213.202 854.37 214.957C854.37 214.957 862.469 214.553 859.028 220.558C859.028 220.558 853.786 227.749 850.563 232.172C848.885 234.476 846.173 235.802 843.327 235.718C840.852 235.642 838.085 235.307 836.772 234.235C836.772 234.235 831.08 242.509 818.724 236.088C818.724 236.088 813.464 248.663 788.934 234.235C778.681 228.206 770.582 224.423 762.433 221.282V234.235L979.812 326.91C979.812 326.91 987.54 325.128 999.708 326.91L929.322 393.089L756.419 348.296V380.303C756.419 380.303 770.88 384.949 772.582 393.089H658.603V340.285C658.603 340.285 550.096 350.364 570.09 263.663C571.993 255.408 598.505 195.085 658.603 182.055L645.687 175.63Z" fill="url(#paint2_linear_1362_258)"/>
<path id="Vector_21" fill-rule="evenodd" clip-rule="evenodd" d="M764.32 296.252V296.249L888.37 342.338L914.274 298.97L918.793 300.896L892.122 345.538C892.116 345.783 892.061 346.03 891.976 346.273C891.775 346.812 891.404 347.238 890.948 347.512L872.511 378.371L867.604 377.1L885.828 346.586L764.029 301.333L764.174 298.819L764.32 296.252ZM568.091 275.331C569.855 282.521 574.458 289.165 582.156 290.597C591.545 292.344 602.12 286.521 609.848 281.825C619.888 275.722 627.161 267.485 633.965 258.799C641.007 249.807 647.544 240.335 655.893 232.068C659.882 228.118 665.336 223.89 671.15 222.032C675.351 220.69 679.73 220.551 683.962 222.399C689.386 224.77 693.789 229.659 697.097 235.532C701.834 243.953 704.327 254.362 704.728 261.426C706.589 294.544 705.762 325.006 705.117 357.982L756.421 358.129V362.996L658.605 362.716V357.849L700.253 357.968C700.891 325.089 701.73 294.72 699.869 261.699C699.505 255.212 697.206 245.653 692.858 237.919C690.104 233.022 686.54 228.836 682.016 226.859C678.094 225.146 673.995 225.881 670.207 227.611C666.048 229.512 662.247 232.623 659.316 235.527C651.113 243.648 644.71 252.967 637.796 261.8C630.633 270.94 622.934 279.562 612.372 285.984C603.731 291.237 591.77 297.337 581.262 295.382C575.376 294.286 570.834 290.806 567.684 286.224C567.55 282.808 567.678 279.181 568.091 275.331ZM762.435 234.235L766.899 236.138L764.077 300.169L761.055 349.496L756.421 348.296V354.484C756.105 354.043 755.935 353.493 755.971 352.91C755.971 352.91 762.356 256.354 762.375 228.43L762.381 228.235C762.399 227.975 762.417 227.716 762.435 227.461V234.235ZM651.77 178.657C653.576 178.313 656.513 177.779 660.265 177.187L643.214 162.495C642.199 161.619 642.083 160.081 642.959 159.063C643.834 158.045 645.373 157.931 646.388 158.807L665.859 175.583C666.096 175.785 666.279 176.022 666.419 176.279C675.789 174.992 688.06 173.732 700.429 173.69C717.875 173.632 735.461 176.1 745.762 183.955C750.943 187.906 766.899 200.34 767.391 223.278C765.731 222.577 764.083 221.917 762.435 221.282V221.4C761.128 201.898 747.349 191.288 742.812 187.825C733.205 180.496 716.72 178.503 700.441 178.557C680.526 178.624 660.855 181.914 653.637 183.258C655.266 182.822 656.92 182.42 658.605 182.055L651.77 178.657ZM764.029 301.333L764.077 300.169L764.32 296.252L764.174 298.819L764.029 301.333Z" fill="#FD9500"/>
<path id="Vector_22" fill-rule="evenodd" clip-rule="evenodd" d="M815.527 239.458L803.018 231.18C801.893 230.439 801.589 228.928 802.331 227.808C803.067 226.688 804.581 226.379 805.7 227.12L820.586 236.969C819.984 236.712 819.364 236.42 818.725 236.088C818.725 236.088 817.935 237.983 815.527 239.458ZM833.222 237.169L815.259 224.879C814.146 224.121 813.867 222.605 814.621 221.497C815.381 220.388 816.895 220.103 818.001 220.861L838.974 235.209C838.08 234.984 837.302 234.67 836.773 234.235C836.773 234.235 835.618 235.911 833.222 237.169ZM859.838 217.467C855.672 216.481 853.027 216.557 851.367 217.052C851.002 217.161 850.692 217.307 850.455 217.447L851.963 218.864C852.942 219.782 852.997 221.323 852.079 222.304C851.16 223.284 849.616 223.334 848.637 222.415L838.871 213.253C837.892 212.335 837.837 210.794 838.755 209.813C839.674 208.834 841.218 208.784 842.197 209.702L846.8 214.019C848.515 212.521 852.176 210.927 859.704 212.456C858.932 213.416 857.308 214.328 854.371 214.957C854.371 214.957 859.315 214.711 859.838 217.467Z" fill="#FD9500"/>
<path id="Vector_23" fill-rule="evenodd" clip-rule="evenodd" d="M646.033 175.803L645.687 175.63C646.191 176.102 621.625 208.906 576.286 191.422C568.022 188.236 529.865 160.746 556.535 109.683C563.668 96.0308 594.608 55.8191 663.498 80.5955C669.858 82.8818 680.129 87.3838 696.644 98.3487C698.73 106.768 698.444 121.088 676.45 128.622C676.45 128.622 688.289 158.81 652.814 163.586C652.814 163.586 650.697 169.27 646.033 175.803Z" fill="#FD9500"/>
<path id="Vector_24" fill-rule="evenodd" clip-rule="evenodd" d="M640.109 340.417L658.376 267.545C658.565 266.791 659.288 266.302 660.06 266.412C660.833 266.522 661.392 267.196 661.362 267.973L658.577 340.287C658.108 340.329 650.617 340.976 640.109 340.417ZM645.673 175.722C645.223 176.211 644.755 176.639 644.287 176.983C644.287 176.983 622.943 150.772 612.119 137.482C611.663 136.923 611.687 136.112 612.18 135.582C612.666 135.052 613.475 134.964 614.065 135.376C625.248 142.979 644.895 156.671 652.313 163.955C652.313 163.955 649.352 171.715 645.734 175.656L645.685 175.63C645.697 175.641 645.691 175.672 645.673 175.722Z" fill="#D7441E"/>
<path id="Vector_25" fill-rule="evenodd" clip-rule="evenodd" d="M543.385 42.4763C542.922 42.6905 543.549 41.4695 543.567 40.9609C543.603 40.0124 543.616 39.0633 543.64 38.1149C543.707 35.3607 543.597 32.6072 543.616 29.853C543.658 24.22 542.424 8.19765 549.015 5.43985C552.299 4.06612 553.181 10.1639 553.229 12.2051C553.418 20.0946 547.945 26.1182 546.814 33.4808C546.759 33.8471 547.07 32.7842 547.209 32.4417C547.501 31.7335 547.781 31.0205 548.085 30.3166C548.949 28.3235 549.818 26.3354 550.718 24.3587C553.558 18.1167 556.318 11.4081 560.526 5.9308C561.524 4.62825 564.449 1.11485 566.461 2.65102C569.453 4.93732 565.391 11.4093 564.066 13.5958C561.153 18.3899 557.383 22.5938 554.239 27.226C551.046 31.9185 548.474 37.1341 545.215 41.739" fill="#FFB000"/>
<g id="Group_17">
<g id="Group_18">
<path id="Vector_26" d="M568.047 77.6719C582.508 77.6719 594.23 65.9434 594.23 51.4756C594.23 37.0078 582.508 25.2793 568.047 25.2793C553.586 25.2793 541.863 37.0078 541.863 51.4756C541.863 65.9434 553.586 77.6719 568.047 77.6719Z" fill="#FFB000"/>
</g>
<g id="Group_19">
<path id="Vector_27" d="M511.644 67.0656C530.083 67.0656 545.031 52.1106 545.031 33.6627C545.031 15.2148 530.083 0.259766 511.644 0.259766C493.206 0.259766 478.258 15.2148 478.258 33.6627C478.258 52.1106 493.206 67.0656 511.644 67.0656Z" fill="#242C2C"/>
</g>
<path id="Vector_28" fill-rule="evenodd" clip-rule="evenodd" d="M547.66 67.8958C544.036 63.4016 541.871 57.6889 541.871 51.4731C541.871 37.0155 553.601 25.2773 568.049 25.2773C571.856 25.2773 575.468 26.0901 578.733 27.5527C578.046 36.4959 573.181 54.0459 547.66 67.8958Z" fill="#242C2C"/>
</g>
</g>
<g id="GREEN-CHARACTER">
<g id="Group_20">
<path id="Vector_29" fill-rule="evenodd" clip-rule="evenodd" d="M555.951 432.309C555.951 432.309 544.586 430.567 552.552 419.391C554.845 416.179 564.422 411.804 570.095 425.084C570.095 425.084 580.646 420.079 583.297 433.355C583.297 433.355 593.148 428.587 596.529 441.975C596.529 441.975 606.526 440.7 607.845 454.434C609.816 474.918 611.451 489.635 612.655 505.952C612.655 505.952 615.665 537.265 637.964 556.63C637.964 556.63 651.415 511.859 700.287 526.484L745.814 544.493C745.814 544.493 771.573 535.738 783.935 553.74C792.606 547.182 806.598 535.525 810.399 532.009C812.272 530.275 816.091 528.851 818.115 529.94C819.812 530.853 820.955 534.15 818.961 536.358C818.961 536.358 823.181 532.824 826.647 535.78C827.991 536.924 829.097 539.273 827.316 543.373C827.316 543.373 831.676 539.382 834.874 542.089C836.127 543.142 838.353 545.795 835.409 550.29C835.409 550.29 840.122 546.506 843.187 549.493C844.549 550.82 845.686 553.557 837.623 563.626C835.434 566.352 833.202 569.053 830.928 571.73C810.046 596.613 775.61 605.367 745.394 593.461C725.997 585.856 708.131 578.818 708.131 578.818C708.131 578.818 732.874 623.777 732.704 649.804C732.558 672.989 722.494 697.075 693.725 704.077C687.061 705.708 680.123 705.896 673.379 704.625C654.534 701.084 612.661 687.742 617.447 639.346C617.447 639.346 581.637 615.911 558.013 577.814C539.807 548.502 535.21 512.735 545.407 479.773C550.631 462.842 556.657 440.999 555.951 432.309Z" fill="#A8CFCC"/>
<path id="Vector_30" fill-rule="evenodd" clip-rule="evenodd" d="M815.347 572.132C815.347 572.132 835.657 549.907 835.407 550.291C835.407 550.291 838.691 547.65 841.561 548.514C841.537 548.545 841.519 548.569 841.494 548.593L818.053 574.577C817.378 575.326 816.222 575.38 815.474 574.705C814.726 574.036 814.672 572.88 815.347 572.132ZM806.164 566.078C806.164 566.078 827.344 543.3 827.314 543.373C827.314 543.373 830.877 540.112 833.93 541.487L808.84 568.56C808.159 569.297 807.004 569.345 806.262 568.658C805.526 567.97 805.483 566.814 806.164 566.078ZM819.038 536.298C819.542 535.902 822.443 533.797 825.27 534.935L800.363 561.82C799.676 562.562 798.521 562.604 797.785 561.917C797.043 561.236 797.001 560.08 797.688 559.337L819.038 536.298Z" fill="#82B5B2"/>
<path id="Vector_31" fill-rule="evenodd" clip-rule="evenodd" d="M595.426 453.732C596.265 449.581 596.496 441.828 596.532 441.973C596.532 441.973 598.089 441.774 600.053 442.379C600.017 445.407 599.816 450.451 599.001 454.456C598.8 455.448 597.84 456.087 596.854 455.886C595.863 455.685 595.225 454.718 595.426 453.732ZM586.937 432.533C587.283 435.643 587.551 441.008 586.584 447.854C586.444 448.851 585.52 449.546 584.523 449.405C583.525 449.265 582.832 448.34 582.972 447.343C583.848 441.135 583.653 436.239 583.355 433.329C583.641 433.198 585.082 432.594 586.937 432.533ZM570.689 442.309C571.789 432.525 569.892 424.595 570.099 425.083C570.099 425.083 571.497 424.42 573.401 424.217C574.27 427.643 575.298 433.976 574.313 442.717C574.197 443.718 573.297 444.439 572.294 444.327C571.297 444.214 570.573 443.31 570.689 442.309ZM552.695 431.121C552.866 428.383 552.92 426.582 552.92 426.582C552.957 425.575 553.796 424.783 554.805 424.815C555.809 424.847 556.599 425.69 556.569 426.697C556.569 426.697 556.082 433.872 555.955 432.308C555.955 432.308 554.301 432.054 552.695 431.121Z" fill="#82B5B2"/>
</g>
<g id="Group_21">
<path id="Vector_32" fill-rule="evenodd" clip-rule="evenodd" d="M612.583 504.936L612.656 505.952C612.656 505.952 615.666 537.265 637.964 556.63C637.964 556.63 651.415 511.859 700.287 526.484L735.422 540.386L744.282 593.023C725.322 585.589 708.131 578.818 708.131 578.818C708.131 578.818 732.874 623.777 732.704 649.804C732.558 672.989 722.494 697.075 693.726 704.077C687.061 705.708 680.123 705.897 673.379 704.625C654.535 701.084 612.662 687.742 617.447 639.346C617.447 639.346 581.637 615.911 558.013 577.814C544.629 556.259 538.597 531.218 540.397 506.365L612.583 504.936Z" fill="#82B5B2"/>
<path id="Vector_33" fill-rule="evenodd" clip-rule="evenodd" d="M617.445 639.347C617.445 639.347 638.393 651.928 655.596 659.971C656.399 660.287 656.849 661.145 656.654 661.985C656.46 662.831 655.669 663.396 654.812 663.323C644.523 662.618 628.494 660.805 617.731 656.102C616.983 651.046 616.837 645.48 617.445 639.347ZM696.715 603.118C650.671 572.06 635.779 554.739 637.962 556.631C637.962 556.631 638.661 554.301 640.327 550.876C647.326 557.836 665.897 574.986 700.114 598.068C704.377 600.94 718.813 610.205 728.53 626.358C731.047 634.711 732.75 642.924 732.701 649.805C732.683 653.486 732.41 657.185 731.85 660.835C731.747 660.531 731.698 660.202 731.698 659.862C731.99 625.445 702.826 607.23 696.715 603.118ZM716.855 596.371C712.367 591.114 704.219 581.405 699.445 575.71C699.141 575.351 699.141 574.822 699.445 574.463C699.749 574.104 700.272 574.019 700.673 574.268L708.135 578.831C708.317 579.16 712.215 586.284 716.855 596.371Z" fill="#044743"/>
</g>
<g id="Group_22">
<g id="Group_23">
<path id="Vector_34" d="M772.312 672.274C787.539 672.274 799.882 659.925 799.882 644.691C799.882 629.457 787.539 617.107 772.312 617.107C757.086 617.107 744.742 629.457 744.742 644.691C744.742 659.925 757.086 672.274 772.312 672.274Z" fill="#A8CFCC"/>
</g>
<path id="Vector_35" fill-rule="evenodd" clip-rule="evenodd" d="M780.796 618.441C791.869 622.019 799.89 632.428 799.89 644.693C799.89 659.915 787.54 672.277 772.319 672.277C762.341 672.277 753.59 666.96 748.75 659.002L766.372 650.181C766.044 651.61 766.153 653.204 766.786 654.713C768.276 658.272 772.088 660.073 775.293 658.728C778.504 657.384 779.902 653.405 778.412 649.846C777.664 648.051 776.315 646.707 774.758 645.983L784.694 641.006L780.796 618.441Z" fill="#242C2C"/>
</g>
<g id="Group_24">
<path id="Vector_36" fill-rule="evenodd" clip-rule="evenodd" d="M650.75 721.235C650.75 721.235 656.581 719.768 664.693 717.724C693.766 710.393 724.164 723.273 739.147 749.251C750.263 768.542 747.989 792.75 733.474 809.626C727.593 816.465 722.966 821.849 722.966 821.849C722.966 821.849 732.197 821.66 742.941 821.435C760.965 821.064 776.818 833.299 781.038 850.838C781.397 852.444 781.792 854.051 782.212 855.644C785.38 867.557 792.507 878.033 802.418 885.346C806.122 888.09 809.557 891.527 810.323 895.183C810.323 895.183 639.968 894.97 559.847 894.867C543.775 894.849 529.102 885.741 521.939 871.353C514.782 856.959 516.363 839.76 526.031 826.917C526.031 826.917 464.494 763.858 467.058 690.426C468.452 650.54 504.718 627.604 531.449 639.401C576.885 659.441 613.967 689.994 650.75 721.235Z" fill="url(#paint3_linear_1362_258)"/>
<path id="Vector_37" fill-rule="evenodd" clip-rule="evenodd" d="M566.066 774.468C566.066 774.468 535.887 745.978 514.197 725.493C513.309 724.66 511.929 724.642 511.023 725.463C510.123 726.284 510.001 727.659 510.743 728.62C529.253 752.585 555.206 786.186 555.206 786.186L566.066 774.468Z" fill="#044743"/>
<path id="Vector_38" fill-rule="evenodd" clip-rule="evenodd" d="M722.963 821.849L731.336 821.679C727.268 825.214 721.655 829.862 714.65 835.094L714.863 895.062L708.782 895.056L708.587 839.517C691.014 852.019 666.478 866.827 636.712 877.96C635.137 878.551 633.386 877.754 632.796 876.178C632.212 874.608 633.009 872.85 634.583 872.266C679.077 855.621 711.628 830.61 726.21 818.065L722.963 821.849ZM646.885 717.962C648.174 719.051 649.457 720.146 650.746 721.235L659.095 719.136C645.9 724.654 556.748 764.205 519.254 840.35C520.671 835.581 522.933 831.024 526.028 826.917C526.028 826.917 524.569 825.421 522.112 822.622C557.648 764.771 620.908 730.282 646.885 717.962Z" fill="#82B5B2"/>
</g>
</g>
</g>
</g>
<defs>
<linearGradient id="paint0_linear_1362_258" x1="336.612" y1="428.725" x2="226.842" y2="110.535" gradientUnits="userSpaceOnUse">
<stop stop-color="#E86135"/>
<stop offset="0.59" stop-color="#EC6D47"/>
<stop offset="0.8" stop-color="#F6886F"/>
<stop offset="1" stop-color="#FFA396"/>
</linearGradient>
<linearGradient id="paint1_linear_1362_258" x1="173.22" y1="134.798" x2="-40.5738" y2="-8.16819" gradientUnits="userSpaceOnUse">
<stop stop-color="#E86135"/>
<stop offset="1" stop-color="#FFA396"/>
</linearGradient>
<linearGradient id="paint2_linear_1362_258" x1="773.458" y1="232.894" x2="821.804" y2="498.905" gradientUnits="userSpaceOnUse">
<stop stop-color="#FFB000"/>
<stop offset="1" stop-color="#FD9500"/>
</linearGradient>
<linearGradient id="paint3_linear_1362_258" x1="587.193" y1="819.999" x2="436.769" y2="568.706" gradientUnits="userSpaceOnUse">
<stop stop-color="#A8CFCC"/>
<stop offset="0.58" stop-color="#B9D5D1"/>
<stop offset="0.8" stop-color="#DDE3DC"/>
<stop offset="1" stop-color="#FFF0E6"/>
</linearGradient>
</defs>
</svg>
