<svg width="1150" height="869" viewBox="0 0 1150 869" fill="none" xmlns="http://www.w3.org/2000/svg">
<g id="Illustrazione_3">
<g id="Parallax_2">
<path id="CURVE" fill-rule="evenodd" clip-rule="evenodd" d="M0.00204157 859.276H1127.35V515.02C1127.35 515.02 1000.75 510.423 901.55 673.236C882.217 704.965 832.228 748.516 753.383 745.098C733.968 744.251 705.253 730.064 678.594 715.113C634.894 690.601 582.132 688.363 536.512 709.082C529.05 712.472 521.276 716.243 513.278 720.438C485.649 734.929 434.825 756.666 396.838 734.915C396.44 734.689 396.039 734.463 395.635 734.251C388.624 730.487 315.376 691.265 251.534 657.085C184.498 621.189 101.268 640.087 56.3036 701.413C25.6148 743.234 -0.264553 797.018 0.00204157 859.276Z" fill="#FFC3BB"/>
</g>
<g id="Parallax_2_2">
<path id="GRAPH-LINE-" fill-rule="evenodd" clip-rule="evenodd" d="M8.5166 241.832C8.22762 241.866 7.93457 241.884 7.63745 241.884C3.42418 241.884 0.00390625 238.323 0.00390625 233.937C0.00390625 229.551 3.42418 225.99 7.63745 225.99C11.8507 225.99 15.2717 229.551 15.2717 233.937C15.2717 236.501 14.1029 238.782 12.2917 240.235L215.719 701.893C216.596 701.526 217.554 701.321 218.557 701.321C220.46 701.321 222.203 702.049 223.54 703.256L367.931 538.006C367.773 537.371 367.69 536.707 367.69 536.022C367.69 531.63 371.11 528.07 375.323 528.07C379.537 528.07 382.957 531.63 382.957 536.022C382.957 536.891 382.823 537.724 382.575 538.508L512.588 687.007C513.945 685.743 515.736 684.973 517.696 684.973C520.132 684.973 522.309 686.166 523.706 688.024L913.294 398.293C913.226 397.862 913.192 397.417 913.192 396.958C913.192 392.573 916.611 389.013 920.824 389.013C925.036 389.013 928.455 392.573 928.455 396.958C928.455 398.265 928.157 399.5 927.614 400.588L958.018 453.065C959.022 452.564 960.141 452.281 961.321 452.281C963.275 452.281 965.059 453.051 966.409 454.308L1120.34 326.587C1119.94 325.629 1119.72 324.576 1119.72 323.469C1119.72 319.083 1123.14 315.522 1127.36 315.522C1131.58 315.522 1134.99 319.083 1134.99 323.469C1134.99 327.855 1131.58 331.416 1127.36 331.416C1125.68 331.416 1124.13 330.853 1122.87 329.899L968.621 457.896C968.838 458.63 968.953 459.414 968.953 460.226C968.953 464.612 965.534 468.178 961.321 468.178C957.109 468.178 953.69 464.612 953.69 460.226C953.69 458.637 954.138 457.147 954.918 455.904L924.717 403.794C923.578 404.5 922.248 404.91 920.824 404.91C918.531 404.91 916.469 403.851 915.071 402.184L525.287 692.056C525.314 692.338 525.328 692.628 525.328 692.918C525.328 697.303 521.909 700.862 517.696 700.862C513.484 700.862 510.058 697.303 510.058 692.918C510.058 692.162 510.16 691.435 510.35 690.742L380.223 542.11C378.897 543.268 377.187 543.967 375.323 543.967C373.306 543.967 371.47 543.148 370.105 541.82L225.847 706.907C226.071 707.656 226.191 708.447 226.191 709.273C226.191 713.658 222.77 717.218 218.557 717.218C214.344 717.218 210.923 713.658 210.923 709.273C210.923 707.5 211.478 705.869 212.417 704.549L8.5166 241.832Z" fill="#DF5D4B"/>
</g>
<g id="Parallax_2_3">
<path id="CLOUDS" fill-rule="evenodd" clip-rule="evenodd" d="M96.8291 522.796C96.8291 522.796 98.7957 518.474 98.9409 518.283C102.065 514.265 105.982 510.932 110.314 508.411C118.739 503.503 128.079 504.075 137.298 502.436C146.149 500.861 154.384 497.09 162.072 492.345C174.933 484.4 185.91 473.058 199.378 466.194C204.394 463.638 209.782 461.894 215.312 461.067C247.833 456.237 264.273 485.367 290.964 496.942C305.49 503.241 319.029 497.931 333.82 506.765C343.522 512.556 343.942 522.796 343.942 522.796H96.8291ZM914.692 249.853C915.452 244.18 920.349 238.353 921.272 237.535C931.501 228.494 944.356 231.655 956.275 228C979.699 220.819 994.032 196.322 1017.98 190.226C1021.62 189.299 1025.45 188.707 1029.21 188.925C1053.46 190.331 1062.28 215.303 1082.13 225.105C1095.03 231.477 1107.25 230.055 1119.76 239.042C1126.29 243.731 1126.31 249.853 1126.31 249.853C1126.31 249.853 968.791 250.12 914.692 249.853ZM61.7031 113.841C62.8258 106.001 66.1097 99.868 74.0933 94.6747C83.3027 88.684 94.8368 90.4396 103.456 83.264C122.369 67.5179 134.949 34.3373 164.596 41.1888C183.459 45.5489 194.283 63.9403 209.014 75.2049C221.048 84.4073 235.109 85.951 249.124 89.881C258.927 92.6295 269.23 96.6308 276.87 103.836C280.071 106.856 282.545 109.953 284.056 113.841C284.389 114.695 93.6985 111.335 61.7031 113.841Z" fill="#FFF1E8"/>
</g>
<g id="Parallax_1">
<path id="ARROW" fill-rule="evenodd" clip-rule="evenodd" d="M1067.65 798.311L1084.74 765.762L1150 868.252L1031.89 866.487L1049.44 833.027L198.435 375.49L131.597 489.279L70.7979 460.495L0.00390625 594.919V514.088L56.1536 410.122L116.724 438.794L184.464 323.47L1067.65 798.311Z" fill="#EA7049"/>
<g id="FRONT-WEEL">
<g id="Group">
<path id="Vector" d="M729.658 594.165C791.62 594.165 841.85 541.873 841.85 477.368C841.85 412.863 791.62 360.571 729.658 360.571C667.695 360.571 617.465 412.863 617.465 477.368C617.465 541.873 667.695 594.165 729.658 594.165Z" fill="#FFCD80"/>
</g>
<g id="Group_2">
<path id="Vector_2" d="M835.837 551.197C831.084 558.557 825.643 565.391 819.605 571.598" stroke="#FFCD80" stroke-width="8.00126" stroke-miterlimit="1.5" stroke-linecap="round" stroke-linejoin="round"/>
</g>
<g id="Group_3">
<g id="Group_4">
<path id="Vector_3" d="M819.599 571.599C807.104 584.444 792.05 594.604 775.312 601.16" stroke="#FFCD80" stroke-width="8.00126" stroke-miterlimit="1.5" stroke-linecap="round" stroke-linejoin="round"/>
</g>
<g id="Group_5">
<path id="Vector_4" d="M620.494 542.168C615.438 532.775 611.456 522.671 608.723 512.039C605.931 501.176 604.441 489.76 604.441 477.985" stroke="#FFCD80" stroke-width="8.00126" stroke-miterlimit="1.5" stroke-linecap="round" stroke-linejoin="round"/>
</g>
<g id="Group_6">
<path id="Vector_5" d="M806.02 372.245C820.05 383.081 831.857 396.87 840.584 412.725" stroke="#FFCD80" stroke-width="8.00126" stroke-miterlimit="1.5" stroke-linecap="round" stroke-linejoin="round"/>
</g>
</g>
<g id="Group_7">
<g id="Group_8">
<path id="Vector_6" fill-rule="evenodd" clip-rule="evenodd" d="M824.873 477.37C824.873 532.07 782.211 576.477 729.666 576.477C677.121 576.477 634.462 532.07 634.462 477.37C634.462 475.81 633.246 474.545 631.748 474.545C630.251 474.545 629.035 475.81 629.035 477.37C629.035 535.188 674.126 582.129 729.666 582.129C785.206 582.129 830.296 535.188 830.296 477.37C830.296 475.81 829.082 474.545 827.585 474.545C826.087 474.545 824.873 475.81 824.873 477.37Z" fill="#FDA31F"/>
</g>
<g id="Group_9">
<path id="Vector_7" fill-rule="evenodd" clip-rule="evenodd" d="M634.462 477.37C634.462 422.669 677.121 378.259 729.666 378.259C782.211 378.259 824.873 422.669 824.873 477.37C824.873 478.929 826.087 480.195 827.585 480.195C829.082 480.195 830.296 478.929 830.296 477.37C830.296 419.551 785.206 372.609 729.666 372.609C674.126 372.609 629.035 419.551 629.035 477.37C629.035 478.929 630.251 480.195 631.748 480.195C633.246 480.195 634.462 478.929 634.462 477.37Z" fill="#FDA31F"/>
</g>
<g id="Group_10">
<g id="Group_11">
<path id="Vector_8" fill-rule="evenodd" clip-rule="evenodd" d="M786.012 427.969L783.462 425.264L787.336 421.307L791.784 426.025C792.837 427.142 792.819 428.93 791.75 430.022L785.199 436.715C788.913 441.027 792.011 445.64 794.491 450.546C797.661 456.813 799.826 463.566 800.986 470.795C801.121 471.61 800.898 472.442 800.391 473.077C799.879 473.706 799.132 474.077 798.336 474.085L780.686 474.271C779.357 474.283 778.217 473.297 777.986 471.932C776.787 464.86 774.026 458.397 769.708 452.541L747.877 474.844C762.277 498.376 762.141 516.89 748.483 530.325C741.092 537.653 732.397 540.994 722.448 540.359C713.199 539.942 703.974 536.206 694.808 529.06L683.551 540.56C682.484 541.651 680.769 541.633 679.716 540.515L675.349 535.884L679.219 531.93L681.687 534.549L692.7 523.298C693.681 522.296 695.222 522.216 696.294 523.112C705.055 530.407 713.833 534.314 722.729 534.72C731.165 535.258 738.498 532.419 744.748 526.224C757.036 514.137 755.8 497.417 742.129 476.011C741.411 474.879 741.564 473.378 742.491 472.431L768.034 446.335C768.568 445.79 769.296 445.502 770.046 445.53C770.792 445.563 771.496 445.914 771.983 446.508C777.494 453.138 781.123 460.505 782.873 468.593L795.029 468.466C793.886 463.064 792.112 457.968 789.684 453.178C787.04 447.942 783.631 443.085 779.46 438.583C778.425 437.468 778.451 435.693 779.514 434.607L786.012 427.969ZM710.473 513.056C714.088 515.117 717.309 516.034 720.16 515.654C721.973 515.38 723.716 514.755 725.383 513.783L728.021 518.728C725.758 520.033 723.394 520.869 720.894 521.251C716.222 521.87 710.75 520.202 704.58 515.94C703.9 515.469 703.455 514.705 703.376 513.853C703.302 513.007 703.597 512.165 704.18 511.569L717.87 497.583L721.672 501.615L710.473 513.056ZM744.444 435.031C746.861 433.95 749.188 433.384 751.413 433.305C751.467 433.303 751.527 433.305 751.581 433.303C756.296 433.435 760.469 435.053 764.091 438.145C764.683 438.653 765.045 439.407 765.083 440.205C765.116 441.008 764.82 441.788 764.273 442.346L753.062 453.8L749.261 449.767L758.101 440.736C756.096 439.626 753.906 439.035 751.524 438.956C749.932 439.025 748.276 439.466 746.544 440.24C746.501 440.263 746.452 440.281 746.404 440.298C744.529 441.016 742.688 442.346 740.854 444.219L737.053 440.187C739.483 437.705 741.957 436.003 744.444 435.031Z" fill="#FDA31F"/>
</g>
<g id="Group_12">
<path id="Vector_9" fill-rule="evenodd" clip-rule="evenodd" d="M731.765 451.484C732.069 447.274 733.805 443.497 737.046 440.186L740.847 444.219C738.625 446.489 737.378 449.045 737.176 451.933L737.168 452.036C736.917 454.391 737.547 457.127 738.944 460.299L749.254 449.767L753.055 453.799L740.13 467.003C739.53 467.616 738.688 467.904 737.852 467.784C737.024 467.665 736.286 467.148 735.869 466.387C732.646 460.503 731.36 455.511 731.765 451.484Z" fill="#FDA31F"/>
</g>
<g id="Group_13">
<path id="Vector_10" fill-rule="evenodd" clip-rule="evenodd" d="M730.932 492.149L721.665 501.616L717.864 497.583L729.481 485.715C730.048 485.136 730.83 484.845 731.621 484.917C732.417 484.994 733.138 485.423 733.596 486.099C738.022 492.63 739.822 498.167 739.385 502.556L739.368 502.658C738.76 507.115 736.86 510.995 733.64 514.284C731.84 516.124 729.958 517.601 728.015 518.728L725.377 513.783C726.924 512.891 728.411 511.711 729.839 510.252C732.152 507.889 733.537 505.117 733.987 501.924C734.245 499.181 733.165 495.949 730.932 492.149Z" fill="#FDA31F"/>
</g>
<g id="Group_14">
<path id="Vector_11" fill-rule="evenodd" clip-rule="evenodd" d="M721.819 477.799C708.164 454.978 708.502 437.17 721.804 424.417C729.733 416.635 738.26 413.02 747.314 413.403C755.599 413.755 764.398 417.514 773.651 424.847L780.384 417.968C781.453 416.875 783.171 416.891 784.219 418.003L787.333 421.306L783.46 425.264L782.248 423.979L775.751 430.617C774.766 431.623 773.216 431.702 772.142 430.796C763.29 423.362 754.97 419.379 747.091 419.045C739.42 418.723 732.251 421.935 725.501 428.555C713.585 439.977 714.639 456.004 727.558 476.673C728.261 477.798 728.108 479.29 727.189 480.229L700.417 507.58C699.87 508.138 699.124 508.423 698.364 508.384C697.599 508.339 696.891 507.96 696.407 507.342C692.104 501.83 689.158 496.447 687.545 491.228C685.969 486.798 685.017 482.366 684.688 477.923L671.157 476.583C672.132 482.909 673.886 489.234 676.4 495.546C679.39 502.855 683.589 509.448 688.995 515.338C690.022 516.461 689.996 518.226 688.936 519.308L677.924 530.559L679.216 531.93L675.347 535.883L672.151 532.493C671.103 531.381 671.118 529.596 672.185 528.505L683.26 517.191C678.253 511.328 674.306 504.848 671.4 497.74C668.209 489.736 666.185 481.746 665.306 473.754C665.214 472.916 665.494 472.067 666.068 471.46C666.636 470.848 667.444 470.542 668.258 470.621L687.536 472.534C688.902 472.664 689.962 473.849 689.99 475.283C690.087 479.963 690.982 484.644 692.651 489.318L692.695 489.443C693.883 493.315 695.923 497.271 698.792 501.323L721.819 477.799Z" fill="#FDA31F"/>
</g>
</g>
</g>
</g>
<g id="BACK-WEEL-">
<g id="Group_15">
<g id="Group_16">
<path id="Vector_12" d="M451.905 370.837C498.755 328.622 503.862 254.862 463.311 206.089C422.76 157.316 351.907 151.999 305.057 194.214C258.206 236.429 253.1 310.19 293.65 358.963C334.201 407.736 405.054 413.052 451.905 370.837Z" fill="#FFCD80"/>
</g>
<g id="Group_17">
<g id="Group_18">
<path id="Vector_13" fill-rule="evenodd" clip-rule="evenodd" d="M450.468 217.66C484.855 259.02 480.514 321.663 440.785 357.461C401.055 393.26 340.883 388.747 306.496 347.388C305.516 346.209 303.801 346.08 302.669 347.101C301.537 348.121 301.413 349.906 302.393 351.085C338.74 394.802 402.343 399.574 444.338 361.735C486.332 323.895 490.916 257.683 454.568 213.966C453.588 212.787 451.875 212.657 450.742 213.677C449.61 214.698 449.488 216.481 450.468 217.66Z" fill="#FDA31F"/>
</g>
<g id="Group_19">
<path id="Vector_14" fill-rule="evenodd" clip-rule="evenodd" d="M306.504 347.388C272.116 306.028 276.453 243.386 316.183 207.587C355.912 171.788 416.088 176.301 450.475 217.661C451.455 218.84 453.169 218.97 454.301 217.95C455.434 216.929 455.556 215.145 454.576 213.966C418.228 170.249 354.625 165.475 312.631 203.315C270.637 241.154 266.053 307.368 302.4 351.086C303.38 352.264 305.096 352.393 306.228 351.373C307.36 350.352 307.483 348.567 306.504 347.388Z" fill="#FDA31F"/>
</g>
<g id="Group_20">
<path id="Vector_15" fill-rule="evenodd" clip-rule="evenodd" d="M390.025 206.788L386.397 206.48L386.838 200.848L393.167 201.386C394.666 201.513 395.776 202.877 395.654 204.431L394.908 213.955C400.428 214.684 405.67 216.062 410.629 218.082C416.965 220.661 422.848 224.291 428.269 228.967C428.884 229.492 429.238 230.273 429.254 231.098C429.262 231.922 428.931 232.711 428.334 233.26L415.106 245.425C414.108 246.34 412.626 246.372 411.594 245.497C406.241 240.966 400.091 237.961 393.144 236.475L390.658 268.212C416.34 276.194 427.876 290.286 425.994 309.749C425.013 320.325 420.538 328.775 412.617 335.074C405.362 341.059 396.038 344.519 384.615 345.361L383.333 361.725C383.212 363.278 381.904 364.432 380.405 364.305L374.192 363.778L374.633 358.152L378.145 358.451L379.399 342.441C379.51 341.015 380.625 339.904 382 339.851C393.21 339.398 402.303 336.373 409.285 330.618C416.001 325.277 419.761 318.135 420.593 309.193C422.285 291.682 410.839 279.882 387.046 273.011C385.792 272.644 384.963 271.405 385.069 270.057L387.977 232.923C388.038 232.147 388.408 231.434 388.993 230.944C389.577 230.461 390.33 230.246 391.072 230.364C399.407 231.622 406.782 234.719 413.19 239.642L422.301 231.264C418.041 227.959 413.496 225.314 408.649 223.346C403.359 221.189 397.728 219.839 391.744 219.277C390.26 219.139 389.164 217.78 389.285 216.234L390.025 206.788ZM386.399 322.588C390.428 321.683 393.439 320.182 395.356 317.952C396.555 316.51 397.48 314.85 398.129 312.979L403.233 314.921C402.342 317.449 401.08 319.692 399.43 321.684C396.287 325.336 391.1 327.802 383.756 328.784C382.946 328.891 382.129 328.616 381.534 328.026C380.946 327.437 380.64 326.599 380.706 325.751L382.265 305.849L387.674 306.308L386.399 322.588ZM363.035 240.448C364.183 237.983 365.587 235.971 367.219 234.395C367.258 234.356 367.305 234.318 367.345 234.279C370.993 231.166 375.165 229.546 379.848 229.417C380.615 229.397 381.362 229.721 381.892 230.299C382.422 230.883 382.688 231.675 382.626 232.469L381.35 248.768L375.94 248.308L376.947 235.457C374.734 235.984 372.706 237.029 370.856 238.592C369.695 239.729 368.72 241.191 367.897 242.956C367.879 243.003 367.853 243.049 367.828 243.095C366.861 244.915 366.305 247.175 366.097 249.841L360.687 249.382C360.964 245.85 361.765 242.878 363.035 240.448Z" fill="#FDA31F"/>
</g>
<g id="Group_21">
<path id="Vector_16" fill-rule="evenodd" clip-rule="evenodd" d="M363.796 261.522C361.379 258.131 360.318 254.093 360.687 249.382L366.096 249.841C365.843 253.072 366.507 255.854 368.169 258.175L368.228 258.259C369.519 260.209 371.716 261.849 374.766 263.295L375.94 248.309L381.349 248.768L379.877 267.557C379.809 268.429 379.353 269.221 378.645 269.699C377.945 270.173 377.061 270.286 376.268 269.994C370.132 267.741 366.022 264.842 363.796 261.522Z" fill="#FDA31F"/>
</g>
<g id="Group_22">
<path id="Vector_17" fill-rule="evenodd" clip-rule="evenodd" d="M388.733 292.838L387.678 306.309L382.269 305.85L383.592 288.961C383.656 288.137 384.065 287.384 384.708 286.9C385.359 286.416 386.173 286.249 386.945 286.448C394.397 288.371 399.239 291.331 401.667 294.947L401.718 295.036C404.061 298.821 405.063 303.048 404.697 307.729C404.492 310.346 403.998 312.745 403.237 314.921L398.133 312.98C398.742 311.251 399.125 309.346 399.288 307.27C399.551 303.907 398.856 300.868 397.189 298.146C395.659 295.897 392.812 294.189 388.733 292.838Z" fill="#FDA31F"/>
</g>
<g id="Group_23">
<path id="Vector_18" fill-rule="evenodd" clip-rule="evenodd" d="M372.816 288.196C348.145 280.245 337.205 266.55 339.246 247.845C340.349 236.559 344.524 228.016 351.61 222.137C358.096 216.759 367.112 213.605 378.718 212.846L379.485 203.058C379.607 201.503 380.915 200.345 382.406 200.471L386.838 200.847L386.397 206.479L384.673 206.333L383.933 215.778C383.821 217.21 382.699 218.326 381.317 218.373C369.951 218.782 361.156 221.439 354.989 226.555C348.986 231.538 345.585 238.85 344.643 248.455C342.813 265.209 353.685 276.61 376.447 283.435C377.686 283.807 378.508 285.04 378.403 286.375L375.355 325.296C375.292 326.09 374.908 326.814 374.308 327.303C373.701 327.79 372.928 327.985 372.173 327.848C365.455 326.612 359.843 324.548 355.343 321.701C351.366 319.426 347.86 316.724 344.818 313.589L333.745 321.794C338.459 325.913 343.762 329.5 349.63 332.56C356.486 336.049 363.806 338.173 371.596 338.943C373.078 339.093 374.168 340.445 374.047 341.986L372.793 357.995L374.632 358.151L374.192 363.777L369.644 363.391C368.153 363.264 367.042 361.904 367.164 360.352L368.425 344.252C360.953 343.23 353.895 341.02 347.229 337.625C339.784 333.747 333.232 329.085 327.543 323.641C326.946 323.07 326.625 322.237 326.677 321.388C326.722 320.537 327.14 319.755 327.806 319.261L343.584 307.573C344.699 306.741 346.245 306.914 347.168 307.98C350.183 311.452 353.802 314.382 358.003 316.779L358.114 316.843C361.447 318.961 365.477 320.563 370.193 321.672L372.816 288.196Z" fill="#FDA31F"/>
</g>
</g>
</g>
<g id="Group_24">
<g id="Group_25">
<path id="Vector_19" d="M395.666 151.906C413.041 154.553 429.9 160.943 445.007 170.904" stroke="#FFCD80" stroke-width="7.85006" stroke-miterlimit="1.5" stroke-linecap="round" stroke-linejoin="round"/>
</g>
<g id="Group_26">
<path id="Vector_20" d="M447.887 390.922C439.443 397.14 430.208 402.321 420.337 406.263C410.252 410.291 399.503 413.028 388.254 414.261" stroke="#FFCD80" stroke-width="7.96241" stroke-miterlimit="1.5" stroke-linecap="round" stroke-linejoin="round"/>
</g>
<g id="Group_27">
<path id="Vector_21" d="M250.977 283.271C250.835 265.084 254.297 246.968 261.198 230.165" stroke="#FFCD80" stroke-width="7.85006" stroke-miterlimit="1.5" stroke-linecap="round" stroke-linejoin="round"/>
</g>
</g>
</g>
<g id="Character-on-Bike-">
<g id="Group_28">
<path id="Vector_22" fill-rule="evenodd" clip-rule="evenodd" d="M511.178 299.612L512.168 305.212C515.099 306.366 516.964 309.533 516.469 312.886C516.218 314.58 515.411 316.041 514.264 317.096L516.435 329.38L516.489 329.739L516.523 330.097L516.544 330.453V330.806L516.53 331.156L516.496 331.503L516.455 331.846L516.388 332.184L516.306 332.517L516.211 332.844L516.103 333.167L515.981 333.482L515.845 333.789L515.689 334.09L515.526 334.382L515.35 334.665L515.16 334.94L514.956 335.205L514.739 335.459L514.509 335.702L514.271 335.935L514.02 336.156L513.762 336.364L513.491 336.56L513.213 336.742L512.921 336.911L512.616 337.065L512.311 337.204L511.992 337.328L511.666 337.436L511.334 337.528L510.988 337.603L510.649 337.659L510.303 337.697L509.957 337.717L509.618 337.719L509.285 337.703L508.953 337.67L508.62 337.62L508.295 337.554L507.976 337.471L507.664 337.373L507.352 337.26L507.047 337.13L506.755 336.987L506.463 336.829L506.185 336.657L505.914 336.471L505.649 336.272L505.398 336.061L505.147 335.836L504.917 335.599L504.693 335.351L504.482 335.091L504.279 334.82L504.096 334.537L503.919 334.245L503.757 333.942L503.607 333.63L503.472 333.308L503.356 332.977L503.255 332.638L503.16 332.29L503.092 331.934L500.541 317.49L373.893 297.287C371.247 296.865 369.086 294.861 368.378 292.173C367.671 289.485 368.548 286.615 370.618 284.847L478.499 192.701L464.777 115.009C464.1 111.176 466.539 107.491 470.221 106.786C473.904 106.082 477.443 108.622 478.12 112.455L486.465 159.719C486.689 159.812 486.899 159.918 487.11 160.038L791.855 331.223L801.603 309.505C803.19 305.974 807.226 304.447 810.618 306.097C814.017 307.747 815.482 311.954 813.895 315.485L741.338 477.149C739.75 480.68 735.707 482.206 732.316 480.56C728.924 478.908 727.458 474.699 729.039 471.168L777.284 363.699L511.178 299.612ZM508.505 284.47L783.152 350.617L786.102 344.041L489.606 177.487L508.505 284.47ZM495.949 291.482L481.303 208.575L390.98 285.724L497.943 302.787L495.983 291.69C495.969 291.621 495.956 291.552 495.949 291.482Z" fill="#EA7049"/>
<path id="Vector_23" fill-rule="evenodd" clip-rule="evenodd" d="M825.361 312.56C826.752 309.702 825.646 306.211 822.899 304.768L793.146 289.127C790.405 287.685 787.048 288.833 785.664 291.69L780.644 302.044C779.253 304.902 780.359 308.393 783.106 309.836L812.859 325.477C815.6 326.919 818.958 325.771 820.341 322.914L825.361 312.56ZM511.479 130.786C514.531 124.501 512.103 116.82 506.065 113.643L445.849 81.9522C439.812 78.7757 432.433 81.2982 429.382 87.5834C426.33 93.8678 428.754 101.549 434.79 104.726L495.008 136.417C501.045 139.594 508.426 137.071 511.479 130.786Z" fill="#242C2C"/>
</g>
<g id="Group_29">
<path id="Vector_24" fill-rule="evenodd" clip-rule="evenodd" d="M593.959 395.717C573.269 427.912 554.832 441.351 554.832 441.351C564.051 447.983 566.425 459.402 563.908 465.913L459.27 398.584C509.918 327.425 511.593 281.439 509.151 262.954C491.229 127.161 491.419 100.407 497.287 76.4079C510.386 22.8175 539.101 5.51291 563.949 1.37743C592.799 -3.40069 621.1 12.2677 633.508 39.5847L633.514 39.5501L633.562 39.6935C633.881 40.3968 634.186 41.1066 634.484 41.8241C638.073 50.5053 640.847 59.825 642.849 69.168L692.83 227.751C710.169 282.782 687.274 342.856 638.405 370.541L593.959 395.717Z" fill="#A8CFCC"/>
<path id="Vector_25" fill-rule="evenodd" clip-rule="evenodd" d="M641.781 64.4609C642.161 66.0273 642.513 67.5971 642.853 69.1677L650.762 94.2539C656.467 153.054 661.25 287.926 602.015 391.155L593.963 395.717C588.442 404.304 583.083 411.564 578.198 417.581C578.293 417.277 578.436 416.987 578.633 416.726C578.809 416.493 578.985 416.26 579.162 416.02L579.223 415.942L579.311 415.829L579.48 415.596L579.725 415.264L579.813 415.151L579.847 415.102C580.016 414.869 580.193 414.636 580.362 414.403L580.396 414.36L580.471 414.254L580.729 413.901L580.891 413.682L580.973 413.569L581.034 413.485L581.142 413.329L581.536 412.793L581.549 412.771C581.726 412.531 581.895 412.298 582.072 412.058L582.119 411.98L582.201 411.874L582.377 411.62L582.621 411.281L582.689 411.182L582.723 411.14C582.899 410.9 583.069 410.653 583.239 410.413L583.259 410.384L583.313 410.314L583.598 409.904L583.761 409.671L583.822 409.586L583.876 409.509C584.222 409.014 584.561 408.52 584.907 408.026L584.941 407.976L584.995 407.906L585.199 407.602L585.457 407.228L585.497 407.171L585.518 407.143C585.694 406.882 585.871 406.627 586.047 406.366L586.386 405.865L586.556 405.611L586.596 405.554L586.63 405.505C586.976 404.989 587.322 404.474 587.668 403.958L587.682 403.93L587.716 403.887L587.94 403.541L588.197 403.153L588.224 403.118L588.231 403.096C588.577 402.581 588.916 402.058 589.256 401.536L589.29 401.479L589.33 401.43C589.656 400.914 589.988 400.406 590.314 399.897L590.348 399.841L590.409 399.742L590.606 399.438L590.795 399.135L590.877 399.015L590.918 398.951C591.06 398.718 591.209 398.492 591.352 398.259C592.356 396.67 593.332 395.074 594.303 393.471C675.312 259.111 641.72 65.7173 641.72 65.7173C641.645 65.2851 641.672 64.8578 641.781 64.4609ZM492.427 342.322L594.303 393.471L591.148 398.16L591.352 398.259L590.918 398.951L590.795 399.135L590.409 399.742L590.314 399.897L589.819 400.66L589.33 401.43L589.256 401.536L588.76 402.298L588.231 403.096L588.197 403.153L587.716 403.887L587.668 403.958L587.139 404.742L586.63 405.505L586.556 405.611L586.054 406.359L586.047 406.366L585.518 407.143L585.457 407.228L584.995 407.906L584.907 408.026L584.385 408.781L583.876 409.509L583.761 409.671L583.313 410.314L583.239 410.413L582.723 411.14L582.621 411.281L582.201 411.874L582.072 412.058L581.549 412.771L581.536 412.793L581.034 413.485L580.891 413.682L580.471 414.254L580.362 414.403L579.847 415.102L579.725 415.264L579.311 415.829L579.162 416.02L578.633 416.726L591.148 398.16L490.039 347.396C490.867 345.683 491.66 343.993 492.427 342.322Z" fill="#82B5B2"/>
</g>
<path id="Vector_26" fill-rule="evenodd" clip-rule="evenodd" d="M787.065 351.556L504.169 283.425C500.527 282.546 496.877 284.916 496.036 288.714C495.188 292.511 497.467 296.307 501.11 297.186L784.005 365.315C787.655 366.198 791.305 363.825 792.146 360.029C792.987 356.232 790.714 352.435 787.065 351.556ZM793.543 332.164L487.116 160.037C483.824 158.186 479.705 159.468 477.927 162.898C476.149 166.328 477.381 170.616 480.676 172.467L787.099 344.594C790.389 346.445 794.513 345.163 796.29 341.733C798.068 338.303 796.833 334.015 793.543 332.164Z" fill="#EA7049"/>
<g id="Group_30">
<path id="Vector_27" fill-rule="evenodd" clip-rule="evenodd" d="M626.202 25.1733C617.213 11.1546 602.235 2.09058 585.649 0.628044C558.732 -1.78644 514.51 5.94783 497.287 76.4085C491.419 100.407 491.229 127.161 509.151 262.955C511.593 281.44 509.918 327.426 459.27 398.585L563.908 465.914C566.425 459.402 564.051 447.983 554.832 441.352C552.851 444.473 668.043 367.738 645.82 87.37C644.124 66.033 637.503 42.7222 626.202 25.1733Z" fill="url(#paint0_linear_1412_77)"/>
<path id="Vector_28" fill-rule="evenodd" clip-rule="evenodd" d="M493.461 340.006L595.337 394.079C594.354 395.717 593.37 397.313 592.393 398.859L491.121 345.105C491.935 343.382 492.715 341.682 493.461 340.006Z" fill="#82B5B2"/>
</g>
<g id="Group_31">
<g id="Group_32">
<path id="Vector_29" fill-rule="evenodd" clip-rule="evenodd" d="M801.348 228.772C819.06 198.922 829.907 168.256 838.047 137.268C841.507 124.119 841.33 110.278 837.538 97.2217C829.228 68.5642 804.794 24.2639 733.146 16.1532C733.146 16.1532 730.039 15.8651 725.46 15.44C701.053 13.1766 678.728 29.3033 673.206 53.1861C664.401 91.6526 665.704 146.576 733.146 170.47C733.146 170.47 727.502 190.584 722.095 209.828C715.522 233.256 724.442 258.285 744.352 272.271C768.278 289.091 796.206 301.273 825.267 306.998C822.513 313.045 821.169 315.471 818.056 325.182C817.411 327.191 817.622 328.833 818.266 330.195C819.209 332.163 821.061 333.541 823.218 333.88C825.375 334.22 827.56 333.478 829.059 331.895C831.216 329.54 833.129 326.826 835.666 322.752C835.666 322.752 841.758 321.448 847.856 320.141C850.97 319.473 853.683 317.558 855.359 314.841C857.027 312.125 857.523 308.843 856.715 305.756C853.1 291.659 849.267 274.414 839.085 260.025C829.086 245.891 815.878 236.69 801.348 228.772Z" fill="#A8CFCC"/>
<path id="Vector_30" fill-rule="evenodd" clip-rule="evenodd" d="M847.174 274.65C849.542 280.155 851.367 285.773 852.92 291.244C851.814 298.905 848.972 308.999 842.555 321.277L835.669 322.752C835.14 323.603 834.638 324.394 834.157 325.135C834.204 325.012 834.265 324.89 834.333 324.772C852.879 293.402 847.31 275.839 847.31 275.839C847.181 275.445 847.134 275.041 847.174 274.65ZM805.367 231.019C797.607 227.05 788.503 223.364 778.477 220.264C777.046 219.82 776.225 218.246 776.652 216.752C777.08 215.257 778.592 214.404 780.024 214.848C788.802 217.563 796.894 220.721 804.051 224.122C803.169 225.675 802.267 227.225 801.351 228.772C802.701 229.509 804.037 230.256 805.367 231.019Z" fill="#82B5B2"/>
</g>
<g id="Group_33">
<g id="Group_34">
<path id="Vector_31" d="M885.409 165.031C903.994 165.031 919.06 149.347 919.06 129.999C919.06 110.651 903.994 94.9668 885.409 94.9668C866.824 94.9668 851.758 110.651 851.758 129.999C851.758 149.347 866.824 165.031 885.409 165.031Z" fill="#A8CFCC"/>
</g>
<path id="Vector_32" fill-rule="evenodd" clip-rule="evenodd" d="M873.12 128L851.867 127.13C853.271 109.137 867.761 94.9668 885.405 94.9668C903.938 94.9668 918.991 110.598 919.058 129.878L880.921 128.318C882.176 127.017 882.977 125.073 882.977 122.902C882.977 118.985 880.372 115.805 877.163 115.805C873.955 115.805 871.35 118.985 871.35 122.902C871.35 124.902 872.028 126.709 873.12 128Z" fill="#242C2C"/>
</g>
<g id="Group_35">
<path id="Vector_33" fill-rule="evenodd" clip-rule="evenodd" d="M729.362 183.922L733.14 170.469C674.001 149.516 665.718 104.706 670.535 68.0579C674.754 36.1379 702.309 13.2939 733.14 16.1525C780.015 21.4582 806.674 42.2528 821.836 64.0284C838.476 87.9945 843.482 118.646 835.389 146.991C829.148 169.05 821.3 190.919 810.344 212.415L729.362 183.922Z" fill="url(#paint1_linear_1412_77)"/>
<path id="Vector_34" fill-rule="evenodd" clip-rule="evenodd" d="M714.203 162.071L743.963 125.58C744.417 125.023 745.184 124.876 745.801 125.229C746.412 125.583 746.703 126.337 746.493 127.034C741.928 142.098 731.84 175.395 731.84 175.395L731.766 175.385L733.143 170.469C726.135 167.986 719.84 165.168 714.203 162.071Z" fill="#04433F"/>
</g>
</g>
</g>
</g>
</g>
<defs>
<linearGradient id="paint0_linear_1412_77" x1="518.323" y1="218.926" x2="527.528" y2="-100.712" gradientUnits="userSpaceOnUse">
<stop stop-color="#A8CFCC"/>
<stop offset="0.6" stop-color="#B8D5D1"/>
<stop offset="0.81" stop-color="#DBE3DC"/>
<stop offset="1" stop-color="#FFF1E8"/>
</linearGradient>
<linearGradient id="paint1_linear_1412_77" x1="754.285" y1="114.163" x2="759.994" y2="-95.646" gradientUnits="userSpaceOnUse">
<stop stop-color="#82B5B2"/>
<stop offset="1" stop-color="#A8CFCC"/>
</linearGradient>
</defs>
</svg>
