<svg width="1150" height="923" viewBox="0 0 1150 923" fill="none" xmlns="http://www.w3.org/2000/svg">
<g id="Illustrazione_7">
<g id="Parallax_1">
<g id="Group">
<g id="Group_2">
<path id="Vector" fill-rule="evenodd" clip-rule="evenodd" d="M31.1579 865.004L30.3264 827.768H61.3249V792.307H1106.24V827.768H1131.02V865.145H1150V902.526H0V865.145H31.1579V865.004ZM112.684 229.606H61.3249L590.009 0L1118.69 229.606H1060.65V792.307H112.684V229.606Z" fill="#FFF1DF"/>
<path id="Vector_2" fill-rule="evenodd" clip-rule="evenodd" d="M1131.02 864.978H31.1594L30.9297 854.698H1131.02V864.978ZM1106.24 827.553H61.3269V817.273H1106.24V827.553ZM1060.65 792.216H112.686V781.936H1060.65V792.216ZM1060.65 240.745L112.686 242.143V231.322L1060.65 229.924V240.745Z" fill="#FFBDB4"/>
<path id="Vector_3" fill-rule="evenodd" clip-rule="evenodd" d="M1060.65 238.017L919.179 258.74V784.325H786.154V248.806C761.404 251.898 700.454 259.575 643.614 267.226V784.325H510.583V241.554L368.042 258.74V784.325H235.015V243.557L112.684 258.74V236.031C112.684 236.031 202.658 238.807 235.015 240.894V237.86H368.042V236.031H524.976L520.21 237.86H643.614V241.064L786.154 238.097V237.86H919.179V236.031L1060.65 237.846V238.017Z" fill="#FFBDB4"/>
</g>
<g id="Group_3">
<g id="Group_4">
<path id="Vector_4" d="M590.015 207.441C636.478 207.441 674.143 169.211 674.143 122.051C674.143 74.8908 636.478 36.6602 590.015 36.6602C543.552 36.6602 505.887 74.8908 505.887 122.051C505.887 169.211 543.552 207.441 590.015 207.441Z" fill="#FFCF84"/>
</g>
<g id="Group_5">
<path id="Vector_5" fill-rule="evenodd" clip-rule="evenodd" d="M590.025 55.4457C626.24 55.4457 655.644 85.2902 655.644 122.05C655.644 158.81 626.24 188.655 590.025 188.655C588.554 188.655 587.359 189.867 587.359 191.36C587.359 192.853 588.554 194.065 590.025 194.065C629.182 194.065 660.975 161.797 660.975 122.05C660.975 82.3039 629.182 50.0352 590.025 50.0352C588.554 50.0352 587.359 51.2473 587.359 52.7404C587.359 54.2336 588.554 55.4457 590.025 55.4457Z" fill="#FD9909"/>
</g>
<g id="Group_6">
<path id="Vector_6" fill-rule="evenodd" clip-rule="evenodd" d="M590.013 188.655C553.793 188.655 524.389 158.81 524.389 122.05C524.389 85.2902 553.793 55.4457 590.013 55.4457C591.484 55.4457 592.678 54.2336 592.678 52.7404C592.678 51.2473 591.484 50.0352 590.013 50.0352C550.851 50.0352 519.062 82.3039 519.062 122.05C519.062 161.797 550.851 194.065 590.013 194.065C591.484 194.065 592.678 192.853 592.678 191.36C592.678 189.867 591.484 188.655 590.013 188.655Z" fill="#FD9909"/>
</g>
<path id="Vector_7" fill-rule="evenodd" clip-rule="evenodd" d="M600.144 206.828L598.423 192.76C598.241 191.278 599.281 189.926 600.741 189.741C602.202 189.557 603.529 190.611 603.716 192.093L605.416 206.011C603.679 206.339 601.92 206.612 600.144 206.828ZM615.875 203.325L611.109 189.05C610.64 187.635 611.387 186.098 612.783 185.619C614.175 185.14 615.688 185.899 616.158 187.313L620.896 201.497C619.249 202.158 617.576 202.768 615.875 203.325ZM543.64 193.289L551.05 180.922C551.812 179.646 553.454 179.24 554.712 180.016C555.97 180.792 556.369 182.458 555.607 183.733L548.176 196.133C546.63 195.232 545.117 194.283 543.64 193.289ZM659.234 170.569L646.99 161.372C645.812 160.484 645.561 158.789 646.435 157.588C647.31 156.388 648.978 156.135 650.161 157.023L662.134 166.016C661.217 167.567 660.247 169.086 659.234 170.569ZM510.062 148.667L524.45 142.095C525.788 141.481 527.371 142.09 527.973 143.451C528.576 144.813 527.979 146.415 526.635 147.028L511.891 153.765C511.23 152.092 510.617 150.392 510.062 148.667ZM671.649 101.34C672.076 103.083 672.454 104.847 672.774 106.63L658.589 110.025C657.161 110.368 655.721 109.466 655.385 108.013C655.044 106.56 655.935 105.102 657.363 104.759L671.649 101.34ZM520.5 73.9665L533.176 82.3821C534.407 83.1996 534.754 84.8775 533.949 86.1273C533.144 87.3766 531.492 87.7278 530.26 86.9102L517.637 78.5287C518.543 76.9747 519.503 75.4533 520.5 73.9665ZM528.773 63.5283L539.082 71.2233C540.266 72.1079 540.522 73.8031 539.647 75.0053C538.778 76.2081 537.105 76.4662 535.921 75.5815L525.233 67.5987C526.369 66.2044 527.552 64.8469 528.773 63.5283ZM638.642 52.3798C640.092 53.4251 641.51 54.5154 642.891 55.6511L633.674 67.4456C632.757 68.6154 631.078 68.8112 629.927 67.8833C628.775 66.9554 628.583 65.2522 629.495 64.0824L638.642 52.3798ZM624.367 44.0908C625.993 44.8315 627.592 45.6236 629.159 46.4617L622.661 58.833C621.968 60.1505 620.353 60.6494 619.052 59.9471C617.757 59.2442 617.266 57.6043 617.959 56.2868L624.367 44.0908ZM571.151 38.8203L574.904 52.4009C575.298 53.8385 574.472 55.3329 573.054 55.736C571.636 56.1396 570.165 55.2999 569.771 53.8618L565.997 40.1984C567.692 39.6855 569.408 39.2256 571.151 38.8203Z" fill="#FD9909"/>
</g>
<g id="Group_7">
<g id="Group_8">
<path id="Vector_8" d="M569.321 144.592C576.292 149.794 584.267 152.073 593.377 151.66C604.224 150.905 609.37 146.665 609.164 138.918C608.806 132.612 604.972 129.016 597.661 128.131C594.25 127.853 590.605 127.589 586.603 127.227C579.416 126.453 573.775 124.038 569.803 120.092C565.709 116.035 563.544 110.909 563.192 104.722C562.773 97.3455 564.77 91.26 569.415 86.452C573.826 81.6577 580.35 79.0078 588.864 78.3902C599.264 78.0203 608.42 80.4688 616.324 85.6168L609.923 96.6155C603.501 92.8133 596.486 90.9557 589.01 91.2739C585.159 91.4993 581.945 92.6424 579.492 94.8152C576.922 96.9949 575.698 100.17 575.811 104.222C575.953 106.721 577.008 108.808 578.99 110.721C580.973 112.634 584.081 113.766 588.214 114.359C590.451 114.587 593.63 114.878 597.625 115.122C605.505 115.735 611.386 118.256 615.385 122.677C619.26 126.987 621.424 132.112 621.769 138.18C622.338 154.381 613.001 163.165 593.99 164.516C581.736 165.233 570.892 161.928 561.582 154.714L569.321 144.592Z" fill="#FD9909"/>
</g>
<g id="Group_9">
<path id="Vector_9" fill-rule="evenodd" clip-rule="evenodd" d="M584.66 67.8123L581.81 174.389L588.129 174.563L590.98 67.9858L584.66 67.8123Z" fill="#FD9909"/>
</g>
<g id="Group_10">
<path id="Vector_10" fill-rule="evenodd" clip-rule="evenodd" d="M595.722 68.1404L592.872 174.718L599.192 174.891L602.042 68.3139L595.722 68.1404Z" fill="#FD9909"/>
</g>
</g>
</g>
<g id="Group 359">
<g id="COINS">
<g id="Group_11">
<g id="Group_12">
<path id="Vector_11" d="M192.248 904.463C231.174 904.463 262.73 871.575 262.73 831.006C262.73 790.437 231.174 757.549 192.248 757.549C153.321 757.549 121.766 790.437 121.766 831.006C121.766 871.575 153.321 904.463 192.248 904.463Z" fill="#FFCF84"/>
</g>
<g id="Group_13">
<path id="Vector_12" fill-rule="evenodd" clip-rule="evenodd" d="M192.256 773.711C222.597 773.711 247.232 799.385 247.232 831.007C247.232 862.63 222.597 888.304 192.256 888.304C191.024 888.304 190.023 889.347 190.023 890.631C190.023 891.916 191.024 892.958 192.256 892.958C225.062 892.958 251.698 865.199 251.698 831.007C251.698 796.816 225.062 769.057 192.256 769.057C191.024 769.057 190.023 770.099 190.023 771.384C190.023 772.668 191.024 773.711 192.256 773.711Z" fill="#FD9909"/>
</g>
<g id="Group_14">
<path id="Vector_13" fill-rule="evenodd" clip-rule="evenodd" d="M192.242 888.304C161.898 888.304 137.263 862.63 137.263 831.007C137.263 799.385 161.898 773.711 192.242 773.711C193.475 773.711 194.475 772.668 194.475 771.384C194.475 770.099 193.475 769.057 192.242 769.057C159.433 769.057 132.801 796.816 132.801 831.007C132.801 865.199 159.433 892.958 192.242 892.958C193.475 892.958 194.475 891.916 194.475 890.631C194.475 889.347 193.475 888.304 192.242 888.304Z" fill="#FD9909"/>
</g>
<path id="Vector_14" fill-rule="evenodd" clip-rule="evenodd" d="M200.736 903.934L199.293 891.832C199.141 890.557 200.012 889.394 201.236 889.236C202.459 889.077 203.571 889.984 203.728 891.258L205.152 903.232C203.697 903.514 202.223 903.748 200.736 903.934ZM213.915 900.921L209.922 888.641C209.529 887.424 210.154 886.102 211.324 885.69C212.49 885.277 213.758 885.93 214.151 887.147L218.122 899.348C216.742 899.917 215.339 900.442 213.915 900.921ZM153.397 892.287L159.604 881.649C160.243 880.551 161.618 880.202 162.672 880.87C163.726 881.537 164.061 882.97 163.423 884.067L157.197 894.734C155.902 893.959 154.634 893.143 153.397 892.287ZM250.241 872.743L239.982 864.831C238.995 864.067 238.785 862.609 239.518 861.576C240.25 860.544 241.648 860.326 242.64 861.09L252.67 868.826C251.902 870.16 251.089 871.467 250.241 872.743ZM125.266 853.901L137.319 848.248C138.44 847.72 139.767 848.243 140.271 849.414C140.776 850.586 140.276 851.965 139.15 852.492L126.797 858.287C126.244 856.848 125.73 855.386 125.266 853.901ZM260.642 813.188C260.999 814.688 261.316 816.205 261.584 817.739L249.7 820.66C248.503 820.955 247.298 820.179 247.016 818.929C246.73 817.679 247.476 816.425 248.673 816.13L260.642 813.188ZM134.01 789.641L144.63 796.88C145.662 797.583 145.952 799.027 145.277 800.102C144.603 801.177 143.219 801.479 142.187 800.775L131.612 793.565C132.371 792.228 133.175 790.92 134.01 789.641ZM140.941 780.661L149.578 787.281C150.57 788.042 150.784 789.5 150.052 790.534C149.324 791.569 147.921 791.791 146.93 791.03L137.976 784.163C138.927 782.963 139.918 781.796 140.941 780.661ZM232.989 771.071C234.203 771.97 235.391 772.908 236.548 773.885L228.826 784.031C228.058 785.037 226.651 785.206 225.687 784.408C224.722 783.609 224.561 782.144 225.325 781.138L232.989 771.071ZM221.029 763.94C222.391 764.577 223.731 765.259 225.044 765.98L219.6 776.622C219.019 777.755 217.666 778.185 216.576 777.58C215.491 776.976 215.08 775.565 215.661 774.432L221.029 763.94ZM176.445 759.406L179.589 771.089C179.92 772.326 179.228 773.611 178.04 773.958C176.852 774.305 175.619 773.583 175.289 772.346L172.127 760.592C173.547 760.15 174.985 759.755 176.445 759.406Z" fill="#FD9909"/>
</g>
</g>
</g>
</g>
<g id="Parallax_2">
<g id="Group_15">
<g id="Group_16">
<g id="Group_17">
<path id="Vector_15" fill-rule="evenodd" clip-rule="evenodd" d="M266.116 517.986L285.065 622.898L193.63 642.165L175.012 535.627L266.116 517.986Z" fill="white"/>
</g>
<g id="Group_18">
<path id="Vector_16" fill-rule="evenodd" clip-rule="evenodd" d="M178.1 537.785L188.038 594.649C188.294 596.12 187.329 597.522 185.879 597.785C184.431 598.044 183.047 597.062 182.788 595.595L172.394 536.098C172.139 534.641 173.086 533.246 174.518 532.969L265.621 515.328C266.321 515.19 267.042 515.344 267.627 515.752C268.213 516.161 268.615 516.788 268.744 517.495L278.05 569.02C278.314 570.491 277.354 571.903 275.908 572.17C274.46 572.441 273.073 571.464 272.806 569.998L263.984 521.152L178.1 537.785Z" fill="#242C2C"/>
</g>
<g id="Group_19">
<path id="Vector_17" fill-rule="evenodd" clip-rule="evenodd" d="M281.967 620.788L272.794 569.998C272.53 568.528 273.487 567.12 274.936 566.848C276.381 566.581 277.771 567.554 278.038 569.02L287.679 622.412C287.942 623.854 287.019 625.247 285.6 625.547L194.165 644.813C193.457 644.965 192.724 644.815 192.128 644.406C191.531 643.996 191.124 643.358 190.997 642.64L182.776 595.595C182.52 594.124 183.488 592.718 184.935 592.459C186.386 592.196 187.77 593.177 188.026 594.649L195.768 638.95L281.967 620.788Z" fill="#242C2C"/>
</g>
<path id="Vector_18" fill-rule="evenodd" clip-rule="evenodd" d="M274.778 615.942L273.527 609.159L199.969 623.163L201.222 629.949L274.778 615.942ZM271.964 600.345L270.711 593.566L197.152 607.569L198.408 614.351L271.964 600.345ZM269.147 584.752L267.893 577.965L194.338 591.972L195.592 598.758L269.147 584.752ZM266.332 569.16L265.078 562.374L191.522 576.379L192.775 583.165L266.332 569.16ZM263.515 553.567L262.262 546.781L188.705 560.786L189.958 567.572L263.515 553.567ZM260.698 537.973L259.445 531.188L185.888 545.193L187.144 551.974L260.698 537.973Z" fill="#242C2C"/>
</g>
<g id="Group_20">
<g id="Group_21">
<path id="Vector_19" fill-rule="evenodd" clip-rule="evenodd" d="M279.742 510.206L339.156 598.183L263.385 653.586L203.622 563.988L279.742 510.206Z" fill="white"/>
</g>
<g id="Group_22">
<path id="Vector_20" fill-rule="evenodd" clip-rule="evenodd" d="M336.226 597.664L314.842 565.998C314.176 565.016 314.424 563.665 315.395 562.992C316.366 562.313 317.694 562.565 318.359 563.552L340.921 596.96C341.575 597.933 341.348 599.256 340.408 599.941L264.637 655.344C264.169 655.69 263.585 655.822 263.018 655.72C262.45 655.618 261.948 655.287 261.625 654.801L236.296 616.83C235.637 615.839 235.892 614.495 236.867 613.822C237.841 613.156 239.168 613.413 239.828 614.404L263.925 650.533L336.226 597.664Z" fill="#242C2C"/>
</g>
<g id="Group_23">
<path id="Vector_21" fill-rule="evenodd" clip-rule="evenodd" d="M206.568 564.546L239.823 614.403C240.483 615.389 240.227 616.739 239.253 617.406C238.278 618.078 236.952 617.815 236.292 616.829L201.857 565.202C201.203 564.223 201.448 562.888 202.405 562.212L278.526 508.43C278.992 508.1 279.569 507.972 280.127 508.077C280.687 508.178 281.182 508.507 281.503 508.982L318.355 563.551C319.02 564.538 318.772 565.884 317.801 566.563C316.83 567.236 315.502 566.984 314.837 565.997L279.2 513.226L206.568 564.546Z" fill="#242C2C"/>
</g>
<path id="Vector_22" fill-rule="evenodd" clip-rule="evenodd" d="M326.965 596.091L323.101 590.412L261.544 633.618L265.412 639.297L326.965 596.091ZM318.136 583.009L314.27 577.336L252.712 620.542L256.582 626.216L318.136 583.009ZM309.305 569.934L305.435 564.254L243.883 607.461L247.751 613.14L309.305 569.934ZM300.475 556.858L296.607 551.179L235.052 594.385L238.92 600.064L300.475 556.858ZM291.645 543.782L287.776 538.103L226.221 581.309L230.09 586.988L291.645 543.782ZM282.813 530.706L278.946 525.027L217.39 568.233L221.259 573.907L282.813 530.706Z" fill="#242C2C"/>
</g>
</g>
<g id="Group_24">
<g id="Group_25">
<path id="Vector_23" d="M437.32 853.69C447.102 891.701 485.756 914.368 523.657 904.32C561.557 894.271 584.352 855.312 574.571 817.302C564.789 779.292 526.135 756.624 488.234 766.673C450.333 776.721 427.538 815.68 437.32 853.69Z" fill="#FFCF84"/>
</g>
<g id="Group_26">
<path id="Vector_24" fill-rule="evenodd" clip-rule="evenodd" d="M559.471 821.305C567.095 850.932 549.3 881.346 519.758 889.178C490.215 897.011 460.039 879.315 452.415 849.688C452.106 848.484 450.88 847.766 449.68 848.084C448.48 848.402 447.757 849.637 448.067 850.841C456.311 882.874 488.937 902.008 520.88 893.539C552.823 885.07 572.063 852.186 563.819 820.152C563.509 818.949 562.284 818.23 561.084 818.548C559.884 818.866 559.161 820.101 559.471 821.305Z" fill="#FD9909"/>
</g>
<g id="Group_27">
<path id="Vector_25" fill-rule="evenodd" clip-rule="evenodd" d="M452.424 849.689C444.799 820.059 462.593 789.644 492.136 781.812C521.679 773.979 551.854 791.676 559.479 821.306C559.789 822.51 561.015 823.228 562.215 822.91C563.415 822.592 564.137 821.357 563.828 820.153C555.583 788.116 522.957 768.986 491.015 777.455C459.072 785.923 439.831 818.805 448.076 850.842C448.385 852.045 449.611 852.764 450.811 852.446C452.011 852.128 452.734 850.892 452.424 849.689Z" fill="#FD9909"/>
</g>
<path id="Vector_26" fill-rule="evenodd" clip-rule="evenodd" d="M439.939 861.845L450.883 857.439C452.036 856.975 453.341 857.537 453.797 858.693C454.252 859.849 453.685 861.159 452.533 861.627L441.705 865.984C441.076 864.632 440.487 863.251 439.939 861.845ZM446.066 873.968L456.535 867.027C457.573 866.342 458.966 866.625 459.644 867.666C460.323 868.702 460.031 870.102 458.994 870.787L448.592 877.686C447.714 876.479 446.872 875.24 446.066 873.968ZM438.924 812.735L450.423 816.162C451.609 816.514 452.281 817.77 451.922 818.965C451.563 820.159 450.309 820.841 449.123 820.489L437.593 817.052C437.992 815.596 438.436 814.155 438.924 812.735ZM481.519 902.46L486.332 890.483C486.798 889.33 488.108 888.764 489.257 889.223C490.405 889.683 490.96 890.994 490.496 892.151L485.788 903.862C484.349 903.442 482.924 902.972 481.519 902.46ZM467.717 775.758L476.027 786.128C476.802 787.092 476.646 788.517 475.679 789.3C474.711 790.083 473.298 789.936 472.522 788.967L464.004 778.341C465.21 777.443 466.447 776.58 467.717 775.758ZM539.77 897.865C538.459 898.586 537.121 899.271 535.755 899.913L530.04 889.032C529.464 887.936 529.886 886.567 530.983 885.982C532.079 885.394 533.438 885.811 534.015 886.907L539.77 897.865ZM529.948 768.381L525.853 780.544C525.455 781.725 524.18 782.366 523.006 781.974C521.832 781.582 521.202 780.305 521.6 779.123L525.679 767.011C527.118 767.421 528.543 767.882 529.948 768.381ZM540.078 772.925L536.064 782.998C535.603 784.155 534.294 784.725 533.144 784.266C531.994 783.812 531.435 782.497 531.896 781.341L536.062 770.896C537.421 771.528 538.762 772.207 540.078 772.925ZM572.168 860.431C571.633 861.84 571.056 863.232 570.434 864.604L559.015 859.577C557.881 859.076 557.37 857.744 557.874 856.604C558.377 855.465 559.706 854.945 560.838 855.441L572.168 860.431ZM575.825 846.987C575.572 848.474 575.272 849.951 574.928 851.412L563.618 848.732C562.413 848.446 561.672 847.231 561.963 846.017C562.255 844.808 563.469 844.057 564.674 844.343L575.825 846.987ZM568.857 802.329L558.733 808.293C557.66 808.922 556.286 808.564 555.663 807.49C555.04 806.416 555.405 805.034 556.478 804.404L566.664 798.406C567.433 799.683 568.164 800.989 568.857 802.329Z" fill="#FD9909"/>
</g>
<g id="CHARACTERS">
<g id="Group_28">
<path id="Vector_27" fill-rule="evenodd" clip-rule="evenodd" d="M345.916 298.643C345.729 298.349 338.476 298.618 337.913 298.583C329.417 298.048 320.934 297.203 312.479 296.219C284.379 292.946 250.851 290.693 227.664 272.507C201.288 251.82 223.511 221.431 252.4 227.053C288.018 233.984 314.998 269.801 345.597 287.659" fill="#242C2C"/>
<g id="Group_29">
<path id="Vector_28" d="M374.948 333.694C394.07 333.694 409.571 317.96 409.571 298.551C409.571 279.142 394.07 263.408 374.948 263.408C355.826 263.408 340.324 279.142 340.324 298.551C340.324 317.96 355.826 333.694 374.948 333.694Z" fill="#ABD1CE"/>
</g>
<path id="Vector_29" fill-rule="evenodd" clip-rule="evenodd" d="M359.851 312.056L348.537 321.27C343.414 315.144 340.32 307.211 340.32 298.551C340.32 279.154 355.835 263.407 374.944 263.407C392.639 263.407 407.25 276.91 409.319 294.311C403.53 293.622 398.721 289.993 394.841 283.56C394.516 296.672 383.147 301.676 369.44 304.247C368.866 300.909 365.933 298.365 362.407 298.365C358.469 298.365 355.272 301.537 355.272 305.444C355.272 308.459 357.174 311.035 359.851 312.056Z" fill="#242C2C"/>
</g>
<g id="Group_30">
<g id="Group_31">
<path id="Vector_30" fill-rule="evenodd" clip-rule="evenodd" d="M587.884 495.007C587.884 495.007 736 336.371 826.626 342.725C841.147 343.743 882.517 349.455 922.486 379.048C951.325 400.397 975.973 424.99 999.892 450.071C1011.59 462.349 1016.81 479.565 1013.92 496.392C1011.04 513.225 1000.4 527.639 985.291 535.181C963.537 546.062 935.541 556.455 901.18 562.304C901.18 562.304 907.294 573.52 911.089 580.484C913.072 584.125 913.046 588.546 911.02 592.16C907.891 597.576 902.011 605.822 891.814 614.008C891.814 614.008 891.233 617.86 890.679 621.529C890.417 623.255 889.49 624.802 888.098 625.83C886.707 626.863 884.975 627.285 883.274 627.01C880.678 626.593 878.701 624.429 878.477 621.772C878.349 620.16 878.423 618.455 878.701 617.092C878.701 617.092 885.289 571.037 849.462 532.919C849.462 532.919 839.606 517.234 854.681 507.165L911.025 472.732L875.822 442.68C875.822 442.68 868.279 480.307 825.389 488.552C806.919 492.107 772.067 493.216 750.553 459.952C750.553 459.952 638.647 550.212 609.228 585.9C609.228 585.9 604.75 590.25 600.848 587.431C598.663 585.851 595.773 582.572 598.982 577.605C598.982 577.605 593.716 582.432 589.078 579.212C585.986 577.064 583.604 572.855 586.786 567.91C586.786 567.91 581.402 572.909 576.541 569.376C573.268 566.99 572.511 562.786 574.12 557.992C574.12 557.992 568.427 563.727 563.582 560.4C560.192 558.073 558.555 553.236 560.869 549.719L582.372 518.386L587.884 495.007Z" fill="#E9673C"/>
<path id="Vector_31" fill-rule="evenodd" clip-rule="evenodd" d="M890.217 623.146C890.201 622.963 890.217 622.779 890.249 622.589C895.569 595.114 890.782 566.054 890.782 566.054C890.59 564.874 891.374 563.76 892.536 563.56C893.693 563.365 894.796 564.16 894.988 565.34C894.988 565.34 896.23 572.904 896.769 584.023L904.061 586.089C905.191 586.414 905.857 587.604 905.537 588.757C905.223 589.909 904.045 590.58 902.909 590.256L896.944 588.562C897.115 595.082 897.008 602.5 896.299 610.166C894.903 611.443 893.41 612.726 891.811 614.008C891.811 614.008 891.23 617.86 890.676 621.529C890.59 622.091 890.436 622.632 890.217 623.146Z" fill="#D9512E"/>
<path id="Vector_32" fill-rule="evenodd" clip-rule="evenodd" d="M649.055 436.744C700.292 392.205 773.38 338.992 826.622 342.725C841.143 343.743 882.514 349.455 922.483 379.048C951.321 400.397 975.97 424.99 999.888 450.071C1011.59 462.349 1016.81 479.565 1013.92 496.392C1011.03 513.225 1000.39 527.639 985.288 535.181C974.557 540.548 962.313 545.797 948.528 550.439L898.133 480.61L911.022 472.732L875.819 442.68C875.819 442.68 868.276 480.307 825.386 488.552C806.915 492.107 772.064 493.216 750.549 459.952C750.549 459.952 728.587 477.661 701.561 500.504L649.055 436.744Z" fill="#D84B26"/>
<path id="Vector_33" fill-rule="evenodd" clip-rule="evenodd" d="M591.987 580.296L598.213 571.487C598.896 570.513 600.234 570.292 601.188 570.989C602.142 571.687 602.36 573.04 601.678 574.009C601.678 574.009 598.741 577.98 598.986 577.607C598.986 577.607 595.671 580.647 591.987 580.296ZM579.631 570.6L586.049 561.526C586.731 560.558 588.069 560.336 589.023 561.029C589.977 561.727 590.196 563.079 589.514 564.053L586.774 567.927C586.523 568.154 583.288 571.011 579.631 570.6ZM566.438 561.424L573.511 551.414C574.199 550.445 575.532 550.218 576.486 550.916C577.445 551.614 577.664 552.967 576.976 553.935L574.082 558.036C573.655 558.448 570.164 561.71 566.438 561.424Z" fill="#D9512E"/>
</g>
<g id="Group_32">
<g id="Group_33">
<path id="Vector_34" d="M819.609 333.221C837.211 333.221 851.48 318.738 851.48 300.872C851.48 283.007 837.211 268.523 819.609 268.523C802.007 268.523 787.738 283.007 787.738 300.872C787.738 318.738 802.007 333.221 819.609 333.221Z" fill="#E9673C"/>
</g>
<path id="Vector_35" fill-rule="evenodd" clip-rule="evenodd" d="M803.801 272.791C808.46 270.076 813.865 268.523 819.622 268.523C837.213 268.523 851.494 283.018 851.494 300.872C851.494 312.854 845.06 323.323 835.513 328.913L825.358 310.937C827.442 311.588 829.851 311.37 831.984 310.14C835.902 307.876 837.394 303.034 835.321 299.335C833.247 295.635 828.38 294.469 824.462 296.734C822.319 297.973 820.896 299.984 820.395 302.158L803.801 272.791Z" fill="#242C2C"/>
</g>
<g id="Group_34">
<path id="Vector_36" fill-rule="evenodd" clip-rule="evenodd" d="M910.398 472.195L910.515 472.125C910.515 472.125 921.629 481.718 928.165 487.356C928.548 487.686 928.639 488.243 928.383 488.681C928.127 489.12 927.594 489.309 927.13 489.119L901.026 478.839L911.027 472.731L910.398 472.195ZM747.457 462.461L772.586 440.782C773.241 440.213 774.201 440.179 774.899 440.699C775.592 441.219 775.848 442.158 775.507 442.965L762.479 474.04C758.214 470.22 754.195 465.578 750.554 459.951C750.554 459.951 749.456 460.833 747.457 462.461ZM875.887 442.731C877.913 434.313 880.008 420.571 879.214 403.536C879.176 402.803 879.656 402.147 880.354 401.963C881.053 401.78 881.783 402.12 882.103 402.777C886.644 412.234 893.766 431.625 890.456 455.173L875.887 442.731Z" fill="#76200A"/>
<g id="Group_35">
<path id="Vector_37" fill-rule="evenodd" clip-rule="evenodd" d="M646.797 903.823C646.797 903.823 654.489 887.045 670.225 884.085C679.751 780.121 698.306 678.705 729.928 574.599C742.444 533.463 783.287 508.33 825.01 516.089C837.052 518.324 848.406 523.22 857.324 532.245C861.279 536.255 889.691 571.613 878.966 626.85C875.565 644.347 868.625 664.935 863.801 678.58C863.801 678.58 947.864 780.613 959.032 794.172C959.762 795.054 959.858 796.315 959.277 797.31C951.249 810.961 896.333 904.37 896.333 904.37C896.333 904.37 886.69 894.934 890.294 875.418L820.063 797.24C820.063 797.24 784.38 884.675 777.946 900.431C777.349 901.897 775.947 902.855 774.385 902.866C756.106 903.006 646.797 903.823 646.797 903.823Z" fill="url(#paint0_linear_1419_544)"/>
</g>
<path id="Vector_38" fill-rule="evenodd" clip-rule="evenodd" d="M671.082 875.072L786.778 878.816L785.035 883.091L670.672 879.39C670.805 877.951 670.944 876.506 671.082 875.072ZM942.895 774.576L888.283 873.173L885.261 869.808L939.969 771.021L942.895 774.576ZM864.978 675.259C864.578 676.4 864.189 677.51 863.81 678.581L867.691 683.288L823.831 801.418L820.073 797.235L815.782 807.754L864.978 675.259ZM842.621 521.755C844.226 522.539 845.798 523.4 847.328 524.336C847.904 526.868 849.125 529.73 851.443 532.679C855.143 537.375 883.246 560.175 878.406 616.31C878.118 619.654 878.534 622.284 879.445 624.286C879.296 625.13 879.141 625.99 878.971 626.85C878.768 627.911 878.55 628.982 878.315 630.064C878.006 629.75 877.702 629.426 877.414 629.069C875.111 626.266 873.629 622.029 874.157 615.932C878.821 561.847 851.678 539.907 848.117 535.384C844.194 530.406 842.861 525.607 842.621 521.755Z" fill="#D9512E"/>
</g>
</g>
<g id="Group_36">
<path id="Vector_39" fill-rule="evenodd" clip-rule="evenodd" d="M437.341 667.984C413.103 769.968 350.339 885.631 350.339 885.631C361.993 884.478 374.933 904.508 374.933 904.508C374.933 904.508 257.261 904.508 223.324 904.508C221.32 904.508 219.45 903.486 218.347 901.787C217.244 900.088 217.056 897.94 217.847 896.073C259.982 795.328 291.738 667.659 295.812 648.197C323.812 514.442 372.319 513.165 393.257 517.326C399.206 518.505 404.584 520.237 409.403 522.466C459.548 533.428 536.842 568.857 579.188 601.082C592.477 611.27 598.821 628.303 595.484 644.865C588.24 681.061 573.266 714.434 555.824 751.296C573.058 760.451 577.44 771.77 577.44 771.77C577.44 771.77 488.424 764.731 467.283 763.064C466.163 762.972 465.135 762.393 464.468 761.474C463.802 760.559 463.562 759.391 463.813 758.276C467.507 741.757 480.268 684.719 480.268 684.719C464.943 680.553 450.433 675.261 437.341 667.984Z" fill="url(#paint1_linear_1419_544)"/>
<path id="Vector_40" fill-rule="evenodd" clip-rule="evenodd" d="M235.574 850.662L364.387 858.215C363.48 860.054 362.605 861.807 361.767 863.485L233.617 855.969C234.272 854.206 234.923 852.436 235.574 850.662ZM562.916 736.157L468.857 735.703L470.067 730.297L565.395 730.757C564.579 732.548 563.753 734.35 562.916 736.157ZM390.204 516.801C391.274 516.952 392.293 517.131 393.254 517.326C399.202 518.505 404.581 520.236 409.4 522.466C411.457 522.915 413.558 523.407 415.701 523.937C420.749 527.947 426.015 533.211 430.861 540.104C446.421 562.25 457.764 601.504 441.933 670.424C440.381 669.634 438.851 668.822 437.338 667.984C436.266 672.491 435.12 677.025 433.91 681.564C433.857 681.207 433.873 680.834 433.969 680.466C453.185 606.849 442.396 565.837 426.522 543.248C411.074 521.259 391.008 517.104 391.008 517.104C390.718 517.044 390.448 516.941 390.204 516.801Z" fill="#8ABBB8"/>
<path id="Vector_41" fill-rule="evenodd" clip-rule="evenodd" d="M474.359 683.043V683.016C474.359 683.016 491.295 688.042 508.129 690.206C509.024 690.293 509.733 691.029 509.797 691.943C509.867 692.857 509.28 693.691 508.401 693.913C497.851 696.64 482.505 700.6 476.358 702.185L480.266 684.72C478.283 684.179 476.316 683.622 474.359 683.043Z" fill="#8ABBB8"/>
</g>
<g id="Group_37">
<g id="Group_38">
<path id="Vector_42" fill-rule="evenodd" clip-rule="evenodd" d="M304.147 542.292C304.147 542.292 306.043 547.199 309.266 550.294C311.089 552.047 314.684 552.831 317.902 550.646C323.993 546.506 328.507 536.145 327.488 524.94C327.225 522.04 319.386 498.504 299.112 485.653L317.902 474.719C317.902 474.719 360.581 524.009 420.664 481.628C420.664 481.628 475.766 524.951 557.82 555.623L583.503 518.534C583.503 518.534 615.204 512.42 621.02 503.124C621.899 501.723 622.923 498 616.201 497.465C613.163 497.221 589.836 494.045 548.561 471.229C537.239 464.963 499.941 445.746 450.217 395.63C439.758 385.087 373.35 317.221 270.99 395.63C253.028 409.391 182.226 465.093 149.603 517.657C136.074 539.516 138.594 567.851 155.761 586.897C155.759 586.897 155.759 586.897 155.759 586.897C171.463 604.319 197.104 608.063 217.007 595.835C252.901 573.781 304.147 542.292 304.147 542.292Z" fill="#ABD1CE"/>
<path id="Vector_43" fill-rule="evenodd" clip-rule="evenodd" d="M303.598 542.628L311.804 537.066C313.051 536.276 314.697 536.66 315.478 537.927C316.258 539.193 315.88 540.859 314.633 541.654L306.492 546.827C304.983 544.463 304.144 542.293 304.144 542.293L303.598 542.628ZM583.292 518.827L583.116 519.087C582.903 519.125 582.791 519.152 582.791 519.152L578.777 524.946C574.252 525.58 570.483 526.077 570.483 526.077C569.022 526.267 567.684 525.217 567.498 523.735C567.311 522.257 568.345 520.899 569.801 520.71C569.801 520.71 576.922 519.779 583.292 518.827Z" fill="#8ABBB8"/>
</g>
<g id="Group_39">
<path id="Vector_44" fill-rule="evenodd" clip-rule="evenodd" d="M285.541 553.638L217.011 595.802C197.112 608.047 171.462 604.313 155.754 586.886C155.754 586.886 155.754 586.886 155.756 586.886C138.596 567.846 136.076 539.521 149.598 517.673C182.217 465.109 253.031 409.392 270.995 395.63C373.355 317.221 439.763 385.087 450.222 395.63C499.945 445.746 537.244 464.963 548.566 471.229C554.376 474.437 559.824 477.262 564.915 479.74L524.567 541.945C461.224 513.518 420.669 481.628 420.669 481.628C360.586 524.009 317.907 474.719 317.907 474.719L299.072 485.762C276.46 469.07 247.623 488.846 247.623 488.846L285.541 553.638Z" fill="#86B8B5"/>
<path id="Vector_45" fill-rule="evenodd" clip-rule="evenodd" d="M248.077 488.547C247.778 488.742 247.622 488.844 247.622 488.844L250.329 493.471C227.442 506.64 204.493 520.81 181.382 535.354C180.132 536.138 178.487 535.749 177.712 534.477C176.937 533.211 177.323 531.539 178.573 530.755C201.872 516.092 225.006 501.814 248.077 488.547ZM419.442 482.482C423.643 478.397 438.355 462.197 443.089 431.795C443.19 431.141 443.734 430.651 444.384 430.627C445.04 430.602 445.615 431.05 445.765 431.694C447.092 439.481 448.217 452.821 444.8 469.085C443.222 476.573 440.685 484.689 436.761 493.162C426.345 486.09 420.668 481.627 420.668 481.627C420.263 481.913 419.853 482.2 419.442 482.482ZM303.544 483.136C298.747 471.752 299.276 461.467 300.382 455.288C300.557 454.336 301.306 453.594 302.252 453.443C303.199 453.286 304.137 453.757 304.595 454.612C309.912 464.8 315.007 471.417 317.861 474.744L303.544 483.136Z" fill="#1F5753"/>
</g>
</g>
<g id="Group_40">
<path id="Vector_46" fill-rule="evenodd" clip-rule="evenodd" d="M636.35 534.36C634.106 531.617 633.829 527.597 635.924 524.523C638.44 520.823 643.445 519.892 647.091 522.451L659.437 531.108C663.078 533.662 663.995 538.742 661.473 542.443C659.181 545.814 654.821 546.88 651.308 545.111C653.259 547.789 653.419 551.533 651.452 554.422C649.202 557.734 644.932 558.789 641.484 557.063C643.408 559.692 643.573 563.382 641.633 566.228C639.426 569.475 635.241 570.513 631.851 568.831C633.754 571.422 633.914 575.058 632.011 577.856C629.618 581.372 624.863 582.254 621.398 579.825L611.51 572.889C608.05 570.459 607.176 565.633 609.569 562.122C611.621 559.113 615.401 558.031 618.621 559.308C616.446 556.662 616.179 552.767 618.199 549.796C620.284 546.734 624.132 545.635 627.405 546.939C625.199 544.245 624.927 540.284 626.984 537.265C629.106 534.149 633.019 533.034 636.35 534.36Z" fill="#ABD1CE"/>
<path id="Vector_47" fill-rule="evenodd" clip-rule="evenodd" d="M616.945 552.871L638.689 568.816C636.578 569.871 634.046 569.925 631.85 568.832C631.994 569.027 618.502 559.266 618.619 559.309C617.143 557.513 616.546 555.138 616.945 552.871ZM625.666 540.654C625.709 540.681 625.746 540.708 625.784 540.735L647.996 557.021C648.066 557.069 648.129 557.123 648.188 557.183C646.093 558.135 643.625 558.135 641.482 557.064C641.706 557.372 627.138 546.833 627.404 546.941C625.965 545.182 625.346 542.883 625.666 540.654ZM634.606 527.836C634.702 527.885 634.792 527.944 634.883 528.009L657.096 544.295C657.474 544.571 657.735 544.95 657.869 545.366C655.79 546.216 653.396 546.167 651.307 545.112C651.434 545.29 636.285 534.334 636.349 534.361C634.856 532.532 634.233 530.141 634.606 527.836Z" fill="#8ABBB8"/>
</g>
</g>
<g id="CASE">
<path id="Vector_48" fill-rule="evenodd" clip-rule="evenodd" d="M877.065 800.944C877.065 797.503 874.32 794.717 870.935 794.717C845.06 794.717 744.957 794.717 719.087 794.717C715.702 794.717 712.957 797.503 712.957 800.944C712.957 824.691 712.957 908.291 712.957 908.291H877.065V800.944Z" fill="#242C2C"/>
<path id="Vector_49" fill-rule="evenodd" clip-rule="evenodd" d="M764.5 794.716V779.728C764.5 776.904 766.76 774.615 769.543 774.615H820.471C823.254 774.615 825.509 776.904 825.509 779.728V794.716H815.434V784.841H774.58V794.716H764.5Z" fill="#242C2C"/>
<path id="Vector_50" fill-rule="evenodd" clip-rule="evenodd" d="M875.557 796.859C876.495 797.952 877.065 799.381 877.065 800.944V802.389L801.802 855.732C797.724 858.621 792.298 858.627 788.215 855.743L712.957 802.568V800.944C712.957 799.435 713.485 798.05 714.364 796.973L791.264 851.301C793.513 852.891 796.504 852.886 798.748 851.295L875.557 796.859Z" fill="white"/>
</g>
</g>
</g>
<defs>
<linearGradient id="paint0_linear_1419_544" x1="803.522" y1="709.431" x2="605.516" y2="254.201" gradientUnits="userSpaceOnUse">
<stop stop-color="#E9673C"/>
<stop offset="1" stop-color="#FFBDB4"/>
</linearGradient>
<linearGradient id="paint1_linear_1419_544" x1="438.007" y1="797.822" x2="728.059" y2="577.338" gradientUnits="userSpaceOnUse">
<stop stop-color="#ABD1CE"/>
<stop offset="0.52" stop-color="#BFDCD9"/>
<stop offset="1" stop-color="white"/>
</linearGradient>
</defs>
</svg>
