<svg width="1150" height="821" viewBox="0 0 1150 821" fill="none" xmlns="http://www.w3.org/2000/svg">
<g id="Illustrazione_5">
<g id="Parallax_1">
<g id="TABLE">
<g id="Group">
<path id="Vector" fill-rule="evenodd" clip-rule="evenodd" d="M649.718 817.2V421.066H630.207V817.2H649.718ZM1028.93 817.2V421.066H1009.42V817.2H1028.93Z" fill="#BABEC2"/>
<path id="Vector_2" fill-rule="evenodd" clip-rule="evenodd" d="M649.718 455.255L630.207 455.674V421.066H649.718V455.255ZM1028.93 422.336V447.069L1009.42 447.488V422.269L1028.93 422.336Z" fill="#242C2C"/>
</g>
<g id="Group_2">
<path id="Vector_3" d="M1116.27 412.486H544.48V427.465H1116.27V412.486Z" fill="#BABEC2"/>
</g>
</g>
<g id="MOUSE">
<g id="Group_3">
<path id="Vector_4" fill-rule="evenodd" clip-rule="evenodd" d="M552.52 413.051C559.551 383.461 584.054 361.596 613.166 361.596C642.277 361.596 666.78 383.461 673.812 413.051H552.52Z" fill="#B9D8D6"/>
<path id="Vector_5" fill-rule="evenodd" clip-rule="evenodd" d="M652.131 413.052C642.458 390.456 627.216 385.862 627.216 385.862C625.928 385.49 625.182 384.142 625.552 382.854C625.928 381.566 627.277 380.822 628.564 381.195C628.564 381.195 646.757 386.25 657.396 413.052H652.131Z" fill="#82B5B2"/>
</g>
<path id="Vector_6" fill-rule="evenodd" clip-rule="evenodd" d="M672.208 413.052C674.011 449.092 678.305 505.852 688.871 535.856C691.197 542.457 693.789 547.721 696.795 551.043C699.249 553.764 701.945 555.075 705.024 554.207C707.993 553.369 711.06 551.201 713.926 548.323C713.792 548.128 713.665 547.934 713.537 547.734C709.784 541.88 707.799 532.692 707.963 524.64C708.048 520.237 708.782 516.175 710.137 513.145C711.339 510.448 713.058 508.511 715.159 507.546C717.345 506.538 720.017 506.483 723.174 508.013C730.941 511.772 732.629 520.189 730.279 529.401C728.609 535.923 724.935 542.821 720.448 548.323C721.146 548.845 721.899 549.227 722.713 549.434C724.717 549.938 726.982 549.264 729.569 547.315C731.712 545.705 733.522 542.803 735.167 539.007C737.882 532.747 740.007 524.166 741.702 514.402C748.424 475.689 748.236 418.754 748.521 411.989C748.576 410.653 749.711 409.608 751.053 409.663C752.389 409.724 753.434 410.859 753.373 412.195C753.087 419.003 753.251 476.285 746.487 515.234C744.713 525.435 742.461 534.398 739.625 540.938C737.572 545.675 735.161 549.191 732.49 551.201C728.391 554.28 724.699 554.942 721.529 554.146C719.98 553.758 718.523 552.998 717.193 551.924C713.707 555.373 709.93 557.869 706.347 558.883C701.477 560.255 697.069 558.597 693.188 554.298C689.854 550.606 686.873 544.807 684.286 537.471C673.58 507.06 669.172 449.474 667.344 413.052H672.208ZM717.266 544.527C721.055 539.7 724.14 533.797 725.567 528.198C727.285 521.476 726.727 515.13 721.061 512.386C719.525 511.645 718.25 511.469 717.187 511.96C716.045 512.489 715.232 513.649 714.57 515.124C713.44 517.656 712.894 521.057 712.821 524.737C712.681 531.569 714.205 539.354 717.266 544.527ZM670.671 403.068C671.333 403.475 671.795 404.192 671.831 405.03L671.892 406.384C671.509 405.267 671.103 404.155 670.671 403.068Z" fill="#82B5B2"/>
</g>
<g id="CHARACTER">
<g id="Group_4">
<g id="Group_5">
<path id="Vector_7" d="M211.807 141.768C239.931 141.768 262.731 118.969 262.731 90.844C262.731 62.7194 239.931 39.9199 211.807 39.9199C183.682 39.9199 160.883 62.7194 160.883 90.844C160.883 118.969 183.682 141.768 211.807 141.768Z" fill="#FFC3BB"/>
</g>
<path id="Vector_8" fill-rule="evenodd" clip-rule="evenodd" d="M183.878 133.423C170.028 124.315 160.879 108.639 160.879 90.842C160.879 62.7366 183.698 39.918 211.803 39.918C218.141 39.918 224.21 41.0784 229.812 43.199L203.202 95.4662C201.216 92.0959 197.462 89.8212 193.163 89.8212C186.793 89.8212 181.621 94.8134 181.621 100.963C181.621 107.112 186.793 112.105 193.163 112.105C193.714 112.105 194.257 112.067 194.787 111.995L183.878 133.423Z" fill="#242C2C"/>
</g>
<g id="Group_6">
<path id="Vector_9" fill-rule="evenodd" clip-rule="evenodd" d="M197.968 657.175C171.647 659.495 139.118 659.629 100.884 654.728C74.9094 651.4 -11.8163 624.147 10.0891 510.828C14.4194 488.426 36.2154 433.063 128.859 428.248C155.898 426.839 344.842 405.1 420.536 488.53C422.017 490.169 423.93 492.355 426.08 495.179C451.785 506.844 526.106 547.117 523.27 621.845C523.27 621.845 517.398 705.549 408.773 741.632C400.745 759.612 391.321 778.801 380.311 799.235C380.311 799.235 405.063 805.854 411.336 819.767H220.348L231.78 783.581L219.901 786.386C219.788 798.968 208.013 811.526 197.968 820.586V657.175Z" fill="url(#paint0_linear_1419_158)"/>
<path id="Vector_10" fill-rule="evenodd" clip-rule="evenodd" d="M223.215 785.602L233.774 651.91C233.879 650.574 235.05 649.578 236.386 649.681C237.723 649.784 238.722 650.956 238.617 652.292L228.181 784.43L223.215 785.602Z" fill="#F27F71"/>
<path id="Vector_11" fill-rule="evenodd" clip-rule="evenodd" d="M255.297 645.607L278.63 641.089C278.63 641.089 287.203 613.422 293.085 594.434C293.442 593.28 292.889 592.041 291.794 591.537C290.698 591.033 289.399 591.422 288.757 592.442C276.016 612.688 255.297 645.607 255.297 645.607Z" fill="#F27F71"/>
<path id="Vector_12" fill-rule="evenodd" clip-rule="evenodd" d="M197.965 657.175C192.095 657.691 245.113 647.307 276.001 638.022C277.933 637.439 280.144 637.111 280.144 637.111C280.144 637.111 279.277 640.245 278.996 641.101L241.775 755.058L403.651 752.859C402.892 754.481 402.127 756.108 401.35 757.748L240.571 759.934C240.442 759.934 240.315 759.922 240.191 759.904L231.777 783.58L226.976 784.716L272.949 643.973C248.672 651.017 224.131 657.151 197.965 660.976V657.175ZM408.855 741.601C481.13 588.094 424.729 493.406 426.077 495.179C427.935 496.023 430.054 497.019 432.386 498.166C447.331 527.254 475.392 608.631 415.25 739.378C413.167 740.137 411.029 740.878 408.855 741.601Z" fill="#F27F71"/>
</g>
<g id="Group_7">
<path id="Vector_13" fill-rule="evenodd" clip-rule="evenodd" d="M153.838 154.826C266.199 156.025 346.379 171.347 440.102 178.957C468.418 181.257 533.296 197.494 518.121 255.785C512.364 277.901 492.313 293.275 469.462 293.098C429.869 292.792 375.788 292.374 375.788 292.374C375.788 292.374 418.684 328.867 507.992 330.161C507.992 330.161 606.446 338.507 615.676 338.881C631.987 339.542 641.745 339.794 650.696 340.306C652.621 340.42 654.321 341.598 655.105 343.359C655.888 345.121 655.627 347.172 654.425 348.679C652.566 350.991 648.826 353.604 641.8 356.248C628.975 361.075 618.937 361.494 609.075 364.398C609.816 362.749 625.088 377.134 634.033 386.368C635.812 388.231 636.45 390.906 635.709 393.371C634.962 395.836 632.946 397.709 630.432 398.274C628.501 398.713 626.169 398.81 623.382 398.314C628.689 403.49 622.489 412.07 605.79 403.642C601.405 401.431 599.893 400.818 588.617 393.848C588.617 393.848 592.218 400.32 594.331 404.121C594.89 405.129 595.011 406.326 594.653 407.425C594.301 408.524 593.505 409.429 592.461 409.921C590.141 411.001 586.479 411.348 581.038 408.5C572.768 404.182 567.144 401.808 561.983 399.682C557.222 397.723 551.811 398.169 547.439 400.879C529.41 412.01 473.106 437.915 366.485 413.582C366.485 413.582 302.607 405.135 219.081 351.094C216.859 342.292 113.031 464.786 20.9296 361.484C-15.3469 320.794 -22.8507 152.941 153.838 154.826Z" fill="#FFC3BB"/>
<path id="Vector_14" fill-rule="evenodd" clip-rule="evenodd" d="M588.761 394.093C572.498 372.52 561.027 372.031 561.027 372.031C559.692 372.01 558.617 370.904 558.641 369.564C558.659 368.223 559.764 367.152 561.106 367.174C561.106 367.174 576.61 367.055 596.952 397.226C597.335 397.8 597.444 398.481 597.311 399.107C595.228 397.891 592.501 396.246 588.621 393.85L588.761 394.093ZM623.386 398.315C623.568 398.494 601.142 378.956 598.325 375.889C588.73 365.437 581.71 360.546 577.059 358.303C573.579 356.623 571.381 356.59 571.296 356.589C571.326 356.586 571.357 356.582 571.381 356.577L571.296 356.589C570.009 356.756 568.806 355.869 568.594 354.574C568.375 353.252 569.274 352.002 570.598 351.784C570.598 351.784 580.818 349.647 601.908 372.602C605.041 376.017 620.368 390.536 630.989 398.128C630.807 398.184 630.624 398.233 630.436 398.275C628.505 398.714 626.173 398.811 623.386 398.315ZM578.31 336.021C582.767 336.384 587.066 336.732 591.068 337.052C594.517 339.518 598.052 342.845 601.252 347.331C603.48 350.455 607.834 356.799 615.613 362.775C613.621 363.2 611.654 363.664 609.699 364.219C603.213 358.607 599.381 353.072 597.299 350.151C591.038 341.374 583.35 337.616 578.31 336.021Z" fill="#F27F71"/>
</g>
<g id="Group_8">
<path id="Vector_15" fill-rule="evenodd" clip-rule="evenodd" d="M345.709 409.101C320.328 402.415 273.945 386.59 219.085 351.095C218.079 343.653 111.495 468.466 20.9335 361.484C-14.7893 319.284 -22.8469 152.942 153.842 154.826C266.202 156.025 346.383 171.347 440.106 178.957C468.422 181.257 533.3 197.494 518.125 255.785C512.368 277.901 492.317 293.275 469.466 293.099C429.873 292.793 375.792 292.374 375.792 292.374C375.792 292.374 406.348 318.37 469.569 327.258L455.384 423.608C439.401 423.948 421.305 422.964 400.993 420.038C384.263 416.716 365.08 412.915 345.709 409.101Z" fill="url(#paint1_linear_1419_158)"/>
<g id="Group_9">
<path id="Vector_16" fill-rule="evenodd" clip-rule="evenodd" d="M202.411 363.076C188.646 346.589 181.471 328.364 178.251 318.275C178.013 317.43 178.388 316.532 179.157 316.108C179.926 315.684 180.886 315.846 181.473 316.498C196.755 333.007 215.707 348.383 218.686 350.773C217.157 350.871 211.386 356.004 202.411 363.076ZM375.877 292.442L375.883 292.448L375.908 292.468L375.95 292.503L375.974 292.522L375.993 292.541L376.023 292.565L376.071 292.601L376.114 292.636L376.15 292.668L376.181 292.693L376.223 292.727L376.296 292.783L376.351 292.829L376.381 292.852L376.418 292.878L376.527 292.964L376.6 293.023L376.618 293.039L376.642 293.056L376.824 293.2L376.891 293.25L376.897 293.255C376.994 293.33 377.098 293.41 377.207 293.493L377.231 293.508L377.335 293.588L377.523 293.732L377.565 293.762C377.662 293.836 377.772 293.913 377.875 293.993L377.893 294.003L377.911 294.019C378.16 294.201 378.428 294.397 378.713 294.605L378.768 294.642L378.889 294.732L378.956 294.777L378.974 294.792L379.029 294.831L379.138 294.907L379.193 294.948L379.229 294.973L379.308 295.027L379.393 295.091L379.442 295.123L379.49 295.159L379.593 295.23L379.666 295.281L379.697 295.304L379.764 295.349L379.891 295.439L379.946 295.477L379.964 295.489L380.031 295.537L380.201 295.654L380.237 295.679C351.745 277.784 300.821 239.878 267.273 213.844C265.949 212.817 265.708 210.907 266.735 209.584C267.763 208.26 269.672 208.019 270.996 209.047C305.69 235.97 359.075 275.711 386.547 292.457L375.792 292.374L375.859 292.431L375.877 292.442ZM390.998 200.853L474.634 203.226C476.304 203.274 477.707 201.952 477.756 200.277C477.798 198.602 476.48 197.204 474.804 197.156L391.168 194.783C389.492 194.735 388.095 196.056 388.046 197.731C387.998 199.406 389.322 200.805 390.998 200.853Z" fill="#AC2310"/>
</g>
</g>
<path id="Vector_17" fill-rule="evenodd" clip-rule="evenodd" d="M306.495 210.122C294.266 182.1 236.836 158.293 236.836 158.293L260.127 160.175C286.027 171.944 305.145 192.403 312.664 201.321C315.531 201.705 322.665 202.793 322.781 204.108C322.928 205.755 323.922 233.407 323.922 233.407C323.831 233.452 323.74 233.496 323.65 233.539L324.453 233.591C338.801 260.145 333.58 297.784 354.059 320.406C360.544 327.569 369.028 334.3 378.306 337.383C389.085 340.962 400.277 340.798 411.462 340.141C414.42 339.968 421.603 339.444 425.216 339.178C426.558 339.08 427.852 339.679 428.647 340.763C431.744 344.99 439.669 355.814 443.525 361.074C444.776 362.78 444.606 365.141 443.124 366.65C437.811 372.058 425.775 384.313 421.682 388.473C420.796 389.377 419.527 389.791 418.276 389.584C415.907 389.22 412.136 388.607 410.721 388.199C402.493 385.823 394.38 383.037 386.468 379.757C363.83 370.379 339.894 355.595 330.037 332.225C324.278 318.573 323.407 304.003 323.47 289.387C323.525 276.502 325.032 262.944 322.342 250.225C321.297 245.279 318.972 240.646 316.679 236.179C316.626 236.076 316.414 235.732 316.146 235.283C305.351 234.896 300.363 221.111 300.363 221.111L306.495 210.122Z" fill="#242C2C"/>
<g id="Group_10">
<path id="Vector_18" fill-rule="evenodd" clip-rule="evenodd" d="M415.593 292.506L393.666 194.925C393.666 194.925 372.837 193.686 360.473 191.458C360.473 191.458 330.145 181.595 308.855 188.612C305.393 189.753 294.703 195.603 287.422 209.657C284.381 215.524 294.403 219.334 305.957 209.657C308.32 207.678 312.856 205.384 317.576 204.989C317.576 204.989 302.834 216.525 317.576 226.205C317.576 226.205 314.551 236.478 327.328 238.618C327.328 238.618 325.428 253.978 348.875 268.791C355.591 273.037 407.736 294.212 415.593 292.506Z" fill="#FFC3BB"/>
<path id="Vector_19" fill-rule="evenodd" clip-rule="evenodd" d="M323.164 237.439C325.112 231.82 329.4 228.462 333.536 226.498C338.319 224.226 342.848 223.865 342.848 223.865C344.184 223.755 345.356 224.75 345.465 226.086C345.574 227.423 344.578 228.597 343.242 228.707C343.242 228.707 339.567 229.081 335.621 230.886C329.467 233.7 327.325 238.619 327.325 238.619C325.693 238.346 324.319 237.94 323.164 237.439ZM314.057 223.33C316.697 218.747 320.799 215.783 324.954 213.902C331.768 210.818 338.656 210.688 338.656 210.688C339.997 210.661 341.107 211.727 341.133 213.067C341.16 214.408 340.094 215.518 338.754 215.545C338.754 215.545 332.826 215.671 326.958 218.328C323.229 220.016 317.573 226.205 317.573 226.205C316.134 225.26 314.976 224.298 314.057 223.33ZM309.219 207.521C309.262 207.11 309.412 206.704 309.674 206.346C317.208 196.052 333.736 195.388 333.736 195.388C335.076 195.345 336.199 196.397 336.243 197.737C336.287 199.076 335.235 200.2 333.894 200.244C333.894 200.244 328.775 200.419 323.281 202.46C320.145 203.625 317.573 204.99 317.573 204.99C314.536 205.243 311.574 206.284 309.219 207.521Z" fill="#F27F71"/>
</g>
<path id="Vector_20" fill-rule="evenodd" clip-rule="evenodd" d="M157.875 154.826C157.875 154.826 181.917 156.237 216.39 176.346C227.118 182.604 253.349 200.007 285.192 209.78C297.286 213.492 303.151 210.739 307.234 211.964L302.691 222.793C302.691 222.793 282.355 220.683 274.704 217.921C274.704 217.921 178.482 157.347 157.875 154.826Z" fill="#242C2C"/>
</g>
<g id="BOX-1">
<g id="Group_11">
<path id="Vector_21" d="M250.591 657.365H22.8008V819.963H250.591V657.365Z" fill="#FFD798"/>
</g>
<g id="Group_12">
<path id="Vector_22" fill-rule="evenodd" clip-rule="evenodd" d="M67.1308 819.969H62.2728V657.365H67.1308V819.969ZM173.787 657.365V741.682L159.731 731.662L145.843 741.682V657.365H173.787ZM53.9723 657.365V713.688L42.8456 696.739L35.207 703.905V657.365H53.9723Z" fill="#F8BB61"/>
</g>
</g>
<g id="COMPUTER">
<path id="Vector_23" fill-rule="evenodd" clip-rule="evenodd" d="M841.46 330.249H684.285V76.3359H1065.85V330.249H900.691V395.629H922.054V413.039H820.273V395.629H841.46V330.249Z" fill="#A3A8AE"/>
<path id="Vector_24" fill-rule="evenodd" clip-rule="evenodd" d="M1055.78 76.3359V330.249H890.623V395.629H911.986V413.039H820.273V395.629H841.46V330.249H684.285V76.3359H1055.78Z" fill="#E4E4E6"/>
<g id="Group_13">
<path id="Vector_25" d="M1038.21 95.7539H703.293V304.677H1038.21V95.7539Z" fill="white"/>
</g>
<path id="Vector_26" fill-rule="evenodd" clip-rule="evenodd" d="M890.714 395.101H898.936C898.505 395.48 897.94 395.71 897.327 395.71L841.551 395.101V390.852H890.714V395.101ZM890.714 335.145H841.551V330.287H890.714V335.145Z" fill="#A3A8AE"/>
</g>
<g id="CV">
<path id="Vector_27" d="M936.779 0.269531H746.465V233.444H936.779V0.269531Z" fill="#FFF3EB"/>
<g id="Group_14">
<g id="Group_15">
<path id="Vector_28" d="M890.19 75.1129C906.739 74.824 919.921 61.1743 919.632 44.6254C919.343 28.0765 905.693 14.8951 889.144 15.184C872.595 15.4729 859.414 29.1226 859.703 45.6715C859.992 62.2204 873.641 75.4017 890.19 75.1129Z" fill="#F27F71"/>
</g>
</g>
<path id="Vector_29" fill-rule="evenodd" clip-rule="evenodd" d="M912.288 206.637H781.243V214.082H912.288V206.637ZM912.288 190.876H781.243V198.322H912.288V190.876ZM912.288 175.581H781.243V183.026H912.288V175.581ZM907.126 154.76H765.461V166.853H907.126V154.76ZM912.288 132.29H781.243V139.735H912.288V132.29ZM912.288 116.529H781.243V123.975H912.288V116.529ZM912.288 101.234H781.243V108.679H912.288V101.234ZM865.845 74.79H765.461V86.8834H865.845V74.79ZM848.132 52.3102H768.837V57.7148H848.132V52.3102ZM827.795 41.6415H768.837V47.0466H827.795V41.6415ZM843.511 30.2003H768.837V35.6048H843.511V30.2003ZM851.739 19.0967H768.837V24.5018H851.739V19.0967Z" fill="#F27F71"/>
<g id="Group_16">
<g id="Group_17">
<path id="Vector_30" d="M881.054 54.4272C883.865 56.4725 887.072 57.3811 890.728 57.2434C895.08 56.9775 897.134 55.3385 897.032 52.3191C896.872 49.861 895.324 48.4501 892.387 48.0862C891.017 47.9692 889.554 47.8568 887.946 47.7052C885.06 47.3853 882.789 46.4296 881.185 44.8818C879.531 43.2901 878.649 41.2872 878.493 38.8755C878.306 36 879.091 33.6338 880.944 31.7723C882.702 29.9155 885.314 28.8998 888.73 28.6811C892.903 28.5638 896.585 29.5416 899.77 31.568L897.229 35.8373C894.641 34.3391 891.821 33.5972 888.821 33.7018C887.276 33.7797 885.989 34.2168 885.01 35.0572C883.984 35.8999 883.5 37.1341 883.556 38.7133C883.619 39.6873 884.048 40.5032 884.849 41.2539C885.649 42.0046 886.9 42.4534 888.56 42.6954C889.459 42.7897 890.735 42.9115 892.34 43.0168C895.504 43.2761 897.871 44.2735 899.487 46.0068C901.054 47.696 901.936 49.6989 902.089 52.0642C902.359 58.3788 898.633 61.7772 891.006 62.2547C886.089 62.5025 881.729 61.1867 877.974 58.3515L881.054 54.4272Z" fill="#FFC3BB"/>
</g>
<g id="Group_18">
<path id="Vector_31" fill-rule="evenodd" clip-rule="evenodd" d="M888.014 24.5067L887.141 66.0289L892.926 66.029L892.926 24.5067L888.014 24.5067Z" fill="#FFC3BB"/>
</g>
</g>
</g>
<g id="MAIL">
<path id="Vector_32" d="M1024.28 178.986H871.484V267.769H1024.28V178.986Z" fill="#A8CFCC"/>
<path id="Vector_33" fill-rule="evenodd" clip-rule="evenodd" d="M1024.28 184.812L949.243 235.456C948.417 236.01 947.342 236.01 946.522 235.456L871.484 184.831V178.986H871.503L947.883 230.512L1024.23 178.986H1024.28V184.812Z" fill="#82B5B2"/>
</g>
<g id="CURSER">
<path id="Vector_34" fill-rule="evenodd" clip-rule="evenodd" d="M839.753 292.406L828.419 279.494L842.764 266.901L832.24 254.912L885.323 240.974L864.623 291.803L854.098 279.813L839.753 292.406Z" fill="#F27F71"/>
</g>
</g>
<g id="Parallax_2">
<g id="CLOCK">
<g id="Group_19">
<path id="Vector_35" d="M841.102 660.423C868.328 660.423 890.399 631.73 890.399 596.335C890.399 560.941 868.328 532.248 841.102 532.248C813.876 532.248 791.805 560.941 791.805 596.335C791.805 631.73 813.876 660.423 841.102 660.423Z" fill="white"/>
</g>
<g id="Group_20">
<path id="Vector_36" fill-rule="evenodd" clip-rule="evenodd" d="M841.43 525.205V536.312C815.28 536.822 794.806 563.826 794.806 596.387C794.806 628.942 815.28 655.946 841.43 656.456V667.569C809.84 667.071 783.695 635.652 783.695 596.387C783.695 557.116 809.84 525.697 841.43 525.205Z" fill="#242C2C"/>
</g>
<path id="Vector_37" fill-rule="evenodd" clip-rule="evenodd" d="M841.426 525.204L842.209 525.18C874.144 525.18 900.724 556.793 900.724 596.386C900.724 635.979 874.144 667.592 842.209 667.592L841.426 667.568V656.455L842.209 656.485C868.734 656.485 889.611 629.268 889.611 596.386C889.611 563.503 868.734 536.286 842.209 536.286L841.426 536.311V525.204Z" fill="#242C2C"/>
<path id="Vector_38" fill-rule="evenodd" clip-rule="evenodd" d="M842.703 594.91C845.496 594.91 847.767 597.175 847.767 599.975C847.767 602.768 845.496 605.039 842.703 605.039C839.903 605.039 837.632 602.768 837.632 599.975C837.632 597.175 839.903 594.91 842.703 594.91ZM851.405 588.267L868.456 555.251C869.07 554.061 868.602 552.591 867.412 551.978C866.216 551.365 864.752 551.832 864.139 553.022L847.087 586.038C846.468 587.229 846.935 588.698 848.132 589.312C849.322 589.925 850.785 589.457 851.405 588.267ZM828.797 561.087L835.282 586.676C835.61 587.976 836.928 588.759 838.233 588.431C839.533 588.103 840.316 586.779 839.988 585.48L833.509 559.896C833.181 558.591 831.857 557.807 830.558 558.135C829.258 558.463 828.469 559.787 828.797 561.087Z" fill="#242C2C"/>
</g>
<g id="GREEN-NOTEBOOK">
<g id="Group_21">
<path id="Vector_39" d="M1146.91 562.461L1080.04 528.128L1034.85 616.138L1101.72 650.472L1146.91 562.461Z" fill="#A8CFCC"/>
</g>
<path id="Vector_40" fill-rule="evenodd" clip-rule="evenodd" d="M1100.14 638.901L1111.5 644.724C1112.69 645.338 1114.16 644.864 1114.77 643.674C1115.38 642.478 1114.91 641.014 1113.71 640.401L1102.36 634.577C1101.16 633.97 1099.7 634.438 1099.09 635.634C1098.48 636.824 1098.95 638.294 1100.14 638.901ZM1107.17 625.195L1118.53 631.013C1119.72 631.626 1121.19 631.152 1121.8 629.962C1122.41 628.772 1121.94 627.302 1120.75 626.695L1109.39 620.872C1108.19 620.258 1106.73 620.732 1106.12 621.922C1105.5 623.112 1105.98 624.582 1107.17 625.195ZM1114.2 611.484L1125.56 617.307C1126.75 617.914 1128.22 617.447 1128.83 616.25C1129.44 615.06 1128.97 613.597 1127.77 612.983L1116.42 607.16C1115.22 606.547 1113.76 607.02 1113.14 608.211C1112.54 609.407 1113.01 610.87 1114.2 611.484ZM1121.23 597.772L1132.59 603.595C1133.78 604.209 1135.25 603.735 1135.86 602.539C1136.47 601.349 1135.99 599.885 1134.8 599.272L1123.44 593.448C1122.25 592.835 1120.79 593.309 1120.18 594.499C1119.56 595.695 1120.04 597.159 1121.23 597.772ZM1128.26 584.06L1139.62 589.884C1140.81 590.497 1142.27 590.023 1142.89 588.827C1143.5 587.637 1143.03 586.173 1141.84 585.56L1130.47 579.737C1129.28 579.123 1127.82 579.597 1127.21 580.787C1126.59 581.983 1127.07 583.447 1128.26 584.06ZM1135.1 570.719L1146.46 576.542C1147.65 577.156 1149.11 576.682 1149.72 575.492C1150.34 574.302 1149.86 572.832 1148.67 572.225L1137.31 566.401C1136.12 565.788 1134.65 566.262 1134.05 567.452C1133.43 568.642 1133.91 570.112 1135.1 570.719Z" fill="#242C2C"/>
</g>
<g id="RED-NOTEBOOK">
<path id="Vector_41" fill-rule="evenodd" clip-rule="evenodd" d="M927.313 542.075L1030.3 566.516L1024.82 581.873L927.313 542.075Z" fill="white"/>
<path id="Vector_42" d="M1032.56 577.416L925.125 539.076L876.369 675.699L983.802 714.038L1032.56 577.416Z" fill="#F27F71"/>
<g id="Group_22">
<path id="Vector_43" fill-rule="evenodd" clip-rule="evenodd" d="M1025.5 567.543L926.766 544.674C925.46 544.37 924.647 543.065 924.944 541.753C925.248 540.448 926.553 539.634 927.859 539.938L1029.21 563.414C1029.88 563.572 1030.45 564.003 1030.78 564.598C1031.12 565.199 1031.18 565.91 1030.96 566.566L1025.43 582.828C1025 584.097 1023.62 584.777 1022.35 584.346C1021.08 583.915 1020.4 582.53 1020.84 581.261L1025.5 567.543Z" fill="#F27F71"/>
</g>
</g>
<g id="DOCUMENT">
<path id="Vector_44" d="M1112.09 582.681H977.156V743.948H1112.09V582.681Z" fill="white"/>
<path id="Vector_45" fill-rule="evenodd" clip-rule="evenodd" d="M1099.85 725.598H988.301V732.812H1099.85V725.598ZM1099.85 712.378H988.301V719.592H1099.85V712.378ZM1099.85 699.158H988.301V706.372H1099.85V699.158ZM1099.85 685.938H988.301V693.152H1099.85V685.938ZM1099.85 672.718H988.301V679.932H1099.85V672.718ZM1099.85 659.498H988.301V666.712H1099.85V659.498ZM1099.85 646.278H988.301V653.493H1099.85V646.278ZM1099.85 633.059H988.301V640.273H1099.85V633.059ZM1099.85 619.839H988.301V627.053H1099.85V619.839ZM1099.85 606.619H988.301V613.833H1099.85V606.619ZM1099.85 593.381H988.301V600.595H1099.85V593.381Z" fill="#242C2C"/>
<path id="Vector_46" fill-rule="evenodd" clip-rule="evenodd" d="M979.585 741.519H1045.09C1046.43 741.519 1047.52 742.606 1047.52 743.948C1047.52 745.29 1046.43 746.377 1045.09 746.377H977.156C975.814 746.377 974.727 745.29 974.727 743.948V582.681C974.727 581.339 975.814 580.252 977.156 580.252H1041.66C1043 580.252 1044.09 581.339 1044.09 582.681C1044.09 584.023 1043 585.11 1041.66 585.11H979.585V741.519Z" fill="#242C2C"/>
<path id="Vector_47" fill-rule="evenodd" clip-rule="evenodd" d="M1109.66 585.11H1041.67C1040.33 585.11 1039.24 584.023 1039.24 582.681C1039.24 581.339 1040.33 580.252 1041.67 580.252H1112.09C1113.43 580.252 1114.52 581.339 1114.52 582.681V743.948C1114.52 745.29 1113.43 746.377 1112.09 746.377H1045.1C1043.76 746.377 1042.67 745.29 1042.67 743.948C1042.67 742.606 1043.76 741.519 1045.1 741.519H1109.66V585.11Z" fill="#242C2C"/>
</g>
<g id="BOX">
<g id="Group_23">
<path id="Vector_48" d="M1136.18 604.454H775.539V819.965H1136.18V604.454Z" fill="#FFD798"/>
</g>
<path id="Vector_49" fill-rule="evenodd" clip-rule="evenodd" d="M996.601 604.455V700.874L985.233 691.929L974.582 700.874L963.773 691.929L953.45 700.874L943.958 691.929L934.012 700.874V604.455H996.601Z" fill="#F8BB61"/>
</g>
</g>
</g>
<defs>
<linearGradient id="paint0_linear_1419_158" x1="243.778" y1="491.475" x2="772.444" y2="678.232" gradientUnits="userSpaceOnUse">
<stop stop-color="#FFC3BB"/>
<stop offset="1" stop-color="#F27F71"/>
</linearGradient>
<linearGradient id="paint1_linear_1419_158" x1="158.427" y1="188.287" x2="-151.305" y2="369.996" gradientUnits="userSpaceOnUse">
<stop stop-color="#F27F71"/>
<stop offset="0.58" stop-color="#EC6E5F"/>
<stop offset="0.8" stop-color="#E04B39"/>
<stop offset="1" stop-color="#D52914"/>
</linearGradient>
</defs>
</svg>
