<svg width="1150" height="876" viewBox="0 0 1150 876" fill="none" xmlns="http://www.w3.org/2000/svg">
<g id="Illustrazione_2">
<g id="CHART-POSTER-2">
<g id="Group">
<path id="Vector" d="M1046.44 500.096H627.078V839.504H1046.44V500.096Z" fill="#FFAFA4"/>
<path id="Vector_2" fill-rule="evenodd" clip-rule="evenodd" d="M748.2 655.767H682.535V798.319H748.2V655.767ZM1005.79 662.53H940.123V798.319H1005.79V662.53ZM919.93 624.496H854.258V798.319H919.93V624.496ZM834.065 575.822H768.393V798.319H834.065V575.822ZM987.313 640.169H957.748V656.314H987.313V640.169ZM728.888 633.894H699.323V650.032H728.888V633.894ZM901.877 603.674H872.312V619.82H901.877V603.674ZM814.949 553.883H785.391V570.029H814.949V553.883Z" fill="#FFF1E2"/>
</g>
<path id="Vector_3" fill-rule="evenodd" clip-rule="evenodd" d="M871.952 772.59L1000.99 633.109C1002.83 631.118 1005.92 631.022 1007.89 632.894C1009.85 634.774 1009.94 637.919 1008.1 639.909L875.045 783.734C874.048 784.807 872.636 785.376 871.196 785.287C869.748 785.199 868.409 784.459 867.557 783.267L775.1 655.13L676.391 788.588C674.768 790.778 671.712 791.222 669.558 789.572C667.404 787.929 666.968 784.814 668.59 782.624L771.243 643.823C772.174 642.565 773.63 641.833 775.172 641.84C776.715 641.848 778.163 642.603 779.08 643.868L871.952 772.59Z" fill="#DC5D3C"/>
</g>
<g id="Parallax_2">
<path id="Vector_4" fill-rule="evenodd" clip-rule="evenodd" d="M808.717 182.515C808.206 181.08 807.929 179.535 807.929 177.925C807.929 170.381 814.052 164.256 821.601 164.256C829.144 164.256 835.273 170.381 835.273 177.925C835.273 185.469 829.144 191.594 821.601 191.594C819.765 191.594 818.018 191.232 816.415 190.576L679.573 350.537C680.45 352.339 680.943 354.363 680.943 356.501C680.943 364.045 674.814 370.17 667.271 370.17C659.723 370.17 653.599 364.045 653.599 356.501C653.599 356.128 653.61 355.758 653.644 355.392L640.61 346.35C638.291 348.148 635.385 349.22 632.229 349.22C630.698 349.22 629.228 348.969 627.858 348.507L489.619 530.634C490.04 531.954 490.268 533.357 490.268 534.815C490.268 542.356 484.145 548.483 476.596 548.483C469.047 548.483 462.924 542.356 462.924 534.815C462.924 534.078 462.979 533.357 463.09 532.658L377.88 447.279C375.978 448.283 373.809 448.854 371.508 448.854C370.132 448.854 368.801 448.649 367.547 448.266L219.159 679.207C220.369 681.248 221.065 683.626 221.065 686.171C221.065 693.712 214.938 699.839 207.392 699.839C199.845 699.839 193.719 693.712 193.719 686.171C193.719 678.625 199.845 672.498 207.392 672.498C208.323 672.498 209.231 672.592 210.11 672.77L359.089 440.908C358.285 439.167 357.836 437.227 357.836 435.186C357.836 427.64 363.964 421.513 371.508 421.513C379.056 421.513 385.185 427.64 385.185 435.186C385.185 436.323 385.041 437.432 384.78 438.491L469.347 523.227C471.449 521.907 473.934 521.147 476.596 521.147C478.532 521.147 480.373 521.546 482.042 522.273L619.666 340.955C618.951 339.298 618.551 337.47 618.551 335.551C618.551 328.007 624.68 321.882 632.229 321.882C639.772 321.882 645.901 328.007 645.901 335.551C645.901 335.87 645.89 336.187 645.868 336.501L659.007 345.615C661.303 343.869 664.165 342.832 667.271 342.832C668.602 342.832 669.889 343.023 671.104 343.377L808.717 182.515Z" fill="#FFAFA4"/>
</g>
<g id="Parallax_2_2">
<path id="Vector_5" d="M534.787 66.2676H100.277V394.396H534.787V66.2676Z" fill="#FFF1E2"/>
<path id="Vector_6" fill-rule="evenodd" clip-rule="evenodd" d="M187.456 121.718H157.891V362.436H187.456V121.718ZM246.119 100.232H216.554V362.309H246.119V100.232ZM304.782 155.232H275.217V362.17H304.782V155.232ZM363.447 121.09H333.88V362.019H363.447V121.09ZM422.111 188.031H392.546V361.854H422.111V188.031ZM480.769 236.617H451.204V361.675H480.769V236.617Z" fill="#FFAFA4" fill-opacity="0.64"/>
</g>
<g id="Parallax_2_3">
<g id="UP-ARROW">
<path id="Vector_7" fill-rule="evenodd" clip-rule="evenodd" d="M597.237 736.998H538.167V658.455H497.738L567.702 557.029L637.666 658.455H597.237V736.998Z" fill="#E5734E"/>
</g>
<g id="DOWN-ARROW">
<path id="Vector_8" fill-rule="evenodd" clip-rule="evenodd" d="M976.452 261.5L917.382 261.5L917.382 182.957L876.953 182.957L946.917 81.5311L1016.88 182.957L976.452 182.957L976.452 261.5Z" fill="#FFB000"/>
</g>
</g>
<g id="Parallax_2_4">
<g id="DOLLAR-">
<g id="Group_2">
<path id="Vector_9" d="M770.321 546.36C824.694 546.36 868.771 501.539 868.771 446.248C868.771 390.958 824.694 346.136 770.321 346.136C715.949 346.136 671.871 390.958 671.871 446.248C671.871 501.539 715.949 546.36 770.321 546.36Z" fill="#FFCD80"/>
</g>
<g id="Group_3">
<g id="Group_4">
<path id="Vector_10" fill-rule="evenodd" clip-rule="evenodd" d="M747.338 377.952L743.717 379.265L741.925 374.154L748.242 371.863C749.739 371.321 751.347 372.027 751.842 373.438L754.873 382.083C760.485 380.313 766.086 379.23 771.666 378.832C778.795 378.321 785.9 378.927 792.972 380.647C793.772 380.837 794.422 381.364 794.762 382.078C795.094 382.795 795.085 383.629 794.725 384.369L786.753 400.763C786.151 401.997 784.734 402.671 783.393 402.357C776.445 400.734 769.327 400.791 762.04 402.522L772.14 431.327C800.062 427.1 816.741 434.378 822.591 452.199C825.809 461.865 824.82 471.197 819.658 480.153C815.015 488.545 807.381 495.634 796.692 501.35L801.9 516.203C802.394 517.612 801.587 519.19 800.09 519.733L793.888 521.982L792.098 516.876L795.604 515.605L790.509 501.074C790.055 499.78 790.693 498.324 791.999 497.678C802.636 492.393 810.218 485.785 814.688 477.714C819.065 470.12 819.879 462.242 817.16 454.069C811.897 438.036 796.207 432.72 770.544 437.094C769.19 437.321 767.902 436.6 767.473 435.376L755.656 401.673C755.409 400.969 755.484 400.184 755.856 399.502C756.229 398.825 756.871 398.309 757.633 398.088C766.171 395.553 774.506 395.042 782.627 396.547L788.119 385.256C782.707 384.227 777.28 383.899 771.829 384.293C765.875 384.716 759.91 385.993 753.915 388.111C752.429 388.637 750.836 387.929 750.344 386.525L747.338 377.952ZM789.445 480.681C792.975 478.133 795.29 475.509 796.261 472.725C796.85 470.942 797.088 469.09 796.978 467.172L802.667 466.642C802.803 469.239 802.469 471.749 801.661 474.208C800.066 478.769 796.034 483.185 789.334 487.245C788.595 487.692 787.698 487.807 786.892 487.552C786.093 487.294 785.467 486.696 785.197 485.926L778.864 467.862L784.263 465.904L789.445 480.681ZM734.553 419.123C734.69 416.47 735.252 414.099 736.207 412.011C736.23 411.96 736.259 411.906 736.282 411.855C738.576 407.545 741.964 404.311 746.431 402.156C747.163 401.804 748.012 401.761 748.751 402.035C749.493 402.313 750.061 402.889 750.314 403.61L755.501 418.403L750.101 420.361L746.011 408.697C744.083 410.122 742.538 411.919 741.368 414.091C740.696 415.591 740.332 417.292 740.232 419.193C740.233 419.242 740.227 419.294 740.22 419.345C740.005 421.356 740.358 423.573 741.207 425.992L735.807 427.95C734.683 424.744 734.286 421.799 734.553 419.123Z" fill="#FDA31F"/>
</g>
<g id="Group_5">
<path id="Vector_11" fill-rule="evenodd" clip-rule="evenodd" d="M743.588 437.198C739.921 435.29 737.306 432.225 735.807 427.949L741.207 425.991C742.235 428.924 743.972 431.064 746.49 432.367L746.58 432.414C748.593 433.555 751.358 434.03 754.871 433.963L750.101 420.36L755.501 418.402L761.481 435.456C761.758 436.248 761.63 437.138 761.136 437.865C760.646 438.584 759.838 439.068 758.958 439.159C752.15 439.867 747.043 439.127 743.588 437.198Z" fill="#FDA31F"/>
</g>
<g id="Group_6">
<path id="Vector_12" fill-rule="evenodd" clip-rule="evenodd" d="M779.969 453.678L784.256 465.904L778.857 467.862L773.482 452.534C773.22 451.786 773.318 450.95 773.747 450.247C774.184 449.54 774.905 449.039 775.727 448.876C783.675 447.306 789.512 447.781 793.279 449.88L793.363 449.936C797.114 452.22 799.746 455.475 801.236 459.724C802.069 462.099 802.537 464.41 802.66 466.642L796.971 467.172C796.878 465.396 796.497 463.565 795.836 461.681C794.766 458.629 792.898 456.278 790.218 454.627C787.856 453.33 784.436 453.08 779.969 453.678Z" fill="#FDA31F"/>
</g>
<g id="Group_7">
<path id="Vector_13" fill-rule="evenodd" clip-rule="evenodd" d="M762.793 456.564C735.858 460.377 719.91 453.185 714.513 435.957C711.132 425.618 711.796 416.336 716.318 408.111C720.458 400.584 727.915 393.898 738.813 388.174L735.698 379.289C735.204 377.878 736.009 376.296 737.498 375.756L741.922 374.152L743.714 379.263L741.994 379.887L745 388.46C745.456 389.76 744.812 391.224 743.498 391.867C732.692 397.182 725.253 403.338 721.318 410.495C717.488 417.466 717.086 425.336 719.96 434.136C724.793 449.569 739.772 454.785 764.422 450.821C765.764 450.606 767.042 451.324 767.467 452.536L779.853 487.861C780.106 488.582 780.02 489.383 779.634 490.07C779.24 490.761 778.571 491.268 777.789 491.478C770.82 493.328 764.593 493.973 759.13 493.449C754.397 493.195 749.95 492.364 745.78 490.952L738.328 502.948C744.498 504.49 751.027 505.311 757.894 505.425C765.883 505.483 773.782 504.145 781.601 501.421C783.091 500.905 784.674 501.611 785.165 503.009L790.26 517.54L792.096 516.874L793.886 521.98L789.346 523.626C787.857 524.166 786.25 523.462 785.756 522.054L780.632 507.441C773.021 509.807 765.341 510.954 757.572 510.896C748.862 510.755 740.704 509.54 733.071 507.267C732.27 507.028 731.633 506.44 731.348 505.676C731.057 504.913 731.152 504.048 731.6 503.325L742.22 486.236C742.968 485.023 744.528 484.5 745.838 485.029C750.115 486.746 754.761 487.727 759.757 487.989L759.89 487.997C763.94 488.393 768.459 488.035 773.446 486.947L762.793 456.564Z" fill="#FDA31F"/>
</g>
</g>
</g>
<g id="MAGNIFYING-GLASS">
<g id="Group_8">
<path id="Vector_14" fill-rule="evenodd" clip-rule="evenodd" d="M791.084 558.899C783.771 560.43 776.189 561.237 768.432 561.237C761.999 561.237 756.789 555.931 756.789 549.398C756.789 542.864 761.999 537.558 768.432 537.558C817.324 537.558 857.018 497.194 857.018 447.477C857.018 397.758 817.324 357.393 768.432 357.393C761.999 357.393 756.789 352.089 756.789 345.554C756.789 339.02 761.999 333.715 768.432 333.715C830.175 333.715 880.304 384.689 880.304 447.477C880.304 494.012 852.762 534.058 813.365 551.669L886.351 726.742C888.861 732.758 886.096 739.713 880.18 742.259C874.264 744.812 867.424 742 864.914 735.984L791.084 558.899Z" fill="#DC5D3C"/>
<g id="Group_9">
<path id="Vector_15" fill-rule="evenodd" clip-rule="evenodd" d="M768.431 537.555C719.539 537.555 679.844 497.191 679.844 447.474C679.844 397.758 719.539 357.393 768.431 357.393C774.856 357.393 780.073 352.088 780.073 345.554C780.073 339.02 774.856 333.715 768.431 333.715C706.688 333.715 656.559 384.689 656.559 447.474C656.559 510.259 706.688 561.234 768.431 561.234C774.856 561.234 780.073 555.928 780.073 549.395C780.073 542.861 774.856 537.555 768.431 537.555Z" fill="#DC5D3C"/>
</g>
</g>
</g>
<g id="BOY">
<path id="Vector_16" fill-rule="evenodd" clip-rule="evenodd" d="M925.197 597.473C925.197 597.473 918.932 573.543 921.005 543.035C923.931 500.125 950.934 462.787 990.345 447.16C1029.75 431.535 1074.49 440.428 1105.2 469.994C1112.3 476.854 1118.76 484.912 1124.21 494.391C1150.96 541.008 1159.63 592.397 1137.1 643.173C1137.1 643.173 1151.62 740.129 1130.71 810.017C1120.15 845.121 1090.22 870.575 1054.38 874.926C1053.17 875.089 1051.96 875.229 1050.73 875.377C1018 879.351 985.892 864.1 967.875 836.034C932.794 781.381 878.837 697.323 878.837 697.323C878.837 697.323 848.304 700.023 836.508 701.067C832.288 701.451 828.511 698.425 827.893 694.163C827.551 691.61 828.337 688.798 831.924 686.416C831.924 686.416 828.133 686.386 825.164 685.654C820.478 684.507 818.6 680.429 818.397 676.064C818.207 671.957 819.401 667.214 824.895 664.432C817.974 665.756 811.265 661.265 809.737 654.28C809.672 653.998 809.614 653.732 809.563 653.48C809.002 650.942 809.359 648.286 810.56 645.992C811.695 643.809 813.652 641.419 816.999 639.976C816.999 639.976 813.739 638.948 810.218 637.838C805.131 636.232 801.66 631.452 801.66 626.036V626.028C801.66 621.226 804.513 616.89 808.886 615.055C818.382 611.052 833.896 604.525 833.896 604.525C833.896 604.525 813.914 578.612 822.224 570.998C823.701 569.644 826.998 568.859 836.69 577.251C840.35 580.418 854.562 584.465 872.542 581.957C872.542 581.957 896.068 581.809 925.197 597.473ZM946.823 318.633C977.393 318.633 1002.21 343.872 1002.21 374.96C1002.21 406.048 977.393 431.288 946.823 431.288C916.246 431.288 891.426 406.048 891.426 374.96C891.426 343.872 916.246 318.633 946.823 318.633Z" fill="#A8CFCC"/>
<path id="Vector_17" fill-rule="evenodd" clip-rule="evenodd" d="M876.964 697.493L889.102 696.102C890.696 695.917 892.136 697.086 892.318 698.714C892.5 700.334 891.35 701.799 889.75 701.984L882.371 702.828L878.842 697.323L876.964 697.493ZM819.886 681.702L854.952 678.409C856.553 678.254 857.972 679.453 858.118 681.081C858.271 682.709 857.092 684.151 855.491 684.299L831.762 686.527C831.812 686.49 831.871 686.453 831.929 686.416C831.929 686.416 828.138 686.386 825.169 685.653C822.658 685.039 820.956 683.589 819.886 681.702ZM813.599 661.117C813.861 660.961 814.159 660.843 814.472 660.769L846.955 653.651C848.52 653.303 850.07 654.324 850.412 655.922C850.746 657.513 849.75 659.089 848.178 659.437L824.536 664.624C824.652 664.557 824.776 664.491 824.9 664.432C820.679 665.238 816.539 663.884 813.599 661.117ZM807.727 636.728L842.378 625.873C843.914 625.392 845.544 626.265 846.017 627.826C846.49 629.387 845.624 631.045 844.088 631.526L816.721 640.102C816.815 640.058 816.91 640.013 817.004 639.976C817.004 639.976 813.744 638.948 810.223 637.838C809.342 637.557 808.505 637.187 807.727 636.728ZM830.386 599.59L842.509 594.491C843.994 593.862 845.696 594.58 846.315 596.09C846.926 597.607 846.22 599.338 844.736 599.96L833.894 604.518C833.799 604.392 832.329 602.475 830.386 599.59Z" fill="#82B5B2"/>
<path id="Vector_18" fill-rule="evenodd" clip-rule="evenodd" d="M924.929 596.356C923.743 591.31 919.195 569.681 921.007 543.035C923.932 500.125 950.936 462.787 990.347 447.159C1029.75 431.535 1074.49 440.428 1105.2 469.994C1112.3 476.854 1118.77 484.912 1124.21 494.391C1150.96 541.008 1159.63 592.397 1137.1 643.173C1137.1 643.173 1151.62 740.129 1130.71 810.017C1120.16 845.121 1090.22 870.575 1054.38 874.926C1053.17 875.089 1051.96 875.229 1050.73 875.377C1018 879.351 985.893 864.1 967.876 836.034L943.856 798.615L1025.52 701.562C982.83 633.983 936.332 603.23 924.929 596.356Z" fill="url(#paint0_linear_1410_4)"/>
<path id="Vector_19" fill-rule="evenodd" clip-rule="evenodd" d="M1025.21 701.074C1025.35 701.215 1025.49 701.385 1025.61 701.563L1078.36 782.528C1079.24 783.897 1078.88 785.732 1077.54 786.635C1076.2 787.538 1074.4 787.16 1073.51 785.799L1021.64 706.18L1025.52 701.563L1025.21 701.074ZM1137.61 646.917L1137.74 647.968L1137.58 648.308C1137.58 648.308 1125.93 582.356 1109.22 531.936C1108.82 530.893 1109.28 529.716 1110.27 529.243C1111.26 528.762 1112.45 529.146 1112.99 530.116C1121.89 547.69 1134.1 573.995 1147.62 609.394C1147.43 610.445 1147.22 611.496 1147.01 612.539L1147 612.576L1146.9 613.064L1146.89 613.109L1146.78 613.605L1146.77 613.634C1146.55 614.677 1146.31 615.721 1146.07 616.757L1146.06 616.794L1145.94 617.267L1145.93 617.341L1145.82 617.8L1145.79 617.889L1145.68 618.34L1145.66 618.422L1145.54 618.888L1145.54 618.917C1145.36 619.598 1145.18 620.279 1145 620.967L1144.98 621.011L1144.87 621.448L1144.83 621.574L1144.72 621.973L1144.68 622.129L1144.57 622.521L1144.52 622.684L1144.41 623.069L1144.37 623.231L1144.25 623.623L1144.22 623.757L1144.09 624.171C1144.04 624.349 1143.99 624.526 1143.93 624.704L1143.8 625.163L1143.77 625.237L1143.67 625.607L1143.61 625.799L1143.5 626.139L1143.43 626.361L1143.33 626.687L1143.26 626.924L1143.16 627.242L1143.08 627.486L1142.97 627.804L1142.89 628.048L1142.79 628.359L1142.71 628.611L1142.61 628.921L1142.51 629.217L1142.44 629.454L1142.34 629.721L1142.25 630.009L1142.15 630.29L1142.05 630.579L1141.96 630.853L1141.85 631.141L1141.76 631.415L1141.66 631.711L1141.56 631.977L1141.45 632.281L1141.36 632.54L1141.25 632.858L1141.16 633.102L1141.02 633.472L1140.95 633.665L1140.75 634.22L1140.67 634.405L1140.54 634.782L1140.45 635.011L1140.33 635.344L1140.23 635.588L1140.11 635.914L1140.01 636.158L1139.89 636.484L1139.79 636.728L1139.66 637.061L1139.57 637.29L1139.42 637.653L1139.34 637.853L1139.15 638.319L1139.12 638.415L1138.88 638.978L1138.82 639.148L1138.65 639.54L1138.56 639.762L1138.42 640.11L1138.32 640.339L1138.18 640.672L1138.08 640.909L1137.94 641.249L1137.84 641.479L1137.69 641.826L1137.6 642.041L1137.43 642.426L1137.35 642.603L1137.1 643.173L1137.15 643.469L1137.15 643.565L1137.2 643.839L1137.21 643.972L1137.27 644.364L1137.29 644.512L1137.36 645.038L1137.38 645.193L1137.47 645.859L1137.49 645.992L1137.6 646.836L1137.61 646.917ZM952.499 616.505C952.499 616.505 949.727 594.714 945.994 530.671C945.906 529.243 946.874 528.799 947.405 528.68C948.351 528.466 949.072 529.087 949.159 529.635L964.768 627.382C960.453 623.35 956.349 619.731 952.499 616.505Z" fill="#28625E"/>
<path id="Vector_20" fill-rule="evenodd" clip-rule="evenodd" d="M903.668 339.656C913.826 326.839 929.384 318.633 946.819 318.633C977.388 318.633 1002.21 343.872 1002.21 374.96C1002.21 392.55 994.263 408.267 981.827 418.598L962.493 399.07C964.552 398.921 966.677 398.366 968.736 397.37C976.02 393.843 977.89 384.571 975.089 378.585C972.28 372.6 964.094 370.604 956.817 374.131C952.094 376.419 950.661 382.022 949.773 386.222L903.668 339.656Z" fill="#242C2C"/>
</g>
</g>
<g id="Parallax_2_5">
<g id="WORLD">
<g id="Group_10">
<path id="Vector_21" d="M415.771 495.259C470.143 495.259 514.221 450.437 514.221 395.147C514.221 339.857 470.143 295.035 415.771 295.035C361.398 295.035 317.32 339.857 317.32 395.147C317.32 450.437 361.398 495.259 415.771 495.259Z" fill="#A8CFCC"/>
</g>
<path id="Vector_22" fill-rule="evenodd" clip-rule="evenodd" d="M319.817 372.662C320.529 372.337 321.399 372.149 322.45 372.338C324.523 372.71 325.995 374.514 326.056 376.573C326.745 377.816 328.605 381.065 330.823 384.128C336.06 391.362 344.894 401.754 357.127 412.36C362.73 387.983 373.455 367.656 385.316 351.359C367.801 337.617 358.167 324.958 356.21 322.541C354.674 320.65 354.944 317.85 356.799 316.29C358.662 314.732 361.412 315.001 362.948 316.892C364.818 319.197 373.994 331.248 390.687 344.329C413.434 315.962 438.073 301.84 438.073 301.84C440.168 300.637 442.832 301.392 444.018 303.527C445.204 305.661 444.462 308.371 442.359 309.575C442.359 309.575 419.182 322.863 397.694 349.548C414.336 361.314 436.967 372.989 465.739 378.411C468.831 357.066 467.703 337.236 465.528 322.537C465.171 320.114 466.816 317.851 469.195 317.485C471.582 317.121 473.808 318.792 474.165 321.215C476.45 336.652 477.592 357.428 474.347 379.815C485.546 381.363 497.611 381.953 510.541 381.261C511.611 381.204 512.601 381.541 513.394 382.146C513.67 384.299 513.874 386.473 514.02 388.666C513.27 389.51 512.208 390.064 511 390.128C497.378 390.857 484.665 390.229 472.855 388.584C468.628 410.24 460.041 432.911 444.28 453.381C460.128 455.719 477.461 455.86 496.221 452.826C493.776 456.348 491.105 459.707 488.245 462.874C470.032 464.902 453.172 464.095 437.709 461.306C427.136 473.16 413.87 484.074 397.308 493.36C397.25 493.397 397.185 493.427 397.119 493.456C395.329 493.109 393.561 492.709 391.807 492.265C391.647 492.065 391.502 491.851 391.378 491.614C390.214 489.468 390.985 486.767 393.095 485.583C406.914 477.829 418.302 468.875 427.645 459.167C401.725 452.833 380.121 441.043 363.115 428.403C361.209 442.781 361.216 458.472 363.894 475.476C364.127 476.97 363.596 478.413 362.591 479.39C359.899 477.629 357.301 475.742 354.798 473.729C352.178 455.016 352.615 437.834 355.191 422.196C334.551 405.163 322.151 387.952 318.666 381.467C318.543 381.238 318.43 381.018 318.324 380.805C318.714 378.051 319.213 375.334 319.817 372.662ZM392.309 356.586C380.412 372.96 369.715 393.629 364.731 418.613C382.384 432.376 405.749 445.53 434.405 451.605C451.054 431.491 459.954 408.823 464.24 387.177C433.765 381.465 409.839 369.052 392.309 356.586ZM322.413 381.089C322.209 381.124 322.002 381.144 321.792 381.149C321.583 381.154 321.37 381.144 321.156 381.116C321.612 381.176 322.029 381.161 322.413 381.089Z" fill="#82B5B2"/>
</g>
<g id="GIRL">
<g id="Group_11">
<path id="Vector_23" fill-rule="evenodd" clip-rule="evenodd" d="M79.7047 584.243C79.7047 584.243 -64.9788 467.834 35.5213 329.955C46.218 315.281 111.126 229.748 203.363 171.774C206.964 169.503 211.6 169.881 214.802 172.704C216.843 174.55 218.17 177.368 216.854 181.694C216.854 181.694 231.129 178.53 230.145 192.475C230.145 192.475 246.86 187.917 247.441 205.427C247.441 205.427 275.076 170.992 287.115 155.99C290.271 152.058 295.786 151.079 300.064 153.693L300.066 153.693C302.007 154.88 303.405 156.801 303.952 159.036C304.498 161.271 304.148 163.635 302.979 165.607C251.608 252.122 197.001 331.496 142.23 410.51C142.23 410.51 187.41 456.986 210.692 473.716C220.146 480.502 314.617 540.527 328.278 573.395C328.278 573.395 329.43 565.862 330.743 557.286C333.016 542.413 343.797 530.367 358.133 526.652C367.854 524.137 376.877 521.798 376.877 521.798C376.877 521.798 393.003 519.001 406.734 519.112C415.728 519.179 423.674 525.062 426.512 533.734C427.814 537.737 427.269 542.125 425.013 545.662C423.739 547.667 422.611 549.428 422.611 549.428C422.611 549.428 425.85 550.545 428.855 551.581C432.057 552.684 434.64 555.118 435.971 558.278C438.562 564.434 437.449 571.56 433.104 576.599C431.751 578.175 430.747 579.337 430.747 579.337H431.729C436.852 579.337 441.458 582.504 443.372 587.343C445.999 593.988 443.874 601.595 438.213 605.85C436.808 606.9 435.833 607.64 435.833 607.64C437.609 607.026 439.268 608.269 440.432 611.118C442.739 616.749 440.621 623.253 435.6 626.59C427.771 631.792 417.438 638.659 417.438 638.659C415.116 687.222 409.346 739.603 382.24 802.033C374.061 820.806 357.972 834.798 338.471 840.104C338.456 840.118 338.442 840.118 338.427 840.126C297.605 851.225 254.824 831.017 236.838 792.14C228.203 773.456 218.982 750.429 210.692 723.31C210.692 723.31 176.375 727.868 142.23 710.286C101.21 689.168 60.4389 641.293 79.7047 584.243Z" fill="url(#paint1_linear_1410_4)"/>
<path id="Vector_24" fill-rule="evenodd" clip-rule="evenodd" d="M18.0078 504.942C22.3171 491.489 37.358 461.277 85.1216 464.118C85.1216 464.118 102.062 413.888 155.628 423.994C170.822 439.059 195.45 462.764 210.693 473.716C220.147 480.501 314.618 540.526 328.279 573.395L328.437 572.366C337.254 598.679 353.265 655.152 345.217 716.265C345.217 716.265 313.501 737.834 282.653 710.737C282.653 710.737 253.451 750.132 211.217 725.011C211.041 724.441 210.867 723.879 210.693 723.309C210.693 723.309 176.376 727.867 142.231 710.286C101.211 689.168 60.4397 641.293 79.7055 584.242C79.7055 584.242 41.5108 553.512 18.0078 504.942ZM218.804 460.618L231.233 468.484C226.75 466.405 222.576 463.756 218.804 460.618Z" fill="#FD9500"/>
<path id="Vector_25" fill-rule="evenodd" clip-rule="evenodd" d="M340.871 702.05L333.82 783.03C333.678 784.658 334.863 786.101 336.463 786.242C338.063 786.39 339.474 785.184 339.62 783.556L346.664 702.575C346.809 700.947 345.623 699.504 344.022 699.364C342.421 699.216 341.01 700.422 340.871 702.05Z" fill="#FD9500"/>
<path id="Vector_26" fill-rule="evenodd" clip-rule="evenodd" d="M189.749 723.427C187.268 693.8 193.893 669.707 198.322 657.423C198.677 656.565 199.575 656.092 200.469 656.277C201.362 656.462 202.004 657.261 202.002 658.186C202.86 682.271 209.096 714.718 211.105 724.656C210.966 724.204 210.828 723.76 210.691 723.309C210.691 723.309 202.326 724.419 189.749 723.427ZM59.5352 564.841C70.0682 551.551 80.4812 541.495 90.1752 533.881C105.103 522.153 118.326 516.218 127.649 513.185C128.727 512.94 129.825 513.518 130.257 514.546C130.69 515.582 130.333 516.781 129.41 517.402C101.205 537.026 85.1193 571.012 79.6764 584.22C79.143 583.783 70.7209 576.909 59.5352 564.841Z" fill="#E15D33"/>
<path id="Vector_27" fill-rule="evenodd" clip-rule="evenodd" d="M435.893 607.618C437.654 607.056 439.284 608.307 440.434 611.118C440.499 611.274 440.557 611.429 440.616 611.585C435.238 615.003 423.544 621.752 412.862 623.254C411.269 623.476 409.799 622.343 409.58 620.73C409.355 619.11 410.468 617.615 412.062 617.393C420.91 616.15 430.486 610.948 435.893 607.618ZM430.756 579.337H431.731C434.103 579.337 436.366 580.018 438.302 581.232C435.093 583.614 422.307 592.671 408.911 595.912C407.346 596.29 405.782 595.306 405.404 593.715C405.032 592.131 406 590.533 407.565 590.156C416.712 587.936 425.545 582.786 430.756 579.337ZM422.649 549.443L428.442 551.441C423.108 558.449 413.102 568.867 399.167 571.708C397.596 572.034 396.06 570.991 395.74 569.392C395.427 567.787 396.446 566.225 398.025 565.907C409.355 563.591 417.723 555.57 422.649 549.443Z" fill="#FD9500"/>
<path id="Vector_28" fill-rule="evenodd" clip-rule="evenodd" d="M383.706 529.93C383.706 529.93 373.773 532.158 363.302 530.641C361.708 530.411 360.238 531.543 360.006 533.156C359.78 534.777 360.893 536.272 362.48 536.501C374.013 538.173 384.957 535.717 384.957 535.717C386.522 535.361 387.519 533.778 387.17 532.187C386.828 530.589 385.27 529.582 383.706 529.93Z" fill="#FD9500"/>
<path id="Vector_29" fill-rule="evenodd" clip-rule="evenodd" d="M245.832 198.124C246.744 199.979 247.338 202.365 247.44 205.425L251.833 199.951C251.748 200.109 251.646 200.261 251.53 200.405L240.639 213.816C239.616 215.075 237.78 215.254 236.541 214.213C235.303 213.173 235.127 211.306 236.15 210.046L245.832 198.124ZM228.671 185.18C229.754 186.831 230.376 189.169 230.145 192.462L223.393 200.323C222.336 201.554 220.496 201.681 219.286 200.606C218.076 199.532 217.951 197.66 219.008 196.43L228.671 185.18ZM216.147 174.246C217.334 176.023 217.847 178.428 216.853 181.693H216.854C213.21 185.186 209.007 189.24 209.007 189.24C207.841 190.364 205.997 190.314 204.892 189.129C203.787 187.943 203.835 186.068 205.001 184.944C205.001 184.944 212.444 177.768 216.147 174.246Z" fill="#FD9500"/>
<path id="Vector_30" fill-rule="evenodd" clip-rule="evenodd" d="M142.228 410.509C142.228 410.509 123.019 391.222 111.642 379.798C110.86 379.012 110.742 377.786 111.358 376.867C111.974 375.947 113.154 375.589 114.177 376.013C129.192 382.226 154.665 392.767 154.665 392.767L142.228 410.509Z" fill="#FD9500"/>
</g>
<g id="Group_12">
<g id="Group_13">
<g id="Group_14">
<path id="Vector_31" fill-rule="evenodd" clip-rule="evenodd" d="M374.327 536.878L378.744 503.935C371.686 501.449 364.773 498.208 358.1 494.167C352.577 490.83 350.758 483.556 354.04 477.94C357.329 472.324 364.482 470.481 369.997 473.819C412.02 499.236 466.429 485.17 491.424 442.44C516.412 399.709 502.587 344.384 460.563 318.97C455.04 315.63 453.221 308.359 456.51 302.743C459.792 297.127 466.945 295.278 472.468 298.619C525.537 330.713 542.994 400.58 511.435 454.543C488.04 494.545 444.242 514.649 401.528 509.307L398.653 530.736C393.385 533.274 384.653 536.559 374.327 536.878Z" fill="#DC5D3C"/>
</g>
<g id="Group_15">
<path id="Vector_32" fill-rule="evenodd" clip-rule="evenodd" d="M370.005 473.819C327.982 448.405 314.155 393.08 339.147 350.349C364.138 307.618 418.545 293.558 460.567 318.971C466.089 322.311 473.241 320.463 476.525 314.847C479.81 309.231 477.992 301.96 472.469 298.62C419.402 266.527 350.693 284.282 319.133 338.245C287.573 392.208 305.035 462.077 358.102 494.17C363.625 497.51 370.776 495.662 374.06 490.046C377.344 484.43 375.527 477.158 370.005 473.819Z" fill="#DC5D3C"/>
</g>
</g>
</g>
<g id="Group_16">
<path id="Vector_33" d="M254.953 473.712C286.564 473.712 312.191 447.654 312.191 415.509C312.191 383.363 286.564 357.305 254.953 357.305C223.341 357.305 197.715 383.363 197.715 415.509C197.715 447.654 223.341 473.712 254.953 473.712Z" fill="#FFBB22"/>
<path id="Vector_34" fill-rule="evenodd" clip-rule="evenodd" d="M235.05 438.499C224.725 440.31 213.737 440.566 202.341 438.454C199.364 431.413 197.715 423.655 197.715 415.509C197.715 383.385 223.362 357.305 254.953 357.305C280.134 357.305 301.539 373.875 309.187 396.865C306.788 407.809 288.778 429.669 251.78 434.125C252.977 431.012 253.075 427.229 251.787 423.551C249.259 416.332 242.346 412.231 236.359 414.398C230.373 416.565 227.565 424.187 230.093 431.406C231.129 434.367 232.904 436.804 235.05 438.499Z" fill="#242C2C"/>
<g id="Group_17">
<path id="Vector_35" d="M274.688 353.219C296.247 353.219 313.724 335.447 313.724 313.525C313.724 291.602 296.247 273.83 274.688 273.83C253.129 273.83 235.652 291.602 235.652 313.525C235.652 335.447 253.129 353.219 274.688 353.219Z" fill="#242C2C"/>
</g>
</g>
</g>
</g>
<g id="Parallax_2_6">
<g id="Group_18">
<path id="Vector_36" fill-rule="evenodd" clip-rule="evenodd" d="M688.74 187.509C667.674 228.098 625.738 255.778 577.494 255.778C508.089 255.778 451.73 198.473 451.73 127.889C451.73 84.9371 472.6 46.9028 504.603 23.7363L577.494 127.889L688.74 187.509Z" fill="#E5734E"/>
</g>
<path id="Vector_37" fill-rule="evenodd" clip-rule="evenodd" d="M577.492 127.888L504.602 23.7352C522.852 10.4671 544.747 2.06712 568.455 0.365234L577.492 127.888Z" fill="#FFBB22"/>
<path id="Vector_38" fill-rule="evenodd" clip-rule="evenodd" d="M571.728 0.147977L577.491 0C612.848 0 644.822 14.8693 667.664 38.8149L577.491 127.888L568.453 0.365528L570.156 0.233087L571.728 0.147977Z" fill="#A8CFCC"/>
<g id="Group_19">
<path id="Vector_39" fill-rule="evenodd" clip-rule="evenodd" d="M701.65 31.3225C723.683 54.335 737.247 85.7675 737.247 120.396C737.247 141.924 732.001 162.217 722.723 180.016L611.477 120.396L701.65 31.3225Z" fill="#FFCBC4"/>
</g>
</g>
</g>
<defs>
<linearGradient id="paint0_linear_1410_4" x1="920.585" y1="657.787" x2="1235.06" y2="904.929" gradientUnits="userSpaceOnUse">
<stop stop-color="#82B5B2"/>
<stop offset="0.57" stop-color="#9AC1BB"/>
<stop offset="0.8" stop-color="#CED9CF"/>
<stop offset="1" stop-color="#FFF1E2"/>
</linearGradient>
<linearGradient id="paint1_linear_1410_4" x1="230.937" y1="697.485" x2="-51.7591" y2="769.679" gradientUnits="userSpaceOnUse">
<stop stop-color="#FFBB22"/>
<stop offset="0.47" stop-color="#FEB019"/>
<stop offset="1" stop-color="#FD9500"/>
</linearGradient>
</defs>
</svg>
