<svg width="205" height="256" viewBox="0 0 205 256" fill="none" xmlns="http://www.w3.org/2000/svg">
<g clip-path="url(#clip0_1290_12558)">
<path fill-rule="evenodd" clip-rule="evenodd" d="M141.671 101.795C140.406 101.17 139.535 99.8669 139.535 98.3616V90.7091C139.535 88.5972 141.249 86.8828 143.361 86.8828H201.466C203.578 86.8828 205.292 88.5972 205.292 90.7091V98.3616C205.292 99.8669 204.421 101.17 203.155 101.795C204.421 102.419 205.292 103.723 205.292 105.228V112.881C205.292 114.204 204.619 115.372 203.596 116.059C204.619 116.746 205.292 117.913 205.292 119.237V126.89C205.292 128.214 204.619 129.38 203.596 130.068C204.619 130.754 205.292 131.923 205.292 133.245V140.898C205.292 142.221 204.619 143.388 203.596 144.076C204.619 144.764 205.292 145.93 205.292 147.254V154.907C205.292 156.229 204.619 157.398 203.596 158.086C204.619 158.772 205.292 159.94 205.292 161.262V168.915C205.292 170.239 204.619 171.406 203.596 172.093C204.619 172.781 205.292 173.948 205.292 175.272V182.925C205.292 184.247 204.619 185.415 203.596 186.101C204.619 186.789 205.292 187.956 205.292 189.28V196.933C205.292 198.256 204.619 199.423 203.596 200.111C204.619 200.799 205.292 201.965 205.292 203.289V210.942C205.292 212.264 204.619 213.433 203.596 214.119C204.619 214.807 205.292 215.973 205.292 217.297V224.95C205.292 226.274 204.619 227.441 203.596 228.129C204.619 228.814 205.292 229.983 205.292 231.307V238.958C205.292 240.282 204.619 241.45 203.596 242.136C204.619 242.824 205.292 243.991 205.292 245.315V252.968C205.292 255.079 203.578 256.793 201.466 256.793H143.361C141.249 256.793 139.535 255.079 139.535 252.968V245.315C139.535 243.991 140.208 242.824 141.231 242.136C140.208 241.45 139.535 240.282 139.535 238.958V231.307C139.535 229.983 140.208 228.814 141.231 228.129C140.208 227.441 139.535 226.274 139.535 224.95V217.297C139.535 215.973 140.208 214.807 141.231 214.119C140.208 213.433 139.535 212.264 139.535 210.942V203.289C139.535 201.965 140.208 200.799 141.231 200.111C140.208 199.423 139.535 198.256 139.535 196.933V189.28C139.535 187.956 140.208 186.789 141.231 186.101C140.208 185.415 139.535 184.247 139.535 182.925V175.272C139.535 173.948 140.208 172.781 141.231 172.093C140.208 171.406 139.535 170.239 139.535 168.915V161.262C139.535 159.94 140.208 158.772 141.231 158.086C140.208 157.398 139.535 156.229 139.535 154.907V147.254C139.535 145.93 140.208 144.764 141.231 144.076C140.208 143.388 139.535 142.221 139.535 140.898V133.245C139.535 131.923 140.208 130.754 141.231 130.068C140.208 129.38 139.535 128.214 139.535 126.89V119.237C139.535 117.913 140.208 116.746 141.231 116.059C140.208 115.372 139.535 114.204 139.535 112.881V105.228C139.535 103.723 140.406 102.419 141.671 101.795Z" fill="#FFCD80"/>
<path fill-rule="evenodd" clip-rule="evenodd" d="M187.425 86.8828V99.8534H194.507C194.601 99.4435 194.969 99.1373 195.407 99.1373C195.845 99.1373 196.213 99.4435 196.308 99.8534H204.987C204.654 100.638 204.068 101.289 203.33 101.702H196.332V114.259H205.033C204.748 114.996 204.242 115.624 203.594 116.059C203.618 116.075 203.641 116.091 203.665 116.108H202.043V128.576C202.043 128.606 202.041 128.635 202.039 128.665H204.854C204.556 129.23 204.121 129.713 203.594 130.068C203.79 130.199 203.973 130.349 204.142 130.514H194.385V142.373H204.994C204.704 143.068 204.212 143.66 203.594 144.076C203.663 144.122 203.731 144.172 203.796 144.222H199.939V156.368H205C204.709 157.07 204.216 157.666 203.594 158.086C203.657 158.126 203.718 158.171 203.779 158.217H193.375V170.381H205C204.707 171.08 204.216 171.676 203.594 172.093C203.659 172.138 203.722 172.182 203.783 172.23H199.556V184.507H204.946C204.652 185.156 204.181 185.707 203.594 186.101C203.711 186.181 203.824 186.266 203.931 186.356H191.559V198.351H205.018C204.73 199.07 204.23 199.684 203.594 200.111C203.637 200.139 203.678 200.168 203.718 200.2H196.936V212.183H205.083C204.826 212.932 204.345 213.575 203.718 214.032H190.973V226.39H205.009C204.72 227.1 204.223 227.705 203.594 228.129C203.646 228.164 203.698 228.201 203.75 228.239H198.083V240.219H205.077C204.815 240.97 204.327 241.613 203.692 242.068H184.99V256.793H183.141V242.068H179.406V256.793H177.557V242.068H153.271V256.793H151.422V242.068H141.131C140.496 241.613 140.008 240.97 139.746 240.219H143.031V228.239H141.073C141.123 228.201 141.175 228.164 141.229 228.129C140.6 227.705 140.103 227.1 139.812 226.39H151.69V214.032H141.105C140.478 213.575 139.995 212.932 139.738 212.183H144.361V200.2H141.103C141.144 200.168 141.186 200.139 141.229 200.111C140.593 199.684 140.091 199.07 139.805 198.351H149.847V186.356H140.89C140.999 186.266 141.11 186.181 141.229 186.101C140.642 185.707 140.171 185.156 139.875 184.507H143.895V172.23H141.038C141.101 172.182 141.164 172.138 141.229 172.093C140.607 171.676 140.114 171.08 139.823 170.381H150.512V158.217H141.044C141.105 158.171 141.166 158.126 141.229 158.086C140.605 157.666 140.112 157.07 139.822 156.368H142.606V144.222H141.025C141.092 144.172 141.16 144.122 141.229 144.076C140.609 143.66 140.119 143.068 139.827 142.373H145.868V130.514H140.681C140.85 130.349 141.033 130.199 141.229 130.068C140.702 129.713 140.267 129.23 139.969 128.665H156.745V116.108H147.277C147.156 116.165 147.023 116.196 146.883 116.196C146.74 116.196 146.607 116.165 146.487 116.108H141.156C141.181 116.091 141.205 116.075 141.229 116.059C140.581 115.624 140.075 114.996 139.788 114.259H145.958V101.702H141.493C140.755 101.289 140.167 100.638 139.834 99.8534H145.98C146.077 99.4435 146.443 99.1373 146.883 99.1373C147.321 99.1373 147.689 99.4435 147.783 99.8534H159.402V86.8828H161.251V99.8534H163.257V86.8828H165.106V99.8534H170.42C170.514 99.4435 170.882 99.1373 171.322 99.1373C171.761 99.1373 172.129 99.4435 172.223 99.8534H175.026C175.122 99.4435 175.488 99.1373 175.928 99.1373C176.366 99.1373 176.734 99.4435 176.829 99.8534H185.576V86.8828H187.425ZM144.88 228.239V240.219H161.417V228.239H144.88ZM163.266 228.239V240.219H166.092V228.239H163.266ZM167.941 228.239V240.219H196.234V228.239H167.941ZM153.539 214.032V226.39H170.714V214.032H153.539ZM185.596 214.032H172.563V226.39H185.591V214.13L185.596 214.032ZM187.44 226.39H189.124V214.032H187.434C187.438 214.063 187.44 214.097 187.44 214.13V226.39ZM183.478 200.2V212.183H195.087V200.2H183.478ZM163.318 212.183H181.629V200.2H163.302C163.313 200.255 163.318 200.313 163.318 200.37V212.183ZM161.484 200.2H146.21V212.183H161.469V200.37C161.469 200.314 161.473 200.257 161.484 200.202V200.2ZM176.586 186.356V198.351H189.71V186.356H176.586ZM172.41 186.356V198.351H174.737V186.356H172.41ZM151.696 186.356V198.351H170.561V186.356H151.696ZM159.792 172.23V184.507H182.424V172.23H159.792ZM145.744 172.23V184.507H157.943V172.23H145.744ZM184.273 172.23V184.507H197.707V172.23H184.273ZM168.373 158.217V170.381H170.207V158.217H168.373ZM159.029 170.381H166.524V158.217H152.361V170.381H158.707C158.759 170.372 158.812 170.366 158.868 170.366C158.923 170.366 158.977 170.372 159.029 170.381ZM172.056 158.217V170.381H191.526V158.217H172.056ZM192.726 156.368H198.09V144.222H182.954V156.368H192.175C192.262 156.34 192.354 156.325 192.451 156.325C192.547 156.325 192.639 156.34 192.726 156.368ZM178.5 144.222V156.368H181.105V144.222H178.5ZM144.455 144.222V156.368H162.571V144.222H144.455ZM164.42 144.222V156.368H176.651V144.222H164.42ZM147.717 130.514V142.373H149.974V130.514H147.717ZM173.105 130.514V142.373H192.536V130.514H173.105ZM151.823 130.514V142.373H171.256V130.514H151.823ZM161.867 116.108H158.594V128.665H161.872C161.869 128.635 161.867 128.606 161.867 128.576V116.108ZM184.221 116.108H176.322C176.204 116.165 176.069 116.196 175.928 116.196C175.786 116.196 175.653 116.165 175.533 116.108H171.716C171.596 116.165 171.463 116.196 171.322 116.196C171.18 116.196 171.047 116.165 170.927 116.108H163.716V128.576C163.716 128.606 163.716 128.635 163.712 128.665H184.225C184.221 128.635 184.221 128.606 184.221 128.576V116.108ZM200.194 116.108H195.803C195.683 116.165 195.55 116.196 195.407 116.196C195.267 116.196 195.132 116.165 195.013 116.108H186.07V128.576C186.07 128.606 186.068 128.635 186.064 128.665H200.198C200.196 128.635 200.194 128.606 200.194 128.576V116.108ZM147.807 101.702V114.259H170.398V101.702H147.807ZM172.247 101.702V114.259H175.004V101.702H172.247ZM176.853 101.702V114.259H194.483V101.702H176.853Z" fill="#FDA425"/>
<path fill-rule="evenodd" clip-rule="evenodd" d="M43.3674 185.633C42.3449 184.947 41.6719 183.779 41.6719 182.457V174.804C41.6719 172.692 43.3859 170.977 45.4974 170.977H103.601C105.715 170.977 107.429 172.692 107.429 174.804V182.457C107.429 183.779 106.756 184.947 105.733 185.633C106.756 186.321 107.429 187.488 107.429 188.812V196.465C107.429 197.789 106.756 198.955 105.733 199.643C106.756 200.329 107.429 201.498 107.429 202.821V210.473C107.429 211.796 106.756 212.965 105.733 213.651C106.756 214.339 107.429 215.505 107.429 216.829V224.482C107.429 225.806 106.756 226.973 105.733 227.661C106.756 228.347 107.429 229.515 107.429 230.837V238.49C107.429 239.814 106.756 240.981 105.733 241.668C106.756 242.356 107.429 243.523 107.429 244.847V252.5C107.429 254.611 105.715 256.325 103.601 256.325H45.4974C43.3859 256.325 41.6719 254.611 41.6719 252.5V244.847C41.6719 243.523 42.3449 242.356 43.3674 241.668C42.3449 240.981 41.6719 239.814 41.6719 238.49V230.837C41.6719 229.515 42.3449 228.347 43.3674 227.661C42.3449 226.973 41.6719 225.806 41.6719 224.482V216.829C41.6719 215.505 42.3449 214.339 43.3674 213.651C42.3449 212.965 41.6719 211.796 41.6719 210.473V202.821C41.6719 201.498 42.3449 200.329 43.3674 199.643C42.3449 198.955 41.6719 197.789 41.6719 196.465V188.812C41.6719 187.488 42.3449 186.321 43.3674 185.633Z" fill="#FFCD80"/>
<path fill-rule="evenodd" clip-rule="evenodd" d="M93.7608 184.062H107.062C106.767 184.702 106.299 185.245 105.72 185.633C105.846 185.718 105.966 185.811 106.082 185.911H100.596V197.883V197.885H107.142C106.855 198.604 106.354 199.216 105.72 199.643C105.763 199.673 105.807 199.702 105.849 199.734H94.8998V211.626C94.8998 211.68 94.8961 211.732 94.8869 211.782H107.184C106.909 212.538 106.402 213.183 105.75 213.631H102.375V225.603C102.375 225.654 102.37 225.706 102.362 225.756H107.197C106.931 226.509 106.437 227.152 105.798 227.605H95.7226V239.788H107.188C106.916 240.544 106.413 241.188 105.764 241.637H101.922V256.325H100.073V241.637H88.1455C88.1455 241.654 88.1474 241.668 88.1474 241.683V256.325H86.2984V241.683C86.2984 241.668 86.2984 241.654 86.2984 241.637H77.1793C77.0609 241.692 76.9315 241.722 76.7947 241.722C76.656 241.722 76.5266 241.692 76.4082 241.637H64.5619V256.325H62.7129V241.637H59.4809V256.325H57.6319V241.637H43.308C42.659 241.188 42.1561 240.544 41.8843 239.788H54.6422V227.605H43.2747C42.6368 227.152 42.1413 226.509 41.875 225.756H46.5714V213.631H43.3246C42.6701 213.183 42.1634 212.538 41.8879 211.782H53.2388V199.734H43.2229C43.2673 199.702 43.3098 199.673 43.3542 199.643C42.7181 199.216 42.2189 198.604 41.9305 197.885H45.9742V185.911H42.9918C43.1064 185.811 43.2266 185.718 43.3542 185.633C42.7736 185.245 42.3077 184.702 42.01 184.062H50.5097V170.977H52.3587V184.062H54.252V170.977H56.101V184.062H73.082V170.977H74.9309V184.062H91.9119V170.977H93.7608V184.062ZM56.4911 227.605V239.788H75.8702V227.605H56.4911ZM77.7192 227.605V239.788H90.2127V227.605H77.7192ZM92.0617 227.605V239.788H93.8736V227.605H92.0617ZM48.4204 213.631V225.756H63.3786V213.631H48.4204ZM83.3659 213.631H65.2275V225.756H83.4159C83.3844 225.662 83.3659 225.56 83.3659 225.455V213.631ZM100.526 213.631H85.2149V225.455C85.2149 225.56 85.1983 225.662 85.165 225.756H100.537C100.53 225.706 100.526 225.654 100.526 225.603V213.631ZM55.0877 199.734V211.782H69.2953V199.734H55.0877ZM71.1442 199.734V211.782H73.3297V199.734H71.1442ZM93.0508 199.734H75.1787V211.782H84.0057C84.0944 211.752 84.1906 211.737 84.2904 211.737C84.3903 211.737 84.4864 211.752 84.577 211.782H93.0656C93.0564 211.732 93.0508 211.68 93.0508 211.626V199.734ZM47.8232 185.911V197.885H64.1052V185.911H47.8232ZM65.9542 185.911V197.885H80.6757V185.911H65.9542ZM82.5246 185.911V197.885H84.9986V185.911H82.5246ZM98.7475 185.911H86.8475V197.885H98.7475V197.883V185.911Z" fill="#FDA425"/>
<path fill-rule="evenodd" clip-rule="evenodd" d="M107.438 127.504H125.249C155.892 127.504 180.772 156.392 180.772 191.974C180.772 224.804 159.625 252.444 132.281 256.444C129.988 256.78 107.558 256.444 107.558 256.444C76.9149 256.444 52.0352 227.555 52.0352 191.974C52.0352 156.438 76.8502 127.578 107.438 127.504Z" fill="#FDA425"/>
<path d="M107.553 256.444C138.217 256.444 163.075 227.58 163.075 191.974C163.075 156.368 138.217 127.504 107.553 127.504C76.8891 127.504 52.0312 156.368 52.0312 191.974C52.0312 227.58 76.8891 256.444 107.553 256.444Z" fill="#FFCD80"/>
<path fill-rule="evenodd" clip-rule="evenodd" d="M107.778 153.665L105.861 153.559L105.905 150.698L109.249 150.884C110.041 150.928 110.67 151.604 110.658 152.394L110.584 157.232C113.509 157.526 116.311 158.153 118.985 159.11C122.401 160.331 125.615 162.091 128.62 164.387C128.961 164.645 129.173 165.036 129.209 165.454C129.241 165.872 129.093 166.276 128.797 166.563L122.25 172.91C121.756 173.387 120.978 173.423 120.406 172.994C117.442 170.77 114.109 169.33 110.408 168.672L110.159 184.793C123.925 188.49 130.459 195.476 130.119 205.368C129.955 210.742 127.885 215.087 123.932 218.387C120.318 221.52 115.532 223.401 109.556 223.983L109.428 232.296C109.416 233.085 108.767 233.688 107.975 233.644L104.691 233.461L104.735 230.603L106.591 230.707L106.717 222.574C106.728 221.85 107.277 221.272 107.997 221.226C113.875 220.844 118.554 219.186 122.032 216.174C125.384 213.375 127.122 209.703 127.261 205.16C127.566 196.26 121.157 190.434 108.421 187.275C107.749 187.106 107.272 186.489 107.283 185.805L107.573 166.942C107.579 166.547 107.75 166.181 108.041 165.925C108.332 165.672 108.721 165.552 109.114 165.602C113.538 166.126 117.517 167.596 121.05 170.004L125.56 165.633C123.21 164.016 120.733 162.737 118.12 161.805C115.267 160.784 112.262 160.176 109.098 159.973C108.313 159.923 107.692 159.249 107.704 158.464L107.778 153.665ZM109.734 212.415C111.822 211.901 113.355 211.1 114.288 209.943C114.87 209.196 115.3 208.342 115.579 207.385L118.327 208.299C117.943 209.593 117.355 210.747 116.554 211.779C115.023 213.673 112.379 214.994 108.551 215.592C108.129 215.657 107.691 215.529 107.358 215.238C107.029 214.947 106.841 214.527 106.847 214.096L107.003 203.986L109.861 204.145L109.734 212.415ZM94.7133 171.095C95.2345 169.831 95.9055 168.791 96.7109 167.97C96.7304 167.95 96.7536 167.93 96.7731 167.91C98.5868 166.282 100.726 165.404 103.183 165.275C103.585 165.254 103.989 165.408 104.287 165.694C104.585 165.983 104.752 166.381 104.745 166.784L104.618 175.064L101.759 174.904L101.86 168.376C100.714 168.673 99.6827 169.231 98.7624 170.048C98.1903 170.641 97.7267 171.395 97.3528 172.301C97.3447 172.325 97.3329 172.349 97.321 172.372C96.8738 173.308 96.6569 174.461 96.6361 175.815L93.7775 175.656C93.8051 173.862 94.1272 172.345 94.7133 171.095Z" fill="#FDA31F"/>
<path fill-rule="evenodd" clip-rule="evenodd" d="M95.8138 181.77C94.4303 180.084 93.7377 178.051 93.7746 175.658L96.6332 175.817C96.6079 177.458 97.0497 178.859 98.001 180.013L98.0348 180.055C98.7782 181.026 99.9876 181.828 101.639 182.519L101.756 174.906L104.615 175.065L104.468 184.61C104.461 185.053 104.248 185.46 103.892 185.713C103.539 185.962 103.079 186.031 102.652 185.894C99.3515 184.836 97.0944 183.422 95.8138 181.77Z" fill="#FDA31F"/>
<path fill-rule="evenodd" clip-rule="evenodd" d="M109.962 197.302L109.857 204.145L106.998 203.986L107.13 195.407C107.137 194.988 107.327 194.601 107.648 194.347C107.974 194.093 108.397 193.997 108.809 194.087C112.79 194.96 115.434 196.395 116.831 198.195L116.861 198.24C118.218 200.126 118.886 202.255 118.85 204.633C118.829 205.963 118.65 207.185 118.322 208.299L115.575 207.384C115.837 206.5 115.975 205.528 115.991 204.474C116.017 202.766 115.551 201.235 114.584 199.878C113.705 198.758 112.151 197.932 109.962 197.302Z" fill="#FDA31F"/>
<path fill-rule="evenodd" clip-rule="evenodd" d="M101.443 195.168C88.2097 191.474 82.0025 184.68 82.4515 175.171C82.6547 169.434 84.5645 165.047 88.0934 161.971C91.3233 159.156 95.9573 157.435 102.032 156.892L102.109 151.919C102.121 151.13 102.77 150.525 103.558 150.568L105.9 150.699L105.856 153.559L104.945 153.509L104.872 158.307C104.86 159.034 104.308 159.615 103.583 159.658C97.6218 160.02 93.0875 161.487 90.0167 164.164C87.0275 166.772 85.4836 170.525 85.3088 175.406C84.9057 183.924 91.0007 189.555 103.193 192.705C103.857 192.877 104.33 193.49 104.319 194.169L104.015 213.94C104.009 214.343 103.831 214.715 103.532 214.971C103.229 215.226 102.829 215.336 102.428 215.277C98.855 214.741 95.8365 213.772 93.376 212.39C91.2098 211.291 89.2768 209.969 87.5733 208.421L82.0263 212.731C84.6416 214.755 87.5485 216.501 90.7354 217.972C94.4553 219.648 98.3737 220.624 102.494 220.909C103.279 220.965 103.896 221.635 103.884 222.418L103.759 230.55L104.731 230.604L104.687 233.462L102.284 233.328C101.496 233.284 100.866 232.61 100.878 231.821L101.004 223.643C97.0429 223.227 93.2593 222.202 89.6421 220.573C85.5995 218.708 81.9999 216.434 78.8278 213.752C78.4951 213.471 78.2985 213.053 78.2975 212.621C78.2927 212.19 78.4865 211.788 78.8199 211.528L86.7238 205.388C87.2821 204.951 88.1007 205.018 88.6211 205.546C90.3219 207.265 92.3221 208.701 94.6099 209.859L94.6707 209.89C96.4933 210.918 98.6647 211.675 101.181 212.173L101.443 195.168Z" fill="#FDA31F"/>
<path fill-rule="evenodd" clip-rule="evenodd" d="M104.894 140.262C127.29 140.262 145.277 163.554 145.277 192.055C145.277 220.554 127.29 243.845 104.894 243.845C104.078 243.845 103.414 244.508 103.414 245.324C103.414 246.141 104.078 246.805 104.894 246.805C128.707 246.805 148.234 222.357 148.234 192.055C148.234 161.751 128.707 137.305 104.894 137.305C104.078 137.305 103.414 137.967 103.414 138.784C103.414 139.6 104.078 140.262 104.894 140.262Z" fill="#FDA425"/>
<path fill-rule="evenodd" clip-rule="evenodd" d="M104.885 243.845C82.4877 243.845 64.5014 220.554 64.5014 192.055C64.5014 163.554 82.4877 140.262 104.885 140.262C105.701 140.262 106.363 139.6 106.363 138.784C106.363 137.967 105.701 137.305 104.885 137.305C81.0718 137.305 61.543 161.751 61.543 192.055C61.543 222.357 81.0718 246.805 104.885 246.805C105.701 246.805 106.363 246.141 106.363 245.324C106.363 244.508 105.701 243.845 104.885 243.845Z" fill="#FDA425"/>
<path fill-rule="evenodd" clip-rule="evenodd" d="M148.2 251.155H127.014C126.199 251.155 125.535 250.491 125.535 249.676C125.535 248.859 126.199 248.197 127.014 248.197H152.462C152.634 248.197 152.798 248.226 152.952 248.28C151.413 249.325 149.829 250.284 148.2 251.155ZM172.37 226.248C171.833 227.252 171.277 228.239 170.696 229.206H150.352C149.535 229.206 148.873 228.544 148.873 227.727C148.873 226.91 149.535 226.248 150.352 226.248H172.37ZM176.384 217.217C176.021 218.218 175.637 219.203 175.236 220.176H152.462C151.644 220.176 150.983 219.514 150.983 218.697C150.983 217.881 151.644 217.217 152.462 217.217H176.384ZM180.616 187.192C180.679 188.174 180.721 189.159 180.745 190.15H160.431C159.614 190.15 158.952 189.488 158.952 188.671C158.952 187.856 159.614 187.192 160.431 187.192H180.616ZM177.384 169.778C177.691 170.755 177.981 171.742 178.249 172.737H156.117C155.302 172.737 154.638 172.075 154.638 171.257C154.638 170.442 155.302 169.778 156.117 169.778H177.384ZM174.348 161.874C174.79 162.846 175.213 163.832 175.613 164.832H155.32C154.505 164.832 153.841 164.17 153.841 163.353C153.841 162.538 154.505 161.874 155.32 161.874H174.348ZM154.669 137.307C155.945 138.235 157.186 139.22 158.391 140.265H134.983C134.168 140.265 133.504 139.601 133.504 138.786C133.504 137.969 134.168 137.307 134.983 137.307H154.669Z" fill="#FFCD80"/>
<path fill-rule="evenodd" clip-rule="evenodd" d="M58.4457 24.0548C59.7543 19.541 63.4838 6.63884 66.1749 0.873377L81.6654 9.27702C81.6654 9.27702 74.9916 33.3893 73.5525 40.304L55.5357 36.0196C56.0828 32.252 57.1289 28.5959 58.4457 24.0548Z" fill="#82B5B2"/>
<path d="M66.6629 28.9998C69.6287 28.9998 72.0329 26.4836 72.0329 23.3798C72.0329 20.2759 69.6287 17.7598 66.6629 17.7598C63.6972 17.7598 61.293 20.2759 61.293 23.3798C61.293 26.4836 63.6972 28.9998 66.6629 28.9998Z" fill="#A8CFCC" fill-opacity="0.63"/>
<path fill-rule="evenodd" clip-rule="evenodd" d="M62.837 30.2892C63.7115 27.8514 68.591 15.2064 71.6011 11.4062L85.6218 19.2862C85.6218 19.2862 78.0651 39.3653 76.3419 45.1468L59.7344 40.6285C60.4518 37.4666 61.4687 34.102 62.837 30.2892Z" fill="#A8CFCC"/>
<path d="M72.5379 34.7498C75.5037 34.7498 77.9079 32.2336 77.9079 29.1298C77.9079 26.0259 75.5037 23.5098 72.5379 23.5098C69.5722 23.5098 67.168 26.0259 67.168 29.1298C67.168 32.2336 69.5722 34.7498 72.5379 34.7498Z" fill="#82B5B2"/>
<path d="M107.235 27.9871C113.776 27.9871 119.079 22.6843 119.079 16.143C119.079 9.60164 113.776 4.29883 107.235 4.29883C100.693 4.29883 95.3906 9.60164 95.3906 16.143C95.3906 22.6843 100.693 27.9871 107.235 27.9871Z" fill="#E86135"/>
<path fill-rule="evenodd" clip-rule="evenodd" d="M99.3516 7.3023C101.446 5.43466 104.207 4.29883 107.23 4.29883C113.768 4.29883 119.075 9.60612 119.075 16.143C119.075 18.3858 118.45 20.484 117.366 22.2721C108.571 18.3207 109.859 8.78721 109.859 8.78721C105.024 10.3668 101.413 8.76706 99.3516 7.3023Z" fill="#242C2C"/>
<path fill-rule="evenodd" clip-rule="evenodd" d="M56.4735 166.68C56.4735 166.68 53.0104 159.979 56.4735 154.959L50.3256 144.157C50.3256 144.157 47.3377 142.244 43.9449 140.069C36.2735 135.153 31.8729 126.465 32.448 117.373C32.4923 116.68 32.5718 116.045 32.692 115.489C29.1642 112.161 26.2502 104.69 27.3226 97.5415C28.8147 87.5854 37.0852 80.0408 47.1362 79.4682C63.311 78.5507 91.0696 77.9237 108.136 82.8178L104.297 73.2619C104.297 73.2619 76.9878 83.0273 70.0708 60.602C54.3934 66.9325 36.9354 71.5601 19.6734 74.0642C12.4569 75.1144 5.33648 71.6156 1.75872 65.2605C1.75132 65.2649 1.75132 65.2649 1.75132 65.2649C-1.27545 59.8896 -0.308439 53.151 4.10691 48.8429C8.54629 44.5598 16.1178 39.0192 29.0477 32.6446C29.0477 32.6446 41.9997 25.7957 49.5842 21.7851C52.9734 19.9934 56.9912 19.8374 60.5079 21.3611C67.9796 24.5972 80.3234 29.945 80.3234 29.945L81.7656 26.3049C90.3374 27.7323 98.7595 30.329 107.017 33.5425C115.787 36.9662 122.582 44.1073 125.564 53.0347C132.908 75.019 146.775 117.229 148.595 127.803H153.794C156.715 127.803 159.247 129.83 159.885 132.681C160.382 134.909 160.863 137.059 160.863 137.059C160.863 137.059 164.174 140.763 165.143 144.157C165.537 145.54 163.331 147.153 160.863 144.562C160.132 143.795 153.04 138.198 149.854 137.849C147.417 137.581 145.261 137.301 143.251 137.056C137.081 136.299 131.605 132.738 128.408 127.404C126.27 123.839 124.305 120.559 124.305 120.559C124.305 120.559 117.641 131.246 99.3493 129.318L102.191 166.26C102.191 166.26 98.5413 165.397 97.321 159.432C97.321 159.432 76.7068 156.686 64.9658 151.714C64.9658 151.714 60.3341 156.313 56.4735 166.68Z" fill="url(#paint0_linear_1290_12558)"/>
<path fill-rule="evenodd" clip-rule="evenodd" d="M148.499 127.273C148.534 127.458 148.565 127.634 148.595 127.802H151.056C152.247 128.638 154.057 129.951 156.019 131.515L156.649 130.805C156.921 130.5 157.389 130.472 157.694 130.744C157.999 131.014 158.027 131.482 157.755 131.787L157.169 132.447C158.282 133.366 159.413 134.349 160.484 135.359L160.863 137.058L148.813 128.054C148.549 127.88 148.432 127.564 148.499 127.273Z" fill="#D7441E"/>
<path fill-rule="evenodd" clip-rule="evenodd" d="M78.1728 155.831L88.4143 126.754C88.5844 126.272 89.1132 126.018 89.5939 126.188C90.0747 126.358 90.328 126.885 90.1597 127.368L79.983 156.256C79.3821 156.119 78.7793 155.977 78.1728 155.831ZM50.3218 144.158C50.3218 144.158 54.286 146.29 57.6973 148.054C62.0202 150.293 66.5483 152.386 64.9619 151.715C64.9619 151.715 64.52 152.155 63.7952 153.067C59.9068 151.325 55.4305 148.977 51.9988 147.106L50.3218 144.158ZM31.2773 113.894C34.2449 99.6594 45.3388 91.5718 58.2446 87.0733C76.4866 80.7143 98.3285 81.5761 105.16 82.0459C106.164 82.2822 107.623 82.5951 108.563 82.8636C108.616 82.9965 109.028 83.2517 109.014 83.4035C108.96 83.911 109.665 84.2826 109.156 84.2303C109.156 84.2303 80.7891 82.4379 58.8529 88.8193C45.2334 92.7809 35.8184 102.651 32.6881 115.49C32.2037 115.033 31.7303 114.497 31.2773 113.894Z" fill="#D7441E"/>
<path fill-rule="evenodd" clip-rule="evenodd" d="M99.5147 131.147C96.107 130.623 91.7841 129.205 87.2245 127.351C73.8639 121.922 58.3972 112.837 58.3972 112.837C57.9572 112.578 57.8111 112.011 58.0681 111.571C58.327 111.132 58.8946 110.984 59.3347 111.243C59.3347 111.243 74.67 120.254 87.9198 125.639C92.7012 127.582 99.7643 129.361 99.3501 129.318L99.5147 131.147Z" fill="#8A2208"/>
<path fill-rule="evenodd" clip-rule="evenodd" d="M107.082 80.191L104.297 73.2619C104.297 73.2619 76.9878 83.0273 70.0708 60.602C54.3934 66.9325 36.9354 71.5601 19.6734 74.0642C12.4569 75.1144 5.33648 71.6156 1.75872 65.2605C1.75132 65.2649 1.75132 65.2649 1.75132 65.2649C-1.27545 59.8896 -0.308439 53.151 4.10691 48.8429C8.54629 44.5598 16.1178 39.0192 29.0477 32.6446C29.0477 32.6446 41.9998 25.7957 49.5842 21.7851C52.9734 19.9934 56.9912 19.8374 60.508 21.3611C67.9796 24.5972 80.3234 29.945 80.3234 29.945L81.7656 26.3049C90.3374 27.7323 98.7595 30.329 107.017 33.5425C115.787 36.9662 122.582 44.1073 125.564 53.0347C129.976 66.2384 136.739 86.7382 141.831 103.297L120.546 109.788C115.929 100.105 111.247 90.5016 107.156 80.2032L107.082 80.191Z" fill="#D7441E"/>
<path fill-rule="evenodd" clip-rule="evenodd" d="M100.335 74.3479C99.6581 70.9672 99.499 67.419 99.5619 63.7995C99.5637 63.6003 99.708 63.4312 99.904 63.3945C100.1 63.3578 100.294 63.4635 100.37 63.6477C102.174 68.0466 106.594 78.8124 106.594 78.8124H106.525L104.295 73.2625C104.295 73.2625 102.762 73.8102 100.335 74.3479ZM41.8148 52.4734L19.0928 65.2733C18.6472 65.5236 18.49 66.0879 18.7396 66.5324C18.9911 66.9769 19.555 67.1347 20.0006 66.8841L42.7226 54.0844C43.1682 53.8341 43.3254 53.2698 43.074 52.8253C42.8243 52.3806 42.2604 52.2231 41.8148 52.4734ZM65.2838 62.4614C66.1436 56.2427 68.1885 51.8821 69.6123 49.4766C69.7029 49.3438 69.8785 49.2982 70.0246 49.3694C70.1688 49.4404 70.2409 49.6068 70.191 49.7608C68.7211 55.045 69.9839 60.2665 70.0652 60.5871L70.0689 60.6026C68.4918 61.2396 66.8961 61.8592 65.2838 62.4614Z" fill="#8A2208"/>
<path fill-rule="evenodd" clip-rule="evenodd" d="M30.0352 32.1197L49.5788 21.7851C52.968 19.9934 56.9858 19.8374 60.5025 21.3611L79.7799 29.7122C79.9093 29.7983 80.0277 29.876 80.1331 29.945C83.3466 32.0508 80.8079 34.1327 79.9093 33.8356C82.1041 34.8786 82.0301 36.6118 81.5124 37.3629C80.66 38.6019 77.6092 38.1498 77.6092 38.1498C78.4579 38.4525 79.2363 40.1086 78.5781 41.337C77.5205 43.3119 74.6268 42.1121 74.6268 42.1121C75.1519 44.8662 72.3045 44.8752 68.8303 44.1395C66.14 43.5699 64.9068 42.9671 62.6177 42.3961C58.9179 52.2619 47.8703 51.1224 47.8703 51.1224L40.5909 55.2493L30.0352 32.1197Z" fill="url(#paint1_linear_1290_12558)"/>
<path fill-rule="evenodd" clip-rule="evenodd" d="M74.6442 42.1704L62.2728 37.3681C61.8919 37.2203 61.7033 36.7914 61.8512 36.4109C61.9991 36.0303 62.4281 35.8414 62.8089 35.9891L78.1184 41.9324C76.8574 43.0352 74.6331 42.1131 74.6331 42.1131C74.6368 42.1325 74.6405 42.1515 74.6442 42.1704ZM77.8023 38.24L63.7371 32.7797C63.3562 32.6319 63.1676 32.2031 63.3156 31.8226C63.4635 31.4421 63.8925 31.2531 64.2733 31.4007L80.3945 37.6595C80.5424 37.7168 80.6608 37.8164 80.7421 37.9394C79.5218 38.4333 77.6155 38.1507 77.6155 38.1507C77.6784 38.1733 77.7413 38.2032 77.8023 38.24ZM80.0654 33.8635L65.4234 28.1792C65.0425 28.0315 64.8521 27.6025 65 27.222C65.1479 26.8415 65.5769 26.6525 65.9578 26.8003L81.5409 32.8499C81.2173 33.4874 80.5203 33.8905 80.0654 33.8635Z" fill="#D7441E"/>
</g>
<defs>
<linearGradient id="paint0_linear_1290_12558" x1="113.947" y1="120.311" x2="9.6483" y2="27.89" gradientUnits="userSpaceOnUse">
<stop stop-color="#E86135"/>
<stop offset="0.48" stop-color="#EE734F"/>
<stop offset="1" stop-color="#FFA396"/>
</linearGradient>
<linearGradient id="paint1_linear_1290_12558" x1="55.9319" y1="40.8504" x2="63.4143" y2="-8.2781" gradientUnits="userSpaceOnUse">
<stop stop-color="#E86135"/>
<stop offset="1" stop-color="#FFA396"/>
</linearGradient>
<clipPath id="clip0_1290_12558">
<rect width="205" height="256" fill="white"/>
</clipPath>
</defs>
</svg>
