<svg width="92" height="67" viewBox="0 0 92 67" fill="none" xmlns="http://www.w3.org/2000/svg">
<path d="M46.1859 66.8082C71.1953 66.8082 91.4694 46.704 91.4694 21.9041C91.4694 -2.89575 71.1953 -23 46.1859 -23C21.1765 -23 0.902344 -2.89575 0.902344 21.9041C0.902344 46.704 21.1765 66.8082 46.1859 66.8082Z" fill="#FFCF84"/>
<path fill-rule="evenodd" clip-rule="evenodd" d="M46.1807 -13.1216C65.6741 -13.1216 81.5017 2.57269 81.5017 21.9036C81.5017 41.2346 65.6741 56.9288 46.1807 56.9288C45.3889 56.9288 44.7461 57.5662 44.7461 58.3514C44.7461 59.1367 45.3889 59.774 46.1807 59.774C67.2578 59.774 84.3709 42.805 84.3709 21.9036C84.3709 1.00228 67.2578 -15.9668 46.1807 -15.9668C45.3889 -15.9668 44.7461 -15.3294 44.7461 -14.5442C44.7461 -13.759 45.3889 -13.1216 46.1807 -13.1216Z" fill="#FD9909"/>
<path fill-rule="evenodd" clip-rule="evenodd" d="M46.1824 56.9288C26.6867 56.9288 10.8591 41.2346 10.8591 21.9036C10.8591 2.57269 26.6867 -13.1216 46.1824 -13.1216C46.9742 -13.1216 47.617 -13.759 47.617 -14.5442C47.617 -15.3294 46.9742 -15.9668 46.1824 -15.9668C25.103 -15.9668 7.99219 1.00228 7.99219 21.9036C7.99219 42.805 25.103 59.774 46.1824 59.774C46.9742 59.774 47.617 59.1367 47.617 58.3514C47.617 57.5662 46.9742 56.9288 46.1824 56.9288Z" fill="#FD9909"/>
<path fill-rule="evenodd" clip-rule="evenodd" d="M51.6328 66.4864L50.706 59.0885C50.6085 58.3092 51.168 57.5981 51.9541 57.5011C52.7403 57.4044 53.4548 57.9583 53.5552 58.7377L54.4705 66.0571C53.5351 66.2292 52.5883 66.3726 51.6328 66.4864ZM60.1001 64.6441L57.5349 57.1375C57.2824 56.3938 57.6841 55.5854 58.4359 55.3336C59.1848 55.0815 59.9997 55.4807 60.2522 56.2242L62.803 63.683C61.9164 64.0307 61.0154 64.3514 60.1001 64.6441ZM21.2182 59.3667L25.2066 52.8633C25.6169 52.1924 26.5006 51.979 27.1778 52.3871C27.8549 52.7951 28.0701 53.6708 27.6598 54.3418L23.66 60.8625C22.8279 60.3888 22.013 59.8894 21.2182 59.3667ZM83.4389 47.4192L76.8482 42.5829C76.2141 42.1157 76.0792 41.2243 76.5498 40.5929C77.0203 39.9618 77.9184 39.8287 78.5554 40.2956L84.9999 45.025C84.5063 45.8404 83.9841 46.6391 83.4389 47.4192ZM3.14453 35.9014L10.8888 32.4452C11.609 32.1229 12.4611 32.4427 12.7854 33.1585C13.1096 33.8747 12.7882 34.7175 12.0652 35.0398L4.12872 38.5825C3.77292 37.7024 3.44294 36.8087 3.14453 35.9014ZM90.1216 11.0136C90.3511 11.9304 90.5548 12.8579 90.727 13.7954L83.0918 15.5808C82.3228 15.7612 81.5481 15.2869 81.3673 14.523C81.1837 13.7587 81.6628 12.9919 82.4318 12.8116L90.1216 11.0136ZM8.7626 -3.38108L15.5858 1.04444C16.2486 1.47436 16.4351 2.35667 16.0018 3.01392C15.5686 3.67089 14.6791 3.85555 14.0163 3.42563L7.22179 -0.981956C7.70957 -1.79911 8.22604 -2.5992 8.7626 -3.38108ZM13.2158 -8.87014L18.765 -4.82361C19.402 -4.35842 19.5397 -3.467 19.0691 -2.83478C18.6014 -2.20228 17.7005 -2.06656 17.0635 -2.53176L11.3105 -6.72965C11.9217 -7.46287 12.5587 -8.17675 13.2158 -8.87014ZM72.3548 -14.7328C73.1353 -14.1831 73.8986 -13.6098 74.6417 -13.0125L69.6807 -6.81018C69.1872 -6.19503 68.2833 -6.09203 67.6636 -6.57999C67.0438 -7.06795 66.9405 -7.96364 67.4312 -8.57878L72.3548 -14.7328ZM64.6709 -19.0917C65.546 -18.7022 66.4068 -18.2857 67.2504 -17.8449L63.7527 -11.3393C63.3797 -10.6464 62.5103 -10.3841 61.8102 -10.7534C61.1129 -11.123 60.849 -11.9854 61.222 -12.6782L64.6709 -19.0917ZM36.0267 -21.8633L38.0467 -14.7217C38.259 -13.9657 37.8143 -13.1799 37.051 -12.9679C36.2878 -12.7556 35.4959 -13.1972 35.2835 -13.9535L33.2521 -21.1386C34.1645 -21.4083 35.0884 -21.6502 36.0267 -21.8633Z" fill="#FD9909"/>
</svg>
